  0
SECTION
  2
HEADER
  9
$ACADVER
  1
AC1009
  9
$INSBASE
 10
0.0
 20
0.0
 30
0.0
  9
$EXTMIN
 10
0.0
 20
0.0
 30
0.0
  9
$EXTMAX
 10
0.0
 20
0.0
 30
0.0
  0
ENDSEC
  0
SECTION
  2
TABLES
  0
TABLE
  2
VPORT
 70
0
  0
ENDTAB
  0
TABLE
  2
LTYPE
 70
1
  0
LTYPE
  2
CONTINUOUS
 70
0
  3
Solid line
 72
65
 73
0
 40
0.0
  0
ENDTAB
  0
TABLE
  2
LAYER
 70
1
  0
LAYER
  2
0
 70
64
 62
7
  6
continuous
  0
ENDTAB
  0
TABLE
  2
STYLE
 70
1
  0
STYLE
  2
STANDARD
 70
0
 40
0
 41
1.0
 50
0.0
 71
0
 42
1
 3
ARIAL.TTF
 4

  0
ENDTAB
  0
TABLE
  2
VIEW
 70
0
  0
ENDTAB
  0
ENDSEC
  0
SECTION
  2
BLOCKS
  0
BLOCK
  8
0
  2
FUSION001001
 70
0
 10
0.0
 20
0.0
 30
0.0
  3
FUSION001001
  0
POLYLINE
  8
0
 62
0
 70
0
 66
1
 10
0.0
 20
0.0
 30
0.0
  0
VERTEX
  8
0
 10
11.82439738
 20
22.401539431
 30
0.0
  0
VERTEX
  8
0
 10
11.7879351266
 20
22.4357509683
 30
0.0
  0
VERTEX
  8
0
 10
11.7508873606
 20
22.4693279104
 30
0.0
  0
VERTEX
  8
0
 10
11.7133489544
 20
22.5023556038
 30
0.0
  0
VERTEX
  8
0
 10
11.6753831257
 20
22.5348911845
 30
0.0
  0
VERTEX
  8
0
 10
11.6370354273
 20
22.5669758751
 30
0.0
  0
VERTEX
  8
0
 10
11.5983406212
 20
22.5986411408
 30
0.0
  0
VERTEX
  8
0
 10
11.5593263445
 20
22.6299119911
 30
0.0
  0
VERTEX
  8
0
 10
11.5200152481
 20
22.6608089126
 30
0.0
  0
VERTEX
  8
0
 10
11.4804263354
 20
22.6913490796
 30
0.0
  0
VERTEX
  8
0
 10
11.4405758476
 20
22.7215471568
 30
0.0
  0
VERTEX
  8
0
 10
11.4004778753
 20
22.7514158536
 30
0.0
  0
VERTEX
  8
0
 10
11.360144796
 20
22.7809663216
 30
0.0
  0
VERTEX
  8
0
 10
11.3195875966
 20
22.810208447
 30
0.0
  0
VERTEX
  8
0
 10
11.2788161175
 20
22.8391510722
 30
0.0
  0
VERTEX
  8
0
 10
11.2378392397
 20
22.8678021666
 30
0.0
  0
VERTEX
  8
0
 10
11.1966650327
 20
22.8961689602
 30
0.0
  0
VERTEX
  8
0
 10
11.1553008719
 20
22.924258051
 30
0.0
  0
VERTEX
  8
0
 10
11.1137535338
 20
22.9520754912
 30
0.0
  0
VERTEX
  8
0
 10
11.072029274
 20
22.9796268584
 30
0.0
  0
VERTEX
  8
0
 10
11.030133891
 20
23.0069173139
 30
0.0
  0
VERTEX
  8
0
 10
10.9880727808
 20
23.0339516516
 30
0.0
  0
VERTEX
  8
0
 10
10.9458509815
 20
23.0607343398
 30
0.0
  0
VERTEX
  8
0
 10
10.9034732122
 20
23.0872695557
 30
0.0
  0
VERTEX
  8
0
 10
10.8609439061
 20
23.1135612159
 30
0.0
  0
VERTEX
  8
0
 10
10.8182672385
 20
23.139613002
 30
0.0
  0
VERTEX
  8
0
 10
10.7754471516
 20
23.165428383
 30
0.0
  0
VERTEX
  8
0
 10
10.732487376
 20
23.1910106352
 30
0.0
  0
VERTEX
  8
0
 10
10.6893914494
 20
23.2163628591
 30
0.0
  0
VERTEX
  8
0
 10
10.6461627333
 20
23.2414879944
 30
0.0
  0
VERTEX
  8
0
 10
10.6028044273
 20
23.2663888336
 30
0.0
  0
VERTEX
  8
0
 10
10.5593195824
 20
23.2910680336
 30
0.0
  0
VERTEX
  8
0
 10
10.5157111125
 20
23.3155281266
 30
0.0
  0
VERTEX
  8
0
 10
10.4719818045
 20
23.3397715291
 30
0.0
  0
VERTEX
  8
0
 10
10.4281343282
 20
23.3638005509
 30
0.0
  0
VERTEX
  8
0
 10
10.3841712438
 20
23.3876174024
 30
0.0
  0
VERTEX
  8
0
 10
10.3400950105
 20
23.4112242015
 30
0.0
  0
VERTEX
  8
0
 10
10.2959079922
 20
23.4346229803
 30
0.0
  0
VERTEX
  8
0
 10
10.2516124648
 20
23.45781569
 30
0.0
  0
VERTEX
  8
0
 10
10.2072106212
 20
23.4808042071
 30
0.0
  0
VERTEX
  8
0
 10
10.1627045766
 20
23.5035903372
 30
0.0
  0
VERTEX
  8
0
 10
10.1180963734
 20
23.5261758198
 30
0.0
  0
VERTEX
  8
0
 10
10.0733879853
 20
23.5485623324
 30
0.0
  0
VERTEX
  8
0
 10
10.0285813217
 20
23.5707514937
 30
0.0
  0
VERTEX
  8
0
 10
9.98367823063
 20
23.5927448674
 30
0.0
  0
VERTEX
  8
0
 10
9.93868050302
 20
23.614543965
 30
0.0
  0
VERTEX
  8
0
 10
9.89358987522
 20
23.6361502489
 30
0.0
  0
VERTEX
  8
0
 10
9.84840803208
 20
23.6575651348
 30
0.0
  0
VERTEX
  8
0
 10
9.80313660966
 20
23.6787899945
 30
0.0
  0
VERTEX
  8
0
 10
9.75777719771
 20
23.6998261578
 30
0.0
  0
VERTEX
  8
0
 10
9.71233134195
 20
23.7206749149
 30
0.0
  0
VERTEX
  8
0
 10
9.66680054627
 20
23.7413375185
 30
0.0
  0
VERTEX
  8
0
 10
9.62118627476
 20
23.7618151851
 30
0.0
  0
VERTEX
  8
0
 10
9.57548995352
 20
23.7821090975
 30
0.0
  0
VERTEX
  8
0
 10
9.52971297251
 20
23.8022204056
 30
0.0
  0
VERTEX
  8
0
 10
9.48385668712
 20
23.8221502287
 30
0.0
  0
VERTEX
  8
0
 10
9.43792241975
 20
23.8418996562
 30
0.0
  0
VERTEX
  8
0
 10
9.39191146128
 20
23.8614697496
 30
0.0
  0
VERTEX
  8
0
 10
9.34582507239
 20
23.8808615431
 30
0.0
  0
VERTEX
  8
0
 10
9.29966448486
 20
23.9000760455
 30
0.0
  0
VERTEX
  8
0
 10
9.25343090277
 20
23.9191142407
 30
0.0
  0
VERTEX
  8
0
 10
9.20712550366
 20
23.9379770889
 30
0.0
  0
VERTEX
  8
0
 10
9.16074943956
 20
23.9566655277
 30
0.0
  0
VERTEX
  8
0
 10
9.11430383803
 20
23.9751804733
 30
0.0
  0
VERTEX
  8
0
 10
9.06778980313
 20
23.9935228205
 30
0.0
  0
VERTEX
  8
0
 10
9.02120841629
 20
24.0116934447
 30
0.0
  0
VERTEX
  8
0
 10
8.97456073717
 20
24.0296932017
 30
0.0
  0
VERTEX
  8
0
 10
8.92784780451
 20
24.047522929
 30
0.0
  0
VERTEX
  8
0
 10
8.88107063687
 20
24.0651834464
 30
0.0
  0
VERTEX
  8
0
 10
8.83423023335
 20
24.0826755565
 30
0.0
  0
VERTEX
  8
0
 10
8.78732757429
 20
24.1000000457
 30
0.0
  0
VERTEX
  8
0
 10
8.74036362197
 20
24.1171576843
 30
0.0
  0
VERTEX
  8
0
 10
8.69333932117
 20
24.1341492277
 30
0.0
  0
VERTEX
  8
0
 10
8.64625559982
 20
24.1509754164
 30
0.0
  0
VERTEX
  8
0
 10
8.59911336952
 20
24.1676369768
 30
0.0
  0
VERTEX
  8
0
 10
8.55191352615
 20
24.1841346215
 30
0.0
  0
VERTEX
  8
0
 10
8.50465695029
 20
24.2004690503
 30
0.0
  0
VERTEX
  8
0
 10
8.45734450782
 20
24.21664095
 30
0.0
  0
VERTEX
  8
0
 10
8.4099770503
 20
24.2326509951
 30
0.0
  0
VERTEX
  8
0
 10
8.36255541546
 20
24.2484998485
 30
0.0
  0
VERTEX
  8
0
 10
8.31508042763
 20
24.2641881613
 30
0.0
  0
VERTEX
  8
0
 10
8.26755289815
 20
24.2797165737
 30
0.0
  0
VERTEX
  8
0
 10
8.21997362574
 20
24.2950857152
 30
0.0
  0
VERTEX
  8
0
 10
8.1723433969
 20
24.310296205
 30
0.0
  0
VERTEX
  8
0
 10
8.12466298625
 20
24.325348652
 30
0.0
  0
VERTEX
  8
0
 10
8.07693315691
 20
24.3402436556
 30
0.0
  0
VERTEX
  8
0
 10
8.02915466079
 20
24.3549818058
 30
0.0
  0
VERTEX
  8
0
 10
7.98132823892
 20
24.3695636834
 30
0.0
  0
VERTEX
  8
0
 10
7.93345462175
 20
24.3839898604
 30
0.0
  0
VERTEX
  8
0
 10
7.88553452948
 20
24.3982609004
 30
0.0
  0
VERTEX
  8
0
 10
7.83756867228
 20
24.4123773584
 30
0.0
  0
VERTEX
  8
0
 10
7.7895577506
 20
24.4263397816
 30
0.0
  0
VERTEX
  8
0
 10
7.74150245541
 20
24.4401487094
 30
0.0
  0
VERTEX
  8
0
 10
7.69340346846
 20
24.4538046735
 30
0.0
  0
VERTEX
  8
0
 10
7.64526146253
 20
24.4673081983
 30
0.0
  0
VERTEX
  8
0
 10
7.59707710163
 20
24.4806598012
 30
0.0
  0
VERTEX
  8
0
 10
7.54885104123
 20
24.4938599926
 30
0.0
  0
VERTEX
  8
0
 10
7.5005839285
 20
24.506909276
 30
0.0
  0
VERTEX
  8
0
 10
7.4522764025
 20
24.5198081488
 30
0.0
  0
VERTEX
  8
0
 10
7.40392909435
 20
24.5325571016
 30
0.0
  0
VERTEX
  8
0
 10
7.35554262747
 20
24.5451566192
 30
0.0
  0
VERTEX
  8
0
 10
7.30711761775
 20
24.5576071801
 30
0.0
  0
VERTEX
  8
0
 10
7.25865467368
 20
24.5699092573
 30
0.0
  0
VERTEX
  8
0
 10
7.2101543966
 20
24.5820633179
 30
0.0
  0
VERTEX
  8
0
 10
7.16161738081
 20
24.5940698236
 30
0.0
  0
VERTEX
  8
0
 10
7.11304421375
 20
24.6059292307
 30
0.0
  0
VERTEX
  8
0
 10
7.06443547615
 20
24.6176419904
 30
0.0
  0
VERTEX
  8
0
 10
7.02499584477
 20
24.6270318109
 30
0.0
  0
SEQEND
  8
0
  0
POLYLINE
  8
0
 62
0
 70
0
 66
1
 10
0.0
 20
0.0
 30
0.0
  0
VERTEX
  8
0
 10
5.57544596703
 20
23.0647885862
 30
0.0
  0
VERTEX
  8
0
 10
5.59064238643
 20
23.0171538619
 30
0.0
  0
VERTEX
  8
0
 10
5.60598205882
 20
22.9695650759
 30
0.0
  0
VERTEX
  8
0
 10
5.62146538696
 20
22.9220228353
 30
0.0
  0
VERTEX
  8
0
 10
5.63709277817
 20
22.8745277542
 30
0.0
  0
VERTEX
  8
0
 10
5.65286464452
 20
22.8270804541
 30
0.0
  0
VERTEX
  8
0
 10
5.66878140291
 20
22.7796815632
 30
0.0
  0
VERTEX
  8
0
 10
5.68484347523
 20
22.7323317178
 30
0.0
  0
VERTEX
  8
0
 10
5.70105128852
 20
22.6850315613
 30
0.0
  0
VERTEX
  8
0
 10
5.71740527508
 20
22.6377817452
 30
0.0
  0
VERTEX
  8
0
 10
5.73390587266
 20
22.5905829288
 30
0.0
  0
VERTEX
  8
0
 10
5.7505535246
 20
22.5434357799
 30
0.0
  0
VERTEX
  8
0
 10
5.76734868
 20
22.4963409744
 30
0.0
  0
VERTEX
  8
0
 10
5.78429179391
 20
22.449299197
 30
0.0
  0
VERTEX
  8
0
 10
5.80138332748
 20
22.4023111411
 30
0.0
  0
VERTEX
  8
0
 10
5.81862374813
 20
22.3553775093
 30
0.0
  0
VERTEX
  8
0
 10
5.83601352982
 20
22.3084990135
 30
0.0
  0
VERTEX
  8
0
 10
5.85355315316
 20
22.261676375
 30
0.0
  0
VERTEX
  8
0
 10
5.87124310565
 20
22.2149103252
 30
0.0
  0
VERTEX
  8
0
 10
5.88908388194
 20
22.1682016052
 30
0.0
  0
VERTEX
  8
0
 10
5.90707598396
 20
22.1215509667
 30
0.0
  0
VERTEX
  8
0
 10
5.92521992125
 20
22.0749591722
 30
0.0
  0
VERTEX
  8
0
 10
5.94351621112
 20
22.0284269948
 30
0.0
  0
VERTEX
  8
0
 10
5.96196537896
 20
21.981955219
 30
0.0
  0
VERTEX
  8
0
 10
5.98056795849
 20
21.935544641
 30
0.0
  0
VERTEX
  8
0
 10
5.99932449198
 20
21.8891960688
 30
0.0
  0
VERTEX
  8
0
 10
6.01823553063
 20
21.8429103227
 30
0.0
  0
VERTEX
  8
0
 10
6.03730163478
 20
21.7966882358
 30
0.0
  0
VERTEX
  8
0
 10
6.05652337426
 20
21.7505306541
 30
0.0
  0
VERTEX
  8
0
 10
6.07590132873
 20
21.704438437
 30
0.0
  0
VERTEX
  8
0
 10
6.09543608795
 20
21.6584124578
 30
0.0
  0
VERTEX
  8
0
 10
6.11512825223
 20
21.6124536043
 30
0.0
  0
VERTEX
  8
0
 10
6.1349784327
 20
21.5665627789
 30
0.0
  0
VERTEX
  8
0
 10
6.15498725176
 20
21.5207408993
 30
0.0
  0
VERTEX
  8
0
 10
6.17515534347
 20
21.4749888989
 30
0.0
  0
VERTEX
  8
0
 10
6.19548335396
 20
21.4293077274
 30
0.0
  0
VERTEX
  8
0
 10
6.21597194187
 20
21.3836983515
 30
0.0
  0
VERTEX
  8
0
 10
6.23662177884
 20
21.3381617551
 30
0.0
  0
VERTEX
  8
0
 10
6.25743354996
 20
21.2926989404
 30
0.0
  0
VERTEX
  8
0
 10
6.27840795432
 20
21.2473109279
 30
0.0
  0
VERTEX
  8
0
 10
6.29954570552
 20
21.2019987578
 30
0.0
  0
VERTEX
  8
0
 10
6.32084753224
 20
21.1567634903
 30
0.0
  0
VERTEX
  8
0
 10
6.34231417883
 20
21.1116062064
 30
0.0
  0
VERTEX
  8
0
 10
6.36394640595
 20
21.0665280085
 30
0.0
  0
VERTEX
  8
0
 10
6.38574499121
 20
21.0215300216
 30
0.0
  0
VERTEX
  8
0
 10
6.40771072988
 20
20.9766133941
 30
0.0
  0
VERTEX
  8
0
 10
6.4298444356
 20
20.9317792985
 30
0.0
  0
VERTEX
  8
0
 10
6.4521469412
 20
20.8870289324
 30
0.0
  0
VERTEX
  8
0
 10
6.47461909944
 20
20.8423635198
 30
0.0
  0
VERTEX
  8
0
 10
6.49726178395
 20
20.7977843119
 30
0.0
  0
VERTEX
  8
0
 10
6.52007589012
 20
20.7532925885
 30
0.0
  0
VERTEX
  8
0
 10
6.54306233603
 20
20.708889659
 30
0.0
  0
VERTEX
  8
0
 10
6.56622206355
 20
20.6645768638
 30
0.0
  0
VERTEX
  8
0
 10
6.58955603939
 20
20.6203555758
 30
0.0
  0
VERTEX
  8
0
 10
6.61306525625
 20
20.5762272015
 30
0.0
  0
VERTEX
  8
0
 10
6.63675073409
 20
20.532193183
 30
0.0
  0
VERTEX
  8
0
 10
6.66061352145
 20
20.4882549995
 30
0.0
  0
VERTEX
  8
0
 10
6.68465469681
 20
20.4444141691
 30
0.0
  0
VERTEX
  8
0
 10
6.70887537012
 20
20.4006722503
 30
0.0
  0
VERTEX
  8
0
 10
6.73327668443
 20
20.3570308449
 30
0.0
  0
VERTEX
  8
0
 10
6.75785981754
 20
20.3134915993
 30
0.0
  0
VERTEX
  8
0
 10
6.78262598392
 20
20.2700562073
 30
0.0
  0
VERTEX
  8
0
 10
6.80757643662
 20
20.2267264125
 30
0.0
  0
VERTEX
  8
0
 10
6.83271246942
 20
20.1835040111
 30
0.0
  0
VERTEX
  8
0
 10
6.85803541916
 20
20.1403908545
 30
0.0
  0
VERTEX
  8
0
 10
6.88354666812
 20
20.0973888527
 30
0.0
  0
VERTEX
  8
0
 10
6.90924764677
 20
20.0544999779
 30
0.0
  0
VERTEX
  8
0
 10
6.93513983659
 20
20.0117262674
 30
0.0
  0
VERTEX
  8
0
 10
6.96122477327
 20
19.9690698283
 30
0.0
  0
VERTEX
  8
0
 10
6.98750405001
 20
19.9265328418
 30
0.0
  0
VERTEX
  8
0
 10
7.01397932133
 20
19.8841175671
 30
0.0
  0
VERTEX
  8
0
 10
7.04065230701
 20
19.8418263477
 30
0.0
  0
VERTEX
  8
0
 10
7.06752479655
 20
19.799661616
 30
0.0
  0
VERTEX
  8
0
 10
7.09459865397
 20
19.7576259
 30
0.0
  0
VERTEX
  8
0
 10
7.12187582316
 20
19.71572183
 30
0.0
  0
VERTEX
  8
0
 10
7.14935833368
 20
19.6739521456
 30
0.0
  0
VERTEX
  8
0
 10
7.1770483072
 20
19.6323197047
 30
0.0
  0
VERTEX
  8
0
 10
7.20494796469
 20
19.5908274918
 30
0.0
  0
VERTEX
  8
0
 10
7.23305963434
 20
19.5494786285
 30
0.0
  0
VERTEX
  8
0
 10
7.26138576035
 20
19.508276385
 30
0.0
  0
VERTEX
  8
0
 10
7.2899289129
 20
19.467224192
 30
0.0
  0
VERTEX
  8
0
 10
7.31869179918
 20
19.4263256556
 30
0.0
  0
VERTEX
  8
0
 10
7.3476772759
 20
19.3855845726
 30
0.0
  0
VERTEX
  8
0
 10
7.37688836347
 20
19.3450049493
 30
0.0
  0
VERTEX
  8
0
 10
7.40632826206
 20
19.304591021
 30
0.0
  0
VERTEX
  8
0
 10
7.43600036995
 20
19.2643472765
 30
0.0
  0
VERTEX
  8
0
 10
7.46590830465
 20
19.2242784843
 30
0.0
  0
VERTEX
  8
0
 10
7.49605592723
 20
19.1843897239
 30
0.0
  0
VERTEX
  8
0
 10
7.52644737062
 20
19.1446864222
 30
0.0
  0
VERTEX
  8
0
 10
7.55708707274
 20
19.1051743952
 30
0.0
  0
VERTEX
  8
0
 10
7.58797981546
 20
19.0658598986
 30
0.0
  0
VERTEX
  8
0
 10
7.61913077099
 20
19.0267496864
 30
0.0
  0
VERTEX
  8
0
 10
7.65054555741
 20
18.9878510824
 30
0.0
  0
VERTEX
  8
0
 10
7.68223030592
 20
18.9491720659
 30
0.0
  0
VERTEX
  8
0
 10
7.71419174318
 20
18.9107213772
 30
0.0
  0
VERTEX
  8
0
 10
7.74643729331
 20
18.8725086482
 30
0.0
  0
VERTEX
  8
0
 10
7.77897520618
 20
18.8345445666
 30
0.0
  0
VERTEX
  8
0
 10
7.81181472118
 20
18.7968410856
 30
0.0
  0
VERTEX
  8
0
 10
7.84496628034
 20
18.7594116972
 30
0.0
  0
VERTEX
  8
0
 10
7.87844181158
 20
18.7222717954
 30
0.0
  0
VERTEX
  8
0
 10
7.91225511486
 20
18.6854391712
 30
0.0
  0
VERTEX
  8
0
 10
7.94642240457
 20
18.6489347097
 30
0.0
  0
VERTEX
  8
0
 10
7.98096309993
 20
18.6127834053
 30
0.0
  0
VERTEX
  8
0
 10
8.01590102973
 20
18.5770159123
 30
0.0
  0
VERTEX
  8
0
 10
8.05126637617
 20
18.5416710511
 30
0.0
  0
VERTEX
  8
0
 10
8.08709904702
 20
18.5068001708
 30
0.0
  0
VERTEX
  8
0
 10
8.12345506885
 20
18.4724754797
 30
0.0
  0
VERTEX
  8
0
 10
8.15337514476
 20
18.4451184049
 30
0.0
  0
SEQEND
  8
0
  0
POLYLINE
  8
0
 62
0
 70
0
 66
1
 10
0.0
 20
0.0
 30
0.0
  0
VERTEX
  8
0
 10
6.11777313396
 20
15.4594386189
 30
0.0
  0
VERTEX
  8
0
 10
6.07284676849
 20
15.4813827957
 30
0.0
  0
VERTEX
  8
0
 10
6.0275479534
 20
15.5025479878
 30
0.0
  0
VERTEX
  8
0
 10
5.98194218967
 20
15.5230437139
 30
0.0
  0
VERTEX
  8
0
 10
5.93607304545
 20
15.5429432056
 30
0.0
  0
VERTEX
  8
0
 10
5.88997189914
 20
15.5622992809
 30
0.0
  0
VERTEX
  8
0
 10
5.8436626938
 20
15.5811522533
 30
0.0
  0
VERTEX
  8
0
 10
5.79716446697
 20
15.5995341676
 30
0.0
  0
VERTEX
  8
0
 10
5.75049282481
 20
15.6174712765
 30
0.0
  0
VERTEX
  8
0
 10
5.7036608642
 20
15.6349855927
 30
0.0
  0
VERTEX
  8
0
 10
5.65667978229
 20
15.6520959166
 30
0.0
  0
VERTEX
  8
0
 10
5.60955929743
 20
15.6688185462
 30
0.0
  0
VERTEX
  8
0
 10
5.56230795029
 20
15.6851677859
 30
0.0
  0
VERTEX
  8
0
 10
5.51493332577
 20
15.7011563214
 30
0.0
  0
VERTEX
  8
0
 10
5.46744222053
 20
15.7167955026
 30
0.0
  0
VERTEX
  8
0
 10
5.41984077211
 20
15.7320955625
 30
0.0
  0
VERTEX
  8
0
 10
5.37213456037
 20
15.7470657884
 30
0.0
  0
VERTEX
  8
0
 10
5.32432868832
 20
15.7617146593
 30
0.0
  0
VERTEX
  8
0
 10
5.27642784747
 20
15.7760499558
 30
0.0
  0
VERTEX
  8
0
 10
5.22843637136
 20
15.7900788516
 30
0.0
  0
VERTEX
  8
0
 10
5.18035827977
 20
15.8038079878
 30
0.0
  0
VERTEX
  8
0
 10
5.1321973157
 20
15.8172435359
 30
0.0
  0
VERTEX
  8
0
 10
5.08395697653
 20
15.8303912505
 30
0.0
  0
VERTEX
  8
0
 10
5.03564054048
 20
15.8432565145
 30
0.0
  0
VERTEX
  8
0
 10
4.98725108924
 20
15.855844377
 30
0.0
  0
VERTEX
  8
0
 10
4.93879152748
 20
15.8681595867
 30
0.0
  0
VERTEX
  8
0
 10
4.89026459976
 20
15.8802066206
 30
0.0
  0
VERTEX
  8
0
 10
4.84167290525
 20
15.8919897089
 30
0.0
  0
VERTEX
  8
0
 10
4.79301891062
 20
15.9035128573
 30
0.0
  0
VERTEX
  8
0
 10
4.74430496141
 20
15.9147798656
 30
0.0
  0
VERTEX
  8
0
 10
4.69553329209
 20
15.9257943453
 30
0.0
  0
VERTEX
  8
0
 10
4.64670603493
 20
15.9365597347
 30
0.0
  0
VERTEX
  8
0
 10
4.59782522798
 20
15.9470793122
 30
0.0
  0
VERTEX
  8
0
 10
4.54889282215
 20
15.9573562086
 30
0.0
  0
VERTEX
  8
0
 10
4.49991068762
 20
15.9673934178
 30
0.0
  0
VERTEX
  8
0
 10
4.45088061958
 20
15.9771938068
 30
0.0
  0
VERTEX
  8
0
 10
4.40180434338
 20
15.9867601242
 30
0.0
  0
VERTEX
  8
0
 10
4.35268351928
 20
15.9960950086
 30
0.0
  0
VERTEX
  8
0
 10
4.30351974668
 20
16.0052009954
 30
0.0
  0
VERTEX
  8
0
 10
4.25431456803
 20
16.014080524
 30
0.0
  0
VERTEX
  8
0
 10
4.20506947238
 20
16.0227359433
 30
0.0
  0
VERTEX
  8
0
 10
4.15578589859
 20
16.0311695176
 30
0.0
  0
VERTEX
  8
0
 10
4.10646523836
 20
16.0393834316
 30
0.0
  0
VERTEX
  8
0
 10
4.05710883891
 20
16.0473797947
 30
0.0
  0
VERTEX
  8
0
 10
4.00771800553
 20
16.0551606461
 30
0.0
  0
VERTEX
  8
0
 10
3.95829400389
 20
16.0627279579
 30
0.0
  0
VERTEX
  8
0
 10
3.90883806219
 20
16.0700836394
 30
0.0
  0
VERTEX
  8
0
 10
3.85935137314
 20
16.0772295399
 30
0.0
  0
VERTEX
  8
0
 10
3.80983509579
 20
16.0841674526
 30
0.0
  0
VERTEX
  8
0
 10
3.76029035725
 20
16.0908991168
 30
0.0
  0
VERTEX
  8
0
 10
3.7107182543
 20
16.0974262211
 30
0.0
  0
VERTEX
  8
0
 10
3.66111985481
 20
16.1037504055
 30
0.0
  0
VERTEX
  8
0
 10
3.61149619919
 20
16.1098732644
 30
0.0
  0
VERTEX
  8
0
 10
3.56184830162
 20
16.115796348
 30
0.0
  0
VERTEX
  8
0
 10
3.5121771513
 20
16.1215211651
 30
0.0
  0
VERTEX
  8
0
 10
3.46248371353
 20
16.1270491846
 30
0.0
  0
VERTEX
  8
0
 10
3.41276893083
 20
16.1323818375
 30
0.0
  0
VERTEX
  8
0
 10
3.36303372387
 20
16.1375205184
 30
0.0
  0
VERTEX
  8
0
 10
3.31327899243
 20
16.1424665874
 30
0.0
  0
VERTEX
  8
0
 10
3.26350561627
 20
16.1472213714
 30
0.0
  0
VERTEX
  8
0
 10
3.21371445599
 20
16.1517861654
 30
0.0
  0
VERTEX
  8
0
 10
3.16390635373
 20
16.1561622342
 30
0.0
  0
VERTEX
  8
0
 10
3.11408213397
 20
16.1603508133
 30
0.0
  0
VERTEX
  8
0
 10
3.06424260421
 20
16.1643531103
 30
0.0
  0
VERTEX
  8
0
 10
3.01438855561
 20
16.1681703061
 30
0.0
  0
VERTEX
  8
0
 10
2.96452076359
 20
16.1718035556
 30
0.0
  0
VERTEX
  8
0
 10
2.91463998846
 20
16.1752539891
 30
0.0
  0
VERTEX
  8
0
 10
2.86474697595
 20
16.178522713
 30
0.0
  0
VERTEX
  8
0
 10
2.81484245774
 20
16.181610811
 30
0.0
  0
VERTEX
  8
0
 10
2.76492715194
 20
16.1845193444
 30
0.0
  0
VERTEX
  8
0
 10
2.71500176361
 20
16.1872493537
 30
0.0
  0
VERTEX
  8
0
 10
2.66506698514
 20
16.1898018587
 30
0.0
  0
VERTEX
  8
0
 10
2.61512349674
 20
16.1921778595
 30
0.0
  0
VERTEX
  8
0
 10
2.56517196685
 20
16.1943783373
 30
0.0
  0
VERTEX
  8
0
 10
2.51521305245
 20
16.196404255
 30
0.0
  0
VERTEX
  8
0
 10
2.46524739951
 20
16.1982565576
 30
0.0
  0
VERTEX
  8
0
 10
2.41527564332
 20
16.1999361733
 30
0.0
  0
VERTEX
  8
0
 10
2.36529840881
 20
16.2014440136
 30
0.0
  0
VERTEX
  8
0
 10
2.31531631088
 20
16.2027809742
 30
0.0
  0
VERTEX
  8
0
 10
2.26532995469
 20
16.2039479352
 30
0.0
  0
VERTEX
  8
0
 10
2.215339936
 20
16.2049457619
 30
0.0
  0
VERTEX
  8
0
 10
2.16534684139
 20
16.2057753053
 30
0.0
  0
VERTEX
  8
0
 10
2.11535124856
 20
16.2064374023
 30
0.0
  0
VERTEX
  8
0
 10
2.06535372659
 20
16.2069328762
 30
0.0
  0
VERTEX
  8
0
 10
2.01535483617
 20
16.2072625375
 30
0.0
  0
VERTEX
  8
0
 10
1.96535512984
 20
16.2074271837
 30
0.0
  0
VERTEX
  8
0
 10
1.91535515221
 20
16.2074276003
 30
0.0
  0
VERTEX
  8
0
 10
1.86535544019
 20
16.2072645607
 30
0.0
  0
VERTEX
  8
0
 10
1.81535652318
 20
16.2069388268
 30
0.0
  0
VERTEX
  8
0
 10
1.76535892329
 20
16.2064511493
 30
0.0
  0
VERTEX
  8
0
 10
1.7153631555
 20
16.2058022681
 30
0.0
  0
VERTEX
  8
0
 10
1.66536972787
 20
16.2049929124
 30
0.0
  0
VERTEX
  8
0
 10
1.6153791417
 20
16.2040238014
 30
0.0
  0
VERTEX
  8
0
 10
1.56539189171
 20
16.202895644
 30
0.0
  0
VERTEX
  8
0
 10
1.51540846621
 20
16.2016091398
 30
0.0
  0
VERTEX
  8
0
 10
1.46542934722
 20
16.2001649787
 30
0.0
  0
VERTEX
  8
0
 10
1.41545501067
 20
16.1985638417
 30
0.0
  0
VERTEX
  8
0
 10
1.3654859265
 20
16.1968064009
 30
0.0
  0
VERTEX
  8
0
 10
1.31552255885
 20
16.1948933197
 30
0.0
  0
VERTEX
  8
0
 10
1.26556536614
 20
16.1928252531
 30
0.0
  0
VERTEX
  8
0
 10
1.21561480123
 20
16.1906028479
 30
0.0
  0
VERTEX
  8
0
 10
1.16567131155
 20
16.1882267432
 30
0.0
  0
VERTEX
  8
0
 10
1.11573533921
 20
16.1856975701
 30
0.0
  0
VERTEX
  8
0
 10
1.06580732111
 20
16.1830159522
 30
0.0
  0
VERTEX
  8
0
 10
1.01588768907
 20
16.180182506
 30
0.0
  0
VERTEX
  8
0
 10
0.965976869923
 20
16.1771978406
 30
0.0
  0
VERTEX
  8
0
 10
0.916075285636
 20
16.1740625583
 30
0.0
  0
VERTEX
  8
0
 10
0.875620148225
 20
16.17141018
 30
0.0
  0
SEQEND
  8
0
  0
POLYLINE
  8
0
 62
0
 70
0
 66
1
 10
0.0
 20
0.0
 30
0.0
  0
VERTEX
  8
0
 10
-0.0490510214135
 20
14.2513107115
 30
0.0
  0
VERTEX
  8
0
 10
-0.0204891548219
 20
14.2102714876
 30
0.0
  0
VERTEX
  8
0
 10
0.00819605989763
 20
14.1693183856
 30
0.0
  0
VERTEX
  8
0
 10
0.0370048286286
 20
14.1284521044
 30
0.0
  0
VERTEX
  8
0
 10
0.0659373595894
 20
14.087673351
 30
0.0
  0
VERTEX
  8
0
 10
0.0949938634095
 20
14.0469828405
 30
0.0
  0
VERTEX
  8
0
 10
0.12417455321
 20
14.0063812963
 30
0.0
  0
VERTEX
  8
0
 10
0.153479644682
 20
13.9658694505
 30
0.0
  0
VERTEX
  8
0
 10
0.182909356178
 20
13.9254480441
 30
0.0
  0
VERTEX
  8
0
 10
0.212463908794
 20
13.8851178269
 30
0.0
  0
VERTEX
  8
0
 10
0.24214352646
 20
13.8448795581
 30
0.0
  0
VERTEX
  8
0
 10
0.271948436039
 20
13.8047340062
 30
0.0
  0
VERTEX
  8
0
 10
0.301878867423
 20
13.7646819498
 30
0.0
  0
VERTEX
  8
0
 10
0.331935053631
 20
13.724724177
 30
0.0
  0
VERTEX
  8
0
 10
0.362117230917
 20
13.6848614866
 30
0.0
  0
VERTEX
  8
0
 10
0.39242563888
 20
13.6450946876
 30
0.0
  0
VERTEX
  8
0
 10
0.422860520573
 20
13.6054245999
 30
0.0
  0
VERTEX
  8
0
 10
0.453422122623
 20
13.5658520546
 30
0.0
  0
VERTEX
  8
0
 10
0.484110695354
 20
13.5263778942
 30
0.0
  0
VERTEX
  8
0
 10
0.514926492909
 20
13.4870029727
 30
0.0
  0
VERTEX
  8
0
 10
0.545869773387
 20
13.4477281564
 30
0.0
  0
VERTEX
  8
0
 10
0.576940798977
 20
13.4085543239
 30
0.0
  0
VERTEX
  8
0
 10
0.608139836098
 20
13.3694823667
 30
0.0
  0
VERTEX
  8
0
 10
0.639467155553
 20
13.3305131892
 30
0.0
  0
VERTEX
  8
0
 10
0.670923032675
 20
13.2916477096
 30
0.0
  0
VERTEX
  8
0
 10
0.702507747495
 20
13.2528868597
 30
0.0
  0
VERTEX
  8
0
 10
0.734221584906
 20
13.214231586
 30
0.0
  0
VERTEX
  8
0
 10
0.766064834835
 20
13.1756828495
 30
0.0
  0
VERTEX
  8
0
 10
0.798037792428
 20
13.1372416268
 30
0.0
  0
VERTEX
  8
0
 10
0.830140758241
 20
13.0989089099
 30
0.0
  0
VERTEX
  8
0
 10
0.862374038431
 20
13.0606857073
 30
0.0
  0
VERTEX
  8
0
 10
0.894737944971
 20
13.022573044
 30
0.0
  0
VERTEX
  8
0
 10
0.927232795861
 20
12.9845719626
 30
0.0
  0
VERTEX
  8
0
 10
0.959858915356
 20
12.9466835235
 30
0.0
  0
VERTEX
  8
0
 10
0.9926166342
 20
12.9089088055
 30
0.0
  0
VERTEX
  8
0
 10
1.02550628988
 20
12.8712489066
 30
0.0
  0
VERTEX
  8
0
 10
1.05852822687
 20
12.8337049446
 30
0.0
  0
VERTEX
  8
0
 10
1.09168279693
 20
12.7962780577
 30
0.0
  0
VERTEX
  8
0
 10
1.12497035936
 20
12.7589694054
 30
0.0
  0
VERTEX
  8
0
 10
1.15839128131
 20
12.7217801692
 30
0.0
  0
VERTEX
  8
0
 10
1.19194593812
 20
12.6847115533
 30
0.0
  0
VERTEX
  8
0
 10
1.2256347136
 20
12.6477647855
 30
0.0
  0
VERTEX
  8
0
 10
1.25945800043
 20
12.6109411181
 30
0.0
  0
VERTEX
  8
0
 10
1.29341620048
 20
12.5742418289
 30
0.0
  0
VERTEX
  8
0
 10
1.32750972522
 20
12.5376682222
 30
0.0
  0
VERTEX
  8
0
 10
1.36173899612
 20
12.5012216295
 30
0.0
  0
VERTEX
  8
0
 10
1.39610444509
 20
12.4649034113
 30
0.0
  0
VERTEX
  8
0
 10
1.43060651489
 20
12.4287149573
 30
0.0
  0
VERTEX
  8
0
 10
1.46524565968
 20
12.3926576886
 30
0.0
  0
VERTEX
  8
0
 10
1.50002234544
 20
12.3567330583
 30
0.0
  0
VERTEX
  8
0
 10
1.53493705056
 20
12.3209425531
 30
0.0
  0
VERTEX
  8
0
 10
1.56999026641
 20
12.2852876951
 30
0.0
  0
VERTEX
  8
0
 10
1.6051824979
 20
12.2497700426
 30
0.0
  0
VERTEX
  8
0
 10
1.64051426413
 20
12.2143911924
 30
0.0
  0
VERTEX
  8
0
 10
1.67598609911
 20
12.1791527812
 30
0.0
  0
VERTEX
  8
0
 10
1.71159855243
 20
12.1440564878
 30
0.0
  0
VERTEX
  8
0
 10
1.74735219003
 20
12.1091040346
 30
0.0
  0
VERTEX
  8
0
 10
1.78324759505
 20
12.0742971901
 30
0.0
  0
VERTEX
  8
0
 10
1.81928536869
 20
12.0396377709
 30
0.0
  0
VERTEX
  8
0
 10
1.85546613114
 20
12.0051276443
 30
0.0
  0
VERTEX
  8
0
 10
1.89179052256
 20
11.9707687309
 30
0.0
  0
VERTEX
  8
0
 10
1.9282592042
 20
11.9365630071
 30
0.0
  0
VERTEX
  8
0
 10
1.9648728595
 20
11.9025125086
 30
0.0
  0
VERTEX
  8
0
 10
2.00163219538
 20
11.8686193329
 30
0.0
  0
VERTEX
  8
0
 10
2.0385379435
 20
11.8348856434
 30
0.0
  0
VERTEX
  8
0
 10
2.07559086177
 20
11.8013136726
 30
0.0
  0
VERTEX
  8
0
 10
2.11279173584
 20
11.7679057265
 30
0.0
  0
VERTEX
  8
0
 10
2.15014138081
 20
11.7346641889
 30
0.0
  0
VERTEX
  8
0
 10
2.18764064306
 20
11.7015915258
 30
0.0
  0
VERTEX
  8
0
 10
2.22529040218
 20
11.668690291
 30
0.0
  0
VERTEX
  8
0
 10
2.26309157315
 20
11.6359631312
 30
0.0
  0
VERTEX
  8
0
 10
2.30104510867
 20
11.6034127926
 30
0.0
  0
VERTEX
  8
0
 10
2.33915200174
 20
11.5710421269
 30
0.0
  0
VERTEX
  8
0
 10
2.37741328844
 20
11.5388540994
 30
0.0
  0
VERTEX
  8
0
 10
2.41583005102
 20
11.5068517964
 30
0.0
  0
VERTEX
  8
0
 10
2.45440342129
 20
11.4750384341
 30
0.0
  0
VERTEX
  8
0
 10
2.49313458437
 20
11.4434173687
 30
0.0
  0
VERTEX
  8
0
 10
2.53202478282
 20
11.4119921068
 30
0.0
  0
VERTEX
  8
0
 10
2.57107532125
 20
11.3807663176
 30
0.0
  0
VERTEX
  8
0
 10
2.61028757145
 20
11.3497438463
 30
0.0
  0
VERTEX
  8
0
 10
2.64966297812
 20
11.318928729
 30
0.0
  0
VERTEX
  8
0
 10
2.6892030653
 20
11.2883252094
 30
0.0
  0
VERTEX
  8
0
 10
2.72890944362
 20
11.2579377577
 30
0.0
  0
VERTEX
  8
0
 10
2.7687838185
 20
11.2277710923
 30
0.0
  0
VERTEX
  8
0
 10
2.80882799946
 20
11.197830204
 30
0.0
  0
VERTEX
  8
0
 10
2.84904391078
 20
11.1681203835
 30
0.0
  0
VERTEX
  8
0
 10
2.88943360369
 20
11.1386472538
 30
0.0
  0
VERTEX
  8
0
 10
2.92999927051
 20
11.1094168069
 30
0.0
  0
VERTEX
  8
0
 10
2.97074326098
 20
11.0804354466
 30
0.0
  0
VERTEX
  8
0
 10
3.0116681015
 20
11.0517100389
 30
0.0
  0
VERTEX
  8
0
 10
3.05277651765
 20
11.0232479708
 30
0.0
  0
VERTEX
  8
0
 10
3.09407146104
 20
10.995057221
 30
0.0
  0
VERTEX
  8
0
 10
3.13555614145
 20
10.9671464436
 30
0.0
  0
VERTEX
  8
0
 10
3.17723406574
 20
10.9395250709
 30
0.0
  0
VERTEX
  8
0
 10
3.21910908546
 20
10.9122034374
 30
0.0
  0
VERTEX
  8
0
 10
3.26118545587
 20
10.8851929355
 30
0.0
  0
VERTEX
  8
0
 10
3.30346791007
 20
10.8585062097
 30
0.0
  0
VERTEX
  8
0
 10
3.34596175368
 20
10.8321574056
 30
0.0
  0
VERTEX
  8
0
 10
3.38867298798
 20
10.8061624935
 30
0.0
  0
VERTEX
  8
0
 10
3.43160847355
 20
10.7805396993
 30
0.0
  0
VERTEX
  8
0
 10
3.47477615319
 20
10.7553100914
 30
0.0
  0
VERTEX
  8
0
 10
3.518185365
 20
10.7304984062
 30
0.0
  0
VERTEX
  8
0
 10
3.56184729821
 20
10.7061342514
 30
0.0
  0
VERTEX
  8
0
 10
3.60577568746
 20
10.6822539434
 30
0.0
  0
VERTEX
  8
0
 10
3.64998793153
 20
10.658903474
 30
0.0
  0
VERTEX
  8
0
 10
3.69450702974
 20
10.6361436743
 30
0.0
  0
VERTEX
  8
0
 10
3.73936523583
 20
10.6140600585
 30
0.0
  0
VERTEX
  8
0
 10
3.77601968608
 20
10.5967374789
 30
0.0
  0
SEQEND
  8
0
  0
POLYLINE
  8
0
 62
0
 70
0
 66
1
 10
0.0
 20
0.0
 30
0.0
  0
VERTEX
  8
0
 10
2.71089832721
 20
7.14369884291
 30
0.0
  0
VERTEX
  8
0
 10
2.66149975445
 20
7.15142582281
 30
0.0
  0
VERTEX
  8
0
 10
2.61197488873
 20
7.15829864464
 30
0.0
  0
VERTEX
  8
0
 10
2.56235403979
 20
7.16444126836
 30
0.0
  0
VERTEX
  8
0
 10
2.5126572548
 20
7.16993651384
 30
0.0
  0
VERTEX
  8
0
 10
2.46289894972
 20
7.17484410163
 30
0.0
  0
VERTEX
  8
0
 10
2.41309012127
 20
7.17920961147
 30
0.0
  0
VERTEX
  8
0
 10
2.36323951584
 20
7.18306927593
 30
0.0
  0
VERTEX
  8
0
 10
2.31335430814
 20
7.18645278134
 30
0.0
  0
VERTEX
  8
0
 10
2.26344052481
 20
7.18938502289
 30
0.0
  0
VERTEX
  8
0
 10
2.21350332406
 20
7.19188726609
 30
0.0
  0
VERTEX
  8
0
 10
2.16354718852
 20
7.19397794946
 30
0.0
  0
VERTEX
  8
0
 10
2.11357606314
 20
7.1956732593
 30
0.0
  0
VERTEX
  8
0
 10
2.06359345671
 20
7.19698755328
 30
0.0
  0
VERTEX
  8
0
 10
2.01360251844
 20
7.19793368054
 30
0.0
  0
VERTEX
  8
0
 10
1.963606097
 20
7.19852322845
 30
0.0
  0
VERTEX
  8
0
 10
1.91360678683
 20
7.19876671651
 30
0.0
  0
VERTEX
  8
0
 10
1.86360696506
 20
7.19867375095
 30
0.0
  0
VERTEX
  8
0
 10
1.81360882134
 20
7.1982531498
 30
0.0
  0
VERTEX
  8
0
 10
1.76361438224
 20
7.19751304518
 30
0.0
  0
VERTEX
  8
0
 10
1.71362553143
 20
7.19646096809
 30
0.0
  0
VERTEX
  8
0
 10
1.66364402654
 20
7.19510391912
 30
0.0
  0
VERTEX
  8
0
 10
1.61367151336
 20
7.19344842815
 30
0.0
  0
VERTEX
  8
0
 10
1.56370953786
 20
7.19150060501
 30
0.0
  0
VERTEX
  8
0
 10
1.51375955658
 20
7.18926618292
 30
0.0
  0
VERTEX
  8
0
 10
1.46382294541
 20
7.1867505558
 30
0.0
  0
VERTEX
  8
0
 10
1.41390100735
 20
7.18395881073
 30
0.0
  0
VERTEX
  8
0
 10
1.36399497922
 20
7.18089575617
 30
0.0
  0
VERTEX
  8
0
 10
1.31410603745
 20
7.17756594671
 30
0.0
  0
VERTEX
  8
0
 10
1.26423530334
 20
7.17397370483
 30
0.0
  0
VERTEX
  8
0
 10
1.21438384755
 20
7.17012314022
 30
0.0
  0
VERTEX
  8
0
 10
1.1645526942
 20
7.16601816685
 30
0.0
  0
VERTEX
  8
0
 10
1.11474282445
 20
7.16166251827
 30
0.0
  0
VERTEX
  8
0
 10
1.06495517973
 20
7.15705976118
 30
0.0
  0
VERTEX
  8
0
 10
1.01519066465
 20
7.15221330777
 30
0.0
  0
VERTEX
  8
0
 10
0.965450149592
 20
7.14712642672
 30
0.0
  0
VERTEX
  8
0
 10
0.915734473084
 20
7.14180225316
 30
0.0
  0
VERTEX
  8
0
 10
0.866044443906
 20
7.13624379772
 30
0.0
  0
VERTEX
  8
0
 10
0.816380843039
 20
7.13045395475
 30
0.0
  0
VERTEX
  8
0
 10
0.766744425424
 20
7.12443550978
 30
0.0
  0
VERTEX
  8
0
 10
0.717135921572
 20
7.11819114634
 30
0.0
  0
VERTEX
  8
0
 10
0.667556039026
 20
7.11172345221
 30
0.0
  0
VERTEX
  8
0
 10
0.618005463714
 20
7.10503492517
 30
0.0
  0
VERTEX
  8
0
 10
0.568484861186
 20
7.09812797823
 30
0.0
  0
VERTEX
  8
0
 10
0.518994877747
 20
7.09100494451
 30
0.0
  0
VERTEX
  8
0
 10
0.469536141513
 20
7.08366808168
 30
0.0
  0
VERTEX
  8
0
 10
0.420109263375
 20
7.07611957611
 30
0.0
  0
VERTEX
  8
0
 10
0.370714837897
 20
7.06836154671
 30
0.0
  0
VERTEX
  8
0
 10
0.32135344415
 20
7.06039604844
 30
0.0
  0
VERTEX
  8
0
 10
0.272025646479
 20
7.05222507564
 30
0.0
  0
VERTEX
  8
0
 10
0.222731995221
 20
7.0438505651
 30
0.0
  0
VERTEX
  8
0
 10
0.173473027373
 20
7.03527439888
 30
0.0
  0
VERTEX
  8
0
 10
0.124249267216
 20
7.026498407
 30
0.0
  0
VERTEX
  8
0
 10
0.0750612268896
 20
7.01752436993
 30
0.0
  0
VERTEX
  8
0
 10
0.0259094069413
 20
7.00835402091
 30
0.0
  0
VERTEX
  8
0
 10
-0.0232057031699
 20
6.99898904812
 30
0.0
  0
VERTEX
  8
0
 10
-0.0722836245965
 20
6.98943109675
 30
0.0
  0
VERTEX
  8
0
 10
-0.121323888657
 20
6.97968177091
 30
0.0
  0
VERTEX
  8
0
 10
-0.170326036415
 20
6.96974263541
 30
0.0
  0
VERTEX
  8
0
 10
-0.21928961829
 20
6.95961521747
 30
0.0
  0
VERTEX
  8
0
 10
-0.268214193681
 20
6.94930100835
 30
0.0
  0
VERTEX
  8
0
 10
-0.317099330623
 20
6.9388014648
 30
0.0
  0
VERTEX
  8
0
 10
-0.365944605455
 20
6.9281180105
 30
0.0
  0
VERTEX
  8
0
 10
-0.41474960251
 20
6.91725203744
 30
0.0
  0
VERTEX
  8
0
 10
-0.463513913823
 20
6.90620490712
 30
0.0
  0
VERTEX
  8
0
 10
-0.512237138853
 20
6.89497795181
 30
0.0
  0
VERTEX
  8
0
 10
-0.560918884223
 20
6.88357247566
 30
0.0
  0
VERTEX
  8
0
 10
-0.609558763469
 20
6.87198975576
 30
0.0
  0
VERTEX
  8
0
 10
-0.658156396805
 20
6.8602310432
 30
0.0
  0
VERTEX
  8
0
 10
-0.706711410904
 20
6.84829756401
 30
0.0
  0
VERTEX
  8
0
 10
-0.75522343868
 20
6.8361905201
 30
0.0
  0
VERTEX
  8
0
 10
-0.803692119095
 20
6.82391109009
 30
0.0
  0
VERTEX
  8
0
 10
-0.852117096961
 20
6.81146043022
 30
0.0
  0
VERTEX
  8
0
 10
-0.900498022763
 20
6.79883967508
 30
0.0
  0
VERTEX
  8
0
 10
-0.948834552484
 20
6.78604993837
 30
0.0
  0
VERTEX
  8
0
 10
-0.99712634744
 20
6.77309231367
 30
0.0
  0
VERTEX
  8
0
 10
-1.04537307413
 20
6.75996787504
 30
0.0
  0
VERTEX
  8
0
 10
-1.09357440407
 20
6.74667767776
 30
0.0
  0
VERTEX
  8
0
 10
-1.14173001367
 20
6.73322275891
 30
0.0
  0
VERTEX
  8
0
 10
-1.1898395841
 20
6.71960413797
 30
0.0
  0
VERTEX
  8
0
 10
-1.23790280112
 20
6.7058228174
 30
0.0
  0
VERTEX
  8
0
 10
-1.28591935501
 20
6.69187978318
 30
0.0
  0
VERTEX
  8
0
 10
-1.33388894043
 20
6.67777600535
 30
0.0
  0
VERTEX
  8
0
 10
-1.38181125629
 20
6.66351243846
 30
0.0
  0
VERTEX
  8
0
 10
-1.42968600566
 20
6.64909002213
 30
0.0
  0
VERTEX
  8
0
 10
-1.47751289566
 20
6.63450968144
 30
0.0
  0
VERTEX
  8
0
 10
-1.52529163736
 20
6.61977232738
 30
0.0
  0
VERTEX
  8
0
 10
-1.57302194569
 20
6.60487885732
 30
0.0
  0
VERTEX
  8
0
 10
-1.62070353935
 20
6.58983015536
 30
0.0
  0
VERTEX
  8
0
 10
-1.6683361407
 20
6.57462709274
 30
0.0
  0
VERTEX
  8
0
 10
-1.71591947571
 20
6.55927052825
 30
0.0
  0
VERTEX
  8
0
 10
-1.76345327385
 20
6.54376130851
 30
0.0
  0
VERTEX
  8
0
 10
-1.81093726804
 20
6.52810026839
 30
0.0
  0
VERTEX
  8
0
 10
-1.85837119455
 20
6.5122882313
 30
0.0
  0
VERTEX
  8
0
 10
-1.90575479292
 20
6.49632600954
 30
0.0
  0
VERTEX
  8
0
 10
-1.95308780594
 20
6.48021440457
 30
0.0
  0
VERTEX
  8
0
 10
-2.00036997953
 20
6.46395420735
 30
0.0
  0
VERTEX
  8
0
 10
-2.04760106271
 20
6.44754619859
 30
0.0
  0
VERTEX
  8
0
 10
-2.09478080754
 20
6.43099114905
 30
0.0
  0
VERTEX
  8
0
 10
-2.14190896901
 20
6.41428981977
 30
0.0
  0
VERTEX
  8
0
 10
-2.18898530505
 20
6.39744296238
 30
0.0
  0
VERTEX
  8
0
 10
-2.23600957645
 20
6.38045131931
 30
0.0
  0
VERTEX
  8
0
 10
-2.28298154679
 20
6.36331562401
 30
0.0
  0
VERTEX
  8
0
 10
-2.32990098239
 20
6.34603660124
 30
0.0
  0
VERTEX
  8
0
 10
-2.37676765231
 20
6.32861496723
 30
0.0
  0
VERTEX
  8
0
 10
-2.42358132823
 20
6.31105142994
 30
0.0
  0
VERTEX
  8
0
 10
-2.47034178445
 20
6.29334668924
 30
0.0
  0
VERTEX
  8
0
 10
-2.5082178114
 20
6.27888778761
 30
0.0
  0
SEQEND
  8
0
  0
POLYLINE
  8
0
 62
0
 70
0
 66
1
 10
0.0
 20
0.0
 30
0.0
  0
VERTEX
  8
0
 10
2.71089832721
 20
7.14369884291
 30
0.0
  0
VERTEX
  8
0
 10
2.66149975445
 20
7.15142582281
 30
0.0
  0
VERTEX
  8
0
 10
2.61197488873
 20
7.15829864464
 30
0.0
  0
VERTEX
  8
0
 10
2.56235403979
 20
7.16444126836
 30
0.0
  0
VERTEX
  8
0
 10
2.5126572548
 20
7.16993651384
 30
0.0
  0
VERTEX
  8
0
 10
2.46289894972
 20
7.17484410163
 30
0.0
  0
VERTEX
  8
0
 10
2.41309012127
 20
7.17920961147
 30
0.0
  0
VERTEX
  8
0
 10
2.36323951584
 20
7.18306927593
 30
0.0
  0
VERTEX
  8
0
 10
2.31335430814
 20
7.18645278134
 30
0.0
  0
VERTEX
  8
0
 10
2.26344052481
 20
7.18938502289
 30
0.0
  0
VERTEX
  8
0
 10
2.21350332406
 20
7.19188726609
 30
0.0
  0
VERTEX
  8
0
 10
2.16354718852
 20
7.19397794946
 30
0.0
  0
VERTEX
  8
0
 10
2.11357606314
 20
7.1956732593
 30
0.0
  0
VERTEX
  8
0
 10
2.06359345671
 20
7.19698755328
 30
0.0
  0
VERTEX
  8
0
 10
2.01360251844
 20
7.19793368054
 30
0.0
  0
VERTEX
  8
0
 10
1.963606097
 20
7.19852322845
 30
0.0
  0
VERTEX
  8
0
 10
1.91360678683
 20
7.19876671651
 30
0.0
  0
VERTEX
  8
0
 10
1.86360696506
 20
7.19867375095
 30
0.0
  0
VERTEX
  8
0
 10
1.81360882134
 20
7.1982531498
 30
0.0
  0
VERTEX
  8
0
 10
1.76361438224
 20
7.19751304518
 30
0.0
  0
VERTEX
  8
0
 10
1.71362553143
 20
7.19646096809
 30
0.0
  0
VERTEX
  8
0
 10
1.66364402654
 20
7.19510391912
 30
0.0
  0
VERTEX
  8
0
 10
1.61367151336
 20
7.19344842815
 30
0.0
  0
VERTEX
  8
0
 10
1.56370953786
 20
7.19150060501
 30
0.0
  0
VERTEX
  8
0
 10
1.51375955658
 20
7.18926618292
 30
0.0
  0
VERTEX
  8
0
 10
1.46382294541
 20
7.1867505558
 30
0.0
  0
VERTEX
  8
0
 10
1.41390100735
 20
7.18395881073
 30
0.0
  0
VERTEX
  8
0
 10
1.36399497922
 20
7.18089575617
 30
0.0
  0
VERTEX
  8
0
 10
1.31410603745
 20
7.17756594671
 30
0.0
  0
VERTEX
  8
0
 10
1.26423530334
 20
7.17397370483
 30
0.0
  0
VERTEX
  8
0
 10
1.21438384755
 20
7.17012314022
 30
0.0
  0
VERTEX
  8
0
 10
1.1645526942
 20
7.16601816685
 30
0.0
  0
VERTEX
  8
0
 10
1.11474282445
 20
7.16166251827
 30
0.0
  0
VERTEX
  8
0
 10
1.06495517973
 20
7.15705976118
 30
0.0
  0
VERTEX
  8
0
 10
1.01519066465
 20
7.15221330777
 30
0.0
  0
VERTEX
  8
0
 10
0.965450149592
 20
7.14712642672
 30
0.0
  0
VERTEX
  8
0
 10
0.915734473084
 20
7.14180225316
 30
0.0
  0
VERTEX
  8
0
 10
0.866044443906
 20
7.13624379772
 30
0.0
  0
VERTEX
  8
0
 10
0.816380843039
 20
7.13045395475
 30
0.0
  0
VERTEX
  8
0
 10
0.766744425424
 20
7.12443550978
 30
0.0
  0
VERTEX
  8
0
 10
0.717135921572
 20
7.11819114634
 30
0.0
  0
VERTEX
  8
0
 10
0.667556039026
 20
7.11172345221
 30
0.0
  0
VERTEX
  8
0
 10
0.618005463714
 20
7.10503492517
 30
0.0
  0
VERTEX
  8
0
 10
0.568484861186
 20
7.09812797823
 30
0.0
  0
VERTEX
  8
0
 10
0.518994877747
 20
7.09100494451
 30
0.0
  0
VERTEX
  8
0
 10
0.469536141513
 20
7.08366808168
 30
0.0
  0
VERTEX
  8
0
 10
0.420109263375
 20
7.07611957611
 30
0.0
  0
VERTEX
  8
0
 10
0.370714837897
 20
7.06836154671
 30
0.0
  0
VERTEX
  8
0
 10
0.32135344415
 20
7.06039604844
 30
0.0
  0
VERTEX
  8
0
 10
0.272025646479
 20
7.05222507564
 30
0.0
  0
VERTEX
  8
0
 10
0.222731995221
 20
7.0438505651
 30
0.0
  0
VERTEX
  8
0
 10
0.173473027373
 20
7.03527439888
 30
0.0
  0
VERTEX
  8
0
 10
0.124249267216
 20
7.026498407
 30
0.0
  0
VERTEX
  8
0
 10
0.0750612268896
 20
7.01752436993
 30
0.0
  0
VERTEX
  8
0
 10
0.0259094069413
 20
7.00835402091
 30
0.0
  0
VERTEX
  8
0
 10
-0.0232057031699
 20
6.99898904812
 30
0.0
  0
VERTEX
  8
0
 10
-0.0722836245965
 20
6.98943109675
 30
0.0
  0
VERTEX
  8
0
 10
-0.121323888657
 20
6.97968177091
 30
0.0
  0
VERTEX
  8
0
 10
-0.170326036415
 20
6.96974263541
 30
0.0
  0
VERTEX
  8
0
 10
-0.21928961829
 20
6.95961521747
 30
0.0
  0
VERTEX
  8
0
 10
-0.268214193681
 20
6.94930100835
 30
0.0
  0
VERTEX
  8
0
 10
-0.317099330623
 20
6.9388014648
 30
0.0
  0
VERTEX
  8
0
 10
-0.365944605455
 20
6.9281180105
 30
0.0
  0
VERTEX
  8
0
 10
-0.41474960251
 20
6.91725203744
 30
0.0
  0
VERTEX
  8
0
 10
-0.463513913823
 20
6.90620490712
 30
0.0
  0
VERTEX
  8
0
 10
-0.512237138853
 20
6.89497795181
 30
0.0
  0
VERTEX
  8
0
 10
-0.560918884223
 20
6.88357247566
 30
0.0
  0
VERTEX
  8
0
 10
-0.609558763469
 20
6.87198975576
 30
0.0
  0
VERTEX
  8
0
 10
-0.658156396805
 20
6.8602310432
 30
0.0
  0
VERTEX
  8
0
 10
-0.706711410904
 20
6.84829756401
 30
0.0
  0
VERTEX
  8
0
 10
-0.75522343868
 20
6.8361905201
 30
0.0
  0
VERTEX
  8
0
 10
-0.803692119095
 20
6.82391109009
 30
0.0
  0
VERTEX
  8
0
 10
-0.852117096961
 20
6.81146043022
 30
0.0
  0
VERTEX
  8
0
 10
-0.900498022763
 20
6.79883967508
 30
0.0
  0
VERTEX
  8
0
 10
-0.948834552484
 20
6.78604993837
 30
0.0
  0
VERTEX
  8
0
 10
-0.99712634744
 20
6.77309231367
 30
0.0
  0
VERTEX
  8
0
 10
-1.04537307413
 20
6.75996787504
 30
0.0
  0
VERTEX
  8
0
 10
-1.09357440407
 20
6.74667767776
 30
0.0
  0
VERTEX
  8
0
 10
-1.14173001367
 20
6.73322275891
 30
0.0
  0
VERTEX
  8
0
 10
-1.1898395841
 20
6.71960413797
 30
0.0
  0
VERTEX
  8
0
 10
-1.23790280112
 20
6.7058228174
 30
0.0
  0
VERTEX
  8
0
 10
-1.28591935501
 20
6.69187978318
 30
0.0
  0
VERTEX
  8
0
 10
-1.33388894043
 20
6.67777600535
 30
0.0
  0
VERTEX
  8
0
 10
-1.38181125629
 20
6.66351243846
 30
0.0
  0
VERTEX
  8
0
 10
-1.42968600566
 20
6.64909002213
 30
0.0
  0
VERTEX
  8
0
 10
-1.47751289566
 20
6.63450968144
 30
0.0
  0
VERTEX
  8
0
 10
-1.52529163736
 20
6.61977232738
 30
0.0
  0
VERTEX
  8
0
 10
-1.57302194569
 20
6.60487885732
 30
0.0
  0
VERTEX
  8
0
 10
-1.62070353935
 20
6.58983015536
 30
0.0
  0
VERTEX
  8
0
 10
-1.6683361407
 20
6.57462709274
 30
0.0
  0
VERTEX
  8
0
 10
-1.71591947571
 20
6.55927052825
 30
0.0
  0
VERTEX
  8
0
 10
-1.76345327385
 20
6.54376130851
 30
0.0
  0
VERTEX
  8
0
 10
-1.81093726804
 20
6.52810026839
 30
0.0
  0
VERTEX
  8
0
 10
-1.85837119455
 20
6.5122882313
 30
0.0
  0
VERTEX
  8
0
 10
-1.90575479292
 20
6.49632600954
 30
0.0
  0
VERTEX
  8
0
 10
-1.95308780594
 20
6.48021440457
 30
0.0
  0
VERTEX
  8
0
 10
-2.00036997953
 20
6.46395420735
 30
0.0
  0
VERTEX
  8
0
 10
-2.04760106271
 20
6.44754619859
 30
0.0
  0
VERTEX
  8
0
 10
-2.09478080754
 20
6.43099114905
 30
0.0
  0
VERTEX
  8
0
 10
-2.14190896901
 20
6.41428981977
 30
0.0
  0
VERTEX
  8
0
 10
-2.18898530505
 20
6.39744296238
 30
0.0
  0
VERTEX
  8
0
 10
-2.23600957645
 20
6.38045131931
 30
0.0
  0
VERTEX
  8
0
 10
-2.28298154679
 20
6.36331562401
 30
0.0
  0
VERTEX
  8
0
 10
-2.32990098239
 20
6.34603660124
 30
0.0
  0
VERTEX
  8
0
 10
-2.37676765231
 20
6.32861496723
 30
0.0
  0
VERTEX
  8
0
 10
-2.42358132823
 20
6.31105142994
 30
0.0
  0
VERTEX
  8
0
 10
-2.47034178445
 20
6.29334668924
 30
0.0
  0
VERTEX
  8
0
 10
-2.5082178114
 20
6.27888778761
 30
0.0
  0
SEQEND
  8
0
  0
POLYLINE
  8
0
 62
0
 70
0
 66
1
 10
0.0
 20
0.0
 30
0.0
  0
VERTEX
  8
0
 10
-2.82584918166
 20
4.17154133918
 30
0.0
  0
VERTEX
  8
0
 10
-2.78645971507
 20
4.14074413083
 30
0.0
  0
VERTEX
  8
0
 10
-2.74697776523
 20
4.11006557571
 30
0.0
  0
VERTEX
  8
0
 10
-2.70740334143
 20
4.0795064024
 30
0.0
  0
VERTEX
  8
0
 10
-2.66773645307
 20
4.0490673478
 30
0.0
  0
VERTEX
  8
0
 10
-2.62797710965
 20
4.01874915732
 30
0.0
  0
VERTEX
  8
0
 10
-2.58812532079
 20
3.98855258513
 30
0.0
  0
VERTEX
  8
0
 10
-2.54818109615
 20
3.95847839437
 30
0.0
  0
VERTEX
  8
0
 10
-2.50814444546
 20
3.92852735736
 30
0.0
  0
VERTEX
  8
0
 10
-2.46801537848
 20
3.89870025586
 30
0.0
  0
VERTEX
  8
0
 10
-2.42779390501
 20
3.86899788129
 30
0.0
  0
VERTEX
  8
0
 10
-2.3874800348
 20
3.839421035
 30
0.0
  0
VERTEX
  8
0
 10
-2.34707377762
 20
3.80997052855
 30
0.0
  0
VERTEX
  8
0
 10
-2.30657514315
 20
3.78064718394
 30
0.0
  0
VERTEX
  8
0
 10
-2.26598414105
 20
3.75145183392
 30
0.0
  0
VERTEX
  8
0
 10
-2.22530078083
 20
3.72238532228
 30
0.0
  0
VERTEX
  8
0
 10
-2.18452507193
 20
3.69344850418
 30
0.0
  0
VERTEX
  8
0
 10
-2.14365702363
 20
3.6646422464
 30
0.0
  0
VERTEX
  8
0
 10
-2.10269664503
 20
3.63596742774
 30
0.0
  0
VERTEX
  8
0
 10
-2.06164394505
 20
3.60742493933
 30
0.0
  0
VERTEX
  8
0
 10
-2.02049893238
 20
3.57901568497
 30
0.0
  0
VERTEX
  8
0
 10
-1.97926161546
 20
3.55074058155
 30
0.0
  0
VERTEX
  8
0
 10
-1.93793200245
 20
3.52260055938
 30
0.0
  0
VERTEX
  8
0
 10
-1.8965101012
 20
3.49459656263
 30
0.0
  0
VERTEX
  8
0
 10
-1.8549959192
 20
3.46672954972
 30
0.0
  0
VERTEX
  8
0
 10
-1.81338946357
 20
3.43900049378
 30
0.0
  0
VERTEX
  8
0
 10
-1.77169074103
 20
3.41141038308
 30
0.0
  0
VERTEX
  8
0
 10
-1.72989975782
 20
3.38396022153
 30
0.0
  0
VERTEX
  8
0
 10
-1.68801651971
 20
3.35665102916
 30
0.0
  0
VERTEX
  8
0
 10
-1.64604103194
 20
3.32948384261
 30
0.0
  0
VERTEX
  8
0
 10
-1.60397329919
 20
3.30245971574
 30
0.0
  0
VERTEX
  8
0
 10
-1.5618133255
 20
3.27557972009
 30
0.0
  0
VERTEX
  8
0
 10
-1.51956111429
 20
3.24884494558
 30
0.0
  0
VERTEX
  8
0
 10
-1.47721666826
 20
3.22225650103
 30
0.0
  0
VERTEX
  8
0
 10
-1.43477998936
 20
3.19581551488
 30
0.0
  0
VERTEX
  8
0
 10
-1.39225107873
 20
3.16952313581
 30
0.0
  0
VERTEX
  8
0
 10
-1.34962993667
 20
3.14338053348
 30
0.0
  0
VERTEX
  8
0
 10
-1.30691656257
 20
3.11738889926
 30
0.0
  0
VERTEX
  8
0
 10
-1.26411095484
 20
3.09154944701
 30
0.0
  0
VERTEX
  8
0
 10
-1.22121311087
 20
3.06586341391
 30
0.0
  0
VERTEX
  8
0
 10
-1.17822302697
 20
3.0403320613
 30
0.0
  0
VERTEX
  8
0
 10
-1.13514069826
 20
3.01495667559
 30
0.0
  0
VERTEX
  8
0
 10
-1.09196611866
 20
2.98973856923
 30
0.0
  0
VERTEX
  8
0
 10
-1.04869928078
 20
2.96467908169
 30
0.0
  0
VERTEX
  8
0
 10
-1.00534017585
 20
2.93977958051
 30
0.0
  0
VERTEX
  8
0
 10
-0.96188879365
 20
2.91504146245
 30
0.0
  0
VERTEX
  8
0
 10
-0.918345122397
 20
2.89046615461
 30
0.0
  0
VERTEX
  8
0
 10
-0.874709148687
 20
2.86605511573
 30
0.0
  0
VERTEX
  8
0
 10
-0.830980857384
 20
2.84180983745
 30
0.0
  0
VERTEX
  8
0
 10
-0.787160231523
 20
2.81773184574
 30
0.0
  0
VERTEX
  8
0
 10
-0.743247252202
 20
2.79382270234
 30
0.0
  0
VERTEX
  8
0
 10
-0.699241898476
 20
2.77008400633
 30
0.0
  0
VERTEX
  8
0
 10
-0.655144147235
 20
2.7465173958
 30
0.0
  0
VERTEX
  8
0
 10
-0.610953973077
 20
2.72312454956
 30
0.0
  0
VERTEX
  8
0
 10
-0.56667134818
 20
2.69990718908
 30
0.0
  0
VERTEX
  8
0
 10
-0.522296242161
 20
2.6768670804
 30
0.0
  0
VERTEX
  8
0
 10
-0.477828621921
 20
2.6540060363
 30
0.0
  0
VERTEX
  8
0
 10
-0.433268451491
 20
2.63132591856
 30
0.0
  0
VERTEX
  8
0
 10
-0.388615691862
 20
2.60882864035
 30
0.0
  0
VERTEX
  8
0
 10
-0.343870300799
 20
2.58651616881
 30
0.0
  0
VERTEX
  8
0
 10
-0.299032232655
 20
2.56439052785
 30
0.0
  0
VERTEX
  8
0
 10
-0.254101438158
 20
2.54245380108
 30
0.0
  0
VERTEX
  8
0
 10
-0.209077864193
 20
2.52070813501
 30
0.0
  0
VERTEX
  8
0
 10
-0.163961453562
 20
2.49915574248
 30
0.0
  0
VERTEX
  8
0
 10
-0.118752144731
 20
2.47779890633
 30
0.0
  0
VERTEX
  8
0
 10
-0.0734498715531
 20
2.45663998338
 30
0.0
  0
VERTEX
  8
0
 10
-0.0280545629723
 20
2.43568140875
 30
0.0
  0
VERTEX
  8
0
 10
0.0174338572952
 20
2.4149257005
 30
0.0
  0
VERTEX
  8
0
 10
0.0630154711081
 20
2.39437546464
 30
0.0
  0
VERTEX
  8
0
 10
0.108690366276
 20
2.37403340068
 30
0.0
  0
VERTEX
  8
0
 10
0.154458636965
 20
2.35390230753
 30
0.0
  0
VERTEX
  8
0
 10
0.200320384144
 20
2.33398509007
 30
0.0
  0
VERTEX
  8
0
 10
0.246275716069
 20
2.3142847662
 30
0.0
  0
VERTEX
  8
0
 10
0.29232474881
 20
2.29480447469
 30
0.0
  0
VERTEX
  8
0
 10
0.338467606833
 20
2.27554748373
 30
0.0
  0
VERTEX
  8
0
 10
0.384704423641
 20
2.25651720035
 30
0.0
  0
VERTEX
  8
0
 10
0.431035342469
 20
2.23771718087
 30
0.0
  0
VERTEX
  8
0
 10
0.477460517073
 20
2.21915114241
 30
0.0
  0
VERTEX
  8
0
 10
0.52398011258
 20
2.20082297571
 30
0.0
  0
VERTEX
  8
0
 10
0.570594306454
 20
2.18273675945
 30
0.0
  0
VERTEX
  8
0
 10
0.617303289566
 20
2.16489677619
 30
0.0
  0
VERTEX
  8
0
 10
0.664107267387
 20
2.14730753034
 30
0.0
  0
VERTEX
  8
0
 10
0.711006461342
 20
2.12997376835
 30
0.0
  0
VERTEX
  8
0
 10
0.758001110332
 20
2.11290050162
 30
0.0
  0
VERTEX
  8
0
 10
0.805091472459
 20
2.09609303247
 30
0.0
  0
VERTEX
  8
0
 10
0.852277827001
 20
2.07955698388
 30
0.0
  0
VERTEX
  8
0
 10
0.899560476666
 20
2.06329833362
 30
0.0
  0
VERTEX
  8
0
 10
0.946939750199
 20
2.04732345365
 30
0.0
  0
VERTEX
  8
0
 10
0.994416005398
 20
2.03163915591
 30
0.0
  0
VERTEX
  8
0
 10
1.04198963264
 20
2.01625274595
 30
0.0
  0
VERTEX
  8
0
 10
1.08966105904
 20
2.00117208608
 30
0.0
  0
VERTEX
  8
0
 10
1.13743075335
 20
1.98640567039
 30
0.0
  0
VERTEX
  8
0
 10
1.18529923185
 20
1.97196271481
 30
0.0
  0
VERTEX
  8
0
 10
1.23326706544
 20
1.957853266
 30
0.0
  0
VERTEX
  8
0
 10
1.28133488836
 20
1.9440883348
 30
0.0
  0
VERTEX
  8
0
 10
1.32950340889
 20
1.93068006162
 30
0.0
  0
VERTEX
  8
0
 10
1.37777342281
 20
1.91764192431
 30
0.0
  0
VERTEX
  8
0
 10
1.42614583053
 20
1.90498900388
 30
0.0
  0
VERTEX
  8
0
 10
1.47462165937
 20
1.89273833013
 30
0.0
  0
VERTEX
  8
0
 10
1.52320209296
 20
1.88090934134
 30
0.0
  0
VERTEX
  8
0
 10
1.57188851119
 20
1.86952451107
 30
0.0
  0
VERTEX
  8
0
 10
1.62068254613
 20
1.85861022917
 30
0.0
  0
VERTEX
  8
0
 10
1.66958616282
 20
1.84819808624
 30
0.0
  0
VERTEX
  8
0
 10
1.71860178137
 20
1.83832683327
 30
0.0
  0
VERTEX
  8
0
 10
1.76773247115
 20
1.82904554747
 30
0.0
  0
VERTEX
  8
0
 10
1.81698227948
 20
1.82041913634
 30
0.0
  0
VERTEX
  8
0
 10
1.86635682137
 20
1.81253882197
 30
0.0
  0
VERTEX
  8
0
 10
1.9064887372
 20
1.80678992489
 30
0.0
  0
SEQEND
  8
0
  0
POLYLINE
  8
0
 62
0
 70
0
 66
1
 10
0.0
 20
0.0
 30
0.0
  0
VERTEX
  8
0
 10
-2.82584918166
 20
4.17154133918
 30
0.0
  0
VERTEX
  8
0
 10
-2.78645971507
 20
4.14074413083
 30
0.0
  0
VERTEX
  8
0
 10
-2.74697776523
 20
4.11006557571
 30
0.0
  0
VERTEX
  8
0
 10
-2.70740334143
 20
4.0795064024
 30
0.0
  0
VERTEX
  8
0
 10
-2.66773645307
 20
4.0490673478
 30
0.0
  0
VERTEX
  8
0
 10
-2.62797710965
 20
4.01874915732
 30
0.0
  0
VERTEX
  8
0
 10
-2.58812532079
 20
3.98855258513
 30
0.0
  0
VERTEX
  8
0
 10
-2.54818109615
 20
3.95847839437
 30
0.0
  0
VERTEX
  8
0
 10
-2.50814444546
 20
3.92852735736
 30
0.0
  0
VERTEX
  8
0
 10
-2.46801537848
 20
3.89870025586
 30
0.0
  0
VERTEX
  8
0
 10
-2.42779390501
 20
3.86899788129
 30
0.0
  0
VERTEX
  8
0
 10
-2.3874800348
 20
3.839421035
 30
0.0
  0
VERTEX
  8
0
 10
-2.34707377762
 20
3.80997052855
 30
0.0
  0
VERTEX
  8
0
 10
-2.30657514315
 20
3.78064718394
 30
0.0
  0
VERTEX
  8
0
 10
-2.26598414105
 20
3.75145183392
 30
0.0
  0
VERTEX
  8
0
 10
-2.22530078083
 20
3.72238532228
 30
0.0
  0
VERTEX
  8
0
 10
-2.18452507193
 20
3.69344850418
 30
0.0
  0
VERTEX
  8
0
 10
-2.14365702363
 20
3.6646422464
 30
0.0
  0
VERTEX
  8
0
 10
-2.10269664503
 20
3.63596742774
 30
0.0
  0
VERTEX
  8
0
 10
-2.06164394505
 20
3.60742493933
 30
0.0
  0
VERTEX
  8
0
 10
-2.02049893238
 20
3.57901568497
 30
0.0
  0
VERTEX
  8
0
 10
-1.97926161546
 20
3.55074058155
 30
0.0
  0
VERTEX
  8
0
 10
-1.93793200245
 20
3.52260055938
 30
0.0
  0
VERTEX
  8
0
 10
-1.8965101012
 20
3.49459656263
 30
0.0
  0
VERTEX
  8
0
 10
-1.8549959192
 20
3.46672954972
 30
0.0
  0
VERTEX
  8
0
 10
-1.81338946357
 20
3.43900049378
 30
0.0
  0
VERTEX
  8
0
 10
-1.77169074103
 20
3.41141038308
 30
0.0
  0
VERTEX
  8
0
 10
-1.72989975782
 20
3.38396022153
 30
0.0
  0
VERTEX
  8
0
 10
-1.68801651971
 20
3.35665102916
 30
0.0
  0
VERTEX
  8
0
 10
-1.64604103194
 20
3.32948384261
 30
0.0
  0
VERTEX
  8
0
 10
-1.60397329919
 20
3.30245971574
 30
0.0
  0
VERTEX
  8
0
 10
-1.5618133255
 20
3.27557972009
 30
0.0
  0
VERTEX
  8
0
 10
-1.51956111429
 20
3.24884494558
 30
0.0
  0
VERTEX
  8
0
 10
-1.47721666826
 20
3.22225650103
 30
0.0
  0
VERTEX
  8
0
 10
-1.43477998936
 20
3.19581551488
 30
0.0
  0
VERTEX
  8
0
 10
-1.39225107873
 20
3.16952313581
 30
0.0
  0
VERTEX
  8
0
 10
-1.34962993667
 20
3.14338053348
 30
0.0
  0
VERTEX
  8
0
 10
-1.30691656257
 20
3.11738889926
 30
0.0
  0
VERTEX
  8
0
 10
-1.26411095484
 20
3.09154944701
 30
0.0
  0
VERTEX
  8
0
 10
-1.22121311087
 20
3.06586341391
 30
0.0
  0
VERTEX
  8
0
 10
-1.17822302697
 20
3.0403320613
 30
0.0
  0
VERTEX
  8
0
 10
-1.13514069826
 20
3.01495667559
 30
0.0
  0
VERTEX
  8
0
 10
-1.09196611866
 20
2.98973856923
 30
0.0
  0
VERTEX
  8
0
 10
-1.04869928078
 20
2.96467908169
 30
0.0
  0
VERTEX
  8
0
 10
-1.00534017585
 20
2.93977958051
 30
0.0
  0
VERTEX
  8
0
 10
-0.96188879365
 20
2.91504146245
 30
0.0
  0
VERTEX
  8
0
 10
-0.918345122397
 20
2.89046615461
 30
0.0
  0
VERTEX
  8
0
 10
-0.874709148687
 20
2.86605511573
 30
0.0
  0
VERTEX
  8
0
 10
-0.830980857384
 20
2.84180983745
 30
0.0
  0
VERTEX
  8
0
 10
-0.787160231523
 20
2.81773184574
 30
0.0
  0
VERTEX
  8
0
 10
-0.743247252202
 20
2.79382270234
 30
0.0
  0
VERTEX
  8
0
 10
-0.699241898476
 20
2.77008400633
 30
0.0
  0
VERTEX
  8
0
 10
-0.655144147235
 20
2.7465173958
 30
0.0
  0
VERTEX
  8
0
 10
-0.610953973077
 20
2.72312454956
 30
0.0
  0
VERTEX
  8
0
 10
-0.56667134818
 20
2.69990718908
 30
0.0
  0
VERTEX
  8
0
 10
-0.522296242161
 20
2.6768670804
 30
0.0
  0
VERTEX
  8
0
 10
-0.477828621921
 20
2.6540060363
 30
0.0
  0
VERTEX
  8
0
 10
-0.433268451491
 20
2.63132591856
 30
0.0
  0
VERTEX
  8
0
 10
-0.388615691862
 20
2.60882864035
 30
0.0
  0
VERTEX
  8
0
 10
-0.343870300799
 20
2.58651616881
 30
0.0
  0
VERTEX
  8
0
 10
-0.299032232655
 20
2.56439052785
 30
0.0
  0
VERTEX
  8
0
 10
-0.254101438158
 20
2.54245380108
 30
0.0
  0
VERTEX
  8
0
 10
-0.209077864193
 20
2.52070813501
 30
0.0
  0
VERTEX
  8
0
 10
-0.163961453562
 20
2.49915574248
 30
0.0
  0
VERTEX
  8
0
 10
-0.118752144731
 20
2.47779890633
 30
0.0
  0
VERTEX
  8
0
 10
-0.0734498715531
 20
2.45663998338
 30
0.0
  0
VERTEX
  8
0
 10
-0.0280545629723
 20
2.43568140875
 30
0.0
  0
VERTEX
  8
0
 10
0.0174338572952
 20
2.4149257005
 30
0.0
  0
VERTEX
  8
0
 10
0.0630154711081
 20
2.39437546464
 30
0.0
  0
VERTEX
  8
0
 10
0.108690366276
 20
2.37403340068
 30
0.0
  0
VERTEX
  8
0
 10
0.154458636965
 20
2.35390230753
 30
0.0
  0
VERTEX
  8
0
 10
0.200320384144
 20
2.33398509007
 30
0.0
  0
VERTEX
  8
0
 10
0.246275716069
 20
2.3142847662
 30
0.0
  0
VERTEX
  8
0
 10
0.29232474881
 20
2.29480447469
 30
0.0
  0
VERTEX
  8
0
 10
0.338467606833
 20
2.27554748373
 30
0.0
  0
VERTEX
  8
0
 10
0.384704423641
 20
2.25651720035
 30
0.0
  0
VERTEX
  8
0
 10
0.431035342469
 20
2.23771718087
 30
0.0
  0
VERTEX
  8
0
 10
0.477460517073
 20
2.21915114241
 30
0.0
  0
VERTEX
  8
0
 10
0.52398011258
 20
2.20082297571
 30
0.0
  0
VERTEX
  8
0
 10
0.570594306454
 20
2.18273675945
 30
0.0
  0
VERTEX
  8
0
 10
0.617303289566
 20
2.16489677619
 30
0.0
  0
VERTEX
  8
0
 10
0.664107267387
 20
2.14730753034
 30
0.0
  0
VERTEX
  8
0
 10
0.711006461342
 20
2.12997376835
 30
0.0
  0
VERTEX
  8
0
 10
0.758001110332
 20
2.11290050162
 30
0.0
  0
VERTEX
  8
0
 10
0.805091472459
 20
2.09609303247
 30
0.0
  0
VERTEX
  8
0
 10
0.852277827001
 20
2.07955698388
 30
0.0
  0
VERTEX
  8
0
 10
0.899560476666
 20
2.06329833362
 30
0.0
  0
VERTEX
  8
0
 10
0.946939750199
 20
2.04732345365
 30
0.0
  0
VERTEX
  8
0
 10
0.994416005398
 20
2.03163915591
 30
0.0
  0
VERTEX
  8
0
 10
1.04198963264
 20
2.01625274595
 30
0.0
  0
VERTEX
  8
0
 10
1.08966105904
 20
2.00117208608
 30
0.0
  0
VERTEX
  8
0
 10
1.13743075335
 20
1.98640567039
 30
0.0
  0
VERTEX
  8
0
 10
1.18529923185
 20
1.97196271481
 30
0.0
  0
VERTEX
  8
0
 10
1.23326706544
 20
1.957853266
 30
0.0
  0
VERTEX
  8
0
 10
1.28133488836
 20
1.9440883348
 30
0.0
  0
VERTEX
  8
0
 10
1.32950340889
 20
1.93068006162
 30
0.0
  0
VERTEX
  8
0
 10
1.37777342281
 20
1.91764192431
 30
0.0
  0
VERTEX
  8
0
 10
1.42614583053
 20
1.90498900388
 30
0.0
  0
VERTEX
  8
0
 10
1.47462165937
 20
1.89273833013
 30
0.0
  0
VERTEX
  8
0
 10
1.52320209296
 20
1.88090934134
 30
0.0
  0
VERTEX
  8
0
 10
1.57188851119
 20
1.86952451107
 30
0.0
  0
VERTEX
  8
0
 10
1.62068254613
 20
1.85861022917
 30
0.0
  0
VERTEX
  8
0
 10
1.66958616282
 20
1.84819808624
 30
0.0
  0
VERTEX
  8
0
 10
1.71860178137
 20
1.83832683327
 30
0.0
  0
VERTEX
  8
0
 10
1.76773247115
 20
1.82904554747
 30
0.0
  0
VERTEX
  8
0
 10
1.81698227948
 20
1.82041913634
 30
0.0
  0
VERTEX
  8
0
 10
1.86635682137
 20
1.81253882197
 30
0.0
  0
VERTEX
  8
0
 10
1.9064887372
 20
1.80678992489
 30
0.0
  0
SEQEND
  8
0
  0
POLYLINE
  8
0
 62
0
 70
0
 66
1
 10
0.0
 20
0.0
 30
0.0
  0
VERTEX
  8
0
 10
1.9064887372
 20
-1.80678992489
 30
0.0
  0
VERTEX
  8
0
 10
1.85700723711
 20
-1.81396671795
 30
0.0
  0
VERTEX
  8
0
 10
1.80765682243
 20
-1.82199694675
 30
0.0
  0
VERTEX
  8
0
 10
1.75842991845
 20
-1.83075322455
 30
0.0
  0
VERTEX
  8
0
 10
1.70932127014
 20
-1.84015050194
 30
0.0
  0
VERTEX
  8
0
 10
1.66032705004
 20
-1.8501274624
 30
0.0
  0
VERTEX
  8
0
 10
1.61144433147
 20
-1.86063730982
 30
0.0
  0
VERTEX
  8
0
 10
1.56267079251
 20
-1.87164284333
 30
0.0
  0
VERTEX
  8
0
 10
1.51400453889
 20
-1.88311358067
 30
0.0
  0
VERTEX
  8
0
 10
1.46544399154
 20
-1.89502395629
 30
0.0
  0
VERTEX
  8
0
 10
1.41698781137
 20
-1.90735212905
 30
0.0
  0
VERTEX
  8
0
 10
1.36863484702
 20
-1.92007915832
 30
0.0
  0
VERTEX
  8
0
 10
1.32038409719
 20
-1.93318841412
 30
0.0
  0
VERTEX
  8
0
 10
1.27223468277
 20
-1.9466651424
 30
0.0
  0
VERTEX
  8
0
 10
1.22418582572
 20
-1.96049613666
 30
0.0
  0
VERTEX
  8
0
 10
1.17623683271
 20
-1.97466948463
 30
0.0
  0
VERTEX
  8
0
 10
1.12838708224
 20
-1.98917436945
 30
0.0
  0
VERTEX
  8
0
 10
1.08063601434
 20
-2.00400091099
 30
0.0
  0
VERTEX
  8
0
 10
1.03298312223
 20
-2.01914003759
 30
0.0
  0
VERTEX
  8
0
 10
0.985427945448
 20
-2.03458338105
 30
0.0
  0
VERTEX
  8
0
 10
0.937970064188
 20
-2.05032318975
 30
0.0
  0
VERTEX
  8
0
 10
0.89060909453
 20
-2.06635225603
 30
0.0
  0
VERTEX
  8
0
 10
0.843344684424
 20
-2.08266385503
 30
0.0
  0
VERTEX
  8
0
 10
0.796176510269
 20
-2.09925169265
 30
0.0
  0
VERTEX
  8
0
 10
0.749104273976
 20
-2.11610986108
 30
0.0
  0
VERTEX
  8
0
 10
0.702127700438
 20
-2.13323280048
 30
0.0
  0
VERTEX
  8
0
 10
0.655246535327
 20
-2.1506152657
 30
0.0
  0
VERTEX
  8
0
 10
0.608460543174
 20
-2.16825229737
 30
0.0
  0
VERTEX
  8
0
 10
0.561769505684
 20
-2.18613919648
 30
0.0
  0
VERTEX
  8
0
 10
0.515173220244
 20
-2.20427150206
 30
0.0
  0
VERTEX
  8
0
 10
0.468671498609
 20
-2.22264497143
 30
0.0
  0
VERTEX
  8
0
 10
0.422264165726
 20
-2.24125556264
 30
0.0
  0
VERTEX
  8
0
 10
0.375951058689
 20
-2.26009941883
 30
0.0
  0
VERTEX
  8
0
 10
0.329732025797
 20
-2.27917285424
 30
0.0
  0
VERTEX
  8
0
 10
0.283606925711
 20
-2.29847234164
 30
0.0
  0
VERTEX
  8
0
 10
0.237575626691
 20
-2.31799450103
 30
0.0
  0
VERTEX
  8
0
 10
0.191638005906
 20
-2.3377360894
 30
0.0
  0
VERTEX
  8
0
 10
0.145793948806
 20
-2.35769399147
 30
0.0
  0
VERTEX
  8
0
 10
0.100043348553
 20
-2.3778652113
 30
0.0
  0
VERTEX
  8
0
 10
0.0543861055025
 20
-2.39824686458
 30
0.0
  0
VERTEX
  8
0
 10
0.00882212672143
 20
-2.41883617168
 30
0.0
  0
VERTEX
  8
0
 10
-0.0366486744431
 20
-2.43963045124
 30
0.0
  0
VERTEX
  8
0
 10
-0.0820263787674
 20
-2.46062711425
 30
0.0
  0
VERTEX
  8
0
 10
-0.127311061521
 20
-2.48182365875
 30
0.0
  0
VERTEX
  8
0
 10
-0.172502792807
 20
-2.50321766477
 30
0.0
  0
VERTEX
  8
0
 10
-0.217601637877
 20
-2.5248067898
 30
0.0
  0
VERTEX
  8
0
 10
-0.262607657426
 20
-2.54658876453
 30
0.0
  0
VERTEX
  8
0
 10
-0.307520907859
 20
-2.56856138895
 30
0.0
  0
VERTEX
  8
0
 10
-0.352341441548
 20
-2.5907225287
 30
0.0
  0
VERTEX
  8
0
 10
-0.397069307061
 20
-2.61307011171
 30
0.0
  0
VERTEX
  8
0
 10
-0.441704549387
 20
-2.63560212502
 30
0.0
  0
VERTEX
  8
0
 10
-0.486247210132
 20
-2.65831661189
 30
0.0
  0
VERTEX
  8
0
 10
-0.53069732772
 20
-2.68121166909
 30
0.0
  0
VERTEX
  8
0
 10
-0.575054937564
 20
-2.70428544428
 30
0.0
  0
VERTEX
  8
0
 10
-0.619320072235
 20
-2.72753613369
 30
0.0
  0
VERTEX
  8
0
 10
-0.663492761623
 20
-2.75096197986
 30
0.0
  0
VERTEX
  8
0
 10
-0.707573033081
 20
-2.77456126955
 30
0.0
  0
VERTEX
  8
0
 10
-0.751560911566
 20
-2.79833233179
 30
0.0
  0
VERTEX
  8
0
 10
-0.795456419771
 20
-2.822273536
 30
0.0
  0
VERTEX
  8
0
 10
-0.839259578245
 20
-2.84638329028
 30
0.0
  0
VERTEX
  8
0
 10
-0.882970405514
 20
-2.87066003978
 30
0.0
  0
VERTEX
  8
0
 10
-0.926588918192
 20
-2.89510226514
 30
0.0
  0
VERTEX
  8
0
 10
-0.970115131078
 20
-2.91970848104
 30
0.0
  0
VERTEX
  8
0
 10
-1.01354905726
 20
-2.94447723483
 30
0.0
  0
VERTEX
  8
0
 10
-1.05689070822
 20
-2.96940710523
 30
0.0
  0
VERTEX
  8
0
 10
-1.1001400939
 20
-2.9944967011
 30
0.0
  0
VERTEX
  8
0
 10
-1.14329722281
 20
-3.0197446603
 30
0.0
  0
VERTEX
  8
0
 10
-1.18636210207
 20
-3.04514964854
 30
0.0
  0
VERTEX
  8
0
 10
-1.22933473754
 20
-3.07071035838
 30
0.0
  0
VERTEX
  8
0
 10
-1.27221513385
 20
-3.09642550822
 30
0.0
  0
VERTEX
  8
0
 10
-1.31500329451
 20
-3.12229384136
 30
0.0
  0
VERTEX
  8
0
 10
-1.35769922191
 20
-3.14831412509
 30
0.0
  0
VERTEX
  8
0
 10
-1.40030291746
 20
-3.17448514987
 30
0.0
  0
VERTEX
  8
0
 10
-1.44281438159
 20
-3.2008057285
 30
0.0
  0
VERTEX
  8
0
 10
-1.48523361385
 20
-3.22727469534
 30
0.0
  0
VERTEX
  8
0
 10
-1.52756061292
 20
-3.25389090558
 30
0.0
  0
VERTEX
  8
0
 10
-1.56979537671
 20
-3.28065323456
 30
0.0
  0
VERTEX
  8
0
 10
-1.61193790239
 20
-3.30756057708
 30
0.0
  0
VERTEX
  8
0
 10
-1.65398818642
 20
-3.33461184674
 30
0.0
  0
VERTEX
  8
0
 10
-1.69594622463
 20
-3.36180597539
 30
0.0
  0
VERTEX
  8
0
 10
-1.73781201222
 20
-3.38914191247
 30
0.0
  0
VERTEX
  8
0
 10
-1.77958554387
 20
-3.41661862451
 30
0.0
  0
VERTEX
  8
0
 10
-1.82126681371
 20
-3.44423509459
 30
0.0
  0
VERTEX
  8
0
 10
-1.86285581539
 20
-3.47199032179
 30
0.0
  0
VERTEX
  8
0
 10
-1.90435254213
 20
-3.49988332073
 30
0.0
  0
VERTEX
  8
0
 10
-1.94575698673
 20
-3.5279131211
 30
0.0
  0
VERTEX
  8
0
 10
-1.98706914163
 20
-3.55607876721
 30
0.0
  0
VERTEX
  8
0
 10
-2.02828899891
 20
-3.58437931754
 30
0.0
  0
VERTEX
  8
0
 10
-2.06941655038
 20
-3.61281384435
 30
0.0
  0
VERTEX
  8
0
 10
-2.11045178753
 20
-3.64138143327
 30
0.0
  0
VERTEX
  8
0
 10
-2.15139470162
 20
-3.6700811829
 30
0.0
  0
VERTEX
  8
0
 10
-2.19224528372
 20
-3.69891220448
 30
0.0
  0
VERTEX
  8
0
 10
-2.23300352466
 20
-3.72787362152
 30
0.0
  0
VERTEX
  8
0
 10
-2.27366941515
 20
-3.75696456945
 30
0.0
  0
VERTEX
  8
0
 10
-2.31424294574
 20
-3.78618419529
 30
0.0
  0
VERTEX
  8
0
 10
-2.35472410686
 20
-3.81553165736
 30
0.0
  0
VERTEX
  8
0
 10
-2.39511288888
 20
-3.84500612496
 30
0.0
  0
VERTEX
  8
0
 10
-2.43540928207
 20
-3.87460677809
 30
0.0
  0
VERTEX
  8
0
 10
-2.47561327669
 20
-3.90433280715
 30
0.0
  0
VERTEX
  8
0
 10
-2.51572486296
 20
-3.93418341268
 30
0.0
  0
VERTEX
  8
0
 10
-2.55574403109
 20
-3.9641578051
 30
0.0
  0
VERTEX
  8
0
 10
-2.59567077133
 20
-3.99425520447
 30
0.0
  0
VERTEX
  8
0
 10
-2.63550507396
 20
-4.02447484021
 30
0.0
  0
VERTEX
  8
0
 10
-2.67524692932
 20
-4.05481595091
 30
0.0
  0
VERTEX
  8
0
 10
-2.71489632782
 20
-4.08527778406
 30
0.0
  0
VERTEX
  8
0
 10
-2.75445325997
 20
-4.11585959588
 30
0.0
  0
VERTEX
  8
0
 10
-2.79391771639
 20
-4.14656065106
 30
0.0
  0
VERTEX
  8
0
 10
-2.82584918166
 20
-4.17154133918
 30
0.0
  0
SEQEND
  8
0
  0
POLYLINE
  8
0
 62
0
 70
0
 66
1
 10
0.0
 20
0.0
 30
0.0
  0
VERTEX
  8
0
 10
-2.5082178114
 20
-6.27888778761
 30
0.0
  0
VERTEX
  8
0
 10
-2.46150067177
 20
-6.29670651332
 30
0.0
  0
VERTEX
  8
0
 10
-2.41473013132
 20
-6.3143845973
 30
0.0
  0
VERTEX
  8
0
 10
-2.36790641367
 20
-6.33192134609
 30
0.0
  0
VERTEX
  8
0
 10
-2.32102974501
 20
-6.3493160583
 30
0.0
  0
VERTEX
  8
0
 10
-2.27410035415
 20
-6.36656802445
 30
0.0
  0
VERTEX
  8
0
 10
-2.22711847254
 20
-6.38367652668
 30
0.0
  0
VERTEX
  8
0
 10
-2.18008433439
 20
-6.40064083862
 30
0.0
  0
VERTEX
  8
0
 10
-2.13299817662
 20
-6.41746022514
 30
0.0
  0
VERTEX
  8
0
 10
-2.08586023899
 20
-6.43413394207
 30
0.0
  0
VERTEX
  8
0
 10
-2.03867076413
 20
-6.45066123605
 30
0.0
  0
VERTEX
  8
0
 10
-1.99142999758
 20
-6.4670413442
 30
0.0
  0
VERTEX
  8
0
 10
-1.94413818786
 20
-6.4832734939
 30
0.0
  0
VERTEX
  8
0
 10
-1.89679558654
 20
-6.49935690252
 30
0.0
  0
VERTEX
  8
0
 10
-1.84940244828
 20
-6.51529077715
 30
0.0
  0
VERTEX
  8
0
 10
-1.80195903091
 20
-6.53107431429
 30
0.0
  0
VERTEX
  8
0
 10
-1.75446559548
 20
-6.54670669957
 30
0.0
  0
VERTEX
  8
0
 10
-1.70692240636
 20
-6.56218710743
 30
0.0
  0
VERTEX
  8
0
 10
-1.65932973128
 20
-6.57751470082
 30
0.0
  0
VERTEX
  8
0
 10
-1.61168784142
 20
-6.59268863081
 30
0.0
  0
VERTEX
  8
0
 10
-1.5639970115
 20
-6.60770803632
 30
0.0
  0
VERTEX
  8
0
 10
-1.51625751983
 20
-6.62257204369
 30
0.0
  0
VERTEX
  8
0
 10
-1.46846964842
 20
-6.63727976634
 30
0.0
  0
VERTEX
  8
0
 10
-1.42063368307
 20
-6.65183030436
 30
0.0
  0
VERTEX
  8
0
 10
-1.37274991345
 20
-6.66622274412
 30
0.0
  0
VERTEX
  8
0
 10
-1.32481863319
 20
-6.68045615782
 30
0.0
  0
VERTEX
  8
0
 10
-1.27684014
 20
-6.69452960308
 30
0.0
  0
VERTEX
  8
0
 10
-1.22881473576
 20
-6.70844212242
 30
0.0
  0
VERTEX
  8
0
 10
-1.18074272664
 20
-6.72219274285
 30
0.0
  0
VERTEX
  8
0
 10
-1.13262442322
 20
-6.7357804753
 30
0.0
  0
VERTEX
  8
0
 10
-1.08446014056
 20
-6.74920431414
 30
0.0
  0
VERTEX
  8
0
 10
-1.03625019841
 20
-6.7624632366
 30
0.0
  0
VERTEX
  8
0
 10
-0.987994921274
 20
-6.77555620221
 30
0.0
  0
VERTEX
  8
0
 10
-0.939694638561
 20
-6.78848215219
 30
0.0
  0
VERTEX
  8
0
 10
-0.891349684748
 20
-6.80124000882
 30
0.0
  0
VERTEX
  8
0
 10
-0.842960399514
 20
-6.81382867479
 30
0.0
  0
VERTEX
  8
0
 10
-0.794527127902
 20
-6.82624703249
 30
0.0
  0
VERTEX
  8
0
 10
-0.746050220489
 20
-6.8384939433
 30
0.0
  0
VERTEX
  8
0
 10
-0.697530033554
 20
-6.85056824681
 30
0.0
  0
VERTEX
  8
0
 10
-0.648966929266
 20
-6.86246876005
 30
0.0
  0
VERTEX
  8
0
 10
-0.600361275873
 20
-6.87419427662
 30
0.0
  0
VERTEX
  8
0
 10
-0.551713447909
 20
-6.88574356582
 30
0.0
  0
VERTEX
  8
0
 10
-0.503023826405
 20
-6.89711537174
 30
0.0
  0
VERTEX
  8
0
 10
-0.454292799114
 20
-6.90830841221
 30
0.0
  0
VERTEX
  8
0
 10
-0.40552076075
 20
-6.91932137788
 30
0.0
  0
VERTEX
  8
0
 10
-0.356708113237
 20
-6.93015293103
 30
0.0
  0
VERTEX
  8
0
 10
-0.307855265975
 20
-6.94080170448
 30
0.0
  0
VERTEX
  8
0
 10
-0.258962636121
 20
-6.95126630036
 30
0.0
  0
VERTEX
  8
0
 10
-0.210030648881
 20
-6.96154528882
 30
0.0
  0
VERTEX
  8
0
 10
-0.16105973783
 20
-6.9716372067
 30
0.0
  0
VERTEX
  8
0
 10
-0.112050345237
 20
-6.98154055606
 30
0.0
  0
VERTEX
  8
0
 10
-0.0630029224262
 20
-6.9912538027
 30
0.0
  0
VERTEX
  8
0
 10
-0.0139179301448
 20
-7.00077537449
 30
0.0
  0
VERTEX
  8
0
 10
0.0352041610351
 20
-7.01010365971
 30
0.0
  0
VERTEX
  8
0
 10
0.0843628702939
 20
-7.01923700518
 30
0.0
  0
VERTEX
  8
0
 10
0.133557706113
 20
-7.02817371437
 30
0.0
  0
VERTEX
  8
0
 10
0.182788165791
 20
-7.03691204526
 30
0.0
  0
VERTEX
  8
0
 10
0.232053734935
 20
-7.04545020819
 30
0.0
  0
VERTEX
  8
0
 10
0.281353886905
 20
-7.05378636351
 30
0.0
  0
VERTEX
  8
0
 10
0.330688082229
 20
-7.061918619
 30
0.0
  0
VERTEX
  8
0
 10
0.380055767972
 20
-7.06984502721
 30
0.0
  0
VERTEX
  8
0
 10
0.429456377061
 20
-7.0775635826
 30
0.0
  0
VERTEX
  8
0
 10
0.478889327555
 20
-7.08507221834
 30
0.0
  0
VERTEX
  8
0
 10
0.528354021868
 20
-7.09236880305
 30
0.0
  0
VERTEX
  8
0
 10
0.57784984592
 20
-7.09945113719
 30
0.0
  0
VERTEX
  8
0
 10
0.627376168233
 20
-7.10631694912
 30
0.0
  0
VERTEX
  8
0
 10
0.676932338942
 20
-7.11296389099
 30
0.0
  0
VERTEX
  8
0
 10
0.726517688735
 20
-7.11938953411
 30
0.0
  0
VERTEX
  8
0
 10
0.776131527693
 20
-7.12559136412
 30
0.0
  0
VERTEX
  8
0
 10
0.825773144033
 20
-7.13156677556
 30
0.0
  0
VERTEX
  8
0
 10
0.875441802742
 20
-7.13731306611
 30
0.0
  0
VERTEX
  8
0
 10
0.92513674408
 20
-7.1428274302
 30
0.0
  0
VERTEX
  8
0
 10
0.974857181947
 20
-7.14810695208
 30
0.0
  0
VERTEX
  8
0
 10
1.02460230209
 20
-7.15314859822
 30
0.0
  0
VERTEX
  8
0
 10
1.07437126013
 20
-7.15794920894
 30
0.0
  0
VERTEX
  8
0
 10
1.12416317939
 20
-7.16250548922
 30
0.0
  0
VERTEX
  8
0
 10
1.17397714851
 20
-7.16681399852
 30
0.0
  0
VERTEX
  8
0
 10
1.22381221877
 20
-7.17087113955
 30
0.0
  0
VERTEX
  8
0
 10
1.27366740114
 20
-7.17467314574
 30
0.0
  0
VERTEX
  8
0
 10
1.323541663
 20
-7.17821606731
 30
0.0
  0
VERTEX
  8
0
 10
1.37343392443
 20
-7.18149575571
 30
0.0
  0
VERTEX
  8
0
 10
1.42334305406
 20
-7.18450784607
 30
0.0
  0
VERTEX
  8
0
 10
1.47326786446
 20
-7.18724773755
 30
0.0
  0
VERTEX
  8
0
 10
1.52320710676
 20
-7.18971057099
 30
0.0
  0
VERTEX
  8
0
 10
1.57315946473
 20
-7.19189120354
 30
0.0
  0
VERTEX
  8
0
 10
1.62312354782
 20
-7.19378417973
 30
0.0
  0
VERTEX
  8
0
 10
1.67309788332
 20
-7.19538369812
 30
0.0
  0
VERTEX
  8
0
 10
1.7230809072
 20
-7.19668357297
 30
0.0
  0
VERTEX
  8
0
 10
1.7730709535
 20
-7.19767718948
 30
0.0
  0
VERTEX
  8
0
 10
1.82306624192
 20
-7.19835745162
 30
0.0
  0
VERTEX
  8
0
 10
1.87306486313
 20
-7.19871672049
 30
0.0
  0
VERTEX
  8
0
 10
1.92306476138
 20
-7.19874674118
 30
0.0
  0
VERTEX
  8
0
 10
1.97306371358
 20
-7.19843855504
 30
0.0
  0
VERTEX
  8
0
 10
2.02305930396
 20
-7.19778239347
 30
0.0
  0
VERTEX
  8
0
 10
2.07304889307
 20
-7.19676754787
 30
0.0
  0
VERTEX
  8
0
 10
2.12302957929
 20
-7.19538220843
 30
0.0
  0
VERTEX
  8
0
 10
2.17299815035
 20
-7.1936132615
 30
0.0
  0
VERTEX
  8
0
 10
2.2229510215
 20
-7.1914460307
 30
0.0
  0
VERTEX
  8
0
 10
2.27288415475
 20
-7.18886394001
 30
0.0
  0
VERTEX
  8
0
 10
2.32279295163
 20
-7.18584806584
 30
0.0
  0
VERTEX
  8
0
 10
2.37267210654
 20
-7.18237652635
 30
0.0
  0
VERTEX
  8
0
 10
2.42251540048
 20
-7.17842362305
 30
0.0
  0
VERTEX
  8
0
 10
2.4723153997
 20
-7.17395858961
 30
0.0
  0
VERTEX
  8
0
 10
2.52206299473
 20
-7.16894368332
 30
0.0
  0
VERTEX
  8
0
 10
2.57174665283
 20
-7.1633311026
 30
0.0
  0
VERTEX
  8
0
 10
2.62135110968
 20
-7.15705763064
 30
0.0
  0
VERTEX
  8
0
 10
2.67085484264
 20
-7.15003444305
 30
0.0
  0
VERTEX
  8
0
 10
2.71089832721
 20
-7.14369884291
 30
0.0
  0
SEQEND
  8
0
  0
POLYLINE
  8
0
 62
0
 70
0
 66
1
 10
0.0
 20
0.0
 30
0.0
  0
VERTEX
  8
0
 10
3.77601968608
 20
-10.5967374789
 30
0.0
  0
VERTEX
  8
0
 10
3.7308519071
 20
-10.6181803554
 30
0.0
  0
VERTEX
  8
0
 10
3.68606094437
 20
-10.6404001137
 30
0.0
  0
VERTEX
  8
0
 10
3.6416020118
 20
-10.6632772593
 30
0.0
  0
VERTEX
  8
0
 10
3.59744501909
 20
-10.6867320702
 30
0.0
  0
VERTEX
  8
0
 10
3.55356823544
 20
-10.7107070822
 30
0.0
  0
VERTEX
  8
0
 10
3.50995507081
 20
-10.7351584409
 30
0.0
  0
VERTEX
  8
0
 10
3.46659234128
 20
-10.7600512824
 30
0.0
  0
VERTEX
  8
0
 10
3.42346925195
 20
-10.7853570371
 30
0.0
  0
VERTEX
  8
0
 10
3.38057675831
 20
-10.8110517408
 30
0.0
  0
VERTEX
  8
0
 10
3.33790714298
 20
-10.8371149173
 30
0.0
  0
VERTEX
  8
0
 10
3.2954537229
 20
-10.8635288068
 30
0.0
  0
VERTEX
  8
0
 10
3.25321063948
 20
-10.8902778133
 30
0.0
  0
VERTEX
  8
0
 10
3.21117270385
 20
-10.9173480974
 30
0.0
  0
VERTEX
  8
0
 10
3.16933527982
 20
-10.9447272686
 30
0.0
  0
VERTEX
  8
0
 10
3.12769419369
 20
-10.9724041483
 30
0.0
  0
VERTEX
  8
0
 10
3.08624566323
 20
-11.0003685833
 30
0.0
  0
VERTEX
  8
0
 10
3.04498624114
 20
-11.0286112976
 30
0.0
  0
VERTEX
  8
0
 10
3.00391276922
 20
-11.0571237718
 30
0.0
  0
VERTEX
  8
0
 10
2.96302234091
 20
-11.0858981453
 30
0.0
  0
VERTEX
  8
0
 10
2.92231227022
 20
-11.1149271345
 30
0.0
  0
VERTEX
  8
0
 10
2.88178006578
 20
-11.1442039652
 30
0.0
  0
VERTEX
  8
0
 10
2.84142340901
 20
-11.1737223151
 30
0.0
  0
VERTEX
  8
0
 10
2.80124013546
 20
-11.203476265
 30
0.0
  0
VERTEX
  8
0
 10
2.76122821893
 20
-11.2334602575
 30
0.0
  0
VERTEX
  8
0
 10
2.72138575774
 20
-11.2636690609
 30
0.0
  0
VERTEX
  8
0
 10
2.68171096282
 20
-11.294097738
 30
0.0
  0
VERTEX
  8
0
 10
2.64220214737
 20
-11.3247416191
 30
0.0
  0
VERTEX
  8
0
 10
2.60285771774
 20
-11.3555962783
 30
0.0
  0
VERTEX
  8
0
 10
2.56367616542
 20
-11.3866575127
 30
0.0
  0
VERTEX
  8
0
 10
2.52465605997
 20
-11.4179213235
 30
0.0
  0
VERTEX
  8
0
 10
2.48579604274
 20
-11.4493838998
 30
0.0
  0
VERTEX
  8
0
 10
2.44709482122
 20
-11.4810416043
 30
0.0
  0
VERTEX
  8
0
 10
2.40855116406
 20
-11.5128909596
 30
0.0
  0
VERTEX
  8
0
 10
2.37016389652
 20
-11.5449286368
 30
0.0
  0
VERTEX
  8
0
 10
2.33193189646
 20
-11.577151445
 30
0.0
  0
VERTEX
  8
0
 10
2.2938540906
 20
-11.6095563214
 30
0.0
  0
VERTEX
  8
0
 10
2.25592945123
 20
-11.642140323
 30
0.0
  0
VERTEX
  8
0
 10
2.2181569932
 20
-11.6749006182
 30
0.0
  0
VERTEX
  8
0
 10
2.18053577112
 20
-11.7078344805
 30
0.0
  0
VERTEX
  8
0
 10
2.14306487688
 20
-11.740939281
 30
0.0
  0
VERTEX
  8
0
 10
2.10574343733
 20
-11.7742124829
 30
0.0
  0
VERTEX
  8
0
 10
2.06857061216
 20
-11.8076516363
 30
0.0
  0
VERTEX
  8
0
 10
2.03154559197
 20
-11.8412543724
 30
0.0
  0
VERTEX
  8
0
 10
1.99466759648
 20
-11.8750183993
 30
0.0
  0
VERTEX
  8
0
 10
1.95793587287
 20
-11.9089414981
 30
0.0
  0
VERTEX
  8
0
 10
1.92134969426
 20
-11.9430215179
 30
0.0
  0
VERTEX
  8
0
 10
1.88490835827
 20
-11.9772563733
 30
0.0
  0
VERTEX
  8
0
 10
1.84861118575
 20
-12.01164404
 30
0.0
  0
VERTEX
  8
0
 10
1.81245751953
 20
-12.0461825524
 30
0.0
  0
VERTEX
  8
0
 10
1.77644672329
 20
-12.0808700002
 30
0.0
  0
VERTEX
  8
0
 10
1.74057818053
 20
-12.1157045259
 30
0.0
  0
VERTEX
  8
0
 10
1.70485129353
 20
-12.1506843221
 30
0.0
  0
VERTEX
  8
0
 10
1.66926548246
 20
-12.1858076292
 30
0.0
  0
VERTEX
  8
0
 10
1.63382018454
 20
-12.2210727332
 30
0.0
  0
VERTEX
  8
0
 10
1.59851485317
 20
-12.2564779635
 30
0.0
  0
VERTEX
  8
0
 10
1.56334895724
 20
-12.2920216911
 30
0.0
  0
VERTEX
  8
0
 10
1.52832198037
 20
-12.3277023265
 30
0.0
  0
VERTEX
  8
0
 10
1.49343342026
 20
-12.3635183184
 30
0.0
  0
VERTEX
  8
0
 10
1.45868278804
 20
-12.3994681515
 30
0.0
  0
VERTEX
  8
0
 10
1.42406960772
 20
-12.4355503457
 30
0.0
  0
VERTEX
  8
0
 10
1.38959341558
 20
-12.4717634539
 30
0.0
  0
VERTEX
  8
0
 10
1.35525375966
 20
-12.5081060611
 30
0.0
  0
VERTEX
  8
0
 10
1.32105019929
 20
-12.5445767832
 30
0.0
  0
VERTEX
  8
0
 10
1.28698230457
 20
-12.5811742652
 30
0.0
  0
VERTEX
  8
0
 10
1.25304965596
 20
-12.617897181
 30
0.0
  0
VERTEX
  8
0
 10
1.21925184382
 20
-12.6547442313
 30
0.0
  0
VERTEX
  8
0
 10
1.18558846806
 20
-12.6917141432
 30
0.0
  0
VERTEX
  8
0
 10
1.1520591377
 20
-12.728805669
 30
0.0
  0
VERTEX
  8
0
 10
1.11866347055
 20
-12.7660175856
 30
0.0
  0
VERTEX
  8
0
 10
1.08540109286
 20
-12.803348693
 30
0.0
  0
VERTEX
  8
0
 10
1.05227163899
 20
-12.8407978141
 30
0.0
  0
VERTEX
  8
0
 10
1.01927475107
 20
-12.8783637934
 30
0.0
  0
VERTEX
  8
0
 10
0.986410078756
 20
-12.9160454966
 30
0.0
  0
VERTEX
  8
0
 10
0.953677278908
 20
-12.9538418097
 30
0.0
  0
VERTEX
  8
0
 10
0.921076015336
 20
-12.9917516384
 30
0.0
  0
VERTEX
  8
0
 10
0.888605958543
 20
-13.0297739074
 30
0.0
  0
VERTEX
  8
0
 10
0.856266785475
 20
-13.0679075597
 30
0.0
  0
VERTEX
  8
0
 10
0.824058179288
 20
-13.1061515561
 30
0.0
  0
VERTEX
  8
0
 10
0.791979829126
 20
-13.1445048748
 30
0.0
  0
VERTEX
  8
0
 10
0.760031429907
 20
-13.1829665104
 30
0.0
  0
VERTEX
  8
0
 10
0.728212682114
 20
-13.2215354738
 30
0.0
  0
VERTEX
  8
0
 10
0.696523291602
 20
-13.2602107916
 30
0.0
  0
VERTEX
  8
0
 10
0.664962969409
 20
-13.2989915054
 30
0.0
  0
VERTEX
  8
0
 10
0.633531431576
 20
-13.3378766716
 30
0.0
  0
VERTEX
  8
0
 10
0.602228398973
 20
-13.3768653608
 30
0.0
  0
VERTEX
  8
0
 10
0.571053597136
 20
-13.4159566577
 30
0.0
  0
VERTEX
  8
0
 10
0.540006756103
 20
-13.4551496602
 30
0.0
  0
VERTEX
  8
0
 10
0.509087610266
 20
-13.4944434794
 30
0.0
  0
VERTEX
  8
0
 10
0.47829589822
 20
-13.533837239
 30
0.0
  0
VERTEX
  8
0
 10
0.447631362626
 20
-13.5733300751
 30
0.0
  0
VERTEX
  8
0
 10
0.417093750072
 20
-13.6129211357
 30
0.0
  0
VERTEX
  8
0
 10
0.386682810945
 20
-13.6526095807
 30
0.0
  0
VERTEX
  8
0
 10
0.3563982993
 20
-13.692394581
 30
0.0
  0
VERTEX
  8
0
 10
0.326239972748
 20
-13.732275319
 30
0.0
  0
VERTEX
  8
0
 10
0.296207592332
 20
-13.7722509873
 30
0.0
  0
VERTEX
  8
0
 10
0.266300922417
 20
-13.8123207895
 30
0.0
  0
VERTEX
  8
0
 10
0.236519730583
 20
-13.8524839391
 30
0.0
  0
VERTEX
  8
0
 10
0.20686378752
 20
-13.8927396595
 30
0.0
  0
VERTEX
  8
0
 10
0.177332866927
 20
-13.933087184
 30
0.0
  0
VERTEX
  8
0
 10
0.147926745417
 20
-13.9735257552
 30
0.0
  0
VERTEX
  8
0
 10
0.118645202418
 20
-14.0140546248
 30
0.0
  0
VERTEX
  8
0
 10
0.0894880200909
 20
-14.0546730538
 30
0.0
  0
VERTEX
  8
0
 10
0.0604549832348
 20
-14.0953803116
 30
0.0
  0
VERTEX
  8
0
 10
0.031545879207
 20
-14.1361756763
 30
0.0
  0
VERTEX
  8
0
 10
0.00276049783967
 20
-14.1770584345
 30
0.0
  0
VERTEX
  8
0
 10
-0.0259013686378
 20
-14.2180278806
 30
0.0
  0
VERTEX
  8
0
 10
-0.0490510214135
 20
-14.2513107115
 30
0.0
  0
SEQEND
  8
0
  0
POLYLINE
  8
0
 62
0
 70
0
 66
1
 10
0.0
 20
0.0
 30
0.0
  0
VERTEX
  8
0
 10
0.875620148225
 20
-16.17141018
 30
0.0
  0
VERTEX
  8
0
 10
0.925513938024
 20
-16.1746671511
 30
0.0
  0
VERTEX
  8
0
 10
0.975417301314
 20
-16.1777739886
 30
0.0
  0
VERTEX
  8
0
 10
1.02532982001
 20
-16.1807300958
 30
0.0
  0
VERTEX
  8
0
 10
1.07525107124
 20
-16.1835348691
 30
0.0
  0
VERTEX
  8
0
 10
1.12518062724
 20
-16.186187698
 30
0.0
  0
VERTEX
  8
0
 10
1.17511805522
 20
-16.1886879648
 30
0.0
  0
VERTEX
  8
0
 10
1.22506291731
 20
-16.1910350444
 30
0.0
  0
VERTEX
  8
0
 10
1.27501477041
 20
-16.1932283041
 30
0.0
  0
VERTEX
  8
0
 10
1.32497316607
 20
-16.1952671035
 30
0.0
  0
VERTEX
  8
0
 10
1.37493765039
 20
-16.1971507943
 30
0.0
  0
VERTEX
  8
0
 10
1.42490776386
 20
-16.1988787198
 30
0.0
  0
VERTEX
  8
0
 10
1.47488304128
 20
-16.200450215
 30
0.0
  0
VERTEX
  8
0
 10
1.52486301157
 20
-16.2018646062
 30
0.0
  0
VERTEX
  8
0
 10
1.57484719767
 20
-16.2031212108
 30
0.0
  0
VERTEX
  8
0
 10
1.62483511637
 20
-16.2042193369
 30
0.0
  0
VERTEX
  8
0
 10
1.67482627816
 20
-16.2051582833
 30
0.0
  0
VERTEX
  8
0
 10
1.72482018711
 20
-16.2059373391
 30
0.0
  0
VERTEX
  8
0
 10
1.77481634063
 20
-16.2065557833
 30
0.0
  0
VERTEX
  8
0
 10
1.82481422938
 20
-16.2070128846
 30
0.0
  0
VERTEX
  8
0
 10
1.87481333703
 20
-16.2073079011
 30
0.0
  0
VERTEX
  8
0
 10
1.92481314011
 20
-16.2074400802
 30
0.0
  0
VERTEX
  8
0
 10
1.97481310783
 20
-16.2074086576
 30
0.0
  0
VERTEX
  8
0
 10
2.02481270183
 20
-16.2072128577
 30
0.0
  0
VERTEX
  8
0
 10
2.07481137601
 20
-16.2068518929
 30
0.0
  0
VERTEX
  8
0
 10
2.12480857631
 20
-16.2063249631
 30
0.0
  0
VERTEX
  8
0
 10
2.17480374048
 20
-16.2056312555
 30
0.0
  0
VERTEX
  8
0
 10
2.22479629782
 20
-16.2047699443
 30
0.0
  0
VERTEX
  8
0
 10
2.27478566898
 20
-16.2037401898
 30
0.0
  0
VERTEX
  8
0
 10
2.32477126564
 20
-16.2025411385
 30
0.0
  0
VERTEX
  8
0
 10
2.37475249031
 20
-16.2011719223
 30
0.0
  0
VERTEX
  8
0
 10
2.424728736
 20
-16.1996316581
 30
0.0
  0
VERTEX
  8
0
 10
2.47469938593
 20
-16.1979194474
 30
0.0
  0
VERTEX
  8
0
 10
2.52466381325
 20
-16.1960343754
 30
0.0
  0
VERTEX
  8
0
 10
2.57462138066
 20
-16.193975511
 30
0.0
  0
VERTEX
  8
0
 10
2.62457144016
 20
-16.1917419056
 30
0.0
  0
VERTEX
  8
0
 10
2.67451333259
 20
-16.1893325931
 30
0.0
  0
VERTEX
  8
0
 10
2.72444638736
 20
-16.1867465888
 30
0.0
  0
VERTEX
  8
0
 10
2.77436992196
 20
-16.1839828887
 30
0.0
  0
VERTEX
  8
0
 10
2.82428324164
 20
-16.1810404692
 30
0.0
  0
VERTEX
  8
0
 10
2.87418563891
 20
-16.1779182862
 30
0.0
  0
VERTEX
  8
0
 10
2.92407639313
 20
-16.1746152738
 30
0.0
  0
VERTEX
  8
0
 10
2.97395477
 20
-16.1711303444
 30
0.0
  0
VERTEX
  8
0
 10
3.02382002107
 20
-16.1674623871
 30
0.0
  0
VERTEX
  8
0
 10
3.07367138323
 20
-16.1636102669
 30
0.0
  0
VERTEX
  8
0
 10
3.12350807811
 20
-16.1595728241
 30
0.0
  0
VERTEX
  8
0
 10
3.17332931152
 20
-16.1553488729
 30
0.0
  0
VERTEX
  8
0
 10
3.22313427279
 20
-16.1509372005
 30
0.0
  0
VERTEX
  8
0
 10
3.27292213417
 20
-16.1463365659
 30
0.0
  0
VERTEX
  8
0
 10
3.32269205006
 20
-16.1415456988
 30
0.0
  0
VERTEX
  8
0
 10
3.37244315631
 20
-16.1365632981
 30
0.0
  0
VERTEX
  8
0
 10
3.42217456945
 20
-16.1313880307
 30
0.0
  0
VERTEX
  8
0
 10
3.4718853858
 20
-16.1260185304
 30
0.0
  0
VERTEX
  8
0
 10
3.52157468063
 20
-16.1204533955
 30
0.0
  0
VERTEX
  8
0
 10
3.57124150721
 20
-16.1146911881
 30
0.0
  0
VERTEX
  8
0
 10
3.62088489578
 20
-16.108730432
 30
0.0
  0
VERTEX
  8
0
 10
3.67050385251
 20
-16.1025696106
 30
0.0
  0
VERTEX
  8
0
 10
3.72009735835
 20
-16.0962071655
 30
0.0
  0
VERTEX
  8
0
 10
3.76966436781
 20
-16.0896414939
 30
0.0
  0
VERTEX
  8
0
 10
3.81920380764
 20
-16.0828709468
 30
0.0
  0
VERTEX
  8
0
 10
3.86871457545
 20
-16.0758938261
 30
0.0
  0
VERTEX
  8
0
 10
3.91819553823
 20
-16.0687083826
 30
0.0
  0
VERTEX
  8
0
 10
3.96764553067
 20
-16.0613128128
 30
0.0
  0
VERTEX
  8
0
 10
4.0170633535
 20
-16.0537052561
 30
0.0
  0
VERTEX
  8
0
 10
4.0664477716
 20
-16.0458837917
 30
0.0
  0
VERTEX
  8
0
 10
4.11579751196
 20
-16.0378464351
 30
0.0
  0
VERTEX
  8
0
 10
4.16511126156
 20
-16.0295911343
 30
0.0
  0
VERTEX
  8
0
 10
4.21438766495
 20
-16.0211157657
 30
0.0
  0
VERTEX
  8
0
 10
4.26362532173
 20
-16.01241813
 30
0.0
  0
VERTEX
  8
0
 10
4.31282278378
 20
-16.0034959474
 30
0.0
  0
VERTEX
  8
0
 10
4.36197855222
 20
-15.9943468523
 30
0.0
  0
VERTEX
  8
0
 10
4.4110910741
 20
-15.9849683875
 30
0.0
  0
VERTEX
  8
0
 10
4.46015873881
 20
-15.9753579987
 30
0.0
  0
VERTEX
  8
0
 10
4.50917987412
 20
-15.9655130271
 30
0.0
  0
VERTEX
  8
0
 10
4.55815274184
 20
-15.9554307022
 30
0.0
  0
VERTEX
  8
0
 10
4.60707553303
 20
-15.9451081339
 30
0.0
  0
VERTEX
  8
0
 10
4.65594636268
 20
-15.9345423031
 30
0.0
  0
VERTEX
  8
0
 10
4.7047632639
 20
-15.9237300519
 30
0.0
  0
VERTEX
  8
0
 10
4.75352418141
 20
-15.9126680727
 30
0.0
  0
VERTEX
  8
0
 10
4.80222696422
 20
-15.9013528954
 30
0.0
  0
VERTEX
  8
0
 10
4.85086935758
 20
-15.8897808742
 30
0.0
  0
VERTEX
  8
0
 10
4.89944899384
 20
-15.8779481717
 30
0.0
  0
VERTEX
  8
0
 10
4.94796338218
 20
-15.8658507413
 30
0.0
  0
VERTEX
  8
0
 10
4.99640989696
 20
-15.8534843078
 30
0.0
  0
VERTEX
  8
0
 10
5.04478576455
 20
-15.840844345
 30
0.0
  0
VERTEX
  8
0
 10
5.09308804814
 20
-15.8279260496
 30
0.0
  0
VERTEX
  8
0
 10
5.14131363045
 20
-15.8147243119
 30
0.0
  0
VERTEX
  8
0
 10
5.18945919366
 20
-15.801233682
 30
0.0
  0
VERTEX
  8
0
 10
5.23752119608
 20
-15.7874483301
 30
0.0
  0
VERTEX
  8
0
 10
5.28549584489
 20
-15.7733620001
 30
0.0
  0
VERTEX
  8
0
 10
5.33337906401
 20
-15.7589679554
 30
0.0
  0
VERTEX
  8
0
 10
5.38116645582
 20
-15.7442589136
 30
0.0
  0
VERTEX
  8
0
 10
5.4288532554
 20
-15.7292269694
 30
0.0
  0
VERTEX
  8
0
 10
5.47643427496
 20
-15.7138635003
 30
0.0
  0
VERTEX
  8
0
 10
5.5239038359
 20
-15.6981590514
 30
0.0
  0
VERTEX
  8
0
 10
5.57125568449
 20
-15.6821031928
 30
0.0
  0
VERTEX
  8
0
 10
5.61848288588
 20
-15.6656843404
 30
0.0
  0
VERTEX
  8
0
 10
5.66557768863
 20
-15.6488895263
 30
0.0
  0
VERTEX
  8
0
 10
5.71253134828
 20
-15.6317041013
 30
0.0
  0
VERTEX
  8
0
 10
5.75933389283
 20
-15.6141113378
 30
0.0
  0
VERTEX
  8
0
 10
5.80597380261
 20
-15.5960918901
 30
0.0
  0
VERTEX
  8
0
 10
5.85243756014
 20
-15.5776230344
 30
0.0
  0
VERTEX
  8
0
 10
5.89870899342
 20
-15.5586775624
 30
0.0
  0
VERTEX
  8
0
 10
5.94476827281
 20
-15.5392220932
 30
0.0
  0
VERTEX
  8
0
 10
5.99059028817
 20
-15.5192143484
 30
0.0
  0
VERTEX
  8
0
 10
6.03614181986
 20
-15.4985984189
 30
0.0
  0
VERTEX
  8
0
 10
6.08137611997
 20
-15.4772957704
 30
0.0
  0
VERTEX
  8
0
 10
6.11777313396
 20
-15.4594386189
 30
0.0
  0
SEQEND
  8
0
  0
POLYLINE
  8
0
 62
0
 70
0
 66
1
 10
0.0
 20
0.0
 30
0.0
  0
VERTEX
  8
0
 10
8.15337514476
 20
-18.4451184049
 30
0.0
  0
VERTEX
  8
0
 10
8.11653444226
 20
-18.4789220711
 30
0.0
  0
VERTEX
  8
0
 10
8.08028280507
 20
-18.513357036
 30
0.0
  0
VERTEX
  8
0
 10
8.04454221518
 20
-18.5483223146
 30
0.0
  0
VERTEX
  8
0
 10
8.00926042064
 20
-18.5837505962
 30
0.0
  0
VERTEX
  8
0
 10
7.97439971823
 20
-18.6195933747
 30
0.0
  0
VERTEX
  8
0
 10
7.93993132861
 20
-18.655813634
 30
0.0
  0
VERTEX
  8
0
 10
7.90583237732
 20
-18.6923819453
 30
0.0
  0
VERTEX
  8
0
 10
7.87208412801
 20
-18.7292741901
 30
0.0
  0
VERTEX
  8
0
 10
7.83867087437
 20
-18.7664701346
 30
0.0
  0
VERTEX
  8
0
 10
7.80557920646
 20
-18.8039524872
 30
0.0
  0
VERTEX
  8
0
 10
7.77279750333
 20
-18.8417062469
 30
0.0
  0
VERTEX
  8
0
 10
7.74031556967
 20
-18.8797182375
 30
0.0
  0
VERTEX
  8
0
 10
7.70812436787
 20
-18.9179767639
 30
0.0
  0
VERTEX
  8
0
 10
7.6762158156
 20
-18.9564713526
 30
0.0
  0
VERTEX
  8
0
 10
7.64458262959
 20
-18.9951925518
 30
0.0
  0
VERTEX
  8
0
 10
7.61321820297
 20
-19.0341317743
 30
0.0
  0
VERTEX
  8
0
 10
7.5821165074
 20
-19.0732811721
 30
0.0
  0
VERTEX
  8
0
 10
7.5512720139
 20
-19.1126335355
 30
0.0
  0
VERTEX
  8
0
 10
7.52067962806
 20
-19.1521822096
 30
0.0
  0
VERTEX
  8
0
 10
7.49033463637
 20
-19.1919210263
 30
0.0
  0
VERTEX
  8
0
 10
7.46023266139
 20
-19.2318442465
 30
0.0
  0
VERTEX
  8
0
 10
7.43036962401
 20
-19.2719465123
 30
0.0
  0
VERTEX
  8
0
 10
7.40074171126
 20
-19.3122228056
 30
0.0
  0
VERTEX
  8
0
 10
7.37134534887
 20
-19.3526684129
 30
0.0
  0
VERTEX
  8
0
 10
7.34217717754
 20
-19.3932788955
 30
0.0
  0
VERTEX
  8
0
 10
7.31323403246
 20
-19.4340500629
 30
0.0
  0
VERTEX
  8
0
 10
7.28451292535
 20
-19.4749779501
 30
0.0
  0
VERTEX
  8
0
 10
7.25601102881
 20
-19.5160587977
 30
0.0
  0
VERTEX
  8
0
 10
7.22772566247
 20
-19.5572890338
 30
0.0
  0
VERTEX
  8
0
 10
7.19965428082
 20
-19.5986652592
 30
0.0
  0
VERTEX
  8
0
 10
7.1717944623
 20
-19.6401842327
 30
0.0
  0
VERTEX
  8
0
 10
7.14414389967
 20
-19.6818428595
 30
0.0
  0
VERTEX
  8
0
 10
7.11670039132
 20
-19.7236381797
 30
0.0
  0
VERTEX
  8
0
 10
7.08946183353
 20
-19.7655673585
 30
0.0
  0
VERTEX
  8
0
 10
7.0624262134
 20
-19.8076276776
 30
0.0
  0
VERTEX
  8
0
 10
7.03559160262
 20
-19.8498165266
 30
0.0
  0
VERTEX
  8
0
 10
7.00895615163
 20
-19.8921313961
 30
0.0
  0
VERTEX
  8
0
 10
6.98251808447
 20
-19.9345698708
 30
0.0
  0
VERTEX
  8
0
 10
6.95627569404
 20
-19.9771296238
 30
0.0
  0
VERTEX
  8
0
 10
6.93022733774
 20
-20.0198084109
 30
0.0
  0
VERTEX
  8
0
 10
6.90437143348
 20
-20.0626040653
 30
0.0
  0
VERTEX
  8
0
 10
6.87870645611
 20
-20.1055144934
 30
0.0
  0
VERTEX
  8
0
 10
6.85323093401
 20
-20.1485376705
 30
0.0
  0
VERTEX
  8
0
 10
6.82794344606
 20
-20.1916716365
 30
0.0
  0
VERTEX
  8
0
 10
6.80284261875
 20
-20.2349144927
 30
0.0
  0
VERTEX
  8
0
 10
6.77792712359
 20
-20.2782643984
 30
0.0
  0
VERTEX
  8
0
 10
6.75319567466
 20
-20.3217195675
 30
0.0
  0
VERTEX
  8
0
 10
6.72864702638
 20
-20.3652782661
 30
0.0
  0
VERTEX
  8
0
 10
6.70427997135
 20
-20.4089388094
 30
0.0
  0
VERTEX
  8
0
 10
6.68009333849
 20
-20.4526995598
 30
0.0
  0
VERTEX
  8
0
 10
6.65608599114
 20
-20.4965589238
 30
0.0
  0
VERTEX
  8
0
 10
6.63225682541
 20
-20.5405153507
 30
0.0
  0
VERTEX
  8
0
 10
6.6086047686
 20
-20.5845673297
 30
0.0
  0
VERTEX
  8
0
 10
6.58512877769
 20
-20.6287133891
 30
0.0
  0
VERTEX
  8
0
 10
6.56182783798
 20
-20.6729520935
 30
0.0
  0
VERTEX
  8
0
 10
6.53870096176
 20
-20.7172820427
 30
0.0
  0
VERTEX
  8
0
 10
6.51574718712
 20
-20.7617018703
 30
0.0
  0
VERTEX
  8
0
 10
6.49296557676
 20
-20.8062102418
 30
0.0
  0
VERTEX
  8
0
 10
6.47035521698
 20
-20.8508058534
 30
0.0
  0
VERTEX
  8
0
 10
6.44791521657
 20
-20.8954874309
 30
0.0
  0
VERTEX
  8
0
 10
6.42564470593
 20
-20.9402537283
 30
0.0
  0
VERTEX
  8
0
 10
6.40354283611
 20
-20.9851035267
 30
0.0
  0
VERTEX
  8
0
 10
6.381608778
 20
-21.0300356333
 30
0.0
  0
VERTEX
  8
0
 10
6.35984172147
 20
-21.0750488802
 30
0.0
  0
VERTEX
  8
0
 10
6.33824087466
 20
-21.1201421236
 30
0.0
  0
VERTEX
  8
0
 10
6.31680546322
 20
-21.1653142428
 30
0.0
  0
VERTEX
  8
0
 10
6.29553472961
 20
-21.2105641395
 30
0.0
  0
VERTEX
  8
0
 10
6.2744279325
 20
-21.2558907366
 30
0.0
  0
VERTEX
  8
0
 10
6.25348434611
 20
-21.3012929778
 30
0.0
  0
VERTEX
  8
0
 10
6.23270325962
 20
-21.3467698268
 30
0.0
  0
VERTEX
  8
0
 10
6.21208397663
 20
-21.3923202664
 30
0.0
  0
VERTEX
  8
0
 10
6.19162581464
 20
-21.4379432981
 30
0.0
  0
VERTEX
  8
0
 10
6.1713281045
 20
-21.4836379412
 30
0.0
  0
VERTEX
  8
0
 10
6.15119018997
 20
-21.5294032323
 30
0.0
  0
VERTEX
  8
0
 10
6.13121142724
 20
-21.5752382248
 30
0.0
  0
VERTEX
  8
0
 10
6.11139118449
 20
-21.6211419883
 30
0.0
  0
VERTEX
  8
0
 10
6.09172884147
 20
-21.667113608
 30
0.0
  0
VERTEX
  8
0
 10
6.07222378913
 20
-21.7131521843
 30
0.0
  0
VERTEX
  8
0
 10
6.0528754292
 20
-21.7592568324
 30
0.0
  0
VERTEX
  8
0
 10
6.03368317383
 20
-21.8054266814
 30
0.0
  0
VERTEX
  8
0
 10
6.01464644527
 20
-21.8516608746
 30
0.0
  0
VERTEX
  8
0
 10
5.9957646755
 20
-21.8979585683
 30
0.0
  0
VERTEX
  8
0
 10
5.97703730592
 20
-21.944318932
 30
0.0
  0
VERTEX
  8
0
 10
5.95846378706
 20
-21.9907411478
 30
0.0
  0
VERTEX
  8
0
 10
5.94004357828
 20
-22.0372244098
 30
0.0
  0
VERTEX
  8
0
 10
5.92177614745
 20
-22.0837679243
 30
0.0
  0
VERTEX
  8
0
 10
5.90366097075
 20
-22.1303709087
 30
0.0
  0
VERTEX
  8
0
 10
5.88569753233
 20
-22.1770325919
 30
0.0
  0
VERTEX
  8
0
 10
5.86788532413
 20
-22.2237522138
 30
0.0
  0
VERTEX
  8
0
 10
5.8502238456
 20
-22.2705290245
 30
0.0
  0
VERTEX
  8
0
 10
5.83271260347
 20
-22.3173622847
 30
0.0
  0
VERTEX
  8
0
 10
5.81535111156
 20
-22.3642512651
 30
0.0
  0
VERTEX
  8
0
 10
5.79813889052
 20
-22.411195246
 30
0.0
  0
VERTEX
  8
0
 10
5.78107546766
 20
-22.4581935174
 30
0.0
  0
VERTEX
  8
0
 10
5.76416037675
 20
-22.5052453786
 30
0.0
  0
VERTEX
  8
0
 10
5.7473931578
 20
-22.5523501376
 30
0.0
  0
VERTEX
  8
0
 10
5.73077335692
 20
-22.5995071115
 30
0.0
  0
VERTEX
  8
0
 10
5.71430052609
 20
-22.6467156259
 30
0.0
  0
VERTEX
  8
0
 10
5.69797422306
 20
-22.6939750147
 30
0.0
  0
VERTEX
  8
0
 10
5.68179401112
 20
-22.7412846201
 30
0.0
  0
VERTEX
  8
0
 10
5.66575945896
 20
-22.7886437921
 30
0.0
  0
VERTEX
  8
0
 10
5.64987014054
 20
-22.8360518886
 30
0.0
  0
VERTEX
  8
0
 10
5.63412563492
 20
-22.883508275
 30
0.0
  0
VERTEX
  8
0
 10
5.61852552612
 20
-22.9310123241
 30
0.0
  0
VERTEX
  8
0
 10
5.60306940299
 20
-22.9785634161
 30
0.0
  0
VERTEX
  8
0
 10
5.58775685907
 20
-23.0261609382
 30
0.0
  0
VERTEX
  8
0
 10
5.57544596703
 20
-23.0647885862
 30
0.0
  0
SEQEND
  8
0
  0
POLYLINE
  8
0
 62
0
 70
0
 66
1
 10
0.0
 20
0.0
 30
0.0
  0
VERTEX
  8
0
 10
7.02499584477
 20
-24.6270318109
 30
0.0
  0
VERTEX
  8
0
 10
7.07363300256
 20
-24.6154376312
 30
0.0
  0
VERTEX
  8
0
 10
7.12223505587
 20
-24.603697166
 30
0.0
  0
VERTEX
  8
0
 10
7.17080142929
 20
-24.5918099685
 30
0.0
  0
VERTEX
  8
0
 10
7.21933154085
 20
-24.5797755865
 30
0.0
  0
VERTEX
  8
0
 10
7.2678248018
 20
-24.5675935627
 30
0.0
  0
VERTEX
  8
0
 10
7.31628061654
 20
-24.5552634343
 30
0.0
  0
VERTEX
  8
0
 10
7.3646983824
 20
-24.5427847332
 30
0.0
  0
VERTEX
  8
0
 10
7.41307748947
 20
-24.5301569854
 30
0.0
  0
VERTEX
  8
0
 10
7.46141732047
 20
-24.5173797111
 30
0.0
  0
VERTEX
  8
0
 10
7.50971725054
 20
-24.5044524245
 30
0.0
  0
VERTEX
  8
0
 10
7.55797664707
 20
-24.4913746336
 30
0.0
  0
VERTEX
  8
0
 10
7.60619486947
 20
-24.4781458401
 30
0.0
  0
VERTEX
  8
0
 10
7.65437126904
 20
-24.464765539
 30
0.0
  0
VERTEX
  8
0
 10
7.70250518869
 20
-24.4512332186
 30
0.0
  0
VERTEX
  8
0
 10
7.75059596277
 20
-24.4375483604
 30
0.0
  0
VERTEX
  8
0
 10
7.79864291683
 20
-24.4237104384
 30
0.0
  0
VERTEX
  8
0
 10
7.84664536739
 20
-24.4097189196
 30
0.0
  0
VERTEX
  8
0
 10
7.89460262171
 20
-24.3955732631
 30
0.0
  0
VERTEX
  8
0
 10
7.94251397752
 20
-24.3812729202
 30
0.0
  0
VERTEX
  8
0
 10
7.99037872276
 20
-24.3668173343
 30
0.0
  0
VERTEX
  8
0
 10
8.03819613534
 20
-24.3522059403
 30
0.0
  0
VERTEX
  8
0
 10
8.08596548281
 20
-24.3374381646
 30
0.0
  0
VERTEX
  8
0
 10
8.13368602211
 20
-24.3225134245
 30
0.0
  0
VERTEX
  8
0
 10
8.18135699924
 20
-24.3074311284
 30
0.0
  0
VERTEX
  8
0
 10
8.22897764893
 20
-24.2921906751
 30
0.0
  0
VERTEX
  8
0
 10
8.27654719433
 20
-24.2767914537
 30
0.0
  0
VERTEX
  8
0
 10
8.32406484667
 20
-24.2612328431
 30
0.0
  0
VERTEX
  8
0
 10
8.37152980486
 20
-24.2455142119
 30
0.0
  0
VERTEX
  8
0
 10
8.41894125514
 20
-24.2296349179
 30
0.0
  0
VERTEX
  8
0
 10
8.46629837068
 20
-24.2135943075
 30
0.0
  0
VERTEX
  8
0
 10
8.51360031116
 20
-24.1973917159
 30
0.0
  0
VERTEX
  8
0
 10
8.56084622235
 20
-24.1810264663
 30
0.0
  0
VERTEX
  8
0
 10
8.60803523563
 20
-24.1644978693
 30
0.0
  0
VERTEX
  8
0
 10
8.65516646755
 20
-24.1478052229
 30
0.0
  0
VERTEX
  8
0
 10
8.70223901932
 20
-24.1309478119
 30
0.0
  0
VERTEX
  8
0
 10
8.74925197627
 20
-24.1139249072
 30
0.0
  0
VERTEX
  8
0
 10
8.79620440734
 20
-24.0967357654
 30
0.0
  0
VERTEX
  8
0
 10
8.84309536448
 20
-24.0793796286
 30
0.0
  0
VERTEX
  8
0
 10
8.88992388205
 20
-24.0618557234
 30
0.0
  0
VERTEX
  8
0
 10
8.93668897621
 20
-24.0441632603
 30
0.0
  0
VERTEX
  8
0
 10
8.98338964423
 20
-24.0263014336
 30
0.0
  0
VERTEX
  8
0
 10
9.03002486379
 20
-24.0082694202
 30
0.0
  0
VERTEX
  8
0
 10
9.07659359226
 20
-23.9900663791
 30
0.0
  0
VERTEX
  8
0
 10
9.12309476592
 20
-23.9716914509
 30
0.0
  0
VERTEX
  8
0
 10
9.16952729912
 20
-23.9531437567
 30
0.0
  0
VERTEX
  8
0
 10
9.21589008344
 20
-23.9344223974
 30
0.0
  0
VERTEX
  8
0
 10
9.26218198676
 20
-23.9155264532
 30
0.0
  0
VERTEX
  8
0
 10
9.3084018523
 20
-23.8964549821
 30
0.0
  0
VERTEX
  8
0
 10
9.35454849759
 20
-23.8772070195
 30
0.0
  0
VERTEX
  8
0
 10
9.40062071339
 20
-23.8577815769
 30
0.0
  0
VERTEX
  8
0
 10
9.44661726256
 20
-23.8381776408
 30
0.0
  0
VERTEX
  8
0
 10
9.49253687879
 20
-23.8183941719
 30
0.0
  0
VERTEX
  8
0
 10
9.53837826537
 20
-23.7984301036
 30
0.0
  0
VERTEX
  8
0
 10
9.58414009376
 20
-23.7782843408
 30
0.0
  0
VERTEX
  8
0
 10
9.62982100215
 20
-23.7579557587
 30
0.0
  0
VERTEX
  8
0
 10
9.67541959387
 20
-23.7374432011
 30
0.0
  0
VERTEX
  8
0
 10
9.72093443578
 20
-23.7167454791
 30
0.0
  0
VERTEX
  8
0
 10
9.76636405641
 20
-23.6958613694
 30
0.0
  0
VERTEX
  8
0
 10
9.81170694412
 20
-23.6747896124
 30
0.0
  0
VERTEX
  8
0
 10
9.85696154502
 20
-23.6535289106
 30
0.0
  0
VERTEX
  8
0
 10
9.90212626079
 20
-23.6320779264
 30
0.0
  0
VERTEX
  8
0
 10
9.94719944634
 20
-23.6104352799
 30
0.0
  0
VERTEX
  8
0
 10
9.99217940727
 20
-23.5885995466
 30
0.0
  0
VERTEX
  8
0
 10
10.0370643971
 20
-23.5665692552
 30
0.0
  0
VERTEX
  8
0
 10
10.0818526146
 20
-23.5443428845
 30
0.0
  0
VERTEX
  8
0
 10
10.1265422
 20
-23.5219188606
 30
0.0
  0
VERTEX
  8
0
 10
10.1711312323
 20
-23.499295554
 30
0.0
  0
VERTEX
  8
0
 10
10.215617725
 20
-23.4764712758
 30
0.0
  0
VERTEX
  8
0
 10
10.2599996224
 20
-23.4534442742
 30
0.0
  0
VERTEX
  8
0
 10
10.3042747948
 20
-23.4302127305
 30
0.0
  0
VERTEX
  8
0
 10
10.3484410341
 20
-23.4067747547
 30
0.0
  0
VERTEX
  8
0
 10
10.3924960483
 20
-23.3831283805
 30
0.0
  0
VERTEX
  8
0
 10
10.4364374558
 20
-23.35927156
 30
0.0
  0
VERTEX
  8
0
 10
10.480262779
 20
-23.3352021584
 30
0.0
  0
VERTEX
  8
0
 10
10.5239694374
 20
-23.310917947
 30
0.0
  0
VERTEX
  8
0
 10
10.5675547399
 20
-23.2864165965
 30
0.0
  0
VERTEX
  8
0
 10
10.6110158762
 20
-23.261695669
 30
0.0
  0
VERTEX
  8
0
 10
10.6543499073
 20
-23.2367526097
 30
0.0
  0
VERTEX
  8
0
 10
10.6975537551
 20
-23.2115847368
 30
0.0
  0
VERTEX
  8
0
 10
10.7406241903
 20
-23.1861892309
 30
0.0
  0
VERTEX
  8
0
 10
10.7835578193
 20
-23.160563123
 30
0.0
  0
VERTEX
  8
0
 10
10.8263510693
 20
-23.1347032805
 30
0.0
  0
VERTEX
  8
0
 10
10.8690001711
 20
-23.1086063921
 30
0.0
  0
VERTEX
  8
0
 10
10.9115011402
 20
-23.0822689501
 30
0.0
  0
VERTEX
  8
0
 10
10.9538497544
 20
-23.0556872302
 30
0.0
  0
VERTEX
  8
0
 10
10.9960415289
 20
-23.0288572687
 30
0.0
  0
VERTEX
  8
0
 10
11.0380716869
 20
-23.0017748358
 30
0.0
  0
VERTEX
  8
0
 10
11.0799351256
 20
-22.9744354045
 30
0.0
  0
VERTEX
  8
0
 10
11.1216263767
 20
-22.9468341147
 30
0.0
  0
VERTEX
  8
0
 10
11.1631395596
 20
-22.9189657304
 30
0.0
  0
VERTEX
  8
0
 10
11.2044683255
 20
-22.890824589
 30
0.0
  0
VERTEX
  8
0
 10
11.245605791
 20
-22.862404541
 30
0.0
  0
VERTEX
  8
0
 10
11.2865444574
 20
-22.833698876
 30
0.0
  0
VERTEX
  8
0
 10
11.3272761113
 20
-22.804700233
 30
0.0
  0
VERTEX
  8
0
 10
11.3677917028
 20
-22.7754004888
 30
0.0
  0
VERTEX
  8
0
 10
11.4080811904
 20
-22.7457906179
 30
0.0
  0
VERTEX
  8
0
 10
11.4481333448
 20
-22.7158605135
 30
0.0
  0
VERTEX
  8
0
 10
11.4879354922
 20
-22.6855987545
 30
0.0
  0
VERTEX
  8
0
 10
11.5274731729
 20
-22.654992296
 30
0.0
  0
VERTEX
  8
0
 10
11.5667296769
 20
-22.624026047
 30
0.0
  0
VERTEX
  8
0
 10
11.6056853893
 20
-22.5926822778
 30
0.0
  0
VERTEX
  8
0
 10
11.6443168367
 20
-22.5609397556
 30
0.0
  0
VERTEX
  8
0
 10
11.6825952313
 20
-22.5287724274
 30
0.0
  0
VERTEX
  8
0
 10
11.7204841168
 20
-22.4961472945
 30
0.0
  0
VERTEX
  8
0
 10
11.7579352699
 20
-22.4630207232
 30
0.0
  0
VERTEX
  8
0
 10
11.7948808711
 20
-22.4293314475
 30
0.0
  0
VERTEX
  8
0
 10
11.82439738
 20
-22.401539431
 30
0.0
  0
SEQEND
  8
0
  0
POLYLINE
  8
0
 62
0
 70
0
 66
1
 10
0.0
 20
0.0
 30
0.0
  0
VERTEX
  8
0
 10
14.649607871
 20
-24.6545696155
 30
0.0
  0
VERTEX
  8
0
 10
14.6243677031
 20
-24.6977304674
 30
0.0
  0
VERTEX
  8
0
 10
14.5998765085
 20
-24.741320941
 30
0.0
  0
VERTEX
  8
0
 10
14.5760299695
 20
-24.7852675342
 30
0.0
  0
VERTEX
  8
0
 10
14.5527583155
 20
-24.8295213282
 30
0.0
  0
VERTEX
  8
0
 10
14.5300112207
 20
-24.874047085
 30
0.0
  0
VERTEX
  8
0
 10
14.5077502737
 20
-24.918817916
 30
0.0
  0
VERTEX
  8
0
 10
14.4859449422
 20
-24.9638124422
 30
0.0
  0
VERTEX
  8
0
 10
14.4645702129
 20
-25.0090131392
 30
0.0
  0
VERTEX
  8
0
 10
14.4436051135
 20
-25.0544053016
 30
0.0
  0
VERTEX
  8
0
 10
14.4230317329
 20
-25.0999763588
 30
0.0
  0
VERTEX
  8
0
 10
14.4028345449
 20
-25.1457154015
 30
0.0
  0
VERTEX
  8
0
 10
14.3829999234
 20
-25.1916128441
 30
0.0
  0
VERTEX
  8
0
 10
14.363515785
 20
-25.2376601748
 30
0.0
  0
VERTEX
  8
0
 10
14.3443713193
 20
-25.2838497678
 30
0.0
  0
VERTEX
  8
0
 10
14.3255567808
 20
-25.330174738
 30
0.0
  0
VERTEX
  8
0
 10
14.307063325
 20
-25.3766288271
 30
0.0
  0
VERTEX
  8
0
 10
14.2888828781
 20
-25.4232063128
 30
0.0
  0
VERTEX
  8
0
 10
14.2710080316
 20
-25.4699019351
 30
0.0
  0
VERTEX
  8
0
 10
14.253431956
 20
-25.5167108366
 30
0.0
  0
VERTEX
  8
0
 10
14.236148329
 20
-25.5636285125
 30
0.0
  0
VERTEX
  8
0
 10
14.219151276
 20
-25.610650769
 30
0.0
  0
VERTEX
  8
0
 10
14.20243532
 20
-25.6577736884
 30
0.0
  0
VERTEX
  8
0
 10
14.1859953381
 20
-25.7049935995
 30
0.0
  0
VERTEX
  8
0
 10
14.1698265256
 20
-25.7523070519
 30
0.0
  0
VERTEX
  8
0
 10
14.1539243642
 20
-25.7997107942
 30
0.0
  0
VERTEX
  8
0
 10
14.1382845944
 20
-25.8472017548
 30
0.0
  0
VERTEX
  8
0
 10
14.122903192
 20
-25.8947770258
 30
0.0
  0
VERTEX
  8
0
 10
14.1077763472
 20
-25.942433848
 30
0.0
  0
VERTEX
  8
0
 10
14.0929004458
 20
-25.9901695985
 30
0.0
  0
VERTEX
  8
0
 10
14.0782720533
 20
-26.0379817793
 30
0.0
  0
VERTEX
  8
0
 10
14.0638879007
 20
-26.085868007
 30
0.0
  0
VERTEX
  8
0
 10
14.0497448708
 20
-26.1338260043
 30
0.0
  0
VERTEX
  8
0
 10
14.0358399874
 20
-26.1818535917
 30
0.0
  0
VERTEX
  8
0
 10
14.0221704047
 20
-26.2299486807
 30
0.0
  0
VERTEX
  8
0
 10
14.008733398
 20
-26.2781092667
 30
0.0
  0
VERTEX
  8
0
 10
13.9955263552
 20
-26.3263334239
 30
0.0
  0
VERTEX
  8
0
 10
13.9825467693
 20
-26.3746192994
 30
0.0
  0
VERTEX
  8
0
 10
13.9697922313
 20
-26.4229651089
 30
0.0
  0
VERTEX
  8
0
 10
13.9572604241
 20
-26.4713691319
 30
0.0
  0
VERTEX
  8
0
 10
13.9449491165
 20
-26.519829708
 30
0.0
  0
VERTEX
  8
0
 10
13.9328561581
 20
-26.5683452331
 30
0.0
  0
VERTEX
  8
0
 10
13.9209794744
 20
-26.6169141562
 30
0.0
  0
VERTEX
  8
0
 10
13.9093170623
 20
-26.6655349762
 30
0.0
  0
VERTEX
  8
0
 10
13.8978669862
 20
-26.714206239
 30
0.0
  0
VERTEX
  8
0
 10
13.8866273738
 20
-26.7629265352
 30
0.0
  0
VERTEX
  8
0
 10
13.8755964132
 20
-26.8116944973
 30
0.0
  0
VERTEX
  8
0
 10
13.8647723491
 20
-26.8605087977
 30
0.0
  0
VERTEX
  8
0
 10
13.8541534802
 20
-26.9093681466
 30
0.0
  0
VERTEX
  8
0
 10
13.8437381562
 20
-26.9582712902
 30
0.0
  0
VERTEX
  8
0
 10
13.8335247751
 20
-27.0072170083
 30
0.0
  0
VERTEX
  8
0
 10
13.8235117814
 20
-27.0562041137
 30
0.0
  0
VERTEX
  8
0
 10
13.8136976629
 20
-27.1052314498
 30
0.0
  0
VERTEX
  8
0
 10
13.8040809494
 20
-27.1542978891
 30
0.0
  0
VERTEX
  8
0
 10
13.7946602103
 20
-27.2034023327
 30
0.0
  0
VERTEX
  8
0
 10
13.785434053
 20
-27.2525437081
 30
0.0
  0
VERTEX
  8
0
 10
13.7764011209
 20
-27.3017209686
 30
0.0
  0
VERTEX
  8
0
 10
13.7675600921
 20
-27.3509330917
 30
0.0
  0
VERTEX
  8
0
 10
13.7589096775
 20
-27.4001790786
 30
0.0
  0
VERTEX
  8
0
 10
13.7504486199
 20
-27.4494579529
 30
0.0
  0
VERTEX
  8
0
 10
13.7421756919
 20
-27.4987687595
 30
0.0
  0
VERTEX
  8
0
 10
13.7340896954
 20
-27.5481105642
 30
0.0
  0
VERTEX
  8
0
 10
13.7261894598
 20
-27.5974824524
 30
0.0
  0
VERTEX
  8
0
 10
13.7184738412
 20
-27.6468835287
 30
0.0
  0
VERTEX
  8
0
 10
13.7109417214
 20
-27.6963129159
 30
0.0
  0
VERTEX
  8
0
 10
13.7035920064
 20
-27.7457697544
 30
0.0
  0
VERTEX
  8
0
 10
13.696423626
 20
-27.7952532015
 30
0.0
  0
VERTEX
  8
0
 10
13.6894355326
 20
-27.844762431
 30
0.0
  0
VERTEX
  8
0
 10
13.6826267003
 20
-27.8942966322
 30
0.0
  0
VERTEX
  8
0
 10
13.6759961242
 20
-27.9438550097
 30
0.0
  0
VERTEX
  8
0
 10
13.6695428197
 20
-27.9934367827
 30
0.0
  0
VERTEX
  8
0
 10
13.6632658214
 20
-28.0430411844
 30
0.0
  0
VERTEX
  8
0
 10
13.6571641828
 20
-28.0926674619
 30
0.0
  0
VERTEX
  8
0
 10
13.6512369754
 20
-28.1423148753
 30
0.0
  0
VERTEX
  8
0
 10
13.6454832883
 20
-28.1919826974
 30
0.0
  0
VERTEX
  8
0
 10
13.6399022271
 20
-28.2416702135
 30
0.0
  0
VERTEX
  8
0
 10
13.634492914
 20
-28.2913767207
 30
0.0
  0
VERTEX
  8
0
 10
13.6292544865
 20
-28.3411015277
 30
0.0
  0
VERTEX
  8
0
 10
13.6241860975
 20
-28.3908439544
 30
0.0
  0
VERTEX
  8
0
 10
13.6192869145
 20
-28.4406033314
 30
0.0
  0
VERTEX
  8
0
 10
13.6145561191
 20
-28.4903790002
 30
0.0
  0
VERTEX
  8
0
 10
13.6099929066
 20
-28.5401703121
 30
0.0
  0
VERTEX
  8
0
 10
13.6055964857
 20
-28.5899766286
 30
0.0
  0
VERTEX
  8
0
 10
13.6013660777
 20
-28.6397973205
 30
0.0
  0
VERTEX
  8
0
 10
13.5973009165
 20
-28.6896317683
 30
0.0
  0
VERTEX
  8
0
 10
13.5934002479
 20
-28.7394793613
 30
0.0
  0
VERTEX
  8
0
 10
13.5896633295
 20
-28.7893394977
 30
0.0
  0
VERTEX
  8
0
 10
13.58608943
 20
-28.8392115843
 30
0.0
  0
VERTEX
  8
0
 10
13.5826778294
 20
-28.8890950364
 30
0.0
  0
VERTEX
  8
0
 10
13.5794278179
 20
-28.938989277
 30
0.0
  0
VERTEX
  8
0
 10
13.5763386963
 20
-28.9888937375
 30
0.0
  0
VERTEX
  8
0
 10
13.5734097753
 20
-29.0388078565
 30
0.0
  0
VERTEX
  8
0
 10
13.5706403753
 20
-29.0887310807
 30
0.0
  0
VERTEX
  8
0
 10
13.5680298263
 20
-29.1386628635
 30
0.0
  0
VERTEX
  8
0
 10
13.5655774671
 20
-29.1886026658
 30
0.0
  0
VERTEX
  8
0
 10
13.5632826458
 20
-29.2385499553
 30
0.0
  0
VERTEX
  8
0
 10
13.5611447188
 20
-29.2885042066
 30
0.0
  0
VERTEX
  8
0
 10
13.5591630511
 20
-29.3384649007
 30
0.0
  0
VERTEX
  8
0
 10
13.5573370158
 20
-29.3884315254
 30
0.0
  0
VERTEX
  8
0
 10
13.555665994
 20
-29.4384035745
 30
0.0
  0
VERTEX
  8
0
 10
13.5541493745
 20
-29.4883805481
 30
0.0
  0
VERTEX
  8
0
 10
13.5527865535
 20
-29.5383619521
 30
0.0
  0
VERTEX
  8
0
 10
13.5515769346
 20
-29.5883472987
 30
0.0
  0
VERTEX
  8
0
 10
13.5505199287
 20
-29.6383361055
 30
0.0
  0
VERTEX
  8
0
 10
13.5496149532
 20
-29.6883278958
 30
0.0
  0
VERTEX
  8
0
 10
13.5488614327
 20
-29.7383221985
 30
0.0
  0
VERTEX
  8
0
 10
13.5482587981
 20
-29.7883185478
 30
0.0
  0
VERTEX
  8
0
 10
13.5478805436
 20
-29.8288587769
 30
0.0
  0
SEQEND
  8
0
  0
POLYLINE
  8
0
 62
0
 70
0
 66
1
 10
0.0
 20
0.0
 30
0.0
  0
VERTEX
  8
0
 10
15.3935102615
 20
-30.8944335914
 30
0.0
  0
VERTEX
  8
0
 10
15.4365691624
 20
-30.8690184546
 30
0.0
  0
VERTEX
  8
0
 10
15.4795514
 20
-30.8434738787
 30
0.0
  0
VERTEX
  8
0
 10
15.5224562927
 20
-30.8177996062
 30
0.0
  0
VERTEX
  8
0
 10
15.5652831512
 20
-30.7919953765
 30
0.0
  0
VERTEX
  8
0
 10
15.6080312781
 20
-30.7660609262
 30
0.0
  0
VERTEX
  8
0
 10
15.6506999678
 20
-30.7399959887
 30
0.0
  0
VERTEX
  8
0
 10
15.6932885064
 20
-30.7138002943
 30
0.0
  0
VERTEX
  8
0
 10
15.7357961715
 20
-30.6874735697
 30
0.0
  0
VERTEX
  8
0
 10
15.7782222317
 20
-30.6610155385
 30
0.0
  0
VERTEX
  8
0
 10
15.8205659468
 20
-30.6344259207
 30
0.0
  0
VERTEX
  8
0
 10
15.8628265672
 20
-30.6077044325
 30
0.0
  0
VERTEX
  8
0
 10
15.905003334
 20
-30.5808507866
 30
0.0
  0
VERTEX
  8
0
 10
15.9470954783
 20
-30.5538646917
 30
0.0
  0
VERTEX
  8
0
 10
15.9891022215
 20
-30.5267458525
 30
0.0
  0
VERTEX
  8
0
 10
16.0310227746
 20
-30.4994939696
 30
0.0
  0
VERTEX
  8
0
 10
16.0728563382
 20
-30.4721087394
 30
0.0
  0
VERTEX
  8
0
 10
16.114602102
 20
-30.4445898538
 30
0.0
  0
VERTEX
  8
0
 10
16.1562592446
 20
-30.4169370002
 30
0.0
  0
VERTEX
  8
0
 10
16.1978269333
 20
-30.3891498615
 30
0.0
  0
VERTEX
  8
0
 10
16.2393043235
 20
-30.3612281154
 30
0.0
  0
VERTEX
  8
0
 10
16.2806905586
 20
-30.3331714348
 30
0.0
  0
VERTEX
  8
0
 10
16.3219847697
 20
-30.3049794876
 30
0.0
  0
VERTEX
  8
0
 10
16.3631860749
 20
-30.2766519359
 30
0.0
  0
VERTEX
  8
0
 10
16.4042935795
 20
-30.2481884367
 30
0.0
  0
VERTEX
  8
0
 10
16.4453063748
 20
-30.2195886411
 30
0.0
  0
VERTEX
  8
0
 10
16.4862235386
 20
-30.1908521943
 30
0.0
  0
VERTEX
  8
0
 10
16.527044134
 20
-30.1619787352
 30
0.0
  0
VERTEX
  8
0
 10
16.5677672094
 20
-30.1329678967
 30
0.0
  0
VERTEX
  8
0
 10
16.6083917979
 20
-30.1038193048
 30
0.0
  0
VERTEX
  8
0
 10
16.6489169168
 20
-30.0745325789
 30
0.0
  0
VERTEX
  8
0
 10
16.689341567
 20
-30.0451073313
 30
0.0
  0
VERTEX
  8
0
 10
16.7296647329
 20
-30.0155431669
 30
0.0
  0
VERTEX
  8
0
 10
16.7698853813
 20
-29.9858396833
 30
0.0
  0
VERTEX
  8
0
 10
16.8100024609
 20
-29.9559964699
 30
0.0
  0
VERTEX
  8
0
 10
16.8500149021
 20
-29.9260131081
 30
0.0
  0
VERTEX
  8
0
 10
16.8899216161
 20
-29.895889171
 30
0.0
  0
VERTEX
  8
0
 10
16.9297214939
 20
-29.8656242226
 30
0.0
  0
VERTEX
  8
0
 10
16.9694134063
 20
-29.835217818
 30
0.0
  0
VERTEX
  8
0
 10
17.0089962024
 20
-29.8046695028
 30
0.0
  0
VERTEX
  8
0
 10
17.0484687096
 20
-29.7739788128
 30
0.0
  0
VERTEX
  8
0
 10
17.0878297322
 20
-29.7431452734
 30
0.0
  0
VERTEX
  8
0
 10
17.1270780505
 20
-29.7121683994
 30
0.0
  0
VERTEX
  8
0
 10
17.1549906923
 20
-29.689995593
 30
0.0
  0
SEQEND
  8
0
  0
LINE
  8
0
 62
0
 10
20.0
 20
119.641016151
 30
0.0
 11
20.0
 21
114.641016151
 31
0.0
  0
LINE
  8
0
 62
0
 10
20.0
 20
119.641016151
 30
0.0
 11
35.1793950841
 21
119.641016151
 31
0.0
  0
ARC
  8
0
 62
0
 10
-1.59872115546e-14
 20
80.0
 30
0.0
 40
40.0
 50
-71.5733607231
 51
60.0000000001
  0
ARC
  8
0
 62
0
 10
2.13162820728e-14
 20
80.0
 30
0.0
 40
53.0
 50
-21.5831037612
 51
48.4125675053
  0
LINE
  8
0
 62
0
 10
12.6436070465
 20
42.05083399
 30
0.0
 11
12.6436070465
 21
21.5760335591
 31
0.0
  0
LINE
  8
0
 62
0
 10
49.283905188
 20
60.5039314369
 30
0.0
 11
49.283905188
 21
41.05719
 31
0.0
  0
LINE
  8
0
 62
0
 10
52.0
 20
35.0
 30
0.0
 11
49.283905188
 21
41.05719
 31
0.0
  0
ARC
  8
0
 62
0
 10
13.220467057
 20
22.5636552431
 30
0.0
 40
1.14375
 50
-137.996831295
 51
-120.288776034
  0
LINE
  8
0
 62
0
 10
12.3705374895
 20
21.7982901061
 30
0.0
 11
11.82439738
 21
22.401539431
 31
0.0
  0
ARC
  8
0
 62
0
 10
32.0001473751
 20
-0.00013674414056
 30
0.0
 40
35.075
 50
135.40194952
 51
138.883764766
  0
LINE
  8
0
 62
0
 10
8.15337514476
 20
18.4451184049
 30
0.0
 11
8.79575076367
 21
17.9455862924
 31
0.0
  0
ARC
  8
0
 62
0
 10
8.09604105895
 20
17.0408374921
 30
0.0
 40
1.14375
 50
-35.4428250911
 51
52.2825455806
  0
ARC
  8
0
 62
0
 10
32.0
 20
-2.64339661271e-11
 30
0.0
 40
28.2125
 50
144.513704328
 51
146.9148671
  0
ARC
  8
0
 62
0
 10
7.40403487774
 20
16.0258508415
 30
0.0
 40
1.14375
 50
-120.853974152
 51
-33.1286034803
  0
LINE
  8
0
 62
0
 10
6.81746063072
 20
15.0439675922
 30
0.0
 11
6.11777313396
 21
15.4594386189
 31
0.0
  0
ARC
  8
0
 62
0
 10
32.0001811337
 20
-8.72293910108e-05
 30
0.0
 40
35.075
 50
152.544806663
 51
156.026621909
  0
LINE
  8
0
 62
0
 10
3.77601968608
 20
10.5967374789
 30
0.0
 11
4.53709603355
 21
10.3087417142
 31
0.0
  0
ARC
  8
0
 62
0
 10
4.13515185821
 20
9.23794530851
 30
0.0
 40
1.14375
 50
-18.2999679482
 51
69.4254027235
  0
ARC
  8
0
 62
0
 10
32.0
 20
-4.97024643664e-12
 30
0.0
 40
28.2125
 50
161.656561471
 51
164.057724243
  0
ARC
  8
0
 62
0
 10
3.77306213725
 20
8.06407926427
 30
0.0
 40
1.14375
 50
-103.711117009
 51
-15.9857463375
  0
LINE
  8
0
 62
0
 10
3.50196290661
 20
6.95292253831
 30
0.0
 11
2.71089832721
 21
7.14369884291
 31
0.0
  0
ARC
  8
0
 62
0
 10
32.0001987978
 20
-2.9963940972e-05
 30
0.0
 40
35.075
 50
169.687663806
 51
173.169479052
  0
LINE
  8
0
 62
0
 10
1.9064887372
 20
1.80678992489
 30
0.0
 11
2.71864083983
 21
1.75592019548
 31
0.0
  0
ARC
  8
0
 62
0
 10
2.65017669774
 20
0.614221144181
 30
0.0
 40
1.14375
 50
-1.15711080537
 51
86.5682598663
  0
ARC
  8
0
 62
0
 10
32.0
 20
1.64868119157e-13
 30
0.0
 40
28.2125
 50
178.799418614
 51
-178.799418614
  0
ARC
  8
0
 62
0
 10
2.65017669774
 20
-0.614221144181
 30
0.0
 40
1.14375
 50
-86.5682598663
 51
1.15711080537
  0
LINE
  8
0
 62
0
 10
2.71864083983
 20
-1.75592019548
 30
0.0
 11
1.9064887372
 21
-1.80678992489
 31
0.0
  0
ARC
  8
0
 62
0
 10
32.0001987978
 20
2.99639452215e-05
 30
0.0
 40
35.0750000001
 50
-173.169479052
 51
-169.687663806
  0
LINE
  8
0
 62
0
 10
2.71089832721
 20
-7.14369884291
 30
0.0
 11
3.50196290661
 21
-6.95292253831
 31
0.0
  0
ARC
  8
0
 62
0
 10
3.77306213725
 20
-8.06407926427
 30
0.0
 40
1.14375
 50
15.9857463375
 51
103.711117009
  0
ARC
  8
0
 62
0
 10
32.0
 20
1.68220992691e-12
 30
0.0
 40
28.2125
 50
-164.057724243
 51
-161.656561471
  0
ARC
  8
0
 62
0
 10
4.13515185821
 20
-9.23794530851
 30
0.0
 40
1.14375
 50
-69.4254027235
 51
18.2999679482
  0
LINE
  8
0
 62
0
 10
4.53709603355
 20
-10.3087417142
 30
0.0
 11
3.77601968608
 21
-10.5967374789
 31
0.0
  0
ARC
  8
0
 62
0
 10
32.0001811337
 20
8.72293838565e-05
 30
0.0
 40
35.075
 50
-156.026621909
 51
-152.544806663
  0
LINE
  8
0
 62
0
 10
6.11777313396
 20
-15.4594386189
 30
0.0
 11
6.81746063072
 21
-15.0439675922
 31
0.0
  0
ARC
  8
0
 62
0
 10
7.40403487774
 20
-16.0258508415
 30
0.0
 40
1.14375
 50
33.1286034803
 51
120.853974152
  0
ARC
  8
0
 62
0
 10
32.0000000001
 20
4.13278300471e-11
 30
0.0
 40
28.2125000001
 50
-146.9148671
 51
-144.513704328
  0
ARC
  8
0
 62
0
 10
8.09604105895
 20
-17.0408374921
 30
0.0
 40
1.14375
 50
-52.2825455806
 51
35.4428250911
  0
LINE
  8
0
 62
0
 10
8.79575076367
 20
-17.9455862924
 30
0.0
 11
8.15337514476
 21
-18.4451184049
 31
0.0
  0
ARC
  8
0
 62
0
 10
32.0001473751
 20
0.00013674412873
 30
0.0
 40
35.075
 50
-138.883764766
 51
-135.40194952
  0
LINE
  8
0
 62
0
 10
11.82439738
 20
-22.401539431
 30
0.0
 11
12.3705374895
 21
-21.7982901061
 31
0.0
  0
ARC
  8
0
 62
0
 10
13.220467057
 20
-22.5636552431
 30
0.0
 40
1.14375
 50
50.2714606232
 51
137.996831295
  0
ARC
  8
0
 62
0
 10
32.0
 20
2.25028884415e-11
 30
0.0
 40
28.2125
 50
-129.772009957
 51
-127.370847186
  0
ARC
  8
0
 62
0
 10
14.1809019124
 20
-23.3295764821
 30
0.0
 40
1.14375
 50
-35.1396884378
 51
52.5856822339
  0
LINE
  8
0
 62
0
 10
15.1162048686
 20
-23.9878867756
 30
0.0
 11
14.649607871
 21
-24.6545696155
 31
0.0
  0
ARC
  8
0
 62
0
 10
32.0001005216
 20
0.000174108533621
 30
0.0
 40
35.075
 50
-121.740907623
 51
-118.259092377
  0
LINE
  8
0
 62
0
 10
21.9999776698
 20
-20.0
 30
0.0
 11
17.1549906923
 21
-29.689995593
 31
0.0
  0
LINE
  8
0
 62
0
 10
32.0
 20
-20.0
 30
0.0
 11
21.9999776698
 21
-20.0
 31
0.0
  0
ARC
  8
0
 62
0
 10
32.0
 20
1.02140518266e-14
 30
0.0
 40
20.0
 50
-90.0
 51
-1.98582684672e-05
  0
CIRCLE
  8
0
 62
0
 10
32.0
 20
0.0
 30
0.0
 40
2.0
  0
LINE
  8
0
 62
0
 10
52.0
 20
10.0
 30
0.0
 11
52.0
 21
-6.92820410109e-06
 31
0.0
  0
LINE
  8
0
 62
0
 10
52.0
 20
20.0901113969
 30
0.0
 11
52.0
 21
10.0
 31
0.0
  0
LINE
  8
0
 62
0
 10
52.0
 20
20.0901113969
 30
0.0
 11
52.0
 21
20.7362998592
 31
0.0
  0
LINE
  8
0
 62
0
 10
52.0
 20
27.6202865087
 30
0.0
 11
52.0
 21
20.7362998592
 31
0.0
  0
LINE
  8
0
 62
0
 10
52.0
 20
27.6202865087
 30
0.0
 11
52.0
 21
35.0
 31
0.0
  0
ENDBLK
  0
ENDSEC
  0
SECTION
  2
ENTITIES
  0
INSERT
  2
FUSION001001
  8
0
 10
0.0
 20
0.0
 30
0.0
  0
ENDSEC
  0
EOF
