  0
SECTION
  2
HEADER
  9
$ACADVER
  1
AC1009
  9
$INSBASE
 10
0.0
 20
0.0
 30
0.0
  9
$EXTMIN
 10
0.0
 20
0.0
 30
0.0
  9
$EXTMAX
 10
0.0
 20
0.0
 30
0.0
  0
ENDSEC
  0
SECTION
  2
TABLES
  0
TABLE
  2
VPORT
 70
0
  0
ENDTAB
  0
TABLE
  2
LTYPE
 70
1
  0
LTYPE
  2
CONTINUOUS
 70
0
  3
Solid line
 72
65
 73
0
 40
0.0
  0
ENDTAB
  0
TABLE
  2
LAYER
 70
1
  0
LAYER
  2
0
 70
64
 62
7
  6
continuous
  0
ENDTAB
  0
TABLE
  2
STYLE
 70
1
  0
STYLE
  2
STANDARD
 70
0
 40
0
 41
1.0
 50
0.0
 71
0
 42
1
 3
ARIAL.TTF
 4

  0
ENDTAB
  0
TABLE
  2
VIEW
 70
0
  0
ENDTAB
  0
ENDSEC
  0
SECTION
  2
BLOCKS
  0
BLOCK
  8
0
  2
FUSION001002
 70
0
 10
0.0
 20
0.0
 30
0.0
  3
FUSION001002
  0
POLYLINE
  8
0
 62
0
 70
0
 66
1
 10
0.0
 20
0.0
 30
0.0
  0
VERTEX
  8
0
 10
-15.3885183943
 20
-25.1583502802
 30
0.0
  0
VERTEX
  8
0
 10
-15.3575623592
 20
-25.1976141198
 30
0.0
  0
VERTEX
  8
0
 10
-15.3259327697
 20
-25.2363377182
 30
0.0
  0
VERTEX
  8
0
 10
-15.2937361587
 20
-25.2745913287
 30
0.0
  0
VERTEX
  8
0
 10
-15.2610435536
 20
-25.312422027
 30
0.0
  0
VERTEX
  8
0
 10
-15.2279061423
 20
-25.349863786
 30
0.0
  0
VERTEX
  8
0
 10
-15.1943629882
 20
-25.3869425383
 30
0.0
  0
VERTEX
  8
0
 10
-15.1604451471
 20
-25.4236788954
 30
0.0
  0
VERTEX
  8
0
 10
-15.1261780704
 20
-25.4600897386
 30
0.0
  0
VERTEX
  8
0
 10
-15.0915831088
 20
-25.4961892185
 30
0.0
  0
VERTEX
  8
0
 10
-15.056678508
 20
-25.5319894151
 30
0.0
  0
VERTEX
  8
0
 10
-15.0214800951
 20
-25.5675007959
 30
0.0
  0
VERTEX
  8
0
 10
-14.9860017717
 20
-25.6027325431
 30
0.0
  0
VERTEX
  8
0
 10
-14.9502558754
 20
-25.637692795
 30
0.0
  0
VERTEX
  8
0
 10
-14.9142534545
 20
-25.6723888287
 30
0.0
  0
VERTEX
  8
0
 10
-14.8780044786
 20
-25.7068272008
 30
0.0
  0
VERTEX
  8
0
 10
-14.8415180046
 20
-25.7410138579
 30
0.0
  0
VERTEX
  8
0
 10
-14.804802309
 20
-25.7749542249
 30
0.0
  0
VERTEX
  8
0
 10
-14.7678649948
 20
-25.8086532768
 30
0.0
  0
VERTEX
  8
0
 10
-14.7307130786
 20
-25.8421155962
 30
0.0
  0
VERTEX
  8
0
 10
-14.6933530638
 20
-25.8753454227
 30
0.0
  0
VERTEX
  8
0
 10
-14.6557910004
 20
-25.9083466924
 30
0.0
  0
VERTEX
  8
0
 10
-14.6180325362
 20
-25.9411230727
 30
0.0
  0
VERTEX
  8
0
 10
-14.5800829604
 20
-25.973677991
 30
0.0
  0
VERTEX
  8
0
 10
-14.5419472401
 20
-26.0060146592
 30
0.0
  0
VERTEX
  8
0
 10
-14.5036300528
 20
-26.0381360956
 30
0.0
  0
VERTEX
  8
0
 10
-14.4651358138
 20
-26.0700451429
 30
0.0
  0
VERTEX
  8
0
 10
-14.4264687003
 20
-26.1017444848
 30
0.0
  0
VERTEX
  8
0
 10
-14.3876326725
 20
-26.1332366599
 30
0.0
  0
VERTEX
  8
0
 10
-14.3486314925
 20
-26.164524074
 30
0.0
  0
VERTEX
  8
0
 10
-14.3094687404
 20
-26.1956090116
 30
0.0
  0
VERTEX
  8
0
 10
-14.2701478292
 20
-26.2264936452
 30
0.0
  0
VERTEX
  8
0
 10
-14.2306720176
 20
-26.2571800443
 30
0.0
  0
VERTEX
  8
0
 10
-14.1910444215
 20
-26.2876701832
 30
0.0
  0
VERTEX
  8
0
 10
-14.1512680251
 20
-26.3179659479
 30
0.0
  0
VERTEX
  8
0
 10
-14.1113456896
 20
-26.3480691426
 30
0.0
  0
VERTEX
  8
0
 10
-14.0712801622
 20
-26.377981495
 30
0.0
  0
VERTEX
  8
0
 10
-14.0310740834
 20
-26.407704662
 30
0.0
  0
VERTEX
  8
0
 10
-13.9907299945
 20
-26.4372402341
 30
0.0
  0
VERTEX
  8
0
 10
-13.9502503435
 20
-26.4665897398
 30
0.0
  0
VERTEX
  8
0
 10
-13.9096374911
 20
-26.4957546494
 30
0.0
  0
VERTEX
  8
0
 10
-13.8688937162
 20
-26.5247363786
 30
0.0
  0
VERTEX
  8
0
 10
-13.8280212204
 20
-26.5535362918
 30
0.0
  0
VERTEX
  8
0
 10
-13.787022133
 20
-26.5821557052
 30
0.0
  0
VERTEX
  8
0
 10
-13.7458985147
 20
-26.6105958895
 30
0.0
  0
VERTEX
  8
0
 10
-13.7046523614
 20
-26.6388580725
 30
0.0
  0
VERTEX
  8
0
 10
-13.6632856082
 20
-26.6669434414
 30
0.0
  0
VERTEX
  8
0
 10
-13.6218001321
 20
-26.694853145
 30
0.0
  0
VERTEX
  8
0
 10
-13.5801977552
 20
-26.7225882959
 30
0.0
  0
VERTEX
  8
0
 10
-13.5384802479
 20
-26.7501499722
 30
0.0
  0
VERTEX
  8
0
 10
-13.4966493308
 20
-26.7775392193
 30
0.0
  0
VERTEX
  8
0
 10
-13.4547066777
 20
-26.8047570516
 30
0.0
  0
VERTEX
  8
0
 10
-13.4126539178
 20
-26.8318044541
 30
0.0
  0
VERTEX
  8
0
 10
-13.3704926374
 20
-26.8586823835
 30
0.0
  0
VERTEX
  8
0
 10
-13.3282243824
 20
-26.8853917699
 30
0.0
  0
VERTEX
  8
0
 10
-13.2858506598
 20
-26.911933518
 30
0.0
  0
VERTEX
  8
0
 10
-13.2433729397
 20
-26.938308508
 30
0.0
  0
VERTEX
  8
0
 10
-13.2007926567
 20
-26.9645175971
 30
0.0
  0
VERTEX
  8
0
 10
-13.1581112115
 20
-26.9905616202
 30
0.0
  0
VERTEX
  8
0
 10
-13.1153299726
 20
-27.0164413911
 30
0.0
  0
VERTEX
  8
0
 10
-13.0724502772
 20
-27.0421577032
 30
0.0
  0
VERTEX
  8
0
 10
-13.0294734327
 20
-27.0677113305
 30
0.0
  0
VERTEX
  8
0
 10
-12.9864007182
 20
-27.0931030287
 30
0.0
  0
VERTEX
  8
0
 10
-12.9432333851
 20
-27.1183335353
 30
0.0
  0
VERTEX
  8
0
 10
-12.8999726586
 20
-27.1434035708
 30
0.0
  0
VERTEX
  8
0
 10
-12.8566197383
 20
-27.1683138396
 30
0.0
  0
VERTEX
  8
0
 10
-12.8131757998
 20
-27.19306503
 30
0.0
  0
VERTEX
  8
0
 10
-12.769641995
 20
-27.2176578153
 30
0.0
  0
VERTEX
  8
0
 10
-12.7260194532
 20
-27.2420928544
 30
0.0
  0
VERTEX
  8
0
 10
-12.682309282
 20
-27.266370792
 30
0.0
  0
VERTEX
  8
0
 10
-12.638512568
 20
-27.2904922595
 30
0.0
  0
VERTEX
  8
0
 10
-12.5946303776
 20
-27.3144578754
 30
0.0
  0
VERTEX
  8
0
 10
-12.5506637575
 20
-27.3382682457
 30
0.0
  0
VERTEX
  8
0
 10
-12.5066137357
 20
-27.3619239643
 30
0.0
  0
VERTEX
  8
0
 10
-12.4624813219
 20
-27.3854256136
 30
0.0
  0
VERTEX
  8
0
 10
-12.4182675082
 20
-27.4087737649
 30
0.0
  0
VERTEX
  8
0
 10
-12.3739732695
 20
-27.4319689788
 30
0.0
  0
VERTEX
  8
0
 10
-12.3295995645
 20
-27.4550118054
 30
0.0
  0
VERTEX
  8
0
 10
-12.2851473357
 20
-27.4779027847
 30
0.0
  0
VERTEX
  8
0
 10
-12.2406175104
 20
-27.5006424474
 30
0.0
  0
VERTEX
  8
0
 10
-12.1960110007
 20
-27.5232313145
 30
0.0
  0
VERTEX
  8
0
 10
-12.1513287042
 20
-27.545669898
 30
0.0
  0
VERTEX
  8
0
 10
-12.1065715046
 20
-27.5679587015
 30
0.0
  0
VERTEX
  8
0
 10
-12.0617402719
 20
-27.5900982199
 30
0.0
  0
VERTEX
  8
0
 10
-12.0168358629
 20
-27.61208894
 30
0.0
  0
VERTEX
  8
0
 10
-11.9718591214
 20
-27.6339313407
 30
0.0
  0
VERTEX
  8
0
 10
-11.9268108789
 20
-27.6556258932
 30
0.0
  0
VERTEX
  8
0
 10
-11.8816919548
 20
-27.6771730616
 30
0.0
  0
VERTEX
  8
0
 10
-11.8365031565
 20
-27.6985733026
 30
0.0
  0
VERTEX
  8
0
 10
-11.7912452802
 20
-27.7198270659
 30
0.0
  0
VERTEX
  8
0
 10
-11.7459191108
 20
-27.7409347948
 30
0.0
  0
VERTEX
  8
0
 10
-11.7005254227
 20
-27.7618969259
 30
0.0
  0
VERTEX
  8
0
 10
-11.6550649793
 20
-27.7827138894
 30
0.0
  0
VERTEX
  8
0
 10
-11.6095385342
 20
-27.8033861097
 30
0.0
  0
VERTEX
  8
0
 10
-11.5639468306
 20
-27.823914005
 30
0.0
  0
VERTEX
  8
0
 10
-11.5182906024
 20
-27.8442979879
 30
0.0
  0
VERTEX
  8
0
 10
-11.4725705736
 20
-27.8645384653
 30
0.0
  0
VERTEX
  8
0
 10
-11.4267874595
 20
-27.8846358389
 30
0.0
  0
VERTEX
  8
0
 10
-11.3809419658
 20
-27.9045905051
 30
0.0
  0
VERTEX
  8
0
 10
-11.33503479
 20
-27.924402855
 30
0.0
  0
VERTEX
  8
0
 10
-11.2890666206
 20
-27.944073275
 30
0.0
  0
VERTEX
  8
0
 10
-11.2430381381
 20
-27.9636021467
 30
0.0
  0
VERTEX
  8
0
 10
-11.1969500145
 20
-27.9829898469
 30
0.0
  0
VERTEX
  8
0
 10
-11.1508029142
 20
-28.0022367478
 30
0.0
  0
VERTEX
  8
0
 10
-11.1045974936
 20
-28.0213432176
 30
0.0
  0
VERTEX
  8
0
 10
-11.0583344016
 20
-28.0403096198
 30
0.0
  0
VERTEX
  8
0
 10
-11.0120142797
 20
-28.0591363141
 30
0.0
  0
VERTEX
  8
0
 10
-10.9744146365
 20
-28.0742994301
 30
0.0
  0
SEQEND
  8
0
  0
POLYLINE
  8
0
 62
0
 70
0
 66
1
 10
0.0
 20
0.0
 30
0.0
  0
VERTEX
  8
0
 10
-9.30821476272
 20
-26.7455493702
 30
0.0
  0
VERTEX
  8
0
 10
-9.31614186341
 20
-26.6961817776
 30
0.0
  0
VERTEX
  8
0
 10
-9.32421746382
 20
-26.6468382595
 30
0.0
  0
VERTEX
  8
0
 10
-9.33244205269
 20
-26.5975193561
 30
0.0
  0
VERTEX
  8
0
 10
-9.34081612435
 20
-26.5482256141
 30
0.0
  0
VERTEX
  8
0
 10
-9.34934017884
 20
-26.4989575863
 30
0.0
  0
VERTEX
  8
0
 10
-9.35801472208
 20
-26.4497158322
 30
0.0
  0
VERTEX
  8
0
 10
-9.36684026606
 20
-26.4005009178
 30
0.0
  0
VERTEX
  8
0
 10
-9.37581732895
 20
-26.3513134157
 30
0.0
  0
VERTEX
  8
0
 10
-9.38494643532
 20
-26.3021539058
 30
0.0
  0
VERTEX
  8
0
 10
-9.39422811631
 20
-26.2530229748
 30
0.0
  0
VERTEX
  8
0
 10
-9.40366290981
 20
-26.2039212168
 30
0.0
  0
VERTEX
  8
0
 10
-9.41325136067
 20
-26.1548492333
 30
0.0
  0
VERTEX
  8
0
 10
-9.42299402088
 20
-26.1058076336
 30
0.0
  0
VERTEX
  8
0
 10
-9.43289144981
 20
-26.0567970346
 30
0.0
  0
VERTEX
  8
0
 10
-9.44294421437
 20
-26.0078180613
 30
0.0
  0
VERTEX
  8
0
 10
-9.45315288931
 20
-25.9588713471
 30
0.0
  0
VERTEX
  8
0
 10
-9.4635180574
 20
-25.9099575336
 30
0.0
  0
VERTEX
  8
0
 10
-9.47404030969
 20
-25.8610772712
 30
0.0
  0
VERTEX
  8
0
 10
-9.48472024577
 20
-25.8122312193
 30
0.0
  0
VERTEX
  8
0
 10
-9.49555847401
 20
-25.7634200463
 30
0.0
  0
VERTEX
  8
0
 10
-9.50655561186
 20
-25.7146444301
 30
0.0
  0
VERTEX
  8
0
 10
-9.51771228612
 20
-25.6659050582
 30
0.0
  0
VERTEX
  8
0
 10
-9.52902913323
 20
-25.6172026279
 30
0.0
  0
VERTEX
  8
0
 10
-9.54050679958
 20
-25.5685378471
 30
0.0
  0
VERTEX
  8
0
 10
-9.55214594186
 20
-25.5199114339
 30
0.0
  0
VERTEX
  8
0
 10
-9.56394722735
 20
-25.4713241174
 30
0.0
  0
VERTEX
  8
0
 10
-9.57591133429
 20
-25.4227766376
 30
0.0
  0
VERTEX
  8
0
 10
-9.58803895224
 20
-25.3742697463
 30
0.0
  0
VERTEX
  8
0
 10
-9.60033078247
 20
-25.3258042069
 30
0.0
  0
VERTEX
  8
0
 10
-9.61278753834
 20
-25.2773807952
 30
0.0
  0
VERTEX
  8
0
 10
-9.62540994574
 20
-25.2290002993
 30
0.0
  0
VERTEX
  8
0
 10
-9.63819874348
 20
-25.1806635206
 30
0.0
  0
VERTEX
  8
0
 10
-9.65115468378
 20
-25.1323712738
 30
0.0
  0
VERTEX
  8
0
 10
-9.66427853275
 20
-25.0841243873
 30
0.0
  0
VERTEX
  8
0
 10
-9.67757107084
 20
-25.0359237041
 30
0.0
  0
VERTEX
  8
0
 10
-9.6910330934
 20
-24.9877700816
 30
0.0
  0
VERTEX
  8
0
 10
-9.70466541124
 20
-24.9396643929
 30
0.0
  0
VERTEX
  8
0
 10
-9.71846885113
 20
-24.8916075267
 30
0.0
  0
VERTEX
  8
0
 10
-9.73244425649
 20
-24.843600388
 30
0.0
  0
VERTEX
  8
0
 10
-9.74659248796
 20
-24.7956438991
 30
0.0
  0
VERTEX
  8
0
 10
-9.7609144241
 20
-24.7477389997
 30
0.0
  0
VERTEX
  8
0
 10
-9.77541096204
 20
-24.6998866476
 30
0.0
  0
VERTEX
  8
0
 10
-9.79008301829
 20
-24.6520878198
 30
0.0
  0
VERTEX
  8
0
 10
-9.80493152943
 20
-24.6043435127
 30
0.0
  0
VERTEX
  8
0
 10
-9.819957453
 20
-24.5566547434
 30
0.0
  0
VERTEX
  8
0
 10
-9.8351617683
 20
-24.5090225499
 30
0.0
  0
VERTEX
  8
0
 10
-9.85054547736
 20
-24.4614479924
 30
0.0
  0
VERTEX
  8
0
 10
-9.86610960585
 20
-24.4139321542
 30
0.0
  0
VERTEX
  8
0
 10
-9.88185520412
 20
-24.3664761422
 30
0.0
  0
VERTEX
  8
0
 10
-9.89778334828
 20
-24.3190810886
 30
0.0
  0
VERTEX
  8
0
 10
-9.91389514135
 20
-24.2717481511
 30
0.0
  0
VERTEX
  8
0
 10
-9.93019171443
 20
-24.2244785149
 30
0.0
  0
VERTEX
  8
0
 10
-9.94667422805
 20
-24.1772733935
 30
0.0
  0
VERTEX
  8
0
 10
-9.96334387347
 20
-24.1301340297
 30
0.0
  0
VERTEX
  8
0
 10
-9.9802018742
 20
-24.0830616976
 30
0.0
  0
VERTEX
  8
0
 10
-9.99724948751
 20
-24.0360577034
 30
0.0
  0
VERTEX
  8
0
 10
-10.0144880061
 20
-23.9891233875
 30
0.0
  0
VERTEX
  8
0
 10
-10.0319187598
 20
-23.9422601258
 30
0.0
  0
VERTEX
  8
0
 10
-10.0495431176
 20
-23.8954693317
 30
0.0
  0
VERTEX
  8
0
 10
-10.0673624896
 20
-23.8487524576
 30
0.0
  0
VERTEX
  8
0
 10
-10.0853783291
 20
-23.8021109975
 30
0.0
  0
VERTEX
  8
0
 10
-10.1035921351
 20
-23.7555464887
 30
0.0
  0
VERTEX
  8
0
 10
-10.1220054545
 20
-23.7090605144
 30
0.0
  0
VERTEX
  8
0
 10
-10.1406198852
 20
-23.6626547064
 30
0.0
  0
VERTEX
  8
0
 10
-10.1594370788
 20
-23.6163307471
 30
0.0
  0
VERTEX
  8
0
 10
-10.1784587437
 20
-23.5700903734
 30
0.0
  0
VERTEX
  8
0
 10
-10.1976866484
 20
-23.5239353793
 30
0.0
  0
VERTEX
  8
0
 10
-10.2171226255
 20
-23.4778676194
 30
0.0
  0
VERTEX
  8
0
 10
-10.2367685756
 20
-23.4318890128
 30
0.0
  0
VERTEX
  8
0
 10
-10.2566264714
 20
-23.3860015473
 30
0.0
  0
VERTEX
  8
0
 10
-10.2766983626
 20
-23.3402072837
 30
0.0
  0
VERTEX
  8
0
 10
-10.2969863815
 20
-23.2945083604
 30
0.0
  0
VERTEX
  8
0
 10
-10.3174927479
 20
-23.2489069996
 30
0.0
  0
VERTEX
  8
0
 10
-10.3382197761
 20
-23.2034055123
 30
0.0
  0
VERTEX
  8
0
 10
-10.3591698813
 20
-23.1580063051
 30
0.0
  0
VERTEX
  8
0
 10
-10.3803455873
 20
-23.1127118878
 30
0.0
  0
VERTEX
  8
0
 10
-10.4017495353
 20
-23.0675248804
 30
0.0
  0
VERTEX
  8
0
 10
-10.4233844925
 20
-23.0224480229
 30
0.0
  0
VERTEX
  8
0
 10
-10.4452533634
 20
-22.9774841843
 30
0.0
  0
VERTEX
  8
0
 10
-10.4673592006
 20
-22.9326363743
 30
0.0
  0
VERTEX
  8
0
 10
-10.4897052186
 20
-22.8879077549
 30
0.0
  0
VERTEX
  8
0
 10
-10.5122948082
 20
-22.8433016551
 30
0.0
  0
VERTEX
  8
0
 10
-10.535131553
 20
-22.7988215859
 30
0.0
  0
VERTEX
  8
0
 10
-10.5582192488
 20
-22.7544712587
 30
0.0
  0
VERTEX
  8
0
 10
-10.5815619249
 20
-22.7102546053
 30
0.0
  0
VERTEX
  8
0
 10
-10.6051638691
 20
-22.6661758021
 30
0.0
  0
VERTEX
  8
0
 10
-10.6290296564
 20
-22.6222392962
 30
0.0
  0
VERTEX
  8
0
 10
-10.6531641824
 20
-22.5784498379
 30
0.0
  0
VERTEX
  8
0
 10
-10.6775727023
 20
-22.534812517
 30
0.0
  0
VERTEX
  8
0
 10
-10.702260877
 20
-22.4913328064
 30
0.0
  0
VERTEX
  8
0
 10
-10.7272348274
 20
-22.448016614
 30
0.0
  0
VERTEX
  8
0
 10
-10.7525012005
 20
-22.4048703443
 30
0.0
  0
VERTEX
  8
0
 10
-10.7780672483
 20
-22.3619009738
 30
0.0
  0
VERTEX
  8
0
 10
-10.803940925
 20
-22.3191161425
 30
0.0
  0
VERTEX
  8
0
 10
-10.8301310072
 20
-22.2765242682
 30
0.0
  0
VERTEX
  8
0
 10
-10.8566472457
 20
-22.2341346898
 30
0.0
  0
VERTEX
  8
0
 10
-10.8835005582
 20
-22.1919578498
 30
0.0
  0
VERTEX
  8
0
 10
-10.910703281
 20
-22.1500055332
 30
0.0
  0
VERTEX
  8
0
 10
-10.9382695031
 20
-22.1082911843
 30
0.0
  0
VERTEX
  8
0
 10
-10.9662155219
 20
-22.0668303388
 30
0.0
  0
VERTEX
  8
0
 10
-10.9945604836
 20
-22.0256412317
 30
0.0
  0
VERTEX
  8
0
 10
-11.0233273155
 20
-21.984745684
 30
0.0
  0
VERTEX
  8
0
 10
-11.0525441493
 20
-21.9441704561
 30
0.0
  0
VERTEX
  8
0
 10
-11.0822466158
 20
-21.9039494364
 30
0.0
  0
VERTEX
  8
0
 10
-11.1124818304
 20
-21.8641274526
 30
0.0
  0
VERTEX
  8
0
 10
-11.1433159557
 20
-21.824767556
 30
0.0
  0
VERTEX
  8
0
 10
-11.1688244887
 20
-21.7932566812
 30
0.0
  0
SEQEND
  8
0
  0
POLYLINE
  8
0
 62
0
 70
0
 66
1
 10
0.0
 20
0.0
 30
0.0
  0
VERTEX
  8
0
 10
-8.71096598908
 20
-19.1443152083
 30
0.0
  0
VERTEX
  8
0
 10
-8.66981202384
 20
-19.1727102141
 30
0.0
  0
VERTEX
  8
0
 10
-8.62817366727
 20
-19.2003904465
 30
0.0
  0
VERTEX
  8
0
 10
-8.58613201172
 20
-19.2274544387
 30
0.0
  0
VERTEX
  8
0
 10
-8.54374105327
 20
-19.2539681107
 30
0.0
  0
VERTEX
  8
0
 10
-8.501039692
 20
-19.279979014
 30
0.0
  0
VERTEX
  8
0
 10
-8.45805761196
 20
-19.3055234432
 30
0.0
  0
VERTEX
  8
0
 10
-8.41481841407
 20
-19.3306302478
 30
0.0
  0
VERTEX
  8
0
 10
-8.37134144294
 20
-19.3553230613
 30
0.0
  0
VERTEX
  8
0
 10
-8.32764293001
 20
-19.3796216986
 30
0.0
  0
VERTEX
  8
0
 10
-8.28373674942
 20
-19.4035430812
 30
0.0
  0
VERTEX
  8
0
 10
-8.23963494005
 20
-19.4271018767
 30
0.0
  0
VERTEX
  8
0
 10
-8.19534807917
 20
-19.4503109568
 30
0.0
  0
VERTEX
  8
0
 10
-8.15088555763
 20
-19.4731817349
 30
0.0
  0
VERTEX
  8
0
 10
-8.1062557878
 20
-19.4957244214
 30
0.0
  0
VERTEX
  8
0
 10
-8.06146636383
 20
-19.5179482199
 30
0.0
  0
VERTEX
  8
0
 10
-8.01652418746
 20
-19.5398614828
 30
0.0
  0
VERTEX
  8
0
 10
-7.9714355684
 20
-19.5614718333
 30
0.0
  0
VERTEX
  8
0
 10
-7.92620630545
 20
-19.5827862663
 30
0.0
  0
VERTEX
  8
0
 10
-7.8808417529
 20
-19.6038112293
 30
0.0
  0
VERTEX
  8
0
 10
-7.83534687543
 20
-19.6245526901
 30
0.0
  0
VERTEX
  8
0
 10
-7.78972629407
 20
-19.6450161934
 30
0.0
  0
VERTEX
  8
0
 10
-7.74398432483
 20
-19.6652069085
 30
0.0
  0
VERTEX
  8
0
 10
-7.69812501155
 20
-19.6851296692
 30
0.0
  0
VERTEX
  8
0
 10
-7.65215215404
 20
-19.7047890091
 30
0.0
  0
VERTEX
  8
0
 10
-7.60606933231
 20
-19.724189191
 30
0.0
  0
VERTEX
  8
0
 10
-7.55987992751
 20
-19.7433342327
 30
0.0
  0
VERTEX
  8
0
 10
-7.51358714027
 20
-19.76222793
 30
0.0
  0
VERTEX
  8
0
 10
-7.46719400671
 20
-19.7808738759
 30
0.0
  0
VERTEX
  8
0
 10
-7.42070341251
 20
-19.7992754784
 30
0.0
  0
VERTEX
  8
0
 10
-7.37411810546
 20
-19.8174359756
 30
0.0
  0
VERTEX
  8
0
 10
-7.32744070645
 20
-19.8353584496
 30
0.0
  0
VERTEX
  8
0
 10
-7.28067371939
 20
-19.8530458383
 30
0.0
  0
VERTEX
  8
0
 10
-7.23381954004
 20
-19.8705009469
 30
0.0
  0
VERTEX
  8
0
 10
-7.1868804639
 20
-19.8877264572
 30
0.0
  0
VERTEX
  8
0
 10
-7.13985869339
 20
-19.9047249364
 30
0.0
  0
VERTEX
  8
0
 10
-7.09275634428
 20
-19.9214988454
 30
0.0
  0
VERTEX
  8
0
 10
-7.04557545151
 20
-19.9380505457
 30
0.0
  0
VERTEX
  8
0
 10
-6.99831797455
 20
-19.9543823063
 30
0.0
  0
VERTEX
  8
0
 10
-6.95098580215
 20
-19.9704963092
 30
0.0
  0
VERTEX
  8
0
 10
-6.90358075684
 20
-19.9863946553
 30
0.0
  0
VERTEX
  8
0
 10
-6.85610459888
 20
-20.002079369
 30
0.0
  0
VERTEX
  8
0
 10
-6.80855903002
 20
-20.0175524033
 30
0.0
  0
VERTEX
  8
0
 10
-6.76094569685
 20
-20.0328156433
 30
0.0
  0
VERTEX
  8
0
 10
-6.713266194
 20
-20.0478709108
 30
0.0
  0
VERTEX
  8
0
 10
-6.66552206693
 20
-20.0627199672
 30
0.0
  0
VERTEX
  8
0
 10
-6.61771481467
 20
-20.0773645174
 30
0.0
  0
VERTEX
  8
0
 10
-6.56984589226
 20
-20.0918062124
 30
0.0
  0
VERTEX
  8
0
 10
-6.52191671304
 20
-20.1060466525
 30
0.0
  0
VERTEX
  8
0
 10
-6.47392865079
 20
-20.1200873897
 30
0.0
  0
VERTEX
  8
0
 10
-6.42588304168
 20
-20.1339299302
 30
0.0
  0
VERTEX
  8
0
 10
-6.37778118611
 20
-20.1475757366
 30
0.0
  0
VERTEX
  8
0
 10
-6.32962435048
 20
-20.1610262302
 30
0.0
  0
VERTEX
  8
0
 10
-6.28141376871
 20
-20.174282793
 30
0.0
  0
VERTEX
  8
0
 10
-6.23315064381
 20
-20.1873467695
 30
0.0
  0
VERTEX
  8
0
 10
-6.18483614925
 20
-20.2002194682
 30
0.0
  0
VERTEX
  8
0
 10
-6.13647143027
 20
-20.2129021636
 30
0.0
  0
VERTEX
  8
0
 10
-6.08805760512
 20
-20.2253960977
 30
0.0
  0
VERTEX
  8
0
 10
-6.03959576626
 20
-20.2377024811
 30
0.0
  0
VERTEX
  8
0
 10
-5.99108698137
 20
-20.2498224948
 30
0.0
  0
VERTEX
  8
0
 10
-5.94253229444
 20
-20.2617572912
 30
0.0
  0
VERTEX
  8
0
 10
-5.89393272674
 20
-20.2735079953
 30
0.0
  0
VERTEX
  8
0
 10
-5.84528927768
 20
-20.2850757061
 30
0.0
  0
VERTEX
  8
0
 10
-5.79660292571
 20
-20.2964614973
 30
0.0
  0
VERTEX
  8
0
 10
-5.74787462914
 20
-20.3076664185
 30
0.0
  0
VERTEX
  8
0
 10
-5.6991053269
 20
-20.3186914963
 30
0.0
  0
VERTEX
  8
0
 10
-5.65029593924
 20
-20.3295377351
 30
0.0
  0
VERTEX
  8
0
 10
-5.60144736849
 20
-20.3402061178
 30
0.0
  0
VERTEX
  8
0
 10
-5.55256049963
 20
-20.3506976067
 30
0.0
  0
VERTEX
  8
0
 10
-5.50363620097
 20
-20.3610131445
 30
0.0
  0
VERTEX
  8
0
 10
-5.45467532474
 20
-20.3711536549
 30
0.0
  0
VERTEX
  8
0
 10
-5.40567870761
 20
-20.381120043
 30
0.0
  0
VERTEX
  8
0
 10
-5.35664717127
 20
-20.3909131965
 30
0.0
  0
VERTEX
  8
0
 10
-5.30758152289
 20
-20.4005339861
 30
0.0
  0
VERTEX
  8
0
 10
-5.25848255564
 20
-20.4099832657
 30
0.0
  0
VERTEX
  8
0
 10
-5.20935104916
 20
-20.4192618738
 30
0.0
  0
VERTEX
  8
0
 10
-5.16018776993
 20
-20.4283706334
 30
0.0
  0
VERTEX
  8
0
 10
-5.11099347177
 20
-20.4373103526
 30
0.0
  0
VERTEX
  8
0
 10
-5.0617688962
 20
-20.4460818256
 30
0.0
  0
VERTEX
  8
0
 10
-5.01251477283
 20
-20.4546858324
 30
0.0
  0
VERTEX
  8
0
 10
-4.9632318197
 20
-20.4631231399
 30
0.0
  0
VERTEX
  8
0
 10
-4.91392074367
 20
-20.4713945021
 30
0.0
  0
VERTEX
  8
0
 10
-4.86458224074
 20
-20.4795006604
 30
0.0
  0
VERTEX
  8
0
 10
-4.81521699634
 20
-20.4874423443
 30
0.0
  0
VERTEX
  8
0
 10
-4.76582568568
 20
-20.4952202715
 30
0.0
  0
VERTEX
  8
0
 10
-4.716408974
 20
-20.5028351483
 30
0.0
  0
VERTEX
  8
0
 10
-4.6669675169
 20
-20.5102876702
 30
0.0
  0
VERTEX
  8
0
 10
-4.61750196056
 20
-20.517578522
 30
0.0
  0
VERTEX
  8
0
 10
-4.56801294203
 20
-20.5247083782
 30
0.0
  0
VERTEX
  8
0
 10
-4.51850108946
 20
-20.5316779032
 30
0.0
  0
VERTEX
  8
0
 10
-4.46896702236
 20
-20.538487752
 30
0.0
  0
VERTEX
  8
0
 10
-4.41941135181
 20
-20.5451385699
 30
0.0
  0
VERTEX
  8
0
 10
-4.36983468067
 20
-20.5516309933
 30
0.0
  0
VERTEX
  8
0
 10
-4.32023760384
 20
-20.5579656495
 30
0.0
  0
VERTEX
  8
0
 10
-4.27062070839
 20
-20.5641431575
 30
0.0
  0
VERTEX
  8
0
 10
-4.22098457383
 20
-20.5701641277
 30
0.0
  0
VERTEX
  8
0
 10
-4.17132977225
 20
-20.5760291625
 30
0.0
  0
VERTEX
  8
0
 10
-4.12165686851
 20
-20.5817388564
 30
0.0
  0
VERTEX
  8
0
 10
-4.07196642043
 20
-20.5872937962
 30
0.0
  0
VERTEX
  8
0
 10
-4.02225897895
 20
-20.5926945614
 30
0.0
  0
VERTEX
  8
0
 10
-3.97253508828
 20
-20.5979417241
 30
0.0
  0
VERTEX
  8
0
 10
-3.92279528609
 20
-20.6030358494
 30
0.0
  0
VERTEX
  8
0
 10
-3.8730401036
 20
-20.6079774955
 30
0.0
  0
VERTEX
  8
0
 10
-3.82327006581
 20
-20.6127672141
 30
0.0
  0
VERTEX
  8
0
 10
-3.77348569157
 20
-20.6174055502
 30
0.0
  0
VERTEX
  8
0
 10
-3.72368749374
 20
-20.6218930426
 30
0.0
  0
VERTEX
  8
0
 10
-3.67387597934
 20
-20.626230224
 30
0.0
  0
VERTEX
  8
0
 10
-3.63347737592
 20
-20.629636996
 30
0.0
  0
SEQEND
  8
0
  0
POLYLINE
  8
0
 62
0
 70
0
 66
1
 10
0.0
 20
0.0
 30
0.0
  0
VERTEX
  8
0
 10
-2.43295804318
 20
-18.8687985387
 30
0.0
  0
VERTEX
  8
0
 10
-2.45508431839
 20
-18.8239607637
 30
0.0
  0
VERTEX
  8
0
 10
-2.47734539984
 20
-18.7791897646
 30
0.0
  0
VERTEX
  8
0
 10
-2.49974159527
 20
-18.7344862018
 30
0.0
  0
VERTEX
  8
0
 10
-2.52227321594
 20
-18.6898507434
 30
0.0
  0
VERTEX
  8
0
 10
-2.54494057672
 20
-18.6452840651
 30
0.0
  0
VERTEX
  8
0
 10
-2.56774399617
 20
-18.6007868504
 30
0.0
  0
VERTEX
  8
0
 10
-2.59068379668
 20
-18.5563597913
 30
0.0
  0
VERTEX
  8
0
 10
-2.6137603046
 20
-18.5120035877
 30
0.0
  0
VERTEX
  8
0
 10
-2.63697385031
 20
-18.4677189482
 30
0.0
  0
VERTEX
  8
0
 10
-2.6603247684
 20
-18.4235065901
 30
0.0
  0
VERTEX
  8
0
 10
-2.68381339774
 20
-18.3793672396
 30
0.0
  0
VERTEX
  8
0
 10
-2.70744008168
 20
-18.3353016322
 30
0.0
  0
VERTEX
  8
0
 10
-2.73120516811
 20
-18.2913105127
 30
0.0
  0
VERTEX
  8
0
 10
-2.7551090097
 20
-18.2473946355
 30
0.0
  0
VERTEX
  8
0
 10
-2.77915196394
 20
-18.2035547649
 30
0.0
  0
VERTEX
  8
0
 10
-2.80333439339
 20
-18.1597916756
 30
0.0
  0
VERTEX
  8
0
 10
-2.82765666577
 20
-18.1161061526
 30
0.0
  0
VERTEX
  8
0
 10
-2.85211915417
 20
-18.0724989914
 30
0.0
  0
VERTEX
  8
0
 10
-2.8767222372
 20
-18.028970999
 30
0.0
  0
VERTEX
  8
0
 10
-2.90146629918
 20
-17.9855229933
 30
0.0
  0
VERTEX
  8
0
 10
-2.92635173032
 20
-17.9421558041
 30
0.0
  0
VERTEX
  8
0
 10
-2.95137892692
 20
-17.8988702732
 30
0.0
  0
VERTEX
  8
0
 10
-2.97654829158
 20
-17.8556672546
 30
0.0
  0
VERTEX
  8
0
 10
-3.00186023338
 20
-17.812547615
 30
0.0
  0
VERTEX
  8
0
 10
-3.02731516813
 20
-17.7695122343
 30
0.0
  0
VERTEX
  8
0
 10
-3.05291351858
 20
-17.7265620058
 30
0.0
  0
VERTEX
  8
0
 10
-3.07865571468
 20
-17.6836978368
 30
0.0
  0
VERTEX
  8
0
 10
-3.1045421938
 20
-17.6409206487
 30
0.0
  0
VERTEX
  8
0
 10
-3.13057340102
 20
-17.5982313778
 30
0.0
  0
VERTEX
  8
0
 10
-3.15674978936
 20
-17.5556309756
 30
0.0
  0
VERTEX
  8
0
 10
-3.1830718201
 20
-17.5131204094
 30
0.0
  0
VERTEX
  8
0
 10
-3.20953996307
 20
-17.4707006625
 30
0.0
  0
VERTEX
  8
0
 10
-3.23615469693
 20
-17.4283727351
 30
0.0
  0
VERTEX
  8
0
 10
-3.26291650955
 20
-17.3861376448
 30
0.0
  0
VERTEX
  8
0
 10
-3.28982589827
 20
-17.3439964271
 30
0.0
  0
VERTEX
  8
0
 10
-3.31688337033
 20
-17.3019501357
 30
0.0
  0
VERTEX
  8
0
 10
-3.3440894432
 20
-17.259999844
 30
0.0
  0
VERTEX
  8
0
 10
-3.37144464497
 20
-17.2181466448
 30
0.0
  0
VERTEX
  8
0
 10
-3.3989495148
 20
-17.1763916517
 30
0.0
  0
VERTEX
  8
0
 10
-3.4266046033
 20
-17.1347359995
 30
0.0
  0
VERTEX
  8
0
 10
-3.45441047299
 20
-17.0931808451
 30
0.0
  0
VERTEX
  8
0
 10
-3.48236769881
 20
-17.0517273684
 30
0.0
  0
VERTEX
  8
0
 10
-3.51047686859
 20
-17.0103767728
 30
0.0
  0
VERTEX
  8
0
 10
-3.5387385836
 20
-16.9691302869
 30
0.0
  0
VERTEX
  8
0
 10
-3.56715345907
 20
-16.9279891645
 30
0.0
  0
VERTEX
  8
0
 10
-3.59572212481
 20
-16.8869546863
 30
0.0
  0
VERTEX
  8
0
 10
-3.62444522581
 20
-16.8460281608
 30
0.0
  0
VERTEX
  8
0
 10
-3.65332342293
 20
-16.8052109253
 30
0.0
  0
VERTEX
  8
0
 10
-3.68235739353
 20
-16.7645043474
 30
0.0
  0
VERTEX
  8
0
 10
-3.71154783226
 20
-16.7239098259
 30
0.0
  0
VERTEX
  8
0
 10
-3.7408954518
 20
-16.6834287924
 30
0.0
  0
VERTEX
  8
0
 10
-3.77040098372
 20
-16.6430627128
 30
0.0
  0
VERTEX
  8
0
 10
-3.80006517931
 20
-16.6028130886
 30
0.0
  0
VERTEX
  8
0
 10
-3.82988881055
 20
-16.5626814587
 30
0.0
  0
VERTEX
  8
0
 10
-3.85987267108
 20
-16.5226694012
 30
0.0
  0
VERTEX
  8
0
 10
-3.89001757725
 20
-16.4827785348
 30
0.0
  0
VERTEX
  8
0
 10
-3.92032436927
 20
-16.4430105215
 30
0.0
  0
VERTEX
  8
0
 10
-3.95079391237
 20
-16.4033670679
 30
0.0
  0
VERTEX
  8
0
 10
-3.98142709812
 20
-16.3638499281
 30
0.0
  0
VERTEX
  8
0
 10
-4.01222484578
 20
-16.3244609057
 30
0.0
  0
VERTEX
  8
0
 10
-4.0431881038
 20
-16.2852018567
 30
0.0
  0
VERTEX
  8
0
 10
-4.07431785136
 20
-16.246074692
 30
0.0
  0
VERTEX
  8
0
 10
-4.10561510011
 20
-16.2070813803
 30
0.0
  0
VERTEX
  8
0
 10
-4.13708089598
 20
-16.1682239519
 30
0.0
  0
VERTEX
  8
0
 10
-4.16871632116
 20
-16.1295045013
 30
0.0
  0
VERTEX
  8
0
 10
-4.20052249621
 20
-16.0909251919
 30
0.0
  0
VERTEX
  8
0
 10
-4.23250058242
 20
-16.052488259
 30
0.0
  0
VERTEX
  8
0
 10
-4.26465178424
 20
-16.0141960152
 30
0.0
  0
VERTEX
  8
0
 10
-4.29697735205
 20
-15.9760508546
 30
0.0
  0
VERTEX
  8
0
 10
-4.32947858512
 20
-15.938055258
 30
0.0
  0
VERTEX
  8
0
 10
-4.36215683477
 20
-15.9002117988
 30
0.0
  0
VERTEX
  8
0
 10
-4.39501350796
 20
-15.862523149
 30
0.0
  0
VERTEX
  8
0
 10
-4.42805007114
 20
-15.8249920863
 30
0.0
  0
VERTEX
  8
0
 10
-4.46126805445
 20
-15.7876215012
 30
0.0
  0
VERTEX
  8
0
 10
-4.49466905644
 20
-15.7504144054
 30
0.0
  0
VERTEX
  8
0
 10
-4.52825474918
 20
-15.7133739408
 30
0.0
  0
VERTEX
  8
0
 10
-4.56202688399
 20
-15.6765033898
 30
0.0
  0
VERTEX
  8
0
 10
-4.59598729779
 20
-15.6398061862
 30
0.0
  0
VERTEX
  8
0
 10
-4.63013792014
 20
-15.6032859276
 30
0.0
  0
VERTEX
  8
0
 10
-4.66448078113
 20
-15.5669463899
 30
0.0
  0
VERTEX
  8
0
 10
-4.69901802028
 20
-15.5307915421
 30
0.0
  0
VERTEX
  8
0
 10
-4.7337518965
 20
-15.4948255645
 30
0.0
  0
VERTEX
  8
0
 10
-4.76868479939
 20
-15.4590528687
 30
0.0
  0
VERTEX
  8
0
 10
-4.80381926209
 20
-15.4234781198
 30
0.0
  0
VERTEX
  8
0
 10
-4.83915797593
 20
-15.3881062629
 30
0.0
  0
VERTEX
  8
0
 10
-4.8747038073
 20
-15.3529425524
 30
0.0
  0
VERTEX
  8
0
 10
-4.91045981708
 20
-15.3179925865
 30
0.0
  0
VERTEX
  8
0
 10
-4.94642928323
 20
-15.2832623474
 30
0.0
  0
VERTEX
  8
0
 10
-4.98261572723
 20
-15.2487582478
 30
0.0
  0
VERTEX
  8
0
 10
-5.01902294521
 20
-15.214487186
 30
0.0
  0
VERTEX
  8
0
 10
-5.05565504496
 20
-15.1804566116
 30
0.0
  0
VERTEX
  8
0
 10
-5.09251649027
 20
-15.1466746038
 30
0.0
  0
VERTEX
  8
0
 10
-5.12961215459
 20
-15.1131499667
 30
0.0
  0
VERTEX
  8
0
 10
-5.16694738677
 20
-15.0798923454
 30
0.0
  0
VERTEX
  8
0
 10
-5.20452809248
 20
-15.0469123709
 30
0.0
  0
VERTEX
  8
0
 10
-5.2423608365
 20
-15.014221841
 30
0.0
  0
VERTEX
  8
0
 10
-5.2804529735
 20
-14.9818339525
 30
0.0
  0
VERTEX
  8
0
 10
-5.318812818
 20
-14.9497636029
 30
0.0
  0
VERTEX
  8
0
 10
-5.35744987036
 20
-14.9180277921
 30
0.0
  0
VERTEX
  8
0
 10
-5.39637512475
 20
-14.8866461693
 30
0.0
  0
VERTEX
  8
0
 10
-5.43560150173
 20
-14.8556418028
 30
0.0
  0
VERTEX
  8
0
 10
-5.47514447839
 20
-14.8250423021
 30
0.0
  0
VERTEX
  8
0
 10
-5.5150230486
 20
-14.7948815306
 30
0.0
  0
VERTEX
  8
0
 10
-5.55526127156
 20
-14.7652023737
 30
0.0
  0
VERTEX
  8
0
 10
-5.5958909561
 20
-14.7360615548
 30
0.0
  0
VERTEX
  8
0
 10
-5.63695674094
 20
-14.707538826
 30
0.0
  0
VERTEX
  8
0
 10
-5.67061999476
 20
-14.684946663
 30
0.0
  0
SEQEND
  8
0
  0
POLYLINE
  8
0
 62
0
 70
0
 66
1
 10
0.0
 20
0.0
 30
0.0
  0
VERTEX
  8
0
 10
-4.10274645794
 20
-11.4292237167
 30
0.0
  0
VERTEX
  8
0
 10
-4.05505127301
 20
-11.4442268679
 30
0.0
  0
VERTEX
  8
0
 10
-4.00710390006
 20
-11.4584042242
 30
0.0
  0
VERTEX
  8
0
 10
-3.95895278556
 20
-11.4718738436
 30
0.0
  0
VERTEX
  8
0
 10
-3.91063009645
 20
-11.4847146332
 30
0.0
  0
VERTEX
  8
0
 10
-3.86215898852
 20
-11.4969834979
 30
0.0
  0
VERTEX
  8
0
 10
-3.81355712901
 20
-11.5087238692
 30
0.0
  0
VERTEX
  8
0
 10
-3.7648385668
 20
-11.5199702716
 30
0.0
  0
VERTEX
  8
0
 10
-3.71601482096
 20
-11.5307509905
 30
0.0
  0
VERTEX
  8
0
 10
-3.66709556128
 20
-11.5410897447
 30
0.0
  0
VERTEX
  8
0
 10
-3.6180890578
 20
-11.5510067935
 30
0.0
  0
VERTEX
  8
0
 10
-3.5690024912
 20
-11.5605197013
 30
0.0
  0
VERTEX
  8
0
 10
-3.51984217483
 20
-11.5696438857
 30
0.0
  0
VERTEX
  8
0
 10
-3.47061371817
 20
-11.578393021
 30
0.0
  0
VERTEX
  8
0
 10
-3.42132215033
 20
-11.5867793436
 30
0.0
  0
VERTEX
  8
0
 10
-3.37197201516
 20
-11.5948138866
 30
0.0
  0
VERTEX
  8
0
 10
-3.32256744599
 20
-11.6025066656
 30
0.0
  0
VERTEX
  8
0
 10
-3.27311222512
 20
-11.6098668252
 30
0.0
  0
VERTEX
  8
0
 10
-3.22360983201
 20
-11.6169027584
 30
0.0
  0
VERTEX
  8
0
 10
-3.17406348262
 20
-11.6236222047
 30
0.0
  0
VERTEX
  8
0
 10
-3.12447616201
 20
-11.63003233
 30
0.0
  0
VERTEX
  8
0
 10
-3.07485065158
 20
-11.6361397949
 30
0.0
  0
VERTEX
  8
0
 10
-3.02518955196
 20
-11.641950811
 30
0.0
  0
VERTEX
  8
0
 10
-2.97549530248
 20
-11.6474711895
 30
0.0
  0
VERTEX
  8
0
 10
-2.92577019788
 20
-11.6527063825
 30
0.0
  0
VERTEX
  8
0
 10
-2.87601640263
 20
-11.6576615185
 30
0.0
  0
VERTEX
  8
0
 10
-2.82623596337
 20
-11.6623414337
 30
0.0
  0
VERTEX
  8
0
 10
-2.77643081974
 20
-11.6667506985
 30
0.0
  0
VERTEX
  8
0
 10
-2.72660281388
 20
-11.6708936412
 30
0.0
  0
VERTEX
  8
0
 10
-2.67675369879
 20
-11.6747743689
 30
0.0
  0
VERTEX
  8
0
 10
-2.62688514571
 20
-11.6783967859
 30
0.0
  0
VERTEX
  8
0
 10
-2.57699875063
 20
-11.6817646097
 30
0.0
  0
VERTEX
  8
0
 10
-2.52709604024
 20
-11.684881386
 30
0.0
  0
VERTEX
  8
0
 10
-2.47717847702
 20
-11.6877505013
 30
0.0
  0
VERTEX
  8
0
 10
-2.42724746406
 20
-11.6903751948
 30
0.0
  0
VERTEX
  8
0
 10
-2.37730434918
 20
-11.6927585691
 30
0.0
  0
VERTEX
  8
0
 10
-2.32735042881
 20
-11.6949035993
 30
0.0
  0
VERTEX
  8
0
 10
-2.27738695141
 20
-11.6968131418
 30
0.0
  0
VERTEX
  8
0
 10
-2.22741512061
 20
-11.6984899422
 30
0.0
  0
VERTEX
  8
0
 10
-2.1774360981
 20
-11.6999366424
 30
0.0
  0
VERTEX
  8
0
 10
-2.12745100616
 20
-11.7011557872
 30
0.0
  0
VERTEX
  8
0
 10
-2.07746093015
 20
-11.7021498299
 30
0.0
  0
VERTEX
  8
0
 10
-2.0274669206
 20
-11.7029211382
 30
0.0
  0
VERTEX
  8
0
 10
-1.97746999526
 20
-11.703471999
 30
0.0
  0
VERTEX
  8
0
 10
-1.92747114096
 20
-11.703804623
 30
0.0
  0
VERTEX
  8
0
 10
-1.87747131528
 20
-11.703921149
 30
0.0
  0
VERTEX
  8
0
 10
-1.82747144816
 20
-11.7038236479
 30
0.0
  0
VERTEX
  8
0
 10
-1.77747244332
 20
-11.7035141264
 30
0.0
  0
VERTEX
  8
0
 10
-1.72747517965
 20
-11.7029945301
 30
0.0
  0
VERTEX
  8
0
 10
-1.67748051242
 20
-11.7022667471
 30
0.0
  0
VERTEX
  8
0
 10
-1.62748927449
 20
-11.7013326104
 30
0.0
  0
VERTEX
  8
0
 10
-1.57750227736
 20
-11.7001939011
 30
0.0
  0
VERTEX
  8
0
 10
-1.52752031222
 20
-11.6988523505
 30
0.0
  0
VERTEX
  8
0
 10
-1.47754415084
 20
-11.6973096431
 30
0.0
  0
VERTEX
  8
0
 10
-1.42757454651
 20
-11.6955674179
 30
0.0
  0
VERTEX
  8
0
 10
-1.37761223483
 20
-11.6936272714
 30
0.0
  0
VERTEX
  8
0
 10
-1.32765793451
 20
-11.6914907591
 30
0.0
  0
VERTEX
  8
0
 10
-1.27771234806
 20
-11.6891593973
 30
0.0
  0
VERTEX
  8
0
 10
-1.22777616253
 20
-11.6866346648
 30
0.0
  0
VERTEX
  8
0
 10
-1.17785005009
 20
-11.683918005
 30
0.0
  0
VERTEX
  8
0
 10
-1.12793466868
 20
-11.6810108267
 30
0.0
  0
VERTEX
  8
0
 10
-1.07803066256
 20
-11.6779145059
 30
0.0
  0
VERTEX
  8
0
 10
-1.02813866285
 20
-11.6746303874
 30
0.0
  0
VERTEX
  8
0
 10
-0.978259288041
 20
-11.6711597857
 30
0.0
  0
VERTEX
  8
0
 10
-0.928393144458
 20
-11.6675039861
 30
0.0
  0
VERTEX
  8
0
 10
-0.878540826733
 20
-11.6636642465
 30
0.0
  0
VERTEX
  8
0
 10
-0.828702918224
 20
-11.6596417978
 30
0.0
  0
VERTEX
  8
0
 10
-0.77887999142
 20
-11.6554378451
 30
0.0
  0
VERTEX
  8
0
 10
-0.729072608329
 20
-11.6510535691
 30
0.0
  0
VERTEX
  8
0
 10
-0.679281320839
 20
-11.6464901263
 30
0.0
  0
VERTEX
  8
0
 10
-0.629506671068
 20
-11.6417486506
 30
0.0
  0
VERTEX
  8
0
 10
-0.579749191692
 20
-11.6368302537
 30
0.0
  0
VERTEX
  8
0
 10
-0.530009406257
 20
-11.6317360258
 30
0.0
  0
VERTEX
  8
0
 10
-0.480287829475
 20
-11.6264670369
 30
0.0
  0
VERTEX
  8
0
 10
-0.430584967512
 20
-11.6210243369
 30
0.0
  0
VERTEX
  8
0
 10
-0.380901318255
 20
-11.6154089567
 30
0.0
  0
VERTEX
  8
0
 10
-0.331237371566
 20
-11.6096219087
 30
0.0
  0
VERTEX
  8
0
 10
-0.281593609536
 20
-11.6036641874
 30
0.0
  0
VERTEX
  8
0
 10
-0.231970506707
 20
-11.5975367701
 30
0.0
  0
VERTEX
  8
0
 10
-0.182368530309
 20
-11.5912406173
 30
0.0
  0
VERTEX
  8
0
 10
-0.13278814046
 20
-11.5847766735
 30
0.0
  0
VERTEX
  8
0
 10
-0.0832297903818
 20
-11.5781458674
 30
0.0
  0
VERTEX
  8
0
 10
-0.0336939265871
 20
-11.5713491129
 30
0.0
  0
VERTEX
  8
0
 10
0.01581901093
 20
-11.5643873088
 30
0.0
  0
VERTEX
  8
0
 10
0.065308588516
 20
-11.5572613401
 30
0.0
  0
VERTEX
  8
0
 10
0.114774378687
 20
-11.5499720778
 30
0.0
  0
VERTEX
  8
0
 10
0.164215959964
 20
-11.5425203798
 30
0.0
  0
VERTEX
  8
0
 10
0.213632916717
 20
-11.5349070908
 30
0.0
  0
VERTEX
  8
0
 10
0.263024839011
 20
-11.5271330431
 30
0.0
  0
VERTEX
  8
0
 10
0.312391322466
 20
-11.519199057
 30
0.0
  0
VERTEX
  8
0
 10
0.361731968113
 20
-11.5111059408
 30
0.0
  0
VERTEX
  8
0
 10
0.411046382263
 20
-11.5028544912
 30
0.0
  0
VERTEX
  8
0
 10
0.46033417638
 20
-11.494445494
 30
0.0
  0
VERTEX
  8
0
 10
0.509594966955
 20
-11.4858797242
 30
0.0
  0
VERTEX
  8
0
 10
0.558828375387
 20
-11.4771579462
 30
0.0
  0
VERTEX
  8
0
 10
0.608034027874
 20
-11.4682809141
 30
0.0
  0
VERTEX
  8
0
 10
0.657211555295
 20
-11.4592493721
 30
0.0
  0
VERTEX
  8
0
 10
0.706360593114
 20
-11.4500640549
 30
0.0
  0
VERTEX
  8
0
 10
0.755480781268
 20
-11.4407256877
 30
0.0
  0
VERTEX
  8
0
 10
0.804571764078
 20
-11.4312349865
 30
0.0
  0
VERTEX
  8
0
 10
0.853633190148
 20
-11.4215926584
 30
0.0
  0
VERTEX
  8
0
 10
0.902664712278
 20
-11.4117994019
 30
0.0
  0
VERTEX
  8
0
 10
0.951665987374
 20
-11.401855907
 30
0.0
  0
VERTEX
  8
0
 10
1.00063667636
 20
-11.3917628557
 30
0.0
  0
VERTEX
  8
0
 10
1.04957644411
 20
-11.3815209216
 30
0.0
  0
VERTEX
  8
0
 10
1.09848495935
 20
-11.3711307709
 30
0.0
  0
VERTEX
  8
0
 10
1.14736189459
 20
-11.3605930619
 30
0.0
  0
VERTEX
  8
0
 10
1.18696986507
 20
-11.3519407831
 30
0.0
  0
SEQEND
  8
0
  0
POLYLINE
  8
0
 62
0
 70
0
 66
1
 10
0.0
 20
0.0
 30
0.0
  0
VERTEX
  8
0
 10
1.81513724566
 20
-9.3154721526
 30
0.0
  0
VERTEX
  8
0
 10
1.78077781258
 20
-9.27914822825
 30
0.0
  0
VERTEX
  8
0
 10
1.74630924488
 20
-9.24292784797
 30
0.0
  0
VERTEX
  8
0
 10
1.71173144314
 20
-9.20681173358
 30
0.0
  0
VERTEX
  8
0
 10
1.67704430683
 20
-9.17080061513
 30
0.0
  0
VERTEX
  8
0
 10
1.64224773424
 20
-9.13489523114
 30
0.0
  0
VERTEX
  8
0
 10
1.60734162248
 20
-9.09909632879
 30
0.0
  0
VERTEX
  8
0
 10
1.57232586737
 20
-9.06340466413
 30
0.0
  0
VERTEX
  8
0
 10
1.53720036342
 20
-9.02782100231
 30
0.0
  0
VERTEX
  8
0
 10
1.50196500377
 20
-8.99234611781
 30
0.0
  0
VERTEX
  8
0
 10
1.46661968014
 20
-8.95698079466
 30
0.0
  0
VERTEX
  8
0
 10
1.43116428275
 20
-8.92172582674
 30
0.0
  0
VERTEX
  8
0
 10
1.3955987003
 20
-8.88658201798
 30
0.0
  0
VERTEX
  8
0
 10
1.35992281985
 20
-8.85155018264
 30
0.0
  0
VERTEX
  8
0
 10
1.32413652683
 20
-8.81663114561
 30
0.0
  0
VERTEX
  8
0
 10
1.2882397049
 20
-8.7818257427
 30
0.0
  0
VERTEX
  8
0
 10
1.25223223593
 20
-8.74713482088
 30
0.0
  0
VERTEX
  8
0
 10
1.21611399989
 20
-8.71255923867
 30
0.0
  0
VERTEX
  8
0
 10
1.17988487483
 20
-8.67809986639
 30
0.0
  0
VERTEX
  8
0
 10
1.14354473675
 20
-8.64375758655
 30
0.0
  0
VERTEX
  8
0
 10
1.10709345953
 20
-8.60953329417
 30
0.0
  0
VERTEX
  8
0
 10
1.07053091486
 20
-8.57542789713
 30
0.0
  0
VERTEX
  8
0
 10
1.03385697215
 20
-8.54144231657
 30
0.0
  0
VERTEX
  8
0
 10
0.997071498451
 20
-8.50757748729
 30
0.0
  0
VERTEX
  8
0
 10
0.96017435832
 20
-8.47383435813
 30
0.0
  0
VERTEX
  8
0
 10
0.923165413765
 20
-8.4402138924
 30
0.0
  0
VERTEX
  8
0
 10
0.886044524119
 20
-8.40671706834
 30
0.0
  0
VERTEX
  8
0
 10
0.848811545946
 20
-8.37334487957
 30
0.0
  0
VERTEX
  8
0
 10
0.811466332921
 20
-8.34009833559
 30
0.0
  0
VERTEX
  8
0
 10
0.774008735718
 20
-8.30697846225
 30
0.0
  0
VERTEX
  8
0
 10
0.736438601892
 20
-8.27398630232
 30
0.0
  0
VERTEX
  8
0
 10
0.698755775747
 20
-8.241122916
 30
0.0
  0
VERTEX
  8
0
 10
0.660960098208
 20
-8.20838938152
 30
0.0
  0
VERTEX
  8
0
 10
0.623051406681
 20
-8.17578679573
 30
0.0
  0
VERTEX
  8
0
 10
0.585029534914
 20
-8.14331627476
 30
0.0
  0
VERTEX
  8
0
 10
0.546894312839
 20
-8.11097895462
 30
0.0
  0
VERTEX
  8
0
 10
0.508645566418
 20
-8.07877599196
 30
0.0
  0
VERTEX
  8
0
 10
0.47028311748
 20
-8.04670856475
 30
0.0
  0
VERTEX
  8
0
 10
0.431806783542
 20
-8.01477787305
 30
0.0
  0
VERTEX
  8
0
 10
0.393216377631
 20
-7.98298513984
 30
0.0
  0
VERTEX
  8
0
 10
0.354511708093
 20
-7.95133161181
 30
0.0
  0
VERTEX
  8
0
 10
0.315692578391
 20
-7.91981856029
 30
0.0
  0
VERTEX
  8
0
 10
0.276758786895
 20
-7.88844728216
 30
0.0
  0
VERTEX
  8
0
 10
0.23771012666
 20
-7.85721910082
 30
0.0
  0
VERTEX
  8
0
 10
0.198546385193
 20
-7.82613536724
 30
0.0
  0
VERTEX
  8
0
 10
0.159267344205
 20
-7.79519746104
 30
0.0
  0
VERTEX
  8
0
 10
0.119872779355
 20
-7.76440679165
 30
0.0
  0
VERTEX
  8
0
 10
0.0803624599733
 20
-7.73376479949
 30
0.0
  0
VERTEX
  8
0
 10
0.0407361487734
 20
-7.70327295731
 30
0.0
  0
VERTEX
  8
0
 10
0.000993601546489
 20
-7.67293277149
 30
0.0
  0
VERTEX
  8
0
 10
-0.0388654331622
 20
-7.64274578351
 30
0.0
  0
VERTEX
  8
0
 10
-0.0788412143964
 20
-7.61271357149
 30
0.0
  0
VERTEX
  8
0
 10
-0.118934009151
 20
-7.58283775174
 30
0.0
  0
VERTEX
  8
0
 10
-0.15914409276
 20
-7.55311998057
 30
0.0
  0
VERTEX
  8
0
 10
-0.199471749303
 20
-7.52356195606
 30
0.0
  0
VERTEX
  8
0
 10
-0.239917272041
 20
-7.49416541999
 30
0.0
  0
VERTEX
  8
0
 10
-0.280480963884
 20
-7.46493215998
 30
0.0
  0
VERTEX
  8
0
 10
-0.321163137882
 20
-7.43586401163
 30
0.0
  0
VERTEX
  8
0
 10
-0.361964117751
 20
-7.40696286094
 30
0.0
  0
VERTEX
  8
0
 10
-0.402884238443
 20
-7.37823064679
 30
0.0
  0
VERTEX
  8
0
 10
-0.443923846742
 20
-7.34966936367
 30
0.0
  0
VERTEX
  8
0
 10
-0.485083301917
 20
-7.32128106458
 30
0.0
  0
VERTEX
  8
0
 10
-0.526362976411
 20
-7.29306786414
 30
0.0
  0
VERTEX
  8
0
 10
-0.567763256587
 20
-7.26503194194
 30
0.0
  0
VERTEX
  8
0
 10
-0.609284543533
 20
-7.23717554616
 30
0.0
  0
VERTEX
  8
0
 10
-0.650927253924
 20
-7.20950099745
 30
0.0
  0
VERTEX
  8
0
 10
-0.692691820957
 20
-7.18201069312
 30
0.0
  0
VERTEX
  8
0
 10
-0.734578695359
 20
-7.15470711173
 30
0.0
  0
VERTEX
  8
0
 10
-0.776588346483
 20
-7.12759281801
 30
0.0
  0
VERTEX
  8
0
 10
-0.818721263498
 20
-7.10067046822
 30
0.0
  0
VERTEX
  8
0
 10
-0.860977956675
 20
-7.07394281597
 30
0.0
  0
VERTEX
  8
0
 10
-0.903358958804
 20
-7.04741271863
 30
0.0
  0
VERTEX
  8
0
 10
-0.945864826727
 20
-7.02108314429
 30
0.0
  0
VERTEX
  8
0
 10
-0.988496143027
 20
-6.99495717935
 30
0.0
  0
VERTEX
  8
0
 10
-1.03125351788
 20
-6.96903803694
 30
0.0
  0
VERTEX
  8
0
 10
-1.07413759108
 20
-6.94332906615
 30
0.0
  0
VERTEX
  8
0
 10
-1.11714903432
 20
-6.91783376222
 30
0.0
  0
VERTEX
  8
0
 10
-1.16028855363
 20
-6.89255577783
 30
0.0
  0
VERTEX
  8
0
 10
-1.2035568922
 20
-6.86749893567
 30
0.0
  0
VERTEX
  8
0
 10
-1.24695483338
 20
-6.84266724241
 30
0.0
  0
VERTEX
  8
0
 10
-1.29048320421
 20
-6.81806490433
 30
0.0
  0
VERTEX
  8
0
 10
-1.33414287921
 20
-6.7936963449
 30
0.0
  0
VERTEX
  8
0
 10
-1.37793478475
 20
-6.76956622457
 30
0.0
  0
VERTEX
  8
0
 10
-1.42185990397
 20
-6.74567946314
 30
0.0
  0
VERTEX
  8
0
 10
-1.46591928237
 20
-6.72204126524
 30
0.0
  0
VERTEX
  8
0
 10
-1.51011403416
 20
-6.69865714944
 30
0.0
  0
VERTEX
  8
0
 10
-1.55444534962
 20
-6.67553298162
 30
0.0
  0
VERTEX
  8
0
 10
-1.5989145035
 20
-6.65267501355
 30
0.0
  0
VERTEX
  8
0
 10
-1.64352286487
 20
-6.6300899278
 30
0.0
  0
VERTEX
  8
0
 10
-1.6882719086
 20
-6.60778489012
 30
0.0
  0
VERTEX
  8
0
 10
-1.73316322883
 20
-6.58576761133
 30
0.0
  0
VERTEX
  8
0
 10
-1.77819855507
 20
-6.56404642081
 30
0.0
  0
VERTEX
  8
0
 10
-1.82337977138
 20
-6.5426303546
 30
0.0
  0
VERTEX
  8
0
 10
-1.86870893968
 20
-6.52152926205
 30
0.0
  0
VERTEX
  8
0
 10
-1.91418832819
 20
-6.5007539365
 30
0.0
  0
VERTEX
  8
0
 10
-1.95982044672
 20
-6.48031627719
 30
0.0
  0
VERTEX
  8
0
 10
-2.00560809093
 20
-6.46022949285
 30
0.0
  0
VERTEX
  8
0
 10
-2.0515543989
 20
-6.44050836181
 30
0.0
  0
VERTEX
  8
0
 10
-2.09766292461
 20
-6.42116957059
 30
0.0
  0
VERTEX
  8
0
 10
-2.14393773559
 20
-6.40223216391
 30
0.0
  0
VERTEX
  8
0
 10
-2.19038354585
 20
-6.38371815868
 30
0.0
  0
VERTEX
  8
0
 10
-2.23700590243
 20
-6.36565340675
 30
0.0
  0
VERTEX
  8
0
 10
-2.28381145675
 20
-6.348068853
 30
0.0
  0
VERTEX
  8
0
 10
-2.33080837743
 20
-6.3310024549
 30
0.0
  0
VERTEX
  8
0
 10
-2.37800701412
 20
-6.31450228405
 30
0.0
  0
VERTEX
  8
0
 10
-2.42542104292
 20
-6.29863191976
 30
0.0
  0
VERTEX
  8
0
 10
-2.47306961206
 20
-6.28348072838
 30
0.0
  0
VERTEX
  8
0
 10
-2.5118964589
 20
-6.27181469005
 30
0.0
  0
SEQEND
  8
0
  0
POLYLINE
  8
0
 62
0
 70
0
 66
1
 10
0.0
 20
0.0
 30
0.0
  0
VERTEX
  8
0
 10
-1.97332032908
 20
-2.69859554156
 30
0.0
  0
VERTEX
  8
0
 10
-1.92332185097
 20
-2.69887374225
 30
0.0
  0
VERTEX
  8
0
 10
-1.87332579614
 20
-2.69828850212
 30
0.0
  0
VERTEX
  8
0
 10
-1.82334366052
 20
-2.69696691403
 30
0.0
  0
VERTEX
  8
0
 10
-1.77338292372
 20
-2.6949938607
 30
0.0
  0
VERTEX
  8
0
 10
-1.72344893978
 20
-2.69243054424
 30
0.0
  0
VERTEX
  8
0
 10
-1.67354578931
 20
-2.68932367428
 30
0.0
  0
VERTEX
  8
0
 10
-1.62367672083
 20
-2.68571038227
 30
0.0
  0
VERTEX
  8
0
 10
-1.57384440437
 20
-2.68162109231
 30
0.0
  0
VERTEX
  8
0
 10
-1.52405108883
 20
-2.67708131977
 30
0.0
  0
VERTEX
  8
0
 10
-1.47429870535
 20
-2.67211286141
 30
0.0
  0
VERTEX
  8
0
 10
-1.42458893838
 20
-2.66673461793
 30
0.0
  0
VERTEX
  8
0
 10
-1.37492327637
 20
-2.66096318279
 30
0.0
  0
VERTEX
  8
0
 10
-1.325303049
 20
-2.65481327626
 30
0.0
  0
VERTEX
  8
0
 10
-1.27572945526
 20
-2.64829807333
 30
0.0
  0
VERTEX
  8
0
 10
-1.22620358498
 20
-2.64142945652
 30
0.0
  0
VERTEX
  8
0
 10
-1.17672643579
 20
-2.63421821453
 30
0.0
  0
VERTEX
  8
0
 10
-1.12729892651
 20
-2.62667420058
 30
0.0
  0
VERTEX
  8
0
 10
-1.0779219081
 20
-2.61880646054
 30
0.0
  0
VERTEX
  8
0
 10
-1.02859617244
 20
-2.61062333779
 30
0.0
  0
VERTEX
  8
0
 10
-0.979322459747
 20
-2.60213255992
 30
0.0
  0
VERTEX
  8
0
 10
-0.930101464626
 20
-2.59334131131
 30
0.0
  0
VERTEX
  8
0
 10
-0.880933841251
 20
-2.58425629419
 30
0.0
  0
VERTEX
  8
0
 10
-0.83182020772
 20
-2.57488378058
 30
0.0
  0
VERTEX
  8
0
 10
-0.782761149787
 20
-2.56522965673
 30
0.0
  0
VERTEX
  8
0
 10
-0.733757224071
 20
-2.55529946139
 30
0.0
  0
VERTEX
  8
0
 10
-0.684808960831
 20
-2.54509841903
 30
0.0
  0
VERTEX
  8
0
 10
-0.635916866387
 20
-2.53463146873
 30
0.0
  0
VERTEX
  8
0
 10
-0.58708142523
 20
-2.52390328955
 30
0.0
  0
VERTEX
  8
0
 10
-0.538303101884
 20
-2.51291832281
 30
0.0
  0
VERTEX
  8
0
 10
-0.489582342546
 20
-2.50168079188
 30
0.0
  0
VERTEX
  8
0
 10
-0.440919576539
 20
-2.49019471966
 30
0.0
  0
VERTEX
  8
0
 10
-0.392315217613
 20
-2.4784639442
 30
0.0
  0
VERTEX
  8
0
 10
-0.343769665094
 20
-2.46649213271
 30
0.0
  0
VERTEX
  8
0
 10
-0.295283304928
 20
-2.45428279409
 30
0.0
  0
VERTEX
  8
0
 10
-0.24685651061
 20
-2.44183929021
 30
0.0
  0
VERTEX
  8
0
 10
-0.198489644026
 20
-2.42916484617
 30
0.0
  0
VERTEX
  8
0
 10
-0.150183056213
 20
-2.41626255954
 30
0.0
  0
VERTEX
  8
0
 10
-0.101937088051
 20
-2.40313540871
 30
0.0
  0
VERTEX
  8
0
 10
-0.0537520708881
 20
-2.38978626063
 30
0.0
  0
VERTEX
  8
0
 10
-0.0056283271143
 20
-2.37621787773
 30
0.0
  0
VERTEX
  8
0
 10
0.0424338293182
 20
-2.36243292435
 30
0.0
  0
VERTEX
  8
0
 10
0.0904340924159
 20
-2.3484339726
 30
0.0
  0
VERTEX
  8
0
 10
0.138372163706
 20
-2.33422350773
 30
0.0
  0
VERTEX
  8
0
 10
0.186247751831
 20
-2.31980393312
 30
0.0
  0
VERTEX
  8
0
 10
0.234060572182
 20
-2.30517757486
 30
0.0
  0
VERTEX
  8
0
 10
0.281810346554
 20
-2.29034668593
 30
0.0
  0
VERTEX
  8
0
 10
0.329496802826
 20
-2.2753134502
 30
0.0
  0
VERTEX
  8
0
 10
0.377119674675
 20
-2.26007998598
 30
0.0
  0
VERTEX
  8
0
 10
0.4246787013
 20
-2.24464834945
 30
0.0
  0
VERTEX
  8
0
 10
0.472173627172
 20
-2.22902053778
 30
0.0
  0
VERTEX
  8
0
 10
0.519604201799
 20
-2.21319849205
 30
0.0
  0
VERTEX
  8
0
 10
0.566970179508
 20
-2.19718409999
 30
0.0
  0
VERTEX
  8
0
 10
0.614271319243
 20
-2.18097919849
 30
0.0
  0
VERTEX
  8
0
 10
0.661507384372
 20
-2.16458557606
 30
0.0
  0
VERTEX
  8
0
 10
0.708678142517
 20
-2.14800497497
 30
0.0
  0
VERTEX
  8
0
 10
0.755783365379
 20
-2.13123909339
 30
0.0
  0
VERTEX
  8
0
 10
0.80282282859
 20
-2.11428958737
 30
0.0
  0
VERTEX
  8
0
 10
0.849796311566
 20
-2.09715807265
 30
0.0
  0
VERTEX
  8
0
 10
0.896703597367
 20
-2.07984612641
 30
0.0
  0
VERTEX
  8
0
 10
0.943544472572
 20
-2.06235528889
 30
0.0
  0
VERTEX
  8
0
 10
0.990318727159
 20
-2.04468706497
 30
0.0
  0
VERTEX
  8
0
 10
1.03702615439
 20
-2.02684292558
 30
0.0
  0
VERTEX
  8
0
 10
1.0836665507
 20
-2.0088243091
 30
0.0
  0
VERTEX
  8
0
 10
1.13023971561
 20
-1.99063262263
 30
0.0
  0
VERTEX
  8
0
 10
1.17674545161
 20
-1.97226924326
 30
0.0
  0
VERTEX
  8
0
 10
1.2231835641
 20
-1.9537355192
 30
0.0
  0
VERTEX
  8
0
 10
1.26955386126
 20
-1.93503277089
 30
0.0
  0
VERTEX
  8
0
 10
1.31585615401
 20
-1.91616229203
 30
0.0
  0
VERTEX
  8
0
 10
1.36209025594
 20
-1.89712535061
 30
0.0
  0
VERTEX
  8
0
 10
1.40825598319
 20
-1.87792318981
 30
0.0
  0
VERTEX
  8
0
 10
1.45435315441
 20
-1.85855702893
 30
0.0
  0
VERTEX
  8
0
 10
1.50038159072
 20
-1.8390280642
 30
0.0
  0
VERTEX
  8
0
 10
1.54634111561
 20
-1.81933746964
 30
0.0
  0
VERTEX
  8
0
 10
1.59223155489
 20
-1.7994863978
 30
0.0
  0
VERTEX
  8
0
 10
1.63805273664
 20
-1.7794759805
 30
0.0
  0
VERTEX
  8
0
 10
1.68380449118
 20
-1.75930732952
 30
0.0
  0
VERTEX
  8
0
 10
1.72948665097
 20
-1.73898153732
 30
0.0
  0
VERTEX
  8
0
 10
1.77509905061
 20
-1.71849967761
 30
0.0
  0
VERTEX
  8
0
 10
1.82064152675
 20
-1.69786280602
 30
0.0
  0
VERTEX
  8
0
 10
1.8661139181
 20
-1.67707196063
 30
0.0
  0
VERTEX
  8
0
 10
1.91151606535
 20
-1.65612816258
 30
0.0
  0
VERTEX
  8
0
 10
1.95684781112
 20
-1.63503241657
 30
0.0
  0
VERTEX
  8
0
 10
2.00210899997
 20
-1.61378571138
 30
0.0
  0
VERTEX
  8
0
 10
2.04729947833
 20
-1.59238902039
 30
0.0
  0
VERTEX
  8
0
 10
2.09241909446
 20
-1.57084330198
 30
0.0
  0
VERTEX
  8
0
 10
2.13746769845
 20
-1.54914950006
 30
0.0
  0
VERTEX
  8
0
 10
2.18244514214
 20
-1.52730854443
 30
0.0
  0
VERTEX
  8
0
 10
2.22735127915
 20
-1.50532135126
 30
0.0
  0
VERTEX
  8
0
 10
2.2721859648
 20
-1.48318882345
 30
0.0
  0
VERTEX
  8
0
 10
2.3169490561
 20
-1.46091185101
 30
0.0
  0
VERTEX
  8
0
 10
2.36164041173
 20
-1.43849131144
 30
0.0
  0
VERTEX
  8
0
 10
2.40625989203
 20
-1.4159280701
 30
0.0
  0
VERTEX
  8
0
 10
2.45080735893
 20
-1.3932229805
 30
0.0
  0
VERTEX
  8
0
 10
2.49528267595
 20
-1.37037688469
 30
0.0
  0
VERTEX
  8
0
 10
2.5396857082
 20
-1.34739061351
 30
0.0
  0
VERTEX
  8
0
 10
2.58401632234
 20
-1.32426498696
 30
0.0
  0
VERTEX
  8
0
 10
2.62827438654
 20
-1.30100081443
 30
0.0
  0
VERTEX
  8
0
 10
2.67245977049
 20
-1.27759889502
 30
0.0
  0
VERTEX
  8
0
 10
2.71657234538
 20
-1.25406001781
 30
0.0
  0
VERTEX
  8
0
 10
2.76061198384
 20
-1.23038496209
 30
0.0
  0
VERTEX
  8
0
 10
2.80457855999
 20
-1.20657449766
 30
0.0
  0
VERTEX
  8
0
 10
2.84847194937
 20
-1.18262938501
 30
0.0
  0
VERTEX
  8
0
 10
2.89229202893
 20
-1.15855037564
 30
0.0
  0
VERTEX
  8
0
 10
2.93603867706
 20
-1.13433821219
 30
0.0
  0
VERTEX
  8
0
 10
2.97971177349
 20
-1.10999362876
 30
0.0
  0
VERTEX
  8
0
 10
3.02331119938
 20
-1.08551735102
 30
0.0
  0
VERTEX
  8
0
 10
3.05860919494
 20
-1.06557481449
 30
0.0
  0
SEQEND
  8
0
  0
POLYLINE
  8
0
 62
0
 70
0
 66
1
 10
0.0
 20
0.0
 30
0.0
  0
VERTEX
  8
0
 10
3.05860919494
 20
1.06557481449
 30
0.0
  0
VERTEX
  8
0
 10
3.01506959041
 20
1.09015734811
 30
0.0
  0
VERTEX
  8
0
 10
2.97145621996
 20
1.11460876983
 30
0.0
  0
VERTEX
  8
0
 10
2.92776920133
 20
1.13892836062
 30
0.0
  0
VERTEX
  8
0
 10
2.88400865366
 20
1.1631153932
 30
0.0
  0
VERTEX
  8
0
 10
2.84017469744
 20
1.1871691319
 30
0.0
  0
VERTEX
  8
0
 10
2.79626745458
 20
1.2110888324
 30
0.0
  0
VERTEX
  8
0
 10
2.75228704838
 20
1.23487374154
 30
0.0
  0
VERTEX
  8
0
 10
2.70823360357
 20
1.25852309706
 30
0.0
  0
VERTEX
  8
0
 10
2.66410724632
 20
1.2820361274
 30
0.0
  0
VERTEX
  8
0
 10
2.61990810425
 20
1.30541205143
 30
0.0
  0
VERTEX
  8
0
 10
2.57563630647
 20
1.32865007821
 30
0.0
  0
VERTEX
  8
0
 10
2.53129198358
 20
1.3517494067
 30
0.0
  0
VERTEX
  8
0
 10
2.48687526767
 20
1.37470922552
 30
0.0
  0
VERTEX
  8
0
 10
2.44238629239
 20
1.39752871266
 30
0.0
  0
VERTEX
  8
0
 10
2.39782519293
 20
1.42020703517
 30
0.0
  0
VERTEX
  8
0
 10
2.35319210606
 20
1.44274334887
 30
0.0
  0
VERTEX
  8
0
 10
2.30848717015
 20
1.46513679802
 30
0.0
  0
VERTEX
  8
0
 10
2.26371052518
 20
1.48738651499
 30
0.0
  0
VERTEX
  8
0
 10
2.21886231278
 20
1.50949161996
 30
0.0
  0
VERTEX
  8
0
 10
2.17394267626
 20
1.53145122048
 30
0.0
  0
VERTEX
  8
0
 10
2.12895176061
 20
1.5532644112
 30
0.0
  0
VERTEX
  8
0
 10
2.08388971256
 20
1.57493027338
 30
0.0
  0
VERTEX
  8
0
 10
2.03875668058
 20
1.5964478746
 30
0.0
  0
VERTEX
  8
0
 10
1.99355281494
 20
1.61781626824
 30
0.0
  0
VERTEX
  8
0
 10
1.94827826771
 20
1.6390344931
 30
0.0
  0
VERTEX
  8
0
 10
1.90293319282
 20
1.66010157295
 30
0.0
  0
VERTEX
  8
0
 10
1.85751774608
 20
1.68101651603
 30
0.0
  0
VERTEX
  8
0
 10
1.81203208522
 20
1.70177831457
 30
0.0
  0
VERTEX
  8
0
 10
1.76647636992
 20
1.72238594426
 30
0.0
  0
VERTEX
  8
0
 10
1.72085076187
 20
1.74283836375
 30
0.0
  0
VERTEX
  8
0
 10
1.67515542479
 20
1.76313451403
 30
0.0
  0
VERTEX
  8
0
 10
1.6293905245
 20
1.78327331789
 30
0.0
  0
VERTEX
  8
0
 10
1.58355622891
 20
1.80325367928
 30
0.0
  0
VERTEX
  8
0
 10
1.53765270815
 20
1.82307448267
 30
0.0
  0
VERTEX
  8
0
 10
1.49168013456
 20
1.84273459237
 30
0.0
  0
VERTEX
  8
0
 10
1.44563868275
 20
1.86223285184
 30
0.0
  0
VERTEX
  8
0
 10
1.39952852968
 20
1.8815680829
 30
0.0
  0
VERTEX
  8
0
 10
1.3533498547
 20
1.90073908504
 30
0.0
  0
VERTEX
  8
0
 10
1.30710283962
 20
1.91974463449
 30
0.0
  0
VERTEX
  8
0
 10
1.26078766878
 20
1.93858348346
 30
0.0
  0
VERTEX
  8
0
 10
1.2144045291
 20
1.95725435917
 30
0.0
  0
VERTEX
  8
0
 10
1.16795361016
 20
1.97575596294
 30
0.0
  0
VERTEX
  8
0
 10
1.1214351043
 20
1.99408696914
 30
0.0
  0
VERTEX
  8
0
 10
1.07484920667
 20
2.01224602421
 30
0.0
  0
VERTEX
  8
0
 10
1.02819611533
 20
2.03023174546
 30
0.0
  0
VERTEX
  8
0
 10
0.981476031332
 20
2.04804271997
 30
0.0
  0
VERTEX
  8
0
 10
0.93468915884
 20
2.06567750331
 30
0.0
  0
VERTEX
  8
0
 10
0.887835705204
 20
2.08313461823
 30
0.0
  0
VERTEX
  8
0
 10
0.840915881078
 20
2.10041255329
 30
0.0
  0
VERTEX
  8
0
 10
0.79392990054
 20
2.11750976136
 30
0.0
  0
VERTEX
  8
0
 10
0.746877981208
 20
2.1344246581
 30
0.0
  0
VERTEX
  8
0
 10
0.699760344373
 20
2.15115562028
 30
0.0
  0
VERTEX
  8
0
 10
0.652577215134
 20
2.16770098405
 30
0.0
  0
VERTEX
  8
0
 10
0.605328822549
 20
2.18405904304
 30
0.0
  0
VERTEX
  8
0
 10
0.558015399789
 20
2.20022804638
 30
0.0
  0
VERTEX
  8
0
 10
0.510637184308
 20
2.21620619661
 30
0.0
  0
VERTEX
  8
0
 10
0.46319441802
 20
2.23199164739
 30
0.0
  0
VERTEX
  8
0
 10
0.415687347494
 20
2.24758250111
 30
0.0
  0
VERTEX
  8
0
 10
0.368116224158
 20
2.26297680629
 30
0.0
  0
VERTEX
  8
0
 10
0.320481304519
 20
2.27817255484
 30
0.0
  0
VERTEX
  8
0
 10
0.272782850404
 20
2.29316767906
 30
0.0
  0
VERTEX
  8
0
 10
0.22502112921
 20
2.30796004851
 30
0.0
  0
VERTEX
  8
0
 10
0.177196414186
 20
2.32254746654
 30
0.0
  0
VERTEX
  8
0
 10
0.129308984723
 20
2.33692766664
 30
0.0
  0
VERTEX
  8
0
 10
0.0813591266803
 20
2.35109830844
 30
0.0
  0
VERTEX
  8
0
 10
0.0333471327314
 20
2.36505697344
 30
0.0
  0
VERTEX
  8
0
 10
-0.0147266972601
 20
2.37880116034
 30
0.0
  0
VERTEX
  8
0
 10
-0.06286205583
 20
2.39232828003
 30
0.0
  0
VERTEX
  8
0
 10
-0.111058627468
 20
2.40563565006
 30
0.0
  0
VERTEX
  8
0
 10
-0.159316088131
 20
2.41872048874
 30
0.0
  0
VERTEX
  8
0
 10
-0.207634104713
 20
2.43157990861
 30
0.0
  0
VERTEX
  8
0
 10
-0.256012334464
 20
2.44421090933
 30
0.0
  0
VERTEX
  8
0
 10
-0.304450424348
 20
2.45661036988
 30
0.0
  0
VERTEX
  8
0
 10
-0.352948010345
 20
2.46877504004
 30
0.0
  0
VERTEX
  8
0
 10
-0.401504716671
 20
2.48070153091
 30
0.0
  0
VERTEX
  8
0
 10
-0.450120154923
 20
2.49238630457
 30
0.0
  0
VERTEX
  8
0
 10
-0.498793923131
 20
2.5038256625
 30
0.0
  0
VERTEX
  8
0
 10
-0.547525604691
 20
2.51501573278
 30
0.0
  0
VERTEX
  8
0
 10
-0.596314767192
 20
2.52595245586
 30
0.0
  0
VERTEX
  8
0
 10
-0.645160961088
 20
2.53663156855
 30
0.0
  0
VERTEX
  8
0
 10
-0.694063718209
 20
2.54704858614
 30
0.0
  0
VERTEX
  8
0
 10
-0.743022550085
 20
2.55719878218
 30
0.0
  0
VERTEX
  8
0
 10
-0.792036946039
 20
2.56707716564
 30
0.0
  0
VERTEX
  8
0
 10
-0.84110637102
 20
2.57667845496
 30
0.0
  0
VERTEX
  8
0
 10
-0.890230263123
 20
2.58599704834
 30
0.0
  0
VERTEX
  8
0
 10
-0.939408030737
 20
2.59502698965
 30
0.0
  0
VERTEX
  8
0
 10
-0.988639049243
 20
2.60376192912
 30
0.0
  0
VERTEX
  8
0
 10
-1.03792265718
 20
2.61219507754
 30
0.0
  0
VERTEX
  8
0
 10
-1.08725815172
 20
2.6203191528
 30
0.0
  0
VERTEX
  8
0
 10
-1.1366447834
 20
2.62812631674
 30
0.0
  0
VERTEX
  8
0
 10
-1.18608174975
 20
2.63560810027
 30
0.0
  0
VERTEX
  8
0
 10
-1.23556818772
 20
2.64275531346
 30
0.0
  0
VERTEX
  8
0
 10
-1.28510316447
 20
2.64955793676
 30
0.0
  0
VERTEX
  8
0
 10
-1.33468566606
 20
2.65600498779
 30
0.0
  0
VERTEX
  8
0
 10
-1.38431458344
 20
2.66208435618
 30
0.0
  0
VERTEX
  8
0
 10
-1.43398869471
 20
2.667782596
 30
0.0
  0
VERTEX
  8
0
 10
-1.48370664254
 20
2.6730846605
 30
0.0
  0
VERTEX
  8
0
 10
-1.5334669046
 20
2.67797355696
 30
0.0
  0
VERTEX
  8
0
 10
-1.58326775418
 20
2.68242988781
 30
0.0
  0
VERTEX
  8
0
 10
-1.63310720625
 20
2.68643122482
 30
0.0
  0
VERTEX
  8
0
 10
-1.68298294144
 20
2.68995122967
 30
0.0
  0
VERTEX
  8
0
 10
-1.73289219452
 20
2.69295837171
 30
0.0
  0
VERTEX
  8
0
 10
-1.78283158302
 20
2.69541397207
 30
0.0
  0
VERTEX
  8
0
 10
-1.83279682745
 20
2.69726904424
 30
0.0
  0
VERTEX
  8
0
 10
-1.88278225598
 20
2.69845880244
 30
0.0
  0
VERTEX
  8
0
 10
-1.93277982494
 20
2.69889220659
 30
0.0
  0
VERTEX
  8
0
 10
-1.97332032908
 20
2.69859554156
 30
0.0
  0
SEQEND
  8
0
  0
POLYLINE
  8
0
 62
0
 70
0
 66
1
 10
0.0
 20
0.0
 30
0.0
  0
VERTEX
  8
0
 10
-2.5118964589
 20
6.27181469005
 30
0.0
  0
VERTEX
  8
0
 10
-2.46403727179
 20
6.28628615917
 30
0.0
  0
VERTEX
  8
0
 10
-2.41643490396
 20
6.30158199459
 30
0.0
  0
VERTEX
  8
0
 10
-2.36906287931
 20
6.31757736133
 30
0.0
  0
VERTEX
  8
0
 10
-2.32190332555
 20
6.33418894312
 30
0.0
  0
VERTEX
  8
0
 10
-2.27494331921
 20
6.35135667877
 30
0.0
  0
VERTEX
  8
0
 10
-2.22817299169
 20
6.36903473104
 30
0.0
  0
VERTEX
  8
0
 10
-2.18158450251
 20
6.3871866606
 30
0.0
  0
VERTEX
  8
0
 10
-2.13517143543
 20
6.40578260801
 30
0.0
  0
VERTEX
  8
0
 10
-2.08892841864
 20
6.4247975286
 30
0.0
  0
VERTEX
  8
0
 10
-2.04285087277
 20
6.44421002476
 30
0.0
  0
VERTEX
  8
0
 10
-1.99693483637
 20
6.46400153901
 30
0.0
  0
VERTEX
  8
0
 10
-1.95117684074
 20
6.48415577635
 30
0.0
  0
VERTEX
  8
0
 10
-1.90557381762
 20
6.50465827856
 30
0.0
  0
VERTEX
  8
0
 10
-1.86012302933
 20
6.52549610257
 30
0.0
  0
VERTEX
  8
0
 10
-1.81482201486
 20
6.54665757254
 30
0.0
  0
VERTEX
  8
0
 10
-1.76966854747
 20
6.56813208503
 30
0.0
  0
VERTEX
  8
0
 10
-1.7246606009
 20
6.58990995372
 30
0.0
  0
VERTEX
  8
0
 10
-1.67979632196
 20
6.61198228381
 30
0.0
  0
VERTEX
  8
0
 10
-1.63507400811
 20
6.6343408692
 30
0.0
  0
VERTEX
  8
0
 10
-1.59049208893
 20
6.65697810741
 30
0.0
  0
VERTEX
  8
0
 10
-1.54604911054
 20
6.67988692852
 30
0.0
  0
VERTEX
  8
0
 10
-1.50174372252
 20
6.70306073522
 30
0.0
  0
VERTEX
  8
0
 10
-1.45757466681
 20
6.72649335196
 30
0.0
  0
VERTEX
  8
0
 10
-1.41354076813
 20
6.75017898136
 30
0.0
  0
VERTEX
  8
0
 10
-1.3696409258
 20
6.77411216665
 30
0.0
  0
VERTEX
  8
0
 10
-1.32587410658
 20
6.79828775919
 30
0.0
  0
VERTEX
  8
0
 10
-1.28223933847
 20
6.82270089008
 30
0.0
  0
VERTEX
  8
0
 10
-1.23873570527
 20
6.84734694534
 30
0.0
  0
VERTEX
  8
0
 10
-1.19536234175
 20
6.87222154403
 30
0.0
  0
VERTEX
  8
0
 10
-1.15211842944
 20
6.8973205189
 30
0.0
  0
VERTEX
  8
0
 10
-1.10900319281
 20
6.92263989924
 30
0.0
  0
VERTEX
  8
0
 10
-1.06601589595
 20
6.94817589555
 30
0.0
  0
VERTEX
  8
0
 10
-1.0231558395
 20
6.97392488585
 30
0.0
  0
VERTEX
  8
0
 10
-0.980422358011
 20
6.99988340337
 30
0.0
  0
VERTEX
  8
0
 10
-0.937814817445
 20
7.02604812549
 30
0.0
  0
VERTEX
  8
0
 10
-0.895332612998
 20
7.05241586373
 30
0.0
  0
VERTEX
  8
0
 10
-0.852975167091
 20
7.07898355469
 30
0.0
  0
VERTEX
  8
0
 10
-0.810741927558
 20
7.10574825179
 30
0.0
  0
VERTEX
  8
0
 10
-0.768632365982
 20
7.13270711782
 30
0.0
  0
VERTEX
  8
0
 10
-0.726645976187
 20
7.15985741803
 30
0.0
  0
VERTEX
  8
0
 10
-0.684782272851
 20
7.18719651391
 30
0.0
  0
VERTEX
  8
0
 10
-0.64304079023
 20
7.21472185744
 30
0.0
  0
VERTEX
  8
0
 10
-0.601421080995
 20
7.24243098578
 30
0.0
  0
VERTEX
  8
0
 10
-0.559922715148
 20
7.27032151648
 30
0.0
  0
VERTEX
  8
0
 10
-0.518545279034
 20
7.29839114288
 30
0.0
  0
VERTEX
  8
0
 10
-0.477288374414
 20
7.3266376301
 30
0.0
  0
VERTEX
  8
0
 10
-0.436151617617
 20
7.35505881109
 30
0.0
  0
VERTEX
  8
0
 10
-0.395134638748
 20
7.38365258313
 30
0.0
  0
VERTEX
  8
0
 10
-0.354237080952
 20
7.41241690453
 30
0.0
  0
VERTEX
  8
0
 10
-0.31345859973
 20
7.44134979154
 30
0.0
  0
VERTEX
  8
0
 10
-0.272798862302
 20
7.47044931546
 30
0.0
  0
VERTEX
  8
0
 10
-0.23225754701
 20
7.49971360004
 30
0.0
  0
VERTEX
  8
0
 10
-0.191834342762
 20
7.52914081892
 30
0.0
  0
VERTEX
  8
0
 10
-0.151528948512
 20
7.55872919332
 30
0.0
  0
VERTEX
  8
0
 10
-0.111341072768
 20
7.58847698988
 30
0.0
  0
VERTEX
  8
0
 10
-0.0712704331382
 20
7.61838251856
 30
0.0
  0
VERTEX
  8
0
 10
-0.0313167558969
 20
7.64844413076
 30
0.0
  0
VERTEX
  8
0
 10
0.00852022441808
 20
7.67866021752
 30
0.0
  0
VERTEX
  8
0
 10
0.0482407653877
 20
7.70902920777
 30
0.0
  0
VERTEX
  8
0
 10
0.0878451170705
 20
7.73954956679
 30
0.0
  0
VERTEX
  8
0
 10
0.127333522342
 20
7.77021979467
 30
0.0
  0
VERTEX
  8
0
 10
0.166706217213
 20
7.80103842487
 30
0.0
  0
VERTEX
  8
0
 10
0.205963431135
 20
7.83200402293
 30
0.0
  0
VERTEX
  8
0
 10
0.245105387284
 20
7.86311518515
 30
0.0
  0
VERTEX
  8
0
 10
0.284132302833
 20
7.89437053743
 30
0.0
  0
VERTEX
  8
0
 10
0.323044389207
 20
7.92576873407
 30
0.0
  0
VERTEX
  8
0
 10
0.361841852327
 20
7.95730845678
 30
0.0
  0
VERTEX
  8
0
 10
0.400524892845
 20
7.98898841359
 30
0.0
  0
VERTEX
  8
0
 10
0.439093706357
 20
8.02080733789
 30
0.0
  0
VERTEX
  8
0
 10
0.477548483618
 20
8.05276398755
 30
0.0
  0
VERTEX
  8
0
 10
0.515889410735
 20
8.08485714399
 30
0.0
  0
VERTEX
  8
0
 10
0.554116669363
 20
8.11708561138
 30
0.0
  0
VERTEX
  8
0
 10
0.592230436879
 20
8.14944821584
 30
0.0
  0
VERTEX
  8
0
 10
0.630230886556
 20
8.18194380469
 30
0.0
  0
VERTEX
  8
0
 10
0.668118187728
 20
8.21457124572
 30
0.0
  0
VERTEX
  8
0
 10
0.705892505946
 20
8.24732942651
 30
0.0
  0
VERTEX
  8
0
 10
0.743554003126
 20
8.28021725377
 30
0.0
  0
VERTEX
  8
0
 10
0.781102837693
 20
8.31323365273
 30
0.0
  0
VERTEX
  8
0
 10
0.818539164718
 20
8.34637756652
 30
0.0
  0
VERTEX
  8
0
 10
0.855863136048
 20
8.37964795563
 30
0.0
  0
VERTEX
  8
0
 10
0.893074900432
 20
8.41304379733
 30
0.0
  0
VERTEX
  8
0
 10
0.930174603638
 20
8.44656408516
 30
0.0
  0
VERTEX
  8
0
 10
0.967162388572
 20
8.48020782846
 30
0.0
  0
VERTEX
  8
0
 10
1.00403839539
 20
8.51397405184
 30
0.0
  0
VERTEX
  8
0
 10
1.04080276158
 20
8.54786179475
 30
0.0
  0
VERTEX
  8
0
 10
1.07745562212
 20
8.58187011105
 30
0.0
  0
VERTEX
  8
0
 10
1.1139971095
 20
8.61599806856
 30
0.0
  0
VERTEX
  8
0
 10
1.15042735388
 20
8.65024474867
 30
0.0
  0
VERTEX
  8
0
 10
1.18674648315
 20
8.68460924596
 30
0.0
  0
VERTEX
  8
0
 10
1.222954623
 20
8.71909066781
 30
0.0
  0
VERTEX
  8
0
 10
1.25905189705
 20
8.75368813403
 30
0.0
  0
VERTEX
  8
0
 10
1.29503842689
 20
8.78840077657
 30
0.0
  0
VERTEX
  8
0
 10
1.33091433218
 20
8.82322773911
 30
0.0
  0
VERTEX
  8
0
 10
1.3666797307
 20
8.85816817682
 30
0.0
  0
VERTEX
  8
0
 10
1.40233473845
 20
8.89322125597
 30
0.0
  0
VERTEX
  8
0
 10
1.43787946969
 20
8.92838615373
 30
0.0
  0
VERTEX
  8
0
 10
1.47331403705
 20
8.96366205778
 30
0.0
  0
VERTEX
  8
0
 10
1.50863855153
 20
8.99904816612
 30
0.0
  0
VERTEX
  8
0
 10
1.54385312262
 20
9.03454368677
 30
0.0
  0
VERTEX
  8
0
 10
1.57895785834
 20
9.0701478375
 30
0.0
  0
VERTEX
  8
0
 10
1.61395286527
 20
9.10585984563
 30
0.0
  0
VERTEX
  8
0
 10
1.64883824866
 20
9.14167894775
 30
0.0
  0
VERTEX
  8
0
 10
1.68361411243
 20
9.17760438949
 30
0.0
  0
VERTEX
  8
0
 10
1.71828055926
 20
9.21363542535
 30
0.0
  0
VERTEX
  8
0
 10
1.75283769063
 20
9.2497713184
 30
0.0
  0
VERTEX
  8
0
 10
1.78728560684
 20
9.28601134018
 30
0.0
  0
VERTEX
  8
0
 10
1.81513724566
 20
9.3154721526
 30
0.0
  0
SEQEND
  8
0
  0
POLYLINE
  8
0
 62
0
 70
0
 66
1
 10
0.0
 20
0.0
 30
0.0
  0
VERTEX
  8
0
 10
1.18696986507
 20
11.3519407831
 30
0.0
  0
VERTEX
  8
0
 10
1.13811877403
 20
11.36259766
 30
0.0
  0
VERTEX
  8
0
 10
1.08923584018
 20
11.3731075071
 30
0.0
  0
VERTEX
  8
0
 10
1.04032138799
 20
11.3834696719
 30
0.0
  0
VERTEX
  8
0
 10
0.991375745661
 20
11.3936834946
 30
0.0
  0
VERTEX
  8
0
 10
0.942399245186
 20
11.4037483078
 30
0.0
  0
VERTEX
  8
0
 10
0.89339222244
 20
11.4136634361
 30
0.0
  0
VERTEX
  8
0
 10
0.844355017247
 20
11.4234281961
 30
0.0
  0
VERTEX
  8
0
 10
0.795287973473
 20
11.4330418963
 30
0.0
  0
VERTEX
  8
0
 10
0.746191439106
 20
11.4425038366
 30
0.0
  0
VERTEX
  8
0
 10
0.697065766342
 20
11.4518133081
 30
0.0
  0
VERTEX
  8
0
 10
0.647911311685
 20
11.460969593
 30
0.0
  0
VERTEX
  8
0
 10
0.598728436035
 20
11.4699719645
 30
0.0
  0
VERTEX
  8
0
 10
0.549517504787
 20
11.4788196862
 30
0.0
  0
VERTEX
  8
0
 10
0.50027888794
 20
11.4875120119
 30
0.0
  0
VERTEX
  8
0
 10
0.451012960195
 20
11.4960481855
 30
0.0
  0
VERTEX
  8
0
 10
0.401720101072
 20
11.5044274407
 30
0.0
  0
VERTEX
  8
0
 10
0.352400695022
 20
11.5126490006
 30
0.0
  0
VERTEX
  8
0
 10
0.303055131547
 20
11.5207120772
 30
0.0
  0
VERTEX
  8
0
 10
0.253683805324
 20
11.5286158717
 30
0.0
  0
VERTEX
  8
0
 10
0.204287116335
 20
11.5363595735
 30
0.0
  0
VERTEX
  8
0
 10
0.15486547
 20
11.5439423602
 30
0.0
  0
VERTEX
  8
0
 10
0.105419277321
 20
11.5513633971
 30
0.0
  0
VERTEX
  8
0
 10
0.0559489550208
 20
11.5586218369
 30
0.0
  0
VERTEX
  8
0
 10
0.00645492570329
 20
11.5657168195
 30
0.0
  0
VERTEX
  8
0
 10
-0.0430623819937
 20
11.5726474711
 30
0.0
  0
VERTEX
  8
0
 10
-0.0926025332307
 20
11.5794129042
 30
0.0
  0
VERTEX
  8
0
 10
-0.142165086794
 20
11.5860122172
 30
0.0
  0
VERTEX
  8
0
 10
-0.191749594917
 20
11.5924444933
 30
0.0
  0
VERTEX
  8
0
 10
-0.241355603089
 20
11.5987088011
 30
0.0
  0
VERTEX
  8
0
 10
-0.290982649861
 20
11.6048041929
 30
0.0
  0
VERTEX
  8
0
 10
-0.340630266639
 20
11.6107297051
 30
0.0
  0
VERTEX
  8
0
 10
-0.390297977468
 20
11.6164843572
 30
0.0
  0
VERTEX
  8
0
 10
-0.439985298807
 20
11.6220671514
 30
0.0
  0
VERTEX
  8
0
 10
-0.489691739294
 20
11.6274770719
 30
0.0
  0
VERTEX
  8
0
 10
-0.539416799497
 20
11.6327130841
 30
0.0
  0
VERTEX
  8
0
 10
-0.589159971655
 20
11.6377741345
 30
0.0
  0
VERTEX
  8
0
 10
-0.638920739405
 20
11.6426591493
 30
0.0
  0
VERTEX
  8
0
 10
-0.688698577498
 20
11.6473670342
 30
0.0
  0
VERTEX
  8
0
 10
-0.738492951498
 20
11.6518966734
 30
0.0
  0
VERTEX
  8
0
 10
-0.788303317463
 20
11.6562469289
 30
0.0
  0
VERTEX
  8
0
 10
-0.838129121619
 20
11.6604166396
 30
0.0
  0
VERTEX
  8
0
 10
-0.887969800003
 20
11.6644046203
 30
0.0
  0
VERTEX
  8
0
 10
-0.9378247781
 20
11.668209661
 30
0.0
  0
VERTEX
  8
0
 10
-0.987693470453
 20
11.6718305258
 30
0.0
  0
VERTEX
  8
0
 10
-1.03757528025
 20
11.6752659519
 30
0.0
  0
VERTEX
  8
0
 10
-1.0874695989
 20
11.6785146482
 30
0.0
  0
VERTEX
  8
0
 10
-1.13737580556
 20
11.6815752949
 30
0.0
  0
VERTEX
  8
0
 10
-1.18729326666
 20
11.6844465413
 30
0.0
  0
VERTEX
  8
0
 10
-1.23722133541
 20
11.6871270052
 30
0.0
  0
VERTEX
  8
0
 10
-1.28715935121
 20
11.6896152714
 30
0.0
  0
VERTEX
  8
0
 10
-1.33710663913
 20
11.69190989
 30
0.0
  0
VERTEX
  8
0
 10
-1.38706250924
 20
11.6940093753
 30
0.0
  0
VERTEX
  8
0
 10
-1.43702625601
 20
11.6959122035
 30
0.0
  0
VERTEX
  8
0
 10
-1.48699715761
 20
11.6976168116
 30
0.0
  0
VERTEX
  8
0
 10
-1.53697447515
 20
11.6991215953
 30
0.0
  0
VERTEX
  8
0
 10
-1.58695745191
 20
11.700424907
 30
0.0
  0
VERTEX
  8
0
 10
-1.6369453125
 20
11.7015250536
 30
0.0
  0
VERTEX
  8
0
 10
-1.68693726199
 20
11.7024202946
 30
0.0
  0
VERTEX
  8
0
 10
-1.7369324849
 20
11.7031088392
 30
0.0
  0
VERTEX
  8
0
 10
-1.78693014422
 20
11.7035888443
 30
0.0
  0
VERTEX
  8
0
 10
-1.83692938031
 20
11.703858411
 30
0.0
  0
VERTEX
  8
0
 10
-1.88692930968
 20
11.7039155825
 30
0.0
  0
VERTEX
  8
0
 10
-1.93692902374
 20
11.7037583403
 30
0.0
  0
VERTEX
  8
0
 10
-1.98692758746
 20
11.7033846008
 30
0.0
  0
VERTEX
  8
0
 10
-2.03692403785
 20
11.702792212
 30
0.0
  0
VERTEX
  8
0
 10
-2.08691738235
 20
11.701978949
 30
0.0
  0
VERTEX
  8
0
 10
-2.13690659717
 20
11.7009425101
 30
0.0
  0
VERTEX
  8
0
 10
-2.18689062534
 20
11.6996805118
 30
0.0
  0
VERTEX
  8
0
 10
-2.2368683747
 20
11.6981904839
 30
0.0
  0
VERTEX
  8
0
 10
-2.2868387157
 20
11.6964698636
 30
0.0
  0
VERTEX
  8
0
 10
-2.33680047892
 20
11.6945159902
 30
0.0
  0
VERTEX
  8
0
 10
-2.38675245248
 20
11.6923260974
 30
0.0
  0
VERTEX
  8
0
 10
-2.4366933791
 20
11.6898973071
 30
0.0
  0
VERTEX
  8
0
 10
-2.48662195289
 20
11.6872266207
 30
0.0
  0
VERTEX
  8
0
 10
-2.53653681589
 20
11.6843109106
 30
0.0
  0
VERTEX
  8
0
 10
-2.58643655413
 20
11.6811469105
 30
0.0
  0
VERTEX
  8
0
 10
-2.63631969332
 20
11.6777312049
 30
0.0
  0
VERTEX
  8
0
 10
-2.68618469412
 20
11.6740602164
 30
0.0
  0
VERTEX
  8
0
 10
-2.73602994674
 20
11.6701301935
 30
0.0
  0
VERTEX
  8
0
 10
-2.78585376502
 20
11.6659371947
 30
0.0
  0
VERTEX
  8
0
 10
-2.83565437969
 20
11.6614770728
 30
0.0
  0
VERTEX
  8
0
 10
-2.88542993083
 20
11.656745455
 30
0.0
  0
VERTEX
  8
0
 10
-2.93517845934
 20
11.6517377228
 30
0.0
  0
VERTEX
  8
0
 10
-2.98489789716
 20
11.6464489869
 30
0.0
  0
VERTEX
  8
0
 10
-3.03458605618
 20
11.6408740599
 30
0.0
  0
VERTEX
  8
0
 10
-3.08424061549
 20
11.6350074248
 30
0.0
  0
VERTEX
  8
0
 10
-3.13385910658
 20
11.628843198
 30
0.0
  0
VERTEX
  8
0
 10
-3.18343889623
 20
11.6223750868
 30
0.0
  0
VERTEX
  8
0
 10
-3.23297716639
 20
11.6155963399
 30
0.0
  0
VERTEX
  8
0
 10
-3.28247089056
 20
11.6084996882
 30
0.0
  0
VERTEX
  8
0
 10
-3.33191680561
 20
11.6010772755
 30
0.0
  0
VERTEX
  8
0
 10
-3.38131137806
 20
11.5933205744
 30
0.0
  0
VERTEX
  8
0
 10
-3.4306507632
 20
11.5852202855
 30
0.0
  0
VERTEX
  8
0
 10
-3.47993075502
 20
11.5767662132
 30
0.0
  0
VERTEX
  8
0
 10
-3.52914672413
 20
11.5679471121
 30
0.0
  0
VERTEX
  8
0
 10
-3.57829353969
 20
11.5587504938
 30
0.0
  0
VERTEX
  8
0
 10
-3.62736546954
 20
11.5491623801
 30
0.0
  0
VERTEX
  8
0
 10
-3.6763560503
 20
11.5391669819
 30
0.0
  0
VERTEX
  8
0
 10
-3.72525791444
 20
11.5287462723
 30
0.0
  0
VERTEX
  8
0
 10
-3.77406255428
 20
11.5178794048
 30
0.0
  0
VERTEX
  8
0
 10
-3.82275999014
 20
11.5065418947
 30
0.0
  0
VERTEX
  8
0
 10
-3.87133828582
 20
11.4947044272
 30
0.0
  0
VERTEX
  8
0
 10
-3.91978280832
 20
11.482331039
 30
0.0
  0
VERTEX
  8
0
 10
-3.96807502926
 20
11.4693761812
 30
0.0
  0
VERTEX
  8
0
 10
-4.01619043283
 20
11.4557796181
 30
0.0
  0
VERTEX
  8
0
 10
-4.0640944982
 20
11.4414567251
 30
0.0
  0
VERTEX
  8
0
 10
-4.10274645794
 20
11.4292237167
 30
0.0
  0
SEQEND
  8
0
  0
POLYLINE
  8
0
 62
0
 70
0
 66
1
 10
0.0
 20
0.0
 30
0.0
  0
VERTEX
  8
0
 10
-5.67061999476
 20
14.684946663
 30
0.0
  0
VERTEX
  8
0
 10
-5.62915259745
 20
14.7128819484
 30
0.0
  0
VERTEX
  8
0
 10
-5.5881735959
 20
14.741529277
 30
0.0
  0
VERTEX
  8
0
 10
-5.5476208945
 20
14.7707771639
 30
0.0
  0
VERTEX
  8
0
 10
-5.50745285709
 20
14.8005512622
 30
0.0
  0
VERTEX
  8
0
 10
-5.46763943098
 20
14.8307979884
 30
0.0
  0
VERTEX
  8
0
 10
-5.42815767527
 20
14.8614764505
 30
0.0
  0
VERTEX
  8
0
 10
-5.38898935711
 20
14.892554139
 30
0.0
  0
VERTEX
  8
0
 10
-5.35011954409
 20
14.9240044123
 30
0.0
  0
VERTEX
  8
0
 10
-5.31153572103
 20
14.9558049218
 30
0.0
  0
VERTEX
  8
0
 10
-5.27322720493
 20
14.9879365703
 30
0.0
  0
VERTEX
  8
0
 10
-5.23518474043
 20
15.0203827924
 30
0.0
  0
VERTEX
  8
0
 10
-5.1974002099
 20
15.0531290395
 30
0.0
  0
VERTEX
  8
0
 10
-5.15986641976
 20
15.0861624001
 30
0.0
  0
VERTEX
  8
0
 10
-5.12257693892
 20
15.1194713131
 30
0.0
  0
VERTEX
  8
0
 10
-5.08552597419
 20
15.1530453467
 30
0.0
  0
VERTEX
  8
0
 10
-5.04870827234
 20
15.1868750251
 30
0.0
  0
VERTEX
  8
0
 10
-5.01211904203
 20
15.2209516893
 30
0.0
  0
VERTEX
  8
0
 10
-4.97575389063
 20
15.255267386
 30
0.0
  0
VERTEX
  8
0
 10
-4.93960877245
 20
15.2898147756
 30
0.0
  0
VERTEX
  8
0
 10
-4.90367994595
 20
15.3245870562
 30
0.0
  0
VERTEX
  8
0
 10
-4.86796393795
 20
15.3595779005
 30
0.0
  0
VERTEX
  8
0
 10
-4.83245751344
 20
15.3947814024
 30
0.0
  0
VERTEX
  8
0
 10
-4.79715764998
 20
15.4301920315
 30
0.0
  0
VERTEX
  8
0
 10
-4.7620615157
 20
15.4658045943
 30
0.0
  0
VERTEX
  8
0
 10
-4.72716645039
 20
15.501614201
 30
0.0
  0
VERTEX
  8
0
 10
-4.69246994914
 20
15.5376162362
 30
0.0
  0
VERTEX
  8
0
 10
-4.657969648
 20
15.5738063339
 30
0.0
  0
VERTEX
  8
0
 10
-4.62366331148
 20
15.610180355
 30
0.0
  0
VERTEX
  8
0
 10
-4.58954882148
 20
15.6467343684
 30
0.0
  0
VERTEX
  8
0
 10
-4.55562416758
 20
15.6834646332
 30
0.0
  0
VERTEX
  8
0
 10
-4.52188743831
 20
15.7203675836
 30
0.0
  0
VERTEX
  8
0
 10
-4.48833681348
 20
15.7574398154
 30
0.0
  0
VERTEX
  8
0
 10
-4.45497055721
 20
15.7946780737
 30
0.0
  0
VERTEX
  8
0
 10
-4.42178701176
 20
15.8320792419
 30
0.0
  0
VERTEX
  8
0
 10
-4.3887845919
 20
15.8696403319
 30
0.0
  0
VERTEX
  8
0
 10
-4.35596177989
 20
15.9073584751
 30
0.0
  0
VERTEX
  8
0
 10
-4.32331712084
 20
15.9452309145
 30
0.0
  0
VERTEX
  8
0
 10
-4.29084921861
 20
15.9832549971
 30
0.0
  0
VERTEX
  8
0
 10
-4.25855673196
 20
16.0214281675
 30
0.0
  0
VERTEX
  8
0
 10
-4.22643837113
 20
16.0597479617
 30
0.0
  0
VERTEX
  8
0
 10
-4.19449289465
 20
16.0982120014
 30
0.0
  0
VERTEX
  8
0
 10
-4.16271910641
 20
16.1368179891
 30
0.0
  0
VERTEX
  8
0
 10
-4.13111585304
 20
16.1755637033
 30
0.0
  0
VERTEX
  8
0
 10
-4.09968202139
 20
16.2144469941
 30
0.0
  0
VERTEX
  8
0
 10
-4.0684165363
 20
16.2534657791
 30
0.0
  0
VERTEX
  8
0
 10
-4.03731835846
 20
16.2926180403
 30
0.0
  0
VERTEX
  8
0
 10
-4.0063864825
 20
16.3319018199
 30
0.0
  0
VERTEX
  8
0
 10
-3.97561993519
 20
16.3713152176
 30
0.0
  0
VERTEX
  8
0
 10
-3.9450177737
 20
16.4108563877
 30
0.0
  0
VERTEX
  8
0
 10
-3.91457908414
 20
16.4505235361
 30
0.0
  0
VERTEX
  8
0
 10
-3.88430298002
 20
16.4903149178
 30
0.0
  0
VERTEX
  8
0
 10
-3.85418860092
 20
16.5302288348
 30
0.0
  0
VERTEX
  8
0
 10
-3.82423511125
 20
16.5702636335
 30
0.0
  0
VERTEX
  8
0
 10
-3.79444169903
 20
16.6104177029
 30
0.0
  0
VERTEX
  8
0
 10
-3.76480757481
 20
16.6506894727
 30
0.0
  0
VERTEX
  8
0
 10
-3.73533197059
 20
16.691077411
 30
0.0
  0
VERTEX
  8
0
 10
-3.70601413888
 20
16.7315800232
 30
0.0
  0
VERTEX
  8
0
 10
-3.67685335175
 20
16.7721958501
 30
0.0
  0
VERTEX
  8
0
 10
-3.64784889998
 20
16.8129234663
 30
0.0
  0
VERTEX
  8
0
 10
-3.61900009227
 20
16.853761479
 30
0.0
  0
VERTEX
  8
0
 10
-3.59030625442
 20
16.8947085265
 30
0.0
  0
VERTEX
  8
0
 10
-3.56176672863
 20
16.935763277
 30
0.0
  0
VERTEX
  8
0
 10
-3.53338087283
 20
16.9769244273
 30
0.0
  0
VERTEX
  8
0
 10
-3.50514806002
 20
17.018190702
 30
0.0
  0
VERTEX
  8
0
 10
-3.47706767763
 20
17.059560852
 30
0.0
  0
VERTEX
  8
0
 10
-3.44913912701
 20
17.1010336537
 30
0.0
  0
VERTEX
  8
0
 10
-3.42136182278
 20
17.142607908
 30
0.0
  0
VERTEX
  8
0
 10
-3.39373519241
 20
17.1842824396
 30
0.0
  0
VERTEX
  8
0
 10
-3.36625867565
 20
17.2260560957
 30
0.0
  0
VERTEX
  8
0
 10
-3.33893172409
 20
17.2679277456
 30
0.0
  0
VERTEX
  8
0
 10
-3.31175380072
 20
17.3098962798
 30
0.0
  0
VERTEX
  8
0
 10
-3.28472437946
 20
17.3519606091
 30
0.0
  0
VERTEX
  8
0
 10
-3.25784294482
 20
17.3941196641
 30
0.0
  0
VERTEX
  8
0
 10
-3.23110899146
 20
17.4363723943
 30
0.0
  0
VERTEX
  8
0
 10
-3.20452202384
 20
17.4787177677
 30
0.0
  0
VERTEX
  8
0
 10
-3.17808155589
 20
17.5211547702
 30
0.0
  0
VERTEX
  8
0
 10
-3.15178711062
 20
17.5636824047
 30
0.0
  0
VERTEX
  8
0
 10
-3.12563821985
 20
17.606299691
 30
0.0
  0
VERTEX
  8
0
 10
-3.09963442389
 20
17.6490056648
 30
0.0
  0
VERTEX
  8
0
 10
-3.07377527122
 20
17.6917993775
 30
0.0
  0
VERTEX
  8
0
 10
-3.04806031827
 20
17.7346798958
 30
0.0
  0
VERTEX
  8
0
 10
-3.02248912907
 20
17.7776463008
 30
0.0
  0
VERTEX
  8
0
 10
-2.99706127506
 20
17.820697688
 30
0.0
  0
VERTEX
  8
0
 10
-2.97177633483
 20
17.8638331666
 30
0.0
  0
VERTEX
  8
0
 10
-2.94663389384
 20
17.9070518594
 30
0.0
  0
VERTEX
  8
0
 10
-2.92163354426
 20
17.9503529019
 30
0.0
  0
VERTEX
  8
0
 10
-2.8967748847
 20
17.9937354425
 30
0.0
  0
VERTEX
  8
0
 10
-2.87205752003
 20
18.0371986417
 30
0.0
  0
VERTEX
  8
0
 10
-2.84748106117
 20
18.0807416721
 30
0.0
  0
VERTEX
  8
0
 10
-2.82304512489
 20
18.1243637177
 30
0.0
  0
VERTEX
  8
0
 10
-2.79874933364
 20
18.1680639739
 30
0.0
  0
VERTEX
  8
0
 10
-2.77459331535
 20
18.211841647
 30
0.0
  0
VERTEX
  8
0
 10
-2.75057670329
 20
18.255695954
 30
0.0
  0
VERTEX
  8
0
 10
-2.72669913589
 20
18.2996261224
 30
0.0
  0
VERTEX
  8
0
 10
-2.70296025656
 20
18.3436313896
 30
0.0
  0
VERTEX
  8
0
 10
-2.67935971356
 20
18.3877110031
 30
0.0
  0
VERTEX
  8
0
 10
-2.65589715986
 20
18.4318642198
 30
0.0
  0
VERTEX
  8
0
 10
-2.63257225298
 20
18.476090306
 30
0.0
  0
VERTEX
  8
0
 10
-2.60938465485
 20
18.5203885373
 30
0.0
  0
VERTEX
  8
0
 10
-2.58633403171
 20
18.564758198
 30
0.0
  0
VERTEX
  8
0
 10
-2.56342005393
 20
18.6091985812
 30
0.0
  0
VERTEX
  8
0
 10
-2.54064239594
 20
18.6537089884
 30
0.0
  0
VERTEX
  8
0
 10
-2.51800073607
 20
18.6982887294
 30
0.0
  0
VERTEX
  8
0
 10
-2.49549475646
 20
18.742937122
 30
0.0
  0
VERTEX
  8
0
 10
-2.47312414294
 20
18.787653492
 30
0.0
  0
VERTEX
  8
0
 10
-2.45088858493
 20
18.8324371728
 30
0.0
  0
VERTEX
  8
0
 10
-2.43295804318
 20
18.8687985387
 30
0.0
  0
SEQEND
  8
0
  0
POLYLINE
  8
0
 62
0
 70
0
 66
1
 10
0.0
 20
0.0
 30
0.0
  0
VERTEX
  8
0
 10
-3.63347737592
 20
20.629636996
 30
0.0
  0
VERTEX
  8
0
 10
-3.68329931966
 20
20.6254213059
 30
0.0
  0
VERTEX
  8
0
 10
-3.73310835372
 20
20.6210557322
 30
0.0
  0
VERTEX
  8
0
 10
-3.78290397573
 20
20.6165397472
 30
0.0
  0
VERTEX
  8
0
 10
-3.83268567761
 20
20.6118728171
 30
0.0
  0
VERTEX
  8
0
 10
-3.88245294534
 20
20.607054402
 30
0.0
  0
VERTEX
  8
0
 10
-3.93220525894
 20
20.6020839554
 30
0.0
  0
VERTEX
  8
0
 10
-3.98194209225
 20
20.5969609246
 30
0.0
  0
VERTEX
  8
0
 10
-4.03166291282
 20
20.59168475
 30
0.0
  0
VERTEX
  8
0
 10
-4.08136718177
 20
20.5862548653
 30
0.0
  0
VERTEX
  8
0
 10
-4.13105435362
 20
20.5806706968
 30
0.0
  0
VERTEX
  8
0
 10
-4.18072387615
 20
20.5749316639
 30
0.0
  0
VERTEX
  8
0
 10
-4.23037519021
 20
20.5690371782
 30
0.0
  0
VERTEX
  8
0
 10
-4.2800077296
 20
20.5629866437
 30
0.0
  0
VERTEX
  8
0
 10
-4.32962092082
 20
20.5567794567
 30
0.0
  0
VERTEX
  8
0
 10
-4.37921418298
 20
20.550415005
 30
0.0
  0
VERTEX
  8
0
 10
-4.4287869275
 20
20.5438926681
 30
0.0
  0
VERTEX
  8
0
 10
-4.47833855803
 20
20.537211817
 30
0.0
  0
VERTEX
  8
0
 10
-4.52786847015
 20
20.5303718136
 30
0.0
  0
VERTEX
  8
0
 10
-4.5773760512
 20
20.5233720108
 30
0.0
  0
VERTEX
  8
0
 10
-4.62686068006
 20
20.516211752
 30
0.0
  0
VERTEX
  8
0
 10
-4.67632172692
 20
20.5088903707
 30
0.0
  0
VERTEX
  8
0
 10
-4.72575855302
 20
20.5014071906
 30
0.0
  0
VERTEX
  8
0
 10
-4.77517051041
 20
20.4937615249
 30
0.0
  0
VERTEX
  8
0
 10
-4.8245569417
 20
20.485952676
 30
0.0
  0
VERTEX
  8
0
 10
-4.87391717977
 20
20.4779799356
 30
0.0
  0
VERTEX
  8
0
 10
-4.92325054751
 20
20.4698425836
 30
0.0
  0
VERTEX
  8
0
 10
-4.97255635751
 20
20.4615398884
 30
0.0
  0
VERTEX
  8
0
 10
-5.02183391175
 20
20.4530711063
 30
0.0
  0
VERTEX
  8
0
 10
-5.07108250128
 20
20.4444354808
 30
0.0
  0
VERTEX
  8
0
 10
-5.12030140588
 20
20.4356322426
 30
0.0
  0
VERTEX
  8
0
 10
-5.16948989374
 20
20.426660609
 30
0.0
  0
VERTEX
  8
0
 10
-5.21864722103
 20
20.4175197833
 30
0.0
  0
VERTEX
  8
0
 10
-5.26777263157
 20
20.4082089546
 30
0.0
  0
VERTEX
  8
0
 10
-5.31686535641
 20
20.3987272969
 30
0.0
  0
VERTEX
  8
0
 10
-5.36592461341
 20
20.389073969
 30
0.0
  0
VERTEX
  8
0
 10
-5.41494960678
 20
20.3792481137
 30
0.0
  0
VERTEX
  8
0
 10
-5.46393952662
 20
20.3692488572
 30
0.0
  0
VERTEX
  8
0
 10
-5.51289354847
 20
20.3590753087
 30
0.0
  0
VERTEX
  8
0
 10
-5.56181083274
 20
20.3487265594
 30
0.0
  0
VERTEX
  8
0
 10
-5.61069052423
 20
20.3382016821
 30
0.0
  0
VERTEX
  8
0
 10
-5.6595317515
 20
20.3274997306
 30
0.0
  0
VERTEX
  8
0
 10
-5.70833362633
 20
20.3166197387
 30
0.0
  0
VERTEX
  8
0
 10
-5.75709524308
 20
20.3055607194
 30
0.0
  0
VERTEX
  8
0
 10
-5.80581567799
 20
20.2943216642
 30
0.0
  0
VERTEX
  8
0
 10
-5.85449398854
 20
20.2829015424
 30
0.0
  0
VERTEX
  8
0
 10
-5.90312921267
 20
20.2712992997
 30
0.0
  0
VERTEX
  8
0
 10
-5.95172036803
 20
20.2595138577
 30
0.0
  0
VERTEX
  8
0
 10
-6.00026645112
 20
20.2475441127
 30
0.0
  0
VERTEX
  8
0
 10
-6.04876643648
 20
20.2353889346
 30
0.0
  0
VERTEX
  8
0
 10
-6.09721927569
 20
20.2230471655
 30
0.0
  0
VERTEX
  8
0
 10
-6.14562389646
 20
20.2105176192
 30
0.0
  0
VERTEX
  8
0
 10
-6.19397920156
 20
20.1977990789
 30
0.0
  0
VERTEX
  8
0
 10
-6.24228406771
 20
20.1848902969
 30
0.0
  0
VERTEX
  8
0
 10
-6.29053734443
 20
20.1717899923
 30
0.0
  0
VERTEX
  8
0
 10
-6.33873785276
 20
20.1584968497
 30
0.0
  0
VERTEX
  8
0
 10
-6.38688438396
 20
20.1450095179
 30
0.0
  0
VERTEX
  8
0
 10
-6.43497569808
 20
20.1313266075
 30
0.0
  0
VERTEX
  8
0
 10
-6.48301052242
 20
20.1174466897
 30
0.0
  0
VERTEX
  8
0
 10
-6.53098754995
 20
20.1033682935
 30
0.0
  0
VERTEX
  8
0
 10
-6.57890543752
 20
20.0890899045
 30
0.0
  0
VERTEX
  8
0
 10
-6.62676280404
 20
20.0746099616
 30
0.0
  0
VERTEX
  8
0
 10
-6.67455822843
 20
20.0599268553
 30
0.0
  0
VERTEX
  8
0
 10
-6.72229024753
 20
20.0450389244
 30
0.0
  0
VERTEX
  8
0
 10
-6.7699573537
 20
20.0299444538
 30
0.0
  0
VERTEX
  8
0
 10
-6.8175579924
 20
20.0146416707
 30
0.0
  0
VERTEX
  8
0
 10
-6.86509055941
 20
19.9991287417
 30
0.0
  0
VERTEX
  8
0
 10
-6.91255339795
 20
19.9834037691
 30
0.0
  0
VERTEX
  8
0
 10
-6.95994479546
 20
19.9674647869
 30
0.0
  0
VERTEX
  8
0
 10
-7.00726298019
 20
19.9513097565
 30
0.0
  0
VERTEX
  8
0
 10
-7.05450611743
 20
19.9349365621
 30
0.0
  0
VERTEX
  8
0
 10
-7.10167230538
 20
19.9183430055
 30
0.0
  0
VERTEX
  8
0
 10
-7.14875957069
 20
19.9015268008
 30
0.0
  0
VERTEX
  8
0
 10
-7.19576586354
 20
19.8844855683
 30
0.0
  0
VERTEX
  8
0
 10
-7.24268905225
 20
19.8672168275
 30
0.0
  0
VERTEX
  8
0
 10
-7.2895269173
 20
19.8497179901
 30
0.0
  0
VERTEX
  8
0
 10
-7.3362771448
 20
19.8319863516
 30
0.0
  0
VERTEX
  8
0
 10
-7.38293731915
 20
19.8140190828
 30
0.0
  0
VERTEX
  8
0
 10
-7.42950491504
 20
19.795813219
 30
0.0
  0
VERTEX
  8
0
 10
-7.47597728834
 20
19.7773656499
 30
0.0
  0
VERTEX
  8
0
 10
-7.5223516661
 20
19.7586731061
 30
0.0
  0
VERTEX
  8
0
 10
-7.56862513515
 20
19.7397321459
 30
0.0
  0
VERTEX
  8
0
 10
-7.61479462942
 20
19.7205391394
 30
0.0
  0
VERTEX
  8
0
 10
-7.6608569154
 20
19.7010902505
 30
0.0
  0
VERTEX
  8
0
 10
-7.70680857581
 20
19.6813814167
 30
0.0
  0
VERTEX
  8
0
 10
-7.75264599077
 20
19.6614083261
 30
0.0
  0
VERTEX
  8
0
 10
-7.79836531627
 20
19.6411663909
 30
0.0
  0
VERTEX
  8
0
 10
-7.84396245927
 20
19.6206507163
 30
0.0
  0
VERTEX
  8
0
 10
-7.88943304874
 20
19.5998560657
 30
0.0
  0
VERTEX
  8
0
 10
-7.93477240183
 20
19.578776818
 30
0.0
  0
VERTEX
  8
0
 10
-7.9799754839
 20
19.5574069193
 30
0.0
  0
VERTEX
  8
0
 10
-8.02503686111
 20
19.5357398242
 30
0.0
  0
VERTEX
  8
0
 10
-8.06995064351
 20
19.5137684258
 30
0.0
  0
VERTEX
  8
0
 10
-8.11471041614
 20
19.491484971
 30
0.0
  0
VERTEX
  8
0
 10
-8.15930915465
 20
19.4688809568
 30
0.0
  0
VERTEX
  8
0
 10
-8.20373912067
 20
19.4459470021
 30
0.0
  0
VERTEX
  8
0
 10
-8.24799173027
 20
19.4226726855
 30
0.0
  0
VERTEX
  8
0
 10
-8.29205738583
 20
19.3990463395
 30
0.0
  0
VERTEX
  8
0
 10
-8.3359252572
 20
19.3750547816
 30
0.0
  0
VERTEX
  8
0
 10
-8.37958299066
 20
19.3506829575
 30
0.0
  0
VERTEX
  8
0
 10
-8.42301631185
 20
19.3259134543
 30
0.0
  0
VERTEX
  8
0
 10
-8.4662084675
 20
19.3007258167
 30
0.0
  0
VERTEX
  8
0
 10
-8.50913941102
 20
19.2750955507
 30
0.0
  0
VERTEX
  8
0
 10
-8.55178455911
 20
19.2489926037
 30
0.0
  0
VERTEX
  8
0
 10
-8.59411278079
 20
19.2223789119
 30
0.0
  0
VERTEX
  8
0
 10
-8.63608289465
 20
19.1952041417
 30
0.0
  0
VERTEX
  8
0
 10
-8.67763696999
 20
19.1673976036
 30
0.0
  0
VERTEX
  8
0
 10
-8.71096598908
 20
19.1443152083
 30
0.0
  0
SEQEND
  8
0
  0
POLYLINE
  8
0
 62
0
 70
0
 66
1
 10
0.0
 20
0.0
 30
0.0
  0
VERTEX
  8
0
 10
-11.1688244887
 20
21.7932566812
 30
0.0
  0
VERTEX
  8
0
 10
-11.1374334414
 20
21.8321736102
 30
0.0
  0
VERTEX
  8
0
 10
-11.1067189702
 20
21.8716269911
 30
0.0
  0
VERTEX
  8
0
 10
-11.0765888776
 20
21.911528595
 30
0.0
  0
VERTEX
  8
0
 10
-11.0469814629
 20
21.9518196505
 30
0.0
  0
VERTEX
  8
0
 10
-11.0178522147
 20
21.9924578129
 30
0.0
  0
VERTEX
  8
0
 10
-10.989167158
 20
22.0334107687
 30
0.0
  0
VERTEX
  8
0
 10
-10.9608992878
 20
22.0746528272
 30
0.0
  0
VERTEX
  8
0
 10
-10.9330264823
 20
22.1161629316
 30
0.0
  0
VERTEX
  8
0
 10
-10.905530195
 20
22.1579234152
 30
0.0
  0
VERTEX
  8
0
 10
-10.8783945884
 20
22.1999191781
 30
0.0
  0
VERTEX
  8
0
 10
-10.8516059358
 20
22.2421371188
 30
0.0
  0
VERTEX
  8
0
 10
-10.8251521917
 20
22.2845657279
 30
0.0
  0
VERTEX
  8
0
 10
-10.7990226765
 20
22.3271947879
 30
0.0
  0
VERTEX
  8
0
 10
-10.7732078371
 20
22.3700151467
 30
0.0
  0
VERTEX
  8
0
 10
-10.7476990629
 20
22.4130185439
 30
0.0
  0
VERTEX
  8
0
 10
-10.722488541
 20
22.4561974726
 30
0.0
  0
VERTEX
  8
0
 10
-10.6975691406
 20
22.4995450712
 30
0.0
  0
VERTEX
  8
0
 10
-10.6729343201
 20
22.5430550344
 30
0.0
  0
VERTEX
  8
0
 10
-10.6485780499
 20
22.586721541
 30
0.0
  0
VERTEX
  8
0
 10
-10.62449475
 20
22.6305391943
 30
0.0
  0
VERTEX
  8
0
 10
-10.6006792364
 20
22.6745029717
 30
0.0
  0
VERTEX
  8
0
 10
-10.5771266771
 20
22.7186081831
 30
0.0
  0
VERTEX
  8
0
 10
-10.5538325537
 20
22.7628504347
 30
0.0
  0
VERTEX
  8
0
 10
-10.5307926293
 20
22.8072255984
 30
0.0
  0
VERTEX
  8
0
 10
-10.5080029207
 20
22.8517297858
 30
0.0
  0
VERTEX
  8
0
 10
-10.4854596738
 20
22.8963593249
 30
0.0
  0
VERTEX
  8
0
 10
-10.4631593428
 20
22.9411107404
 30
0.0
  0
VERTEX
  8
0
 10
-10.4410985715
 20
22.9859807361
 30
0.0
  0
VERTEX
  8
0
 10
-10.4192741772
 20
23.0309661796
 30
0.0
  0
VERTEX
  8
0
 10
-10.3976831361
 20
23.0760640891
 30
0.0
  0
VERTEX
  8
0
 10
-10.3763225706
 20
23.1212716205
 30
0.0
  0
VERTEX
  8
0
 10
-10.3551897381
 20
23.1665860573
 30
0.0
  0
VERTEX
  8
0
 10
-10.3342820203
 20
23.212004801
 30
0.0
  0
VERTEX
  8
0
 10
-10.3135969145
 20
23.2575253619
 30
0.0
  0
VERTEX
  8
0
 10
-10.2931320252
 20
23.3031453521
 30
0.0
  0
VERTEX
  8
0
 10
-10.2728850565
 20
23.3488624777
 30
0.0
  0
VERTEX
  8
0
 10
-10.2528538055
 20
23.394674533
 30
0.0
  0
VERTEX
  8
0
 10
-10.2330361562
 20
23.4405793945
 30
0.0
  0
VERTEX
  8
0
 10
-10.2134300736
 20
23.4865750156
 30
0.0
  0
VERTEX
  8
0
 10
-10.1940335991
 20
23.5326594219
 30
0.0
  0
VERTEX
  8
0
 10
-10.1748448452
 20
23.5788307068
 30
0.0
  0
VERTEX
  8
0
 10
-10.1558619919
 20
23.6250870273
 30
0.0
  0
VERTEX
  8
0
 10
-10.1370832821
 20
23.6714266005
 30
0.0
  0
VERTEX
  8
0
 10
-10.1185070186
 20
23.7178477003
 30
0.0
  0
VERTEX
  8
0
 10
-10.10013156
 20
23.7643486537
 30
0.0
  0
VERTEX
  8
0
 10
-10.0819553186
 20
23.8109278386
 30
0.0
  0
VERTEX
  8
0
 10
-10.0639767564
 20
23.8575836806
 30
0.0
  0
VERTEX
  8
0
 10
-10.0461943833
 20
23.9043146507
 30
0.0
  0
VERTEX
  8
0
 10
-10.0286067545
 20
23.9511192629
 30
0.0
  0
VERTEX
  8
0
 10
-10.0112124678
 20
23.9979960725
 30
0.0
  0
VERTEX
  8
0
 10
-9.99401016166
 20
24.0449436731
 30
0.0
  0
VERTEX
  8
0
 10
-9.97699851349
 20
24.0919606958
 30
0.0
  0
VERTEX
  8
0
 10
-9.96017623741
 20
24.1390458068
 30
0.0
  0
VERTEX
  8
0
 10
-9.94354208265
 20
24.186197706
 30
0.0
  0
VERTEX
  8
0
 10
-9.92709483194
 20
24.2334151255
 30
0.0
  0
VERTEX
  8
0
 10
-9.91083329991
 20
24.2806968279
 30
0.0
  0
VERTEX
  8
0
 10
-9.89475633173
 20
24.3280416053
 30
0.0
  0
VERTEX
  8
0
 10
-9.87886280169
 20
24.3754482779
 30
0.0
  0
VERTEX
  8
0
 10
-9.86315161196
 20
24.4229156926
 30
0.0
  0
VERTEX
  8
0
 10
-9.84762169138
 20
24.4704427223
 30
0.0
  0
VERTEX
  8
0
 10
-9.83227199436
 20
24.5180282645
 30
0.0
  0
VERTEX
  8
0
 10
-9.81710149976
 20
24.5656712406
 30
0.0
  0
VERTEX
  8
0
 10
-9.80210920995
 20
24.6133705944
 30
0.0
  0
VERTEX
  8
0
 10
-9.78729414978
 20
24.6611252919
 30
0.0
  0
VERTEX
  8
0
 10
-9.77265536577
 20
24.7089343202
 30
0.0
  0
VERTEX
  8
0
 10
-9.75819192518
 20
24.7567966865
 30
0.0
  0
VERTEX
  8
0
 10
-9.74390291523
 20
24.8047114175
 30
0.0
  0
VERTEX
  8
0
 10
-9.72978744235
 20
24.8526775588
 30
0.0
  0
VERTEX
  8
0
 10
-9.71584463144
 20
24.9006941741
 30
0.0
  0
VERTEX
  8
0
 10
-9.70207362515
 20
24.9487603445
 30
0.0
  0
VERTEX
  8
0
 10
-9.68847358327
 20
24.996875168
 30
0.0
  0
VERTEX
  8
0
 10
-9.67504368207
 20
25.045037759
 30
0.0
  0
VERTEX
  8
0
 10
-9.66178311374
 20
25.0932472473
 30
0.0
  0
VERTEX
  8
0
 10
-9.64869108578
 20
25.1415027784
 30
0.0
  0
VERTEX
  8
0
 10
-9.63576682047
 20
25.1898035119
 30
0.0
  0
VERTEX
  8
0
 10
-9.62300955439
 20
25.2381486222
 30
0.0
  0
VERTEX
  8
0
 10
-9.61041853788
 20
25.2865372971
 30
0.0
  0
VERTEX
  8
0
 10
-9.59799303461
 20
25.3349687378
 30
0.0
  0
VERTEX
  8
0
 10
-9.5857323211
 20
25.3834421584
 30
0.0
  0
VERTEX
  8
0
 10
-9.57363568629
 20
25.4319567856
 30
0.0
  0
VERTEX
  8
0
 10
-9.56170243118
 20
25.4805118582
 30
0.0
  0
VERTEX
  8
0
 10
-9.54993186837
 20
25.5291066267
 30
0.0
  0
VERTEX
  8
0
 10
-9.53832332171
 20
25.5777403531
 30
0.0
  0
VERTEX
  8
0
 10
-9.52687612595
 20
25.6264123104
 30
0.0
  0
VERTEX
  8
0
 10
-9.51558962639
 20
25.6751217824
 30
0.0
  0
VERTEX
  8
0
 10
-9.50446317854
 20
25.7238680635
 30
0.0
  0
VERTEX
  8
0
 10
-9.4934961478
 20
25.7726504581
 30
0.0
  0
VERTEX
  8
0
 10
-9.48268790917
 20
25.8214682805
 30
0.0
  0
VERTEX
  8
0
 10
-9.47203784693
 20
25.8703208546
 30
0.0
  0
VERTEX
  8
0
 10
-9.46154535439
 20
25.9192075138
 30
0.0
  0
VERTEX
  8
0
 10
-9.4512098336
 20
25.9681276004
 30
0.0
  0
VERTEX
  8
0
 10
-9.4410306951
 20
26.0170804657
 30
0.0
  0
VERTEX
  8
0
 10
-9.43100735766
 20
26.0660654696
 30
0.0
  0
VERTEX
  8
0
 10
-9.42113924802
 20
26.1150819804
 30
0.0
  0
VERTEX
  8
0
 10
-9.4114258007
 20
26.1641293746
 30
0.0
  0
VERTEX
  8
0
 10
-9.40186645777
 20
26.2132070367
 30
0.0
  0
VERTEX
  8
0
 10
-9.39246066859
 20
26.2623143589
 30
0.0
  0
VERTEX
  8
0
 10
-9.38320788964
 20
26.3114507413
 30
0.0
  0
VERTEX
  8
0
 10
-9.37410758434
 20
26.360615591
 30
0.0
  0
VERTEX
  8
0
 10
-9.36515922279
 20
26.4098083226
 30
0.0
  0
VERTEX
  8
0
 10
-9.35636228165
 20
26.4590283578
 30
0.0
  0
VERTEX
  8
0
 10
-9.34771624392
 20
26.508275125
 30
0.0
  0
VERTEX
  8
0
 10
-9.33922059879
 20
26.5575480595
 30
0.0
  0
VERTEX
  8
0
 10
-9.33087484145
 20
26.6068466033
 30
0.0
  0
VERTEX
  8
0
 10
-9.32267847297
 20
26.6561702045
 30
0.0
  0
VERTEX
  8
0
 10
-9.31463100007
 20
26.7055183179
 30
0.0
  0
VERTEX
  8
0
 10
-9.30821476272
 20
26.7455493702
 30
0.0
  0
SEQEND
  8
0
  0
POLYLINE
  8
0
 62
0
 70
0
 66
1
 10
0.0
 20
0.0
 30
0.0
  0
VERTEX
  8
0
 10
-10.9744146365
 20
28.0742994301
 30
0.0
  0
VERTEX
  8
0
 10
-11.0207805346
 20
28.0555857556
 30
0.0
  0
VERTEX
  8
0
 10
-11.0670899176
 20
28.0367326616
 30
0.0
  0
VERTEX
  8
0
 10
-11.1133421499
 20
28.0177397919
 30
0.0
  0
VERTEX
  8
0
 10
-11.1595365886
 20
27.9986067862
 30
0.0
  0
VERTEX
  8
0
 10
-11.2056725835
 20
27.97933328
 30
0.0
  0
VERTEX
  8
0
 10
-11.2517494766
 20
27.9599189045
 30
0.0
  0
VERTEX
  8
0
 10
-11.2977666021
 20
27.9403632866
 30
0.0
  0
VERTEX
  8
0
 10
-11.3437232863
 20
27.9206660485
 30
0.0
  0
VERTEX
  8
0
 10
-11.3896188474
 20
27.9008268079
 30
0.0
  0
VERTEX
  8
0
 10
-11.4354525951
 20
27.8808451773
 30
0.0
  0
VERTEX
  8
0
 10
-11.4812238305
 20
27.8607207648
 30
0.0
  0
VERTEX
  8
0
 10
-11.5269318458
 20
27.8404531728
 30
0.0
  0
VERTEX
  8
0
 10
-11.5725759244
 20
27.8200419988
 30
0.0
  0
VERTEX
  8
0
 10
-11.6181553402
 20
27.7994868349
 30
0.0
  0
VERTEX
  8
0
 10
-11.6636693578
 20
27.7787872672
 30
0.0
  0
VERTEX
  8
0
 10
-11.7091172318
 20
27.7579428765
 30
0.0
  0
VERTEX
  8
0
 10
-11.754498207
 20
27.7369532374
 30
0.0
  0
VERTEX
  8
0
 10
-11.7998115177
 20
27.7158179183
 30
0.0
  0
VERTEX
  8
0
 10
-11.8450563878
 20
27.6945364814
 30
0.0
  0
VERTEX
  8
0
 10
-11.8902320301
 20
27.6731084824
 30
0.0
  0
VERTEX
  8
0
 10
-11.9353376464
 20
27.65153347
 30
0.0
  0
VERTEX
  8
0
 10
-11.980372427
 20
27.6298109863
 30
0.0
  0
VERTEX
  8
0
 10
-12.0253355502
 20
27.607940566
 30
0.0
  0
VERTEX
  8
0
 10
-12.0702261823
 20
27.5859217362
 30
0.0
  0
VERTEX
  8
0
 10
-12.115043477
 20
27.5637540166
 30
0.0
  0
VERTEX
  8
0
 10
-12.159786575
 20
27.5414369189
 30
0.0
  0
VERTEX
  8
0
 10
-12.2044546038
 20
27.5189699466
 30
0.0
  0
VERTEX
  8
0
 10
-12.2490466773
 20
27.4963525946
 30
0.0
  0
VERTEX
  8
0
 10
-12.2935618948
 20
27.4735843491
 30
0.0
  0
VERTEX
  8
0
 10
-12.3379993416
 20
27.4506646873
 30
0.0
  0
VERTEX
  8
0
 10
-12.3823580875
 20
27.4275930769
 30
0.0
  0
VERTEX
  8
0
 10
-12.426637187
 20
27.4043689759
 30
0.0
  0
VERTEX
  8
0
 10
-12.4708356785
 20
27.3809918322
 30
0.0
  0
VERTEX
  8
0
 10
-12.5149525836
 20
27.3574610833
 30
0.0
  0
VERTEX
  8
0
 10
-12.5589869071
 20
27.3337761558
 30
0.0
  0
VERTEX
  8
0
 10
-12.6029376359
 20
27.3099364652
 30
0.0
  0
VERTEX
  8
0
 10
-12.6436070465
 20
27.2876968704
 30
0.0
  0
SEQEND
  8
0
  0
POLYLINE
  8
0
 62
0
 70
0
 66
1
 10
0.0
 20
0.0
 30
0.0
  0
VERTEX
  8
0
 10
-10.9744146365
 20
28.0742994301
 30
0.0
  0
VERTEX
  8
0
 10
-11.0207805346
 20
28.0555857556
 30
0.0
  0
VERTEX
  8
0
 10
-11.0670899176
 20
28.0367326616
 30
0.0
  0
VERTEX
  8
0
 10
-11.1133421499
 20
28.0177397919
 30
0.0
  0
VERTEX
  8
0
 10
-11.1595365886
 20
27.9986067862
 30
0.0
  0
VERTEX
  8
0
 10
-11.2056725835
 20
27.97933328
 30
0.0
  0
VERTEX
  8
0
 10
-11.2517494766
 20
27.9599189045
 30
0.0
  0
VERTEX
  8
0
 10
-11.2977666021
 20
27.9403632866
 30
0.0
  0
VERTEX
  8
0
 10
-11.3437232863
 20
27.9206660485
 30
0.0
  0
VERTEX
  8
0
 10
-11.3896188474
 20
27.9008268079
 30
0.0
  0
VERTEX
  8
0
 10
-11.4354525951
 20
27.8808451773
 30
0.0
  0
VERTEX
  8
0
 10
-11.4812238305
 20
27.8607207648
 30
0.0
  0
VERTEX
  8
0
 10
-11.5269318458
 20
27.8404531728
 30
0.0
  0
VERTEX
  8
0
 10
-11.5725759244
 20
27.8200419988
 30
0.0
  0
VERTEX
  8
0
 10
-11.6181553402
 20
27.7994868349
 30
0.0
  0
VERTEX
  8
0
 10
-11.6636693578
 20
27.7787872672
 30
0.0
  0
VERTEX
  8
0
 10
-11.7091172318
 20
27.7579428765
 30
0.0
  0
VERTEX
  8
0
 10
-11.754498207
 20
27.7369532374
 30
0.0
  0
VERTEX
  8
0
 10
-11.7998115177
 20
27.7158179183
 30
0.0
  0
VERTEX
  8
0
 10
-11.8450563878
 20
27.6945364814
 30
0.0
  0
VERTEX
  8
0
 10
-11.8902320301
 20
27.6731084824
 30
0.0
  0
VERTEX
  8
0
 10
-11.9353376464
 20
27.65153347
 30
0.0
  0
VERTEX
  8
0
 10
-11.980372427
 20
27.6298109863
 30
0.0
  0
VERTEX
  8
0
 10
-12.0253355502
 20
27.607940566
 30
0.0
  0
VERTEX
  8
0
 10
-12.0702261823
 20
27.5859217362
 30
0.0
  0
VERTEX
  8
0
 10
-12.115043477
 20
27.5637540166
 30
0.0
  0
VERTEX
  8
0
 10
-12.159786575
 20
27.5414369189
 30
0.0
  0
VERTEX
  8
0
 10
-12.2044546038
 20
27.5189699466
 30
0.0
  0
VERTEX
  8
0
 10
-12.2490466773
 20
27.4963525946
 30
0.0
  0
VERTEX
  8
0
 10
-12.2935618948
 20
27.4735843491
 30
0.0
  0
VERTEX
  8
0
 10
-12.3379993416
 20
27.4506646873
 30
0.0
  0
VERTEX
  8
0
 10
-12.3823580875
 20
27.4275930769
 30
0.0
  0
VERTEX
  8
0
 10
-12.426637187
 20
27.4043689759
 30
0.0
  0
VERTEX
  8
0
 10
-12.4708356785
 20
27.3809918322
 30
0.0
  0
VERTEX
  8
0
 10
-12.5149525836
 20
27.3574610833
 30
0.0
  0
VERTEX
  8
0
 10
-12.5589869071
 20
27.3337761558
 30
0.0
  0
VERTEX
  8
0
 10
-12.6029376359
 20
27.3099364652
 30
0.0
  0
VERTEX
  8
0
 10
-12.6436070465
 20
27.2876968704
 30
0.0
  0
SEQEND
  8
0
  0
ARC
  8
0
 62
0
 10
-32.0
 20
1.02140518266e-14
 30
0.0
 40
20.0
 50
-179.999980142
 51
-90.0
  0
LINE
  8
0
 62
0
 10
-32.0
 20
-20.0
 30
0.0
 11
-21.9999776698
 21
-20.0
 31
0.0
  0
LINE
  8
0
 62
0
 10
-21.9999776698
 20
-20.0
 30
0.0
 11
-18.6028468916
 21
-26.7942767281
 31
0.0
  0
LINE
  8
0
 62
0
 10
-18.6028468916
 20
-26.7942767281
 30
0.0
 11
-18.8799919162
 21
-26.2363609878
 31
0.0
  0
ARC
  8
0
 62
0
 10
-17.8570194633
 20
-25.7248031484
 30
0.0
 40
1.14375
 50
118.842889195
 51
-153.431740134
  0
ARC
  8
0
 62
0
 10
-32.0
 20
3.54969387217e-11
 30
0.0
 40
28.2125
 50
-61.2005813858
 51
-58.7994186142
  0
ARC
  8
0
 62
0
 10
-16.7931572345
 20
-25.1105820043
 30
0.0
 40
1.14375
 50
33.4317401337
 51
121.157110805
  0
LINE
  8
0
 62
0
 10
-15.8386489236
 20
-24.4804407923
 30
0.0
 11
-15.3885183943
 21
-25.1583502802
 31
0.0
  0
ARC
  8
0
 62
0
 10
-32.0001253484
 20
0.000157181940432
 30
0.0
 40
35.075
 50
-53.1694790515
 51
-49.6876638056
  0
LINE
  8
0
 62
0
 10
-11.1688244887
 20
-21.7932566812
 30
0.0
 11
-11.7295739046
 21
-21.2035628117
 31
0.0
  0
ARC
  8
0
 62
0
 10
-10.9028335676
 20
-20.4132056281
 30
0.0
 40
1.14375
 50
135.985746337
 51
-136.288882991
  0
ARC
  8
0
 62
0
 10
-32.0
 20
1.33599797891e-11
 30
0.0
 40
28.2125
 50
-44.057724243
 51
-41.6565614713
  0
ARC
  8
0
 62
0
 10
-10.0672806132
 20
-19.5126937091
 30
0.0
 40
1.14375
 50
50.5745972765
 51
138.299967948
  0
LINE
  8
0
 62
0
 10
-9.34091581124
 20
-18.6292016395
 30
0.0
 11
-8.71096598908
 21
-19.1443152083
 31
0.0
  0
ARC
  8
0
 62
0
 10
-32.0001661097
 20
0.000113251687814
 30
0.0
 40
35.075
 50
-36.0266219087
 51
-32.5448066628
  0
LINE
  8
0
 62
0
 10
-5.67061999476
 20
-14.684946663
 30
0.0
 11
-6.38027220682
 21
-14.2867350295
 31
0.0
  0
ARC
  8
0
 62
0
 10
-5.82322349291
 20
-13.2878052057
 30
0.0
 40
1.14375
 50
153.12860348
 51
-119.146025848
  0
ARC
  8
0
 62
0
 10
-32.0
 20
1.23696608512e-11
 30
0.0
 40
28.2125
 50
-26.9148671001
 51
-24.5137043284
  0
ARC
  8
0
 62
0
 10
-5.29022235954
 20
-12.1810169479
 30
0.0
 40
1.14375
 50
67.7174544194
 51
155.442825091
  0
LINE
  8
0
 62
0
 10
-4.85654176681
 20
-11.1226761682
 30
0.0
 11
-4.10274645794
 21
-11.4292237167
 31
0.0
  0
ARC
  8
0
 62
0
 10
-32.0001921114
 20
5.92585232475e-05
 30
0.0
 40
35.075
 50
-18.8837647658
 51
-15.4019495199
  0
LINE
  8
0
 62
0
 10
-2.5118964589
 20
-6.27181469005
 30
0.0
 11
-3.30739575381
 21
-6.10046814364
 31
0.0
  0
ARC
  8
0
 62
0
 10
-3.06953488572
 20
-4.98172497832
 30
0.0
 40
1.14375
 50
170.271460623
 51
-102.003168705
  0
ARC
  8
0
 62
0
 10
-32.0000000001
 20
8.26450019531e-12
 30
0.0
 40
28.2125000001
 50
-9.77200995727
 51
-7.37084718559
  0
ARC
  8
0
 62
0
 10
-2.8864450632
 20
-3.76700337535
 30
0.0
 40
1.14375
 50
84.8603115622
 51
172.585682234
  0
LINE
  8
0
 62
0
 10
-2.78398310349
 20
-2.62785210826
 30
0.0
 11
-1.97332032908
 21
-2.69859554156
 31
0.0
  0
ARC
  8
0
 62
0
 10
-32.0002010432
 20
3.88578058619e-16
 30
0.0
 40
35.075
 50
-1.74090762294
 51
1.74090762294
  0
LINE
  8
0
 62
0
 10
-1.97332032908
 20
2.69859554156
 30
0.0
 11
-2.78398310349
 21
2.62785210826
 31
0.0
  0
ARC
  8
0
 62
0
 10
-2.8864450632
 20
3.76700337535
 30
0.0
 40
1.14375
 50
-172.585682234
 51
-84.8603115622
  0
ARC
  8
0
 62
0
 10
-32.0
 20
-4.4273473776e-12
 30
0.0
 40
28.2125
 50
7.37084718559
 51
9.77200995727
  0
ARC
  8
0
 62
0
 10
-3.06953488572
 20
4.98172497832
 30
0.0
 40
1.14375
 50
102.003168705
 51
-170.271460623
  0
LINE
  8
0
 62
0
 10
-3.30739575381
 20
6.10046814364
 30
0.0
 11
-2.5118964589
 21
6.27181469005
 31
0.0
  0
ARC
  8
0
 62
0
 10
-32.0001921114
 20
-5.92585293928e-05
 30
0.0
 40
35.075
 50
15.4019495199
 51
18.8837647658
  0
LINE
  8
0
 62
0
 10
-4.10274645794
 20
11.4292237167
 30
0.0
 11
-4.85654176681
 21
11.1226761682
 31
0.0
  0
ARC
  8
0
 62
0
 10
-5.29022235954
 20
12.1810169479
 30
0.0
 40
1.14375
 50
-155.442825091
 51
-67.7174544194
  0
ARC
  8
0
 62
0
 10
-32.0
 20
-7.17914616644e-12
 30
0.0
 40
28.2125
 50
24.5137043284
 51
26.9148671001
  0
ARC
  8
0
 62
0
 10
-5.82322349291
 20
13.2878052057
 30
0.0
 40
1.14375
 50
119.146025848
 51
-153.12860348
  0
LINE
  8
0
 62
0
 10
-6.38027220682
 20
14.2867350295
 30
0.0
 11
-5.67061999476
 21
14.684946663
 31
0.0
  0
ARC
  8
0
 62
0
 10
-32.0001661097
 20
-0.000113251671612
 30
0.0
 40
35.075
 50
32.5448066628
 51
36.0266219087
  0
LINE
  8
0
 62
0
 10
-8.71096598908
 20
19.1443152083
 30
0.0
 11
-9.34091581124
 21
18.6292016395
 31
0.0
  0
ARC
  8
0
 62
0
 10
-10.0672806132
 20
19.5126937091
 30
0.0
 40
1.14375
 50
-138.299967948
 51
-50.5745972765
  0
ARC
  8
0
 62
0
 10
-32.0
 20
-1.34861011247e-11
 30
0.0
 40
28.2125
 50
41.6565614713
 51
44.057724243
  0
ARC
  8
0
 62
0
 10
-10.9028335676
 20
20.4132056281
 30
0.0
 40
1.14375
 50
136.288882991
 51
-135.985746337
  0
LINE
  8
0
 62
0
 10
-11.7295739046
 20
21.2035628117
 30
0.0
 11
-11.1688244887
 21
21.7932566812
 31
0.0
  0
LINE
  8
0
 62
0
 10
-20.0
 20
119.641016151
 30
0.0
 11
-20.0
 21
114.641016151
 31
0.0
  0
LINE
  8
0
 62
0
 10
-20.0
 20
119.641016151
 30
0.0
 11
-35.1793950841
 21
119.641016151
 31
0.0
  0
ARC
  8
0
 62
0
 10
1.59872115546e-14
 20
80.0
 30
0.0
 40
40.0
 50
120.0
 51
-108.426639277
  0
ARC
  8
0
 62
0
 10
-2.13162820728e-14
 20
80.0
 30
0.0
 40
53.0
 50
131.587432495
 51
-158.416896239
  0
LINE
  8
0
 62
0
 10
-12.6436070465
 20
42.05083399
 30
0.0
 11
-12.6436070465
 21
27.2876968704
 31
0.0
  0
LINE
  8
0
 62
0
 10
-49.283905188
 20
60.5039314369
 30
0.0
 11
-49.283905188
 21
41.05719
 31
0.0
  0
LINE
  8
0
 62
0
 10
-52.0
 20
35.0
 30
0.0
 11
-49.283905188
 21
41.05719
 31
0.0
  0
ARC
  8
0
 62
0
 10
-32.0001253484
 20
-0.000157181936299
 30
0.0
 40
35.075
 50
49.6876638056
 51
53.1694790515
  0
CIRCLE
  8
0
 62
0
 10
-32.0
 20
0.0
 30
0.0
 40
2.0
  0
LINE
  8
0
 62
0
 10
-52.0
 20
22.2075742559
 30
0.0
 11
-52.0
 21
35.0
 31
0.0
  0
LINE
  8
0
 62
0
 10
-52.0
 20
22.2075742559
 30
0.0
 11
-52.0
 21
10.0
 31
0.0
  0
LINE
  8
0
 62
0
 10
-52.0
 20
10.0
 30
0.0
 11
-52.0
 21
-6.92820410109e-06
 31
0.0
  0
ENDBLK
  0
ENDSEC
  0
SECTION
  2
ENTITIES
  0
INSERT
  2
FUSION001002
  8
0
 10
0.0
 20
0.0
 30
0.0
  0
ENDSEC
  0
EOF
