  0
SECTION
  2
HEADER
  9
$ACADVER
  1
AC1009
  9
$INSBASE
 10
0.0
 20
0.0
 30
0.0
  9
$EXTMIN
 10
0.0
 20
0.0
 30
0.0
  9
$EXTMAX
 10
0.0
 20
0.0
 30
0.0
  0
ENDSEC
  0
SECTION
  2
TABLES
  0
TABLE
  2
VPORT
 70
0
  0
ENDTAB
  0
TABLE
  2
LTYPE
 70
1
  0
LTYPE
  2
CONTINUOUS
 70
0
  3
Solid line
 72
65
 73
0
 40
0.0
  0
ENDTAB
  0
TABLE
  2
LAYER
 70
1
  0
LAYER
  2
0
 70
64
 62
7
  6
continuous
  0
ENDTAB
  0
TABLE
  2
STYLE
 70
1
  0
STYLE
  2
STANDARD
 70
0
 40
0
 41
1.0
 50
0.0
 71
0
 42
1
 3
ARIAL.TTF
 4

  0
ENDTAB
  0
TABLE
  2
VIEW
 70
0
  0
ENDTAB
  0
ENDSEC
  0
SECTION
  2
BLOCKS
  0
BLOCK
  8
axes
  2
CUT006010
 70
0
 10
0.0
 20
0.0
 30
0.0
  3
CUT006010
  0
LINE
  8
axes
 62
0
 10
40.0
 20
42.0000000001
 30
0.0
 11
30.6072097335
 21
32.796982634
 31
0.0
  0
ARC
  8
axes
 62
0
 10
37.5505102571
 20
44.5
 30
0.0
 40
3.5
 50
-45.5846914014
 51
90.0
  0
ARC
  8
axes
 62
0
 10
33.4066265824
 20
29.939839777
 30
0.0
 40
4.0
 50
134.415308599
 51
-135.512885644
  0
LINE
  8
axes
 62
0
 10
-37.5505102571
 20
48.0
 30
0.0
 11
37.5505102571
 21
48.0
 31
0.0
  0
LINE
  8
axes
 62
0
 10
30.5529943286
 20
27.136844422
 30
0.0
 11
40.3164544546
 21
17.197004645
 31
0.0
  0
ARC
  8
axes
 62
0
 10
-37.5505102571
 20
44.5
 30
0.0
 40
3.5
 50
90.0
 51
-134.415308599
  0
ARC
  8
axes
 62
0
 10
43.1700867084
 20
20.0
 30
0.0
 40
4.0
 50
-135.512885644
 51
-90.0
  0
LINE
  8
axes
 62
0
 10
-30.6072097335
 20
32.796982634
 30
0.0
 11
-40.0
 21
42.0000000001
 31
0.0
  0
LINE
  8
axes
 62
0
 10
43.1700867084
 20
16.0
 30
0.0
 11
96.936684148
 21
16.0
 31
0.0
  0
ARC
  8
axes
 62
0
 10
-33.4066265824
 20
29.939839777
 30
0.0
 40
4.0
 50
-40.9832282999
 51
45.5846914014
  0
LINE
  8
axes
 62
0
 10
96.936684148
 20
16.0
 30
0.0
 11
96.936684148
 21
-22.0
 31
0.0
  0
LINE
  8
axes
 62
0
 10
-30.3870202208
 20
27.316487452
 30
0.0
 11
-39.0224841412
 21
17.376647675
 31
0.0
  0
LINE
  8
axes
 62
0
 10
96.936684148
 20
-22.0
 30
0.0
 11
-96.936684148
 21
-22.0
 31
0.0
  0
ARC
  8
axes
 62
0
 10
-42.0420905027
 20
20.0
 30
0.0
 40
4.0
 50
-90.0
 51
-40.9832282999
  0
LINE
  8
axes
 62
0
 10
-96.936684148
 20
-22.0
 30
0.0
 11
-96.936684148
 21
16.0
 31
0.0
  0
LINE
  8
axes
 62
0
 10
-96.936684148
 20
16.0
 30
0.0
 11
-42.0420905027
 21
16.0
 31
0.0
  0
CIRCLE
  8
axes
 62
0
 10
77.0
 20
-3.0
 30
0.0
 40
11.0
  0
CIRCLE
  8
axes
 62
0
 10
32.5
 20
0.0
 30
0.0
 40
2.5
  0
CIRCLE
  8
axes
 62
0
 10
-32.5
 20
0.0
 30
0.0
 40
2.5
  0
CIRCLE
  8
axes
 62
0
 10
-5.0
 20
42.0
 30
0.0
 40
1.0
  0
CIRCLE
  8
axes
 62
0
 10
-5.0
 20
-6.0
 30
0.0
 40
1.0
  0
LINE
  8
axes
 62
0
 10
-10.0
 20
-1.5
 30
0.0
 11
10.0
 21
-1.5
 31
0.0
  0
LINE
  8
axes
 62
0
 10
-10.0
 20
-1.5
 30
0.0
 11
-10.0
 21
37.5
 31
0.0
  0
LINE
  8
axes
 62
0
 10
10.0
 20
-1.5
 30
0.0
 11
10.0
 21
37.5
 31
0.0
  0
LINE
  8
axes
 62
0
 10
10.0
 20
37.5
 30
0.0
 11
-10.0
 21
37.5
 31
0.0
  0
CIRCLE
  8
axes
 62
0
 10
-77.0
 20
-3.0
 30
0.0
 40
11.0
  0
CIRCLE
  8
axes
 62
0
 10
5.0
 20
42.0
 30
0.0
 40
1.0
  0
CIRCLE
  8
axes
 62
0
 10
5.0
 20
-6.0
 30
0.0
 40
1.0
  0
ENDBLK
  0
ENDSEC
  0
SECTION
  2
ENTITIES
  0
INSERT
  2
CUT006010
  8
0
 10
0.0
 20
0.0
 30
0.0
  0
ENDSEC
  0
EOF
