  0
SECTION
  2
HEADER
  9
$ACADVER
  1
AC1009
  9
$INSBASE
 10
0.0
 20
0.0
 30
0.0
  9
$EXTMIN
 10
0.0
 20
0.0
 30
0.0
  9
$EXTMAX
 10
0.0
 20
0.0
 30
0.0
  0
ENDSEC
  0
SECTION
  2
TABLES
  0
TABLE
  2
VPORT
 70
0
  0
ENDTAB
  0
TABLE
  2
LTYPE
 70
1
  0
LTYPE
  2
CONTINUOUS
 70
0
  3
Solid line
 72
65
 73
0
 40
0.0
  0
ENDTAB
  0
TABLE
  2
LAYER
 70
1
  0
LAYER
  2
0
 70
64
 62
7
  6
continuous
  0
ENDTAB
  0
TABLE
  2
STYLE
 70
1
  0
STYLE
  2
STANDARD
 70
0
 40
0
 41
1.0
 50
0.0
 71
0
 42
1
 3
ARIAL.TTF
 4

  0
ENDTAB
  0
TABLE
  2
VIEW
 70
0
  0
ENDTAB
  0
ENDSEC
  0
SECTION
  2
BLOCKS
  0
BLOCK
  8
0
  2
CUT006011
 70
0
 10
0.0
 20
0.0
 30
0.0
  3
CUT006011
  0
POLYLINE
  8
0
 62
0
 70
0
 66
1
 10
0.0
 20
0.0
 30
0.0
  0
VERTEX
  8
0
 10
6.61777313396
 20
15.4594386189
 30
0.0
  0
VERTEX
  8
0
 10
6.57284676849
 20
15.4813827957
 30
0.0
  0
VERTEX
  8
0
 10
6.5275479534
 20
15.5025479878
 30
0.0
  0
VERTEX
  8
0
 10
6.48194218967
 20
15.5230437139
 30
0.0
  0
VERTEX
  8
0
 10
6.43607304545
 20
15.5429432056
 30
0.0
  0
VERTEX
  8
0
 10
6.38997189914
 20
15.5622992809
 30
0.0
  0
VERTEX
  8
0
 10
6.3436626938
 20
15.5811522533
 30
0.0
  0
VERTEX
  8
0
 10
6.29716446697
 20
15.5995341676
 30
0.0
  0
VERTEX
  8
0
 10
6.25049282481
 20
15.6174712765
 30
0.0
  0
VERTEX
  8
0
 10
6.2036608642
 20
15.6349855927
 30
0.0
  0
VERTEX
  8
0
 10
6.15667978229
 20
15.6520959166
 30
0.0
  0
VERTEX
  8
0
 10
6.10955929743
 20
15.6688185462
 30
0.0
  0
VERTEX
  8
0
 10
6.06230795029
 20
15.6851677859
 30
0.0
  0
VERTEX
  8
0
 10
6.01493332577
 20
15.7011563214
 30
0.0
  0
VERTEX
  8
0
 10
5.96744222053
 20
15.7167955026
 30
0.0
  0
VERTEX
  8
0
 10
5.91984077211
 20
15.7320955625
 30
0.0
  0
VERTEX
  8
0
 10
5.87213456037
 20
15.7470657884
 30
0.0
  0
VERTEX
  8
0
 10
5.82432868832
 20
15.7617146593
 30
0.0
  0
VERTEX
  8
0
 10
5.77642784747
 20
15.7760499558
 30
0.0
  0
VERTEX
  8
0
 10
5.72843637136
 20
15.7900788516
 30
0.0
  0
VERTEX
  8
0
 10
5.68035827977
 20
15.8038079878
 30
0.0
  0
VERTEX
  8
0
 10
5.6321973157
 20
15.8172435359
 30
0.0
  0
VERTEX
  8
0
 10
5.58395697653
 20
15.8303912505
 30
0.0
  0
VERTEX
  8
0
 10
5.53564054048
 20
15.8432565145
 30
0.0
  0
VERTEX
  8
0
 10
5.48725108924
 20
15.855844377
 30
0.0
  0
VERTEX
  8
0
 10
5.43879152748
 20
15.8681595867
 30
0.0
  0
VERTEX
  8
0
 10
5.39026459976
 20
15.8802066206
 30
0.0
  0
VERTEX
  8
0
 10
5.34167290525
 20
15.8919897089
 30
0.0
  0
VERTEX
  8
0
 10
5.29301891062
 20
15.9035128573
 30
0.0
  0
VERTEX
  8
0
 10
5.24430496141
 20
15.9147798656
 30
0.0
  0
VERTEX
  8
0
 10
5.19553329209
 20
15.9257943453
 30
0.0
  0
VERTEX
  8
0
 10
5.14670603493
 20
15.9365597347
 30
0.0
  0
VERTEX
  8
0
 10
5.09782522798
 20
15.9470793122
 30
0.0
  0
VERTEX
  8
0
 10
5.04889282215
 20
15.9573562086
 30
0.0
  0
VERTEX
  8
0
 10
4.99991068762
 20
15.9673934178
 30
0.0
  0
VERTEX
  8
0
 10
4.95088061958
 20
15.9771938068
 30
0.0
  0
VERTEX
  8
0
 10
4.90180434338
 20
15.9867601242
 30
0.0
  0
VERTEX
  8
0
 10
4.85268351928
 20
15.9960950086
 30
0.0
  0
VERTEX
  8
0
 10
4.80351974668
 20
16.0052009954
 30
0.0
  0
VERTEX
  8
0
 10
4.75431456803
 20
16.014080524
 30
0.0
  0
VERTEX
  8
0
 10
4.70506947238
 20
16.0227359433
 30
0.0
  0
VERTEX
  8
0
 10
4.65578589859
 20
16.0311695176
 30
0.0
  0
VERTEX
  8
0
 10
4.60646523836
 20
16.0393834316
 30
0.0
  0
VERTEX
  8
0
 10
4.55710883891
 20
16.0473797947
 30
0.0
  0
VERTEX
  8
0
 10
4.50771800553
 20
16.0551606461
 30
0.0
  0
VERTEX
  8
0
 10
4.45829400389
 20
16.0627279579
 30
0.0
  0
VERTEX
  8
0
 10
4.40883806219
 20
16.0700836394
 30
0.0
  0
VERTEX
  8
0
 10
4.35935137314
 20
16.0772295399
 30
0.0
  0
VERTEX
  8
0
 10
4.30983509579
 20
16.0841674526
 30
0.0
  0
VERTEX
  8
0
 10
4.26029035725
 20
16.0908991168
 30
0.0
  0
VERTEX
  8
0
 10
4.2107182543
 20
16.0974262211
 30
0.0
  0
VERTEX
  8
0
 10
4.16111985481
 20
16.1037504055
 30
0.0
  0
VERTEX
  8
0
 10
4.11149619919
 20
16.1098732644
 30
0.0
  0
VERTEX
  8
0
 10
4.06184830162
 20
16.115796348
 30
0.0
  0
VERTEX
  8
0
 10
4.0121771513
 20
16.1215211651
 30
0.0
  0
VERTEX
  8
0
 10
3.96248371353
 20
16.1270491846
 30
0.0
  0
VERTEX
  8
0
 10
3.91276893083
 20
16.1323818375
 30
0.0
  0
VERTEX
  8
0
 10
3.86303372387
 20
16.1375205184
 30
0.0
  0
VERTEX
  8
0
 10
3.81327899243
 20
16.1424665874
 30
0.0
  0
VERTEX
  8
0
 10
3.76350561627
 20
16.1472213714
 30
0.0
  0
VERTEX
  8
0
 10
3.71371445599
 20
16.1517861654
 30
0.0
  0
VERTEX
  8
0
 10
3.66390635373
 20
16.1561622342
 30
0.0
  0
VERTEX
  8
0
 10
3.61408213397
 20
16.1603508133
 30
0.0
  0
VERTEX
  8
0
 10
3.56424260421
 20
16.1643531103
 30
0.0
  0
VERTEX
  8
0
 10
3.51438855561
 20
16.1681703061
 30
0.0
  0
VERTEX
  8
0
 10
3.46452076359
 20
16.1718035556
 30
0.0
  0
VERTEX
  8
0
 10
3.41463998846
 20
16.1752539891
 30
0.0
  0
VERTEX
  8
0
 10
3.36474697595
 20
16.178522713
 30
0.0
  0
VERTEX
  8
0
 10
3.31484245774
 20
16.181610811
 30
0.0
  0
VERTEX
  8
0
 10
3.26492715194
 20
16.1845193444
 30
0.0
  0
VERTEX
  8
0
 10
3.21500176361
 20
16.1872493537
 30
0.0
  0
VERTEX
  8
0
 10
3.16506698514
 20
16.1898018587
 30
0.0
  0
VERTEX
  8
0
 10
3.11512349674
 20
16.1921778595
 30
0.0
  0
VERTEX
  8
0
 10
3.06517196685
 20
16.1943783373
 30
0.0
  0
VERTEX
  8
0
 10
3.01521305245
 20
16.196404255
 30
0.0
  0
VERTEX
  8
0
 10
2.96524739951
 20
16.1982565576
 30
0.0
  0
VERTEX
  8
0
 10
2.91527564332
 20
16.1999361733
 30
0.0
  0
VERTEX
  8
0
 10
2.86529840881
 20
16.2014440136
 30
0.0
  0
VERTEX
  8
0
 10
2.81531631088
 20
16.2027809742
 30
0.0
  0
VERTEX
  8
0
 10
2.76532995469
 20
16.2039479352
 30
0.0
  0
VERTEX
  8
0
 10
2.715339936
 20
16.2049457619
 30
0.0
  0
VERTEX
  8
0
 10
2.66534684139
 20
16.2057753053
 30
0.0
  0
VERTEX
  8
0
 10
2.61535124856
 20
16.2064374023
 30
0.0
  0
VERTEX
  8
0
 10
2.56535372659
 20
16.2069328762
 30
0.0
  0
VERTEX
  8
0
 10
2.51535483617
 20
16.2072625375
 30
0.0
  0
VERTEX
  8
0
 10
2.46535512984
 20
16.2074271837
 30
0.0
  0
VERTEX
  8
0
 10
2.41535515221
 20
16.2074276003
 30
0.0
  0
VERTEX
  8
0
 10
2.36535544019
 20
16.2072645607
 30
0.0
  0
VERTEX
  8
0
 10
2.31535652318
 20
16.2069388268
 30
0.0
  0
VERTEX
  8
0
 10
2.26535892329
 20
16.2064511493
 30
0.0
  0
VERTEX
  8
0
 10
2.2153631555
 20
16.2058022681
 30
0.0
  0
VERTEX
  8
0
 10
2.16536972787
 20
16.2049929124
 30
0.0
  0
VERTEX
  8
0
 10
2.1153791417
 20
16.2040238014
 30
0.0
  0
VERTEX
  8
0
 10
2.06539189171
 20
16.202895644
 30
0.0
  0
VERTEX
  8
0
 10
2.01540846621
 20
16.2016091398
 30
0.0
  0
VERTEX
  8
0
 10
1.96542934722
 20
16.2001649787
 30
0.0
  0
VERTEX
  8
0
 10
1.91545501067
 20
16.1985638417
 30
0.0
  0
VERTEX
  8
0
 10
1.8654859265
 20
16.1968064009
 30
0.0
  0
VERTEX
  8
0
 10
1.81552255885
 20
16.1948933197
 30
0.0
  0
VERTEX
  8
0
 10
1.76556536614
 20
16.1928252531
 30
0.0
  0
VERTEX
  8
0
 10
1.71561480123
 20
16.1906028479
 30
0.0
  0
VERTEX
  8
0
 10
1.66567131155
 20
16.1882267432
 30
0.0
  0
VERTEX
  8
0
 10
1.61573533921
 20
16.1856975701
 30
0.0
  0
VERTEX
  8
0
 10
1.56580732111
 20
16.1830159522
 30
0.0
  0
VERTEX
  8
0
 10
1.51588768907
 20
16.180182506
 30
0.0
  0
VERTEX
  8
0
 10
1.46597686992
 20
16.1771978406
 30
0.0
  0
VERTEX
  8
0
 10
1.41607528564
 20
16.1740625583
 30
0.0
  0
VERTEX
  8
0
 10
1.37562014823
 20
16.17141018
 30
0.0
  0
SEQEND
  8
0
  0
POLYLINE
  8
0
 62
0
 70
0
 66
1
 10
0.0
 20
0.0
 30
0.0
  0
VERTEX
  8
0
 10
0.450948978587
 20
14.2513107115
 30
0.0
  0
VERTEX
  8
0
 10
0.479510845178
 20
14.2102714876
 30
0.0
  0
VERTEX
  8
0
 10
0.508196059898
 20
14.1693183856
 30
0.0
  0
VERTEX
  8
0
 10
0.537004828629
 20
14.1284521044
 30
0.0
  0
VERTEX
  8
0
 10
0.565937359589
 20
14.087673351
 30
0.0
  0
VERTEX
  8
0
 10
0.59499386341
 20
14.0469828405
 30
0.0
  0
VERTEX
  8
0
 10
0.62417455321
 20
14.0063812963
 30
0.0
  0
VERTEX
  8
0
 10
0.653479644682
 20
13.9658694505
 30
0.0
  0
VERTEX
  8
0
 10
0.682909356178
 20
13.9254480441
 30
0.0
  0
VERTEX
  8
0
 10
0.712463908794
 20
13.8851178269
 30
0.0
  0
VERTEX
  8
0
 10
0.74214352646
 20
13.8448795581
 30
0.0
  0
VERTEX
  8
0
 10
0.771948436039
 20
13.8047340062
 30
0.0
  0
VERTEX
  8
0
 10
0.801878867423
 20
13.7646819498
 30
0.0
  0
VERTEX
  8
0
 10
0.831935053631
 20
13.724724177
 30
0.0
  0
VERTEX
  8
0
 10
0.862117230917
 20
13.6848614866
 30
0.0
  0
VERTEX
  8
0
 10
0.89242563888
 20
13.6450946876
 30
0.0
  0
VERTEX
  8
0
 10
0.922860520573
 20
13.6054245999
 30
0.0
  0
VERTEX
  8
0
 10
0.953422122623
 20
13.5658520546
 30
0.0
  0
VERTEX
  8
0
 10
0.984110695354
 20
13.5263778942
 30
0.0
  0
VERTEX
  8
0
 10
1.01492649291
 20
13.4870029727
 30
0.0
  0
VERTEX
  8
0
 10
1.04586977339
 20
13.4477281564
 30
0.0
  0
VERTEX
  8
0
 10
1.07694079898
 20
13.4085543239
 30
0.0
  0
VERTEX
  8
0
 10
1.1081398361
 20
13.3694823667
 30
0.0
  0
VERTEX
  8
0
 10
1.13946715555
 20
13.3305131892
 30
0.0
  0
VERTEX
  8
0
 10
1.17092303267
 20
13.2916477096
 30
0.0
  0
VERTEX
  8
0
 10
1.2025077475
 20
13.2528868597
 30
0.0
  0
VERTEX
  8
0
 10
1.23422158491
 20
13.214231586
 30
0.0
  0
VERTEX
  8
0
 10
1.26606483483
 20
13.1756828495
 30
0.0
  0
VERTEX
  8
0
 10
1.29803779243
 20
13.1372416268
 30
0.0
  0
VERTEX
  8
0
 10
1.33014075824
 20
13.0989089099
 30
0.0
  0
VERTEX
  8
0
 10
1.36237403843
 20
13.0606857073
 30
0.0
  0
VERTEX
  8
0
 10
1.39473794497
 20
13.022573044
 30
0.0
  0
VERTEX
  8
0
 10
1.42723279586
 20
12.9845719626
 30
0.0
  0
VERTEX
  8
0
 10
1.45985891536
 20
12.9466835235
 30
0.0
  0
VERTEX
  8
0
 10
1.4926166342
 20
12.9089088055
 30
0.0
  0
VERTEX
  8
0
 10
1.52550628988
 20
12.8712489066
 30
0.0
  0
VERTEX
  8
0
 10
1.55852822687
 20
12.8337049446
 30
0.0
  0
VERTEX
  8
0
 10
1.59168279693
 20
12.7962780577
 30
0.0
  0
VERTEX
  8
0
 10
1.62497035936
 20
12.7589694054
 30
0.0
  0
VERTEX
  8
0
 10
1.65839128131
 20
12.7217801692
 30
0.0
  0
VERTEX
  8
0
 10
1.69194593812
 20
12.6847115533
 30
0.0
  0
VERTEX
  8
0
 10
1.7256347136
 20
12.6477647855
 30
0.0
  0
VERTEX
  8
0
 10
1.75945800043
 20
12.6109411181
 30
0.0
  0
VERTEX
  8
0
 10
1.79341620048
 20
12.5742418289
 30
0.0
  0
VERTEX
  8
0
 10
1.82750972522
 20
12.5376682222
 30
0.0
  0
VERTEX
  8
0
 10
1.86173899612
 20
12.5012216295
 30
0.0
  0
VERTEX
  8
0
 10
1.89610444509
 20
12.4649034113
 30
0.0
  0
VERTEX
  8
0
 10
1.93060651489
 20
12.4287149573
 30
0.0
  0
VERTEX
  8
0
 10
1.96524565968
 20
12.3926576886
 30
0.0
  0
VERTEX
  8
0
 10
2.00002234544
 20
12.3567330583
 30
0.0
  0
VERTEX
  8
0
 10
2.03493705056
 20
12.3209425531
 30
0.0
  0
VERTEX
  8
0
 10
2.06999026641
 20
12.2852876951
 30
0.0
  0
VERTEX
  8
0
 10
2.1051824979
 20
12.2497700426
 30
0.0
  0
VERTEX
  8
0
 10
2.14051426413
 20
12.2143911924
 30
0.0
  0
VERTEX
  8
0
 10
2.17598609911
 20
12.1791527812
 30
0.0
  0
VERTEX
  8
0
 10
2.21159855243
 20
12.1440564878
 30
0.0
  0
VERTEX
  8
0
 10
2.24735219003
 20
12.1091040346
 30
0.0
  0
VERTEX
  8
0
 10
2.28324759505
 20
12.0742971901
 30
0.0
  0
VERTEX
  8
0
 10
2.31928536869
 20
12.0396377709
 30
0.0
  0
VERTEX
  8
0
 10
2.35546613114
 20
12.0051276443
 30
0.0
  0
VERTEX
  8
0
 10
2.39179052256
 20
11.9707687309
 30
0.0
  0
VERTEX
  8
0
 10
2.4282592042
 20
11.9365630071
 30
0.0
  0
VERTEX
  8
0
 10
2.4648728595
 20
11.9025125086
 30
0.0
  0
VERTEX
  8
0
 10
2.50163219538
 20
11.8686193329
 30
0.0
  0
VERTEX
  8
0
 10
2.5385379435
 20
11.8348856434
 30
0.0
  0
VERTEX
  8
0
 10
2.57559086177
 20
11.8013136726
 30
0.0
  0
VERTEX
  8
0
 10
2.61279173584
 20
11.7679057265
 30
0.0
  0
VERTEX
  8
0
 10
2.65014138081
 20
11.7346641889
 30
0.0
  0
VERTEX
  8
0
 10
2.68764064306
 20
11.7015915258
 30
0.0
  0
VERTEX
  8
0
 10
2.72529040218
 20
11.668690291
 30
0.0
  0
VERTEX
  8
0
 10
2.76309157315
 20
11.6359631312
 30
0.0
  0
VERTEX
  8
0
 10
2.80104510867
 20
11.6034127926
 30
0.0
  0
VERTEX
  8
0
 10
2.83915200174
 20
11.5710421269
 30
0.0
  0
VERTEX
  8
0
 10
2.87741328844
 20
11.5388540994
 30
0.0
  0
VERTEX
  8
0
 10
2.91583005102
 20
11.5068517964
 30
0.0
  0
VERTEX
  8
0
 10
2.95440342129
 20
11.4750384341
 30
0.0
  0
VERTEX
  8
0
 10
2.99313458437
 20
11.4434173687
 30
0.0
  0
VERTEX
  8
0
 10
3.03202478282
 20
11.4119921068
 30
0.0
  0
VERTEX
  8
0
 10
3.07107532125
 20
11.3807663176
 30
0.0
  0
VERTEX
  8
0
 10
3.11028757145
 20
11.3497438463
 30
0.0
  0
VERTEX
  8
0
 10
3.14966297812
 20
11.318928729
 30
0.0
  0
VERTEX
  8
0
 10
3.1892030653
 20
11.2883252094
 30
0.0
  0
VERTEX
  8
0
 10
3.22890944362
 20
11.2579377577
 30
0.0
  0
VERTEX
  8
0
 10
3.2687838185
 20
11.2277710923
 30
0.0
  0
VERTEX
  8
0
 10
3.30882799946
 20
11.197830204
 30
0.0
  0
VERTEX
  8
0
 10
3.34904391078
 20
11.1681203835
 30
0.0
  0
VERTEX
  8
0
 10
3.38943360369
 20
11.1386472538
 30
0.0
  0
VERTEX
  8
0
 10
3.42999927051
 20
11.1094168069
 30
0.0
  0
VERTEX
  8
0
 10
3.47074326098
 20
11.0804354466
 30
0.0
  0
VERTEX
  8
0
 10
3.5116681015
 20
11.0517100389
 30
0.0
  0
VERTEX
  8
0
 10
3.55277651765
 20
11.0232479708
 30
0.0
  0
VERTEX
  8
0
 10
3.59407146104
 20
10.995057221
 30
0.0
  0
VERTEX
  8
0
 10
3.63555614145
 20
10.9671464436
 30
0.0
  0
VERTEX
  8
0
 10
3.67723406574
 20
10.9395250709
 30
0.0
  0
VERTEX
  8
0
 10
3.71910908546
 20
10.9122034374
 30
0.0
  0
VERTEX
  8
0
 10
3.76118545587
 20
10.8851929355
 30
0.0
  0
VERTEX
  8
0
 10
3.80346791007
 20
10.8585062097
 30
0.0
  0
VERTEX
  8
0
 10
3.84596175368
 20
10.8321574056
 30
0.0
  0
VERTEX
  8
0
 10
3.88867298798
 20
10.8061624935
 30
0.0
  0
VERTEX
  8
0
 10
3.93160847355
 20
10.7805396993
 30
0.0
  0
VERTEX
  8
0
 10
3.97477615319
 20
10.7553100914
 30
0.0
  0
VERTEX
  8
0
 10
4.018185365
 20
10.7304984062
 30
0.0
  0
VERTEX
  8
0
 10
4.06184729821
 20
10.7061342514
 30
0.0
  0
VERTEX
  8
0
 10
4.10577568746
 20
10.6822539434
 30
0.0
  0
VERTEX
  8
0
 10
4.14998793153
 20
10.658903474
 30
0.0
  0
VERTEX
  8
0
 10
4.19450702974
 20
10.6361436743
 30
0.0
  0
VERTEX
  8
0
 10
4.23936523583
 20
10.6140600585
 30
0.0
  0
VERTEX
  8
0
 10
4.27601968608
 20
10.5967374789
 30
0.0
  0
SEQEND
  8
0
  0
POLYLINE
  8
0
 62
0
 70
0
 66
1
 10
0.0
 20
0.0
 30
0.0
  0
VERTEX
  8
0
 10
3.21089832721
 20
7.14369884291
 30
0.0
  0
VERTEX
  8
0
 10
3.16149975445
 20
7.15142582281
 30
0.0
  0
VERTEX
  8
0
 10
3.11197488873
 20
7.15829864464
 30
0.0
  0
VERTEX
  8
0
 10
3.06235403979
 20
7.16444126836
 30
0.0
  0
VERTEX
  8
0
 10
3.0126572548
 20
7.16993651384
 30
0.0
  0
VERTEX
  8
0
 10
2.96289894972
 20
7.17484410163
 30
0.0
  0
VERTEX
  8
0
 10
2.91309012127
 20
7.17920961147
 30
0.0
  0
VERTEX
  8
0
 10
2.86323951584
 20
7.18306927593
 30
0.0
  0
VERTEX
  8
0
 10
2.81335430814
 20
7.18645278134
 30
0.0
  0
VERTEX
  8
0
 10
2.76344052481
 20
7.18938502289
 30
0.0
  0
VERTEX
  8
0
 10
2.71350332406
 20
7.19188726609
 30
0.0
  0
VERTEX
  8
0
 10
2.66354718852
 20
7.19397794946
 30
0.0
  0
VERTEX
  8
0
 10
2.61357606314
 20
7.1956732593
 30
0.0
  0
VERTEX
  8
0
 10
2.56359345671
 20
7.19698755328
 30
0.0
  0
VERTEX
  8
0
 10
2.51360251844
 20
7.19793368054
 30
0.0
  0
VERTEX
  8
0
 10
2.463606097
 20
7.19852322845
 30
0.0
  0
VERTEX
  8
0
 10
2.41360678683
 20
7.19876671651
 30
0.0
  0
VERTEX
  8
0
 10
2.36360696506
 20
7.19867375095
 30
0.0
  0
VERTEX
  8
0
 10
2.31360882134
 20
7.1982531498
 30
0.0
  0
VERTEX
  8
0
 10
2.26361438224
 20
7.19751304518
 30
0.0
  0
VERTEX
  8
0
 10
2.21362553143
 20
7.19646096809
 30
0.0
  0
VERTEX
  8
0
 10
2.16364402654
 20
7.19510391912
 30
0.0
  0
VERTEX
  8
0
 10
2.11367151336
 20
7.19344842815
 30
0.0
  0
VERTEX
  8
0
 10
2.06370953786
 20
7.19150060501
 30
0.0
  0
VERTEX
  8
0
 10
2.01375955658
 20
7.18926618292
 30
0.0
  0
VERTEX
  8
0
 10
1.96382294541
 20
7.1867505558
 30
0.0
  0
VERTEX
  8
0
 10
1.91390100735
 20
7.18395881073
 30
0.0
  0
VERTEX
  8
0
 10
1.86399497922
 20
7.18089575617
 30
0.0
  0
VERTEX
  8
0
 10
1.81410603745
 20
7.17756594671
 30
0.0
  0
VERTEX
  8
0
 10
1.76423530334
 20
7.17397370483
 30
0.0
  0
VERTEX
  8
0
 10
1.71438384755
 20
7.17012314022
 30
0.0
  0
VERTEX
  8
0
 10
1.6645526942
 20
7.16601816685
 30
0.0
  0
VERTEX
  8
0
 10
1.61474282445
 20
7.16166251827
 30
0.0
  0
VERTEX
  8
0
 10
1.56495517973
 20
7.15705976118
 30
0.0
  0
VERTEX
  8
0
 10
1.51519066465
 20
7.15221330777
 30
0.0
  0
VERTEX
  8
0
 10
1.46545014959
 20
7.14712642672
 30
0.0
  0
VERTEX
  8
0
 10
1.41573447308
 20
7.14180225316
 30
0.0
  0
VERTEX
  8
0
 10
1.36604444391
 20
7.13624379772
 30
0.0
  0
VERTEX
  8
0
 10
1.31638084304
 20
7.13045395475
 30
0.0
  0
VERTEX
  8
0
 10
1.26674442542
 20
7.12443550978
 30
0.0
  0
VERTEX
  8
0
 10
1.21713592157
 20
7.11819114634
 30
0.0
  0
VERTEX
  8
0
 10
1.16755603903
 20
7.11172345221
 30
0.0
  0
VERTEX
  8
0
 10
1.11800546371
 20
7.10503492517
 30
0.0
  0
VERTEX
  8
0
 10
1.06848486119
 20
7.09812797823
 30
0.0
  0
VERTEX
  8
0
 10
1.01899487775
 20
7.09100494451
 30
0.0
  0
VERTEX
  8
0
 10
0.969536141513
 20
7.08366808168
 30
0.0
  0
VERTEX
  8
0
 10
0.920109263375
 20
7.07611957611
 30
0.0
  0
VERTEX
  8
0
 10
0.870714837897
 20
7.06836154671
 30
0.0
  0
VERTEX
  8
0
 10
0.82135344415
 20
7.06039604844
 30
0.0
  0
VERTEX
  8
0
 10
0.772025646479
 20
7.05222507564
 30
0.0
  0
VERTEX
  8
0
 10
0.722731995221
 20
7.0438505651
 30
0.0
  0
VERTEX
  8
0
 10
0.673473027373
 20
7.03527439888
 30
0.0
  0
VERTEX
  8
0
 10
0.624249267216
 20
7.026498407
 30
0.0
  0
VERTEX
  8
0
 10
0.57506122689
 20
7.01752436993
 30
0.0
  0
VERTEX
  8
0
 10
0.525909406941
 20
7.00835402091
 30
0.0
  0
VERTEX
  8
0
 10
0.47679429683
 20
6.99898904812
 30
0.0
  0
VERTEX
  8
0
 10
0.427716375404
 20
6.98943109675
 30
0.0
  0
VERTEX
  8
0
 10
0.378676111343
 20
6.97968177091
 30
0.0
  0
VERTEX
  8
0
 10
0.329673963585
 20
6.96974263541
 30
0.0
  0
VERTEX
  8
0
 10
0.28071038171
 20
6.95961521747
 30
0.0
  0
VERTEX
  8
0
 10
0.231785806319
 20
6.94930100835
 30
0.0
  0
VERTEX
  8
0
 10
0.182900669377
 20
6.9388014648
 30
0.0
  0
VERTEX
  8
0
 10
0.134055394545
 20
6.9281180105
 30
0.0
  0
VERTEX
  8
0
 10
0.0852503974905
 20
6.91725203744
 30
0.0
  0
VERTEX
  8
0
 10
0.0364860861774
 20
6.90620490712
 30
0.0
  0
VERTEX
  8
0
 10
-0.0122371388533
 20
6.89497795181
 30
0.0
  0
VERTEX
  8
0
 10
-0.0609188842234
 20
6.88357247566
 30
0.0
  0
VERTEX
  8
0
 10
-0.109558763469
 20
6.87198975576
 30
0.0
  0
VERTEX
  8
0
 10
-0.158156396805
 20
6.8602310432
 30
0.0
  0
VERTEX
  8
0
 10
-0.206711410904
 20
6.84829756401
 30
0.0
  0
VERTEX
  8
0
 10
-0.25522343868
 20
6.8361905201
 30
0.0
  0
VERTEX
  8
0
 10
-0.303692119095
 20
6.82391109009
 30
0.0
  0
VERTEX
  8
0
 10
-0.352117096961
 20
6.81146043022
 30
0.0
  0
VERTEX
  8
0
 10
-0.400498022763
 20
6.79883967508
 30
0.0
  0
VERTEX
  8
0
 10
-0.448834552484
 20
6.78604993837
 30
0.0
  0
VERTEX
  8
0
 10
-0.49712634744
 20
6.77309231367
 30
0.0
  0
VERTEX
  8
0
 10
-0.545373074128
 20
6.75996787504
 30
0.0
  0
VERTEX
  8
0
 10
-0.593574404069
 20
6.74667767776
 30
0.0
  0
VERTEX
  8
0
 10
-0.641730013672
 20
6.73322275891
 30
0.0
  0
VERTEX
  8
0
 10
-0.689839584096
 20
6.71960413797
 30
0.0
  0
VERTEX
  8
0
 10
-0.737902801119
 20
6.7058228174
 30
0.0
  0
VERTEX
  8
0
 10
-0.785919355015
 20
6.69187978318
 30
0.0
  0
VERTEX
  8
0
 10
-0.833888940435
 20
6.67777600535
 30
0.0
  0
VERTEX
  8
0
 10
-0.881811256293
 20
6.66351243846
 30
0.0
  0
VERTEX
  8
0
 10
-0.929686005661
 20
6.64909002213
 30
0.0
  0
VERTEX
  8
0
 10
-0.977512895658
 20
6.63450968144
 30
0.0
  0
VERTEX
  8
0
 10
-1.02529163736
 20
6.61977232738
 30
0.0
  0
VERTEX
  8
0
 10
-1.07302194569
 20
6.60487885732
 30
0.0
  0
VERTEX
  8
0
 10
-1.12070353935
 20
6.58983015536
 30
0.0
  0
VERTEX
  8
0
 10
-1.1683361407
 20
6.57462709274
 30
0.0
  0
VERTEX
  8
0
 10
-1.21591947571
 20
6.55927052825
 30
0.0
  0
VERTEX
  8
0
 10
-1.26345327385
 20
6.54376130851
 30
0.0
  0
VERTEX
  8
0
 10
-1.31093726804
 20
6.52810026839
 30
0.0
  0
VERTEX
  8
0
 10
-1.35837119455
 20
6.5122882313
 30
0.0
  0
VERTEX
  8
0
 10
-1.40575479292
 20
6.49632600954
 30
0.0
  0
VERTEX
  8
0
 10
-1.45308780594
 20
6.48021440457
 30
0.0
  0
VERTEX
  8
0
 10
-1.50036997953
 20
6.46395420735
 30
0.0
  0
VERTEX
  8
0
 10
-1.54760106271
 20
6.44754619859
 30
0.0
  0
VERTEX
  8
0
 10
-1.59478080754
 20
6.43099114905
 30
0.0
  0
VERTEX
  8
0
 10
-1.64190896901
 20
6.41428981977
 30
0.0
  0
VERTEX
  8
0
 10
-1.68898530505
 20
6.39744296238
 30
0.0
  0
VERTEX
  8
0
 10
-1.73600957645
 20
6.38045131931
 30
0.0
  0
VERTEX
  8
0
 10
-1.78298154679
 20
6.36331562401
 30
0.0
  0
VERTEX
  8
0
 10
-1.82990098239
 20
6.34603660124
 30
0.0
  0
VERTEX
  8
0
 10
-1.87676765231
 20
6.32861496723
 30
0.0
  0
VERTEX
  8
0
 10
-1.92358132823
 20
6.31105142994
 30
0.0
  0
VERTEX
  8
0
 10
-1.97034178445
 20
6.29334668924
 30
0.0
  0
VERTEX
  8
0
 10
-2.0082178114
 20
6.27888778761
 30
0.0
  0
SEQEND
  8
0
  0
POLYLINE
  8
0
 62
0
 70
0
 66
1
 10
0.0
 20
0.0
 30
0.0
  0
VERTEX
  8
0
 10
3.21089832721
 20
7.14369884291
 30
0.0
  0
VERTEX
  8
0
 10
3.16149975445
 20
7.15142582281
 30
0.0
  0
VERTEX
  8
0
 10
3.11197488873
 20
7.15829864464
 30
0.0
  0
VERTEX
  8
0
 10
3.06235403979
 20
7.16444126836
 30
0.0
  0
VERTEX
  8
0
 10
3.0126572548
 20
7.16993651384
 30
0.0
  0
VERTEX
  8
0
 10
2.96289894972
 20
7.17484410163
 30
0.0
  0
VERTEX
  8
0
 10
2.91309012127
 20
7.17920961147
 30
0.0
  0
VERTEX
  8
0
 10
2.86323951584
 20
7.18306927593
 30
0.0
  0
VERTEX
  8
0
 10
2.81335430814
 20
7.18645278134
 30
0.0
  0
VERTEX
  8
0
 10
2.76344052481
 20
7.18938502289
 30
0.0
  0
VERTEX
  8
0
 10
2.71350332406
 20
7.19188726609
 30
0.0
  0
VERTEX
  8
0
 10
2.66354718852
 20
7.19397794946
 30
0.0
  0
VERTEX
  8
0
 10
2.61357606314
 20
7.1956732593
 30
0.0
  0
VERTEX
  8
0
 10
2.56359345671
 20
7.19698755328
 30
0.0
  0
VERTEX
  8
0
 10
2.51360251844
 20
7.19793368054
 30
0.0
  0
VERTEX
  8
0
 10
2.463606097
 20
7.19852322845
 30
0.0
  0
VERTEX
  8
0
 10
2.41360678683
 20
7.19876671651
 30
0.0
  0
VERTEX
  8
0
 10
2.36360696506
 20
7.19867375095
 30
0.0
  0
VERTEX
  8
0
 10
2.31360882134
 20
7.1982531498
 30
0.0
  0
VERTEX
  8
0
 10
2.26361438224
 20
7.19751304518
 30
0.0
  0
VERTEX
  8
0
 10
2.21362553143
 20
7.19646096809
 30
0.0
  0
VERTEX
  8
0
 10
2.16364402654
 20
7.19510391912
 30
0.0
  0
VERTEX
  8
0
 10
2.11367151336
 20
7.19344842815
 30
0.0
  0
VERTEX
  8
0
 10
2.06370953786
 20
7.19150060501
 30
0.0
  0
VERTEX
  8
0
 10
2.01375955658
 20
7.18926618292
 30
0.0
  0
VERTEX
  8
0
 10
1.96382294541
 20
7.1867505558
 30
0.0
  0
VERTEX
  8
0
 10
1.91390100735
 20
7.18395881073
 30
0.0
  0
VERTEX
  8
0
 10
1.86399497922
 20
7.18089575617
 30
0.0
  0
VERTEX
  8
0
 10
1.81410603745
 20
7.17756594671
 30
0.0
  0
VERTEX
  8
0
 10
1.76423530334
 20
7.17397370483
 30
0.0
  0
VERTEX
  8
0
 10
1.71438384755
 20
7.17012314022
 30
0.0
  0
VERTEX
  8
0
 10
1.6645526942
 20
7.16601816685
 30
0.0
  0
VERTEX
  8
0
 10
1.61474282445
 20
7.16166251827
 30
0.0
  0
VERTEX
  8
0
 10
1.56495517973
 20
7.15705976118
 30
0.0
  0
VERTEX
  8
0
 10
1.51519066465
 20
7.15221330777
 30
0.0
  0
VERTEX
  8
0
 10
1.46545014959
 20
7.14712642672
 30
0.0
  0
VERTEX
  8
0
 10
1.41573447308
 20
7.14180225316
 30
0.0
  0
VERTEX
  8
0
 10
1.36604444391
 20
7.13624379772
 30
0.0
  0
VERTEX
  8
0
 10
1.31638084304
 20
7.13045395475
 30
0.0
  0
VERTEX
  8
0
 10
1.26674442542
 20
7.12443550978
 30
0.0
  0
VERTEX
  8
0
 10
1.21713592157
 20
7.11819114634
 30
0.0
  0
VERTEX
  8
0
 10
1.16755603903
 20
7.11172345221
 30
0.0
  0
VERTEX
  8
0
 10
1.11800546371
 20
7.10503492517
 30
0.0
  0
VERTEX
  8
0
 10
1.06848486119
 20
7.09812797823
 30
0.0
  0
VERTEX
  8
0
 10
1.01899487775
 20
7.09100494451
 30
0.0
  0
VERTEX
  8
0
 10
0.969536141513
 20
7.08366808168
 30
0.0
  0
VERTEX
  8
0
 10
0.920109263375
 20
7.07611957611
 30
0.0
  0
VERTEX
  8
0
 10
0.870714837897
 20
7.06836154671
 30
0.0
  0
VERTEX
  8
0
 10
0.82135344415
 20
7.06039604844
 30
0.0
  0
VERTEX
  8
0
 10
0.772025646479
 20
7.05222507564
 30
0.0
  0
VERTEX
  8
0
 10
0.722731995221
 20
7.0438505651
 30
0.0
  0
VERTEX
  8
0
 10
0.673473027373
 20
7.03527439888
 30
0.0
  0
VERTEX
  8
0
 10
0.624249267216
 20
7.026498407
 30
0.0
  0
VERTEX
  8
0
 10
0.57506122689
 20
7.01752436993
 30
0.0
  0
VERTEX
  8
0
 10
0.525909406941
 20
7.00835402091
 30
0.0
  0
VERTEX
  8
0
 10
0.47679429683
 20
6.99898904812
 30
0.0
  0
VERTEX
  8
0
 10
0.427716375404
 20
6.98943109675
 30
0.0
  0
VERTEX
  8
0
 10
0.378676111343
 20
6.97968177091
 30
0.0
  0
VERTEX
  8
0
 10
0.329673963585
 20
6.96974263541
 30
0.0
  0
VERTEX
  8
0
 10
0.28071038171
 20
6.95961521747
 30
0.0
  0
VERTEX
  8
0
 10
0.231785806319
 20
6.94930100835
 30
0.0
  0
VERTEX
  8
0
 10
0.182900669377
 20
6.9388014648
 30
0.0
  0
VERTEX
  8
0
 10
0.134055394545
 20
6.9281180105
 30
0.0
  0
VERTEX
  8
0
 10
0.0852503974905
 20
6.91725203744
 30
0.0
  0
VERTEX
  8
0
 10
0.0364860861774
 20
6.90620490712
 30
0.0
  0
VERTEX
  8
0
 10
-0.0122371388533
 20
6.89497795181
 30
0.0
  0
VERTEX
  8
0
 10
-0.0609188842234
 20
6.88357247566
 30
0.0
  0
VERTEX
  8
0
 10
-0.109558763469
 20
6.87198975576
 30
0.0
  0
VERTEX
  8
0
 10
-0.158156396805
 20
6.8602310432
 30
0.0
  0
VERTEX
  8
0
 10
-0.206711410904
 20
6.84829756401
 30
0.0
  0
VERTEX
  8
0
 10
-0.25522343868
 20
6.8361905201
 30
0.0
  0
VERTEX
  8
0
 10
-0.303692119095
 20
6.82391109009
 30
0.0
  0
VERTEX
  8
0
 10
-0.352117096961
 20
6.81146043022
 30
0.0
  0
VERTEX
  8
0
 10
-0.400498022763
 20
6.79883967508
 30
0.0
  0
VERTEX
  8
0
 10
-0.448834552484
 20
6.78604993837
 30
0.0
  0
VERTEX
  8
0
 10
-0.49712634744
 20
6.77309231367
 30
0.0
  0
VERTEX
  8
0
 10
-0.545373074128
 20
6.75996787504
 30
0.0
  0
VERTEX
  8
0
 10
-0.593574404069
 20
6.74667767776
 30
0.0
  0
VERTEX
  8
0
 10
-0.641730013672
 20
6.73322275891
 30
0.0
  0
VERTEX
  8
0
 10
-0.689839584096
 20
6.71960413797
 30
0.0
  0
VERTEX
  8
0
 10
-0.737902801119
 20
6.7058228174
 30
0.0
  0
VERTEX
  8
0
 10
-0.785919355015
 20
6.69187978318
 30
0.0
  0
VERTEX
  8
0
 10
-0.833888940435
 20
6.67777600535
 30
0.0
  0
VERTEX
  8
0
 10
-0.881811256293
 20
6.66351243846
 30
0.0
  0
VERTEX
  8
0
 10
-0.929686005661
 20
6.64909002213
 30
0.0
  0
VERTEX
  8
0
 10
-0.977512895658
 20
6.63450968144
 30
0.0
  0
VERTEX
  8
0
 10
-1.02529163736
 20
6.61977232738
 30
0.0
  0
VERTEX
  8
0
 10
-1.07302194569
 20
6.60487885732
 30
0.0
  0
VERTEX
  8
0
 10
-1.12070353935
 20
6.58983015536
 30
0.0
  0
VERTEX
  8
0
 10
-1.1683361407
 20
6.57462709274
 30
0.0
  0
VERTEX
  8
0
 10
-1.21591947571
 20
6.55927052825
 30
0.0
  0
VERTEX
  8
0
 10
-1.26345327385
 20
6.54376130851
 30
0.0
  0
VERTEX
  8
0
 10
-1.31093726804
 20
6.52810026839
 30
0.0
  0
VERTEX
  8
0
 10
-1.35837119455
 20
6.5122882313
 30
0.0
  0
VERTEX
  8
0
 10
-1.40575479292
 20
6.49632600954
 30
0.0
  0
VERTEX
  8
0
 10
-1.45308780594
 20
6.48021440457
 30
0.0
  0
VERTEX
  8
0
 10
-1.50036997953
 20
6.46395420735
 30
0.0
  0
VERTEX
  8
0
 10
-1.54760106271
 20
6.44754619859
 30
0.0
  0
VERTEX
  8
0
 10
-1.59478080754
 20
6.43099114905
 30
0.0
  0
VERTEX
  8
0
 10
-1.64190896901
 20
6.41428981977
 30
0.0
  0
VERTEX
  8
0
 10
-1.68898530505
 20
6.39744296238
 30
0.0
  0
VERTEX
  8
0
 10
-1.73600957645
 20
6.38045131931
 30
0.0
  0
VERTEX
  8
0
 10
-1.78298154679
 20
6.36331562401
 30
0.0
  0
VERTEX
  8
0
 10
-1.82990098239
 20
6.34603660124
 30
0.0
  0
VERTEX
  8
0
 10
-1.87676765231
 20
6.32861496723
 30
0.0
  0
VERTEX
  8
0
 10
-1.92358132823
 20
6.31105142994
 30
0.0
  0
VERTEX
  8
0
 10
-1.97034178445
 20
6.29334668924
 30
0.0
  0
VERTEX
  8
0
 10
-2.0082178114
 20
6.27888778761
 30
0.0
  0
SEQEND
  8
0
  0
POLYLINE
  8
0
 62
0
 70
0
 66
1
 10
0.0
 20
0.0
 30
0.0
  0
VERTEX
  8
0
 10
-2.32584918166
 20
4.17154133918
 30
0.0
  0
VERTEX
  8
0
 10
-2.28645971507
 20
4.14074413083
 30
0.0
  0
VERTEX
  8
0
 10
-2.24697776523
 20
4.11006557571
 30
0.0
  0
VERTEX
  8
0
 10
-2.20740334143
 20
4.0795064024
 30
0.0
  0
VERTEX
  8
0
 10
-2.16773645307
 20
4.0490673478
 30
0.0
  0
VERTEX
  8
0
 10
-2.12797710965
 20
4.01874915732
 30
0.0
  0
VERTEX
  8
0
 10
-2.08812532079
 20
3.98855258513
 30
0.0
  0
VERTEX
  8
0
 10
-2.04818109615
 20
3.95847839437
 30
0.0
  0
VERTEX
  8
0
 10
-2.00814444546
 20
3.92852735736
 30
0.0
  0
VERTEX
  8
0
 10
-1.96801537848
 20
3.89870025586
 30
0.0
  0
VERTEX
  8
0
 10
-1.92779390501
 20
3.86899788129
 30
0.0
  0
VERTEX
  8
0
 10
-1.8874800348
 20
3.839421035
 30
0.0
  0
VERTEX
  8
0
 10
-1.84707377762
 20
3.80997052855
 30
0.0
  0
VERTEX
  8
0
 10
-1.80657514315
 20
3.78064718394
 30
0.0
  0
VERTEX
  8
0
 10
-1.76598414105
 20
3.75145183392
 30
0.0
  0
VERTEX
  8
0
 10
-1.72530078083
 20
3.72238532228
 30
0.0
  0
VERTEX
  8
0
 10
-1.68452507193
 20
3.69344850418
 30
0.0
  0
VERTEX
  8
0
 10
-1.64365702363
 20
3.6646422464
 30
0.0
  0
VERTEX
  8
0
 10
-1.60269664503
 20
3.63596742774
 30
0.0
  0
VERTEX
  8
0
 10
-1.56164394505
 20
3.60742493933
 30
0.0
  0
VERTEX
  8
0
 10
-1.52049893238
 20
3.57901568497
 30
0.0
  0
VERTEX
  8
0
 10
-1.47926161546
 20
3.55074058155
 30
0.0
  0
VERTEX
  8
0
 10
-1.43793200245
 20
3.52260055938
 30
0.0
  0
VERTEX
  8
0
 10
-1.3965101012
 20
3.49459656263
 30
0.0
  0
VERTEX
  8
0
 10
-1.3549959192
 20
3.46672954972
 30
0.0
  0
VERTEX
  8
0
 10
-1.31338946357
 20
3.43900049378
 30
0.0
  0
VERTEX
  8
0
 10
-1.27169074103
 20
3.41141038308
 30
0.0
  0
VERTEX
  8
0
 10
-1.22989975782
 20
3.38396022153
 30
0.0
  0
VERTEX
  8
0
 10
-1.18801651971
 20
3.35665102916
 30
0.0
  0
VERTEX
  8
0
 10
-1.14604103194
 20
3.32948384261
 30
0.0
  0
VERTEX
  8
0
 10
-1.10397329919
 20
3.30245971574
 30
0.0
  0
VERTEX
  8
0
 10
-1.0618133255
 20
3.27557972009
 30
0.0
  0
VERTEX
  8
0
 10
-1.01956111429
 20
3.24884494558
 30
0.0
  0
VERTEX
  8
0
 10
-0.977216668263
 20
3.22225650103
 30
0.0
  0
VERTEX
  8
0
 10
-0.934779989359
 20
3.19581551488
 30
0.0
  0
VERTEX
  8
0
 10
-0.892251078731
 20
3.16952313581
 30
0.0
  0
VERTEX
  8
0
 10
-0.849629936673
 20
3.14338053348
 30
0.0
  0
VERTEX
  8
0
 10
-0.806916562571
 20
3.11738889926
 30
0.0
  0
VERTEX
  8
0
 10
-0.764110954842
 20
3.09154944701
 30
0.0
  0
VERTEX
  8
0
 10
-0.721213110875
 20
3.06586341391
 30
0.0
  0
VERTEX
  8
0
 10
-0.678223026967
 20
3.0403320613
 30
0.0
  0
VERTEX
  8
0
 10
-0.635140698258
 20
3.01495667559
 30
0.0
  0
VERTEX
  8
0
 10
-0.59196611866
 20
2.98973856923
 30
0.0
  0
VERTEX
  8
0
 10
-0.548699280781
 20
2.96467908169
 30
0.0
  0
VERTEX
  8
0
 10
-0.505340175854
 20
2.93977958051
 30
0.0
  0
VERTEX
  8
0
 10
-0.46188879365
 20
2.91504146245
 30
0.0
  0
VERTEX
  8
0
 10
-0.418345122397
 20
2.89046615461
 30
0.0
  0
VERTEX
  8
0
 10
-0.374709148687
 20
2.86605511573
 30
0.0
  0
VERTEX
  8
0
 10
-0.330980857384
 20
2.84180983745
 30
0.0
  0
VERTEX
  8
0
 10
-0.287160231523
 20
2.81773184574
 30
0.0
  0
VERTEX
  8
0
 10
-0.243247252202
 20
2.79382270234
 30
0.0
  0
VERTEX
  8
0
 10
-0.199241898476
 20
2.77008400633
 30
0.0
  0
VERTEX
  8
0
 10
-0.155144147235
 20
2.7465173958
 30
0.0
  0
VERTEX
  8
0
 10
-0.110953973077
 20
2.72312454956
 30
0.0
  0
VERTEX
  8
0
 10
-0.0666713481802
 20
2.69990718908
 30
0.0
  0
VERTEX
  8
0
 10
-0.0222962421607
 20
2.6768670804
 30
0.0
  0
VERTEX
  8
0
 10
0.0221713780793
 20
2.6540060363
 30
0.0
  0
VERTEX
  8
0
 10
0.0667315485089
 20
2.63132591856
 30
0.0
  0
VERTEX
  8
0
 10
0.111384308138
 20
2.60882864035
 30
0.0
  0
VERTEX
  8
0
 10
0.156129699201
 20
2.58651616881
 30
0.0
  0
VERTEX
  8
0
 10
0.200967767345
 20
2.56439052785
 30
0.0
  0
VERTEX
  8
0
 10
0.245898561842
 20
2.54245380108
 30
0.0
  0
VERTEX
  8
0
 10
0.290922135807
 20
2.52070813501
 30
0.0
  0
VERTEX
  8
0
 10
0.336038546438
 20
2.49915574248
 30
0.0
  0
VERTEX
  8
0
 10
0.381247855269
 20
2.47779890633
 30
0.0
  0
VERTEX
  8
0
 10
0.426550128447
 20
2.45663998338
 30
0.0
  0
VERTEX
  8
0
 10
0.471945437028
 20
2.43568140875
 30
0.0
  0
VERTEX
  8
0
 10
0.517433857295
 20
2.4149257005
 30
0.0
  0
VERTEX
  8
0
 10
0.563015471108
 20
2.39437546464
 30
0.0
  0
VERTEX
  8
0
 10
0.608690366276
 20
2.37403340068
 30
0.0
  0
VERTEX
  8
0
 10
0.654458636965
 20
2.35390230753
 30
0.0
  0
VERTEX
  8
0
 10
0.700320384144
 20
2.33398509007
 30
0.0
  0
VERTEX
  8
0
 10
0.746275716069
 20
2.3142847662
 30
0.0
  0
VERTEX
  8
0
 10
0.79232474881
 20
2.29480447469
 30
0.0
  0
VERTEX
  8
0
 10
0.838467606833
 20
2.27554748373
 30
0.0
  0
VERTEX
  8
0
 10
0.884704423641
 20
2.25651720035
 30
0.0
  0
VERTEX
  8
0
 10
0.931035342469
 20
2.23771718087
 30
0.0
  0
VERTEX
  8
0
 10
0.977460517073
 20
2.21915114241
 30
0.0
  0
VERTEX
  8
0
 10
1.02398011258
 20
2.20082297571
 30
0.0
  0
VERTEX
  8
0
 10
1.07059430645
 20
2.18273675945
 30
0.0
  0
VERTEX
  8
0
 10
1.11730328957
 20
2.16489677619
 30
0.0
  0
VERTEX
  8
0
 10
1.16410726739
 20
2.14730753034
 30
0.0
  0
VERTEX
  8
0
 10
1.21100646134
 20
2.12997376835
 30
0.0
  0
VERTEX
  8
0
 10
1.25800111033
 20
2.11290050162
 30
0.0
  0
VERTEX
  8
0
 10
1.30509147246
 20
2.09609303247
 30
0.0
  0
VERTEX
  8
0
 10
1.352277827
 20
2.07955698388
 30
0.0
  0
VERTEX
  8
0
 10
1.39956047667
 20
2.06329833362
 30
0.0
  0
VERTEX
  8
0
 10
1.4469397502
 20
2.04732345365
 30
0.0
  0
VERTEX
  8
0
 10
1.4944160054
 20
2.03163915591
 30
0.0
  0
VERTEX
  8
0
 10
1.54198963264
 20
2.01625274595
 30
0.0
  0
VERTEX
  8
0
 10
1.58966105904
 20
2.00117208608
 30
0.0
  0
VERTEX
  8
0
 10
1.63743075335
 20
1.98640567039
 30
0.0
  0
VERTEX
  8
0
 10
1.68529923185
 20
1.97196271481
 30
0.0
  0
VERTEX
  8
0
 10
1.73326706544
 20
1.957853266
 30
0.0
  0
VERTEX
  8
0
 10
1.78133488836
 20
1.9440883348
 30
0.0
  0
VERTEX
  8
0
 10
1.82950340889
 20
1.93068006162
 30
0.0
  0
VERTEX
  8
0
 10
1.87777342281
 20
1.91764192431
 30
0.0
  0
VERTEX
  8
0
 10
1.92614583053
 20
1.90498900388
 30
0.0
  0
VERTEX
  8
0
 10
1.97462165937
 20
1.89273833013
 30
0.0
  0
VERTEX
  8
0
 10
2.02320209296
 20
1.88090934134
 30
0.0
  0
VERTEX
  8
0
 10
2.07188851119
 20
1.86952451107
 30
0.0
  0
VERTEX
  8
0
 10
2.12068254613
 20
1.85861022917
 30
0.0
  0
VERTEX
  8
0
 10
2.16958616282
 20
1.84819808624
 30
0.0
  0
VERTEX
  8
0
 10
2.21860178137
 20
1.83832683327
 30
0.0
  0
VERTEX
  8
0
 10
2.26773247115
 20
1.82904554747
 30
0.0
  0
VERTEX
  8
0
 10
2.31698227948
 20
1.82041913634
 30
0.0
  0
VERTEX
  8
0
 10
2.36635682137
 20
1.81253882197
 30
0.0
  0
VERTEX
  8
0
 10
2.4064887372
 20
1.80678992489
 30
0.0
  0
SEQEND
  8
0
  0
POLYLINE
  8
0
 62
0
 70
0
 66
1
 10
0.0
 20
0.0
 30
0.0
  0
VERTEX
  8
0
 10
-2.32584918166
 20
4.17154133918
 30
0.0
  0
VERTEX
  8
0
 10
-2.28645971507
 20
4.14074413083
 30
0.0
  0
VERTEX
  8
0
 10
-2.24697776523
 20
4.11006557571
 30
0.0
  0
VERTEX
  8
0
 10
-2.20740334143
 20
4.0795064024
 30
0.0
  0
VERTEX
  8
0
 10
-2.16773645307
 20
4.0490673478
 30
0.0
  0
VERTEX
  8
0
 10
-2.12797710965
 20
4.01874915732
 30
0.0
  0
VERTEX
  8
0
 10
-2.08812532079
 20
3.98855258513
 30
0.0
  0
VERTEX
  8
0
 10
-2.04818109615
 20
3.95847839437
 30
0.0
  0
VERTEX
  8
0
 10
-2.00814444546
 20
3.92852735736
 30
0.0
  0
VERTEX
  8
0
 10
-1.96801537848
 20
3.89870025586
 30
0.0
  0
VERTEX
  8
0
 10
-1.92779390501
 20
3.86899788129
 30
0.0
  0
VERTEX
  8
0
 10
-1.8874800348
 20
3.839421035
 30
0.0
  0
VERTEX
  8
0
 10
-1.84707377762
 20
3.80997052855
 30
0.0
  0
VERTEX
  8
0
 10
-1.80657514315
 20
3.78064718394
 30
0.0
  0
VERTEX
  8
0
 10
-1.76598414105
 20
3.75145183392
 30
0.0
  0
VERTEX
  8
0
 10
-1.72530078083
 20
3.72238532228
 30
0.0
  0
VERTEX
  8
0
 10
-1.68452507193
 20
3.69344850418
 30
0.0
  0
VERTEX
  8
0
 10
-1.64365702363
 20
3.6646422464
 30
0.0
  0
VERTEX
  8
0
 10
-1.60269664503
 20
3.63596742774
 30
0.0
  0
VERTEX
  8
0
 10
-1.56164394505
 20
3.60742493933
 30
0.0
  0
VERTEX
  8
0
 10
-1.52049893238
 20
3.57901568497
 30
0.0
  0
VERTEX
  8
0
 10
-1.47926161546
 20
3.55074058155
 30
0.0
  0
VERTEX
  8
0
 10
-1.43793200245
 20
3.52260055938
 30
0.0
  0
VERTEX
  8
0
 10
-1.3965101012
 20
3.49459656263
 30
0.0
  0
VERTEX
  8
0
 10
-1.3549959192
 20
3.46672954972
 30
0.0
  0
VERTEX
  8
0
 10
-1.31338946357
 20
3.43900049378
 30
0.0
  0
VERTEX
  8
0
 10
-1.27169074103
 20
3.41141038308
 30
0.0
  0
VERTEX
  8
0
 10
-1.22989975782
 20
3.38396022153
 30
0.0
  0
VERTEX
  8
0
 10
-1.18801651971
 20
3.35665102916
 30
0.0
  0
VERTEX
  8
0
 10
-1.14604103194
 20
3.32948384261
 30
0.0
  0
VERTEX
  8
0
 10
-1.10397329919
 20
3.30245971574
 30
0.0
  0
VERTEX
  8
0
 10
-1.0618133255
 20
3.27557972009
 30
0.0
  0
VERTEX
  8
0
 10
-1.01956111429
 20
3.24884494558
 30
0.0
  0
VERTEX
  8
0
 10
-0.977216668263
 20
3.22225650103
 30
0.0
  0
VERTEX
  8
0
 10
-0.934779989359
 20
3.19581551488
 30
0.0
  0
VERTEX
  8
0
 10
-0.892251078731
 20
3.16952313581
 30
0.0
  0
VERTEX
  8
0
 10
-0.849629936673
 20
3.14338053348
 30
0.0
  0
VERTEX
  8
0
 10
-0.806916562571
 20
3.11738889926
 30
0.0
  0
VERTEX
  8
0
 10
-0.764110954842
 20
3.09154944701
 30
0.0
  0
VERTEX
  8
0
 10
-0.721213110875
 20
3.06586341391
 30
0.0
  0
VERTEX
  8
0
 10
-0.678223026967
 20
3.0403320613
 30
0.0
  0
VERTEX
  8
0
 10
-0.635140698258
 20
3.01495667559
 30
0.0
  0
VERTEX
  8
0
 10
-0.59196611866
 20
2.98973856923
 30
0.0
  0
VERTEX
  8
0
 10
-0.548699280781
 20
2.96467908169
 30
0.0
  0
VERTEX
  8
0
 10
-0.505340175854
 20
2.93977958051
 30
0.0
  0
VERTEX
  8
0
 10
-0.46188879365
 20
2.91504146245
 30
0.0
  0
VERTEX
  8
0
 10
-0.418345122397
 20
2.89046615461
 30
0.0
  0
VERTEX
  8
0
 10
-0.374709148687
 20
2.86605511573
 30
0.0
  0
VERTEX
  8
0
 10
-0.330980857384
 20
2.84180983745
 30
0.0
  0
VERTEX
  8
0
 10
-0.287160231523
 20
2.81773184574
 30
0.0
  0
VERTEX
  8
0
 10
-0.243247252202
 20
2.79382270234
 30
0.0
  0
VERTEX
  8
0
 10
-0.199241898476
 20
2.77008400633
 30
0.0
  0
VERTEX
  8
0
 10
-0.155144147235
 20
2.7465173958
 30
0.0
  0
VERTEX
  8
0
 10
-0.110953973077
 20
2.72312454956
 30
0.0
  0
VERTEX
  8
0
 10
-0.0666713481802
 20
2.69990718908
 30
0.0
  0
VERTEX
  8
0
 10
-0.0222962421607
 20
2.6768670804
 30
0.0
  0
VERTEX
  8
0
 10
0.0221713780793
 20
2.6540060363
 30
0.0
  0
VERTEX
  8
0
 10
0.0667315485089
 20
2.63132591856
 30
0.0
  0
VERTEX
  8
0
 10
0.111384308138
 20
2.60882864035
 30
0.0
  0
VERTEX
  8
0
 10
0.156129699201
 20
2.58651616881
 30
0.0
  0
VERTEX
  8
0
 10
0.200967767345
 20
2.56439052785
 30
0.0
  0
VERTEX
  8
0
 10
0.245898561842
 20
2.54245380108
 30
0.0
  0
VERTEX
  8
0
 10
0.290922135807
 20
2.52070813501
 30
0.0
  0
VERTEX
  8
0
 10
0.336038546438
 20
2.49915574248
 30
0.0
  0
VERTEX
  8
0
 10
0.381247855269
 20
2.47779890633
 30
0.0
  0
VERTEX
  8
0
 10
0.426550128447
 20
2.45663998338
 30
0.0
  0
VERTEX
  8
0
 10
0.471945437028
 20
2.43568140875
 30
0.0
  0
VERTEX
  8
0
 10
0.517433857295
 20
2.4149257005
 30
0.0
  0
VERTEX
  8
0
 10
0.563015471108
 20
2.39437546464
 30
0.0
  0
VERTEX
  8
0
 10
0.608690366276
 20
2.37403340068
 30
0.0
  0
VERTEX
  8
0
 10
0.654458636965
 20
2.35390230753
 30
0.0
  0
VERTEX
  8
0
 10
0.700320384144
 20
2.33398509007
 30
0.0
  0
VERTEX
  8
0
 10
0.746275716069
 20
2.3142847662
 30
0.0
  0
VERTEX
  8
0
 10
0.79232474881
 20
2.29480447469
 30
0.0
  0
VERTEX
  8
0
 10
0.838467606833
 20
2.27554748373
 30
0.0
  0
VERTEX
  8
0
 10
0.884704423641
 20
2.25651720035
 30
0.0
  0
VERTEX
  8
0
 10
0.931035342469
 20
2.23771718087
 30
0.0
  0
VERTEX
  8
0
 10
0.977460517073
 20
2.21915114241
 30
0.0
  0
VERTEX
  8
0
 10
1.02398011258
 20
2.20082297571
 30
0.0
  0
VERTEX
  8
0
 10
1.07059430645
 20
2.18273675945
 30
0.0
  0
VERTEX
  8
0
 10
1.11730328957
 20
2.16489677619
 30
0.0
  0
VERTEX
  8
0
 10
1.16410726739
 20
2.14730753034
 30
0.0
  0
VERTEX
  8
0
 10
1.21100646134
 20
2.12997376835
 30
0.0
  0
VERTEX
  8
0
 10
1.25800111033
 20
2.11290050162
 30
0.0
  0
VERTEX
  8
0
 10
1.30509147246
 20
2.09609303247
 30
0.0
  0
VERTEX
  8
0
 10
1.352277827
 20
2.07955698388
 30
0.0
  0
VERTEX
  8
0
 10
1.39956047667
 20
2.06329833362
 30
0.0
  0
VERTEX
  8
0
 10
1.4469397502
 20
2.04732345365
 30
0.0
  0
VERTEX
  8
0
 10
1.4944160054
 20
2.03163915591
 30
0.0
  0
VERTEX
  8
0
 10
1.54198963264
 20
2.01625274595
 30
0.0
  0
VERTEX
  8
0
 10
1.58966105904
 20
2.00117208608
 30
0.0
  0
VERTEX
  8
0
 10
1.63743075335
 20
1.98640567039
 30
0.0
  0
VERTEX
  8
0
 10
1.68529923185
 20
1.97196271481
 30
0.0
  0
VERTEX
  8
0
 10
1.73326706544
 20
1.957853266
 30
0.0
  0
VERTEX
  8
0
 10
1.78133488836
 20
1.9440883348
 30
0.0
  0
VERTEX
  8
0
 10
1.82950340889
 20
1.93068006162
 30
0.0
  0
VERTEX
  8
0
 10
1.87777342281
 20
1.91764192431
 30
0.0
  0
VERTEX
  8
0
 10
1.92614583053
 20
1.90498900388
 30
0.0
  0
VERTEX
  8
0
 10
1.97462165937
 20
1.89273833013
 30
0.0
  0
VERTEX
  8
0
 10
2.02320209296
 20
1.88090934134
 30
0.0
  0
VERTEX
  8
0
 10
2.07188851119
 20
1.86952451107
 30
0.0
  0
VERTEX
  8
0
 10
2.12068254613
 20
1.85861022917
 30
0.0
  0
VERTEX
  8
0
 10
2.16958616282
 20
1.84819808624
 30
0.0
  0
VERTEX
  8
0
 10
2.21860178137
 20
1.83832683327
 30
0.0
  0
VERTEX
  8
0
 10
2.26773247115
 20
1.82904554747
 30
0.0
  0
VERTEX
  8
0
 10
2.31698227948
 20
1.82041913634
 30
0.0
  0
VERTEX
  8
0
 10
2.36635682137
 20
1.81253882197
 30
0.0
  0
VERTEX
  8
0
 10
2.4064887372
 20
1.80678992489
 30
0.0
  0
SEQEND
  8
0
  0
POLYLINE
  8
0
 62
0
 70
0
 66
1
 10
0.0
 20
0.0
 30
0.0
  0
VERTEX
  8
0
 10
2.4064887372
 20
-1.80678992489
 30
0.0
  0
VERTEX
  8
0
 10
2.35700723711
 20
-1.81396671795
 30
0.0
  0
VERTEX
  8
0
 10
2.30765682243
 20
-1.82199694675
 30
0.0
  0
VERTEX
  8
0
 10
2.25842991845
 20
-1.83075322455
 30
0.0
  0
VERTEX
  8
0
 10
2.20932127014
 20
-1.84015050194
 30
0.0
  0
VERTEX
  8
0
 10
2.16032705004
 20
-1.8501274624
 30
0.0
  0
VERTEX
  8
0
 10
2.11144433147
 20
-1.86063730982
 30
0.0
  0
VERTEX
  8
0
 10
2.06267079251
 20
-1.87164284333
 30
0.0
  0
VERTEX
  8
0
 10
2.01400453889
 20
-1.88311358067
 30
0.0
  0
VERTEX
  8
0
 10
1.96544399154
 20
-1.89502395629
 30
0.0
  0
VERTEX
  8
0
 10
1.91698781137
 20
-1.90735212905
 30
0.0
  0
VERTEX
  8
0
 10
1.86863484702
 20
-1.92007915832
 30
0.0
  0
VERTEX
  8
0
 10
1.82038409719
 20
-1.93318841412
 30
0.0
  0
VERTEX
  8
0
 10
1.77223468277
 20
-1.9466651424
 30
0.0
  0
VERTEX
  8
0
 10
1.72418582572
 20
-1.96049613666
 30
0.0
  0
VERTEX
  8
0
 10
1.67623683271
 20
-1.97466948463
 30
0.0
  0
VERTEX
  8
0
 10
1.62838708224
 20
-1.98917436945
 30
0.0
  0
VERTEX
  8
0
 10
1.58063601434
 20
-2.00400091099
 30
0.0
  0
VERTEX
  8
0
 10
1.53298312223
 20
-2.01914003759
 30
0.0
  0
VERTEX
  8
0
 10
1.48542794545
 20
-2.03458338105
 30
0.0
  0
VERTEX
  8
0
 10
1.43797006419
 20
-2.05032318975
 30
0.0
  0
VERTEX
  8
0
 10
1.39060909453
 20
-2.06635225603
 30
0.0
  0
VERTEX
  8
0
 10
1.34334468442
 20
-2.08266385503
 30
0.0
  0
VERTEX
  8
0
 10
1.29617651027
 20
-2.09925169265
 30
0.0
  0
VERTEX
  8
0
 10
1.24910427398
 20
-2.11610986108
 30
0.0
  0
VERTEX
  8
0
 10
1.20212770044
 20
-2.13323280048
 30
0.0
  0
VERTEX
  8
0
 10
1.15524653533
 20
-2.1506152657
 30
0.0
  0
VERTEX
  8
0
 10
1.10846054317
 20
-2.16825229737
 30
0.0
  0
VERTEX
  8
0
 10
1.06176950568
 20
-2.18613919648
 30
0.0
  0
VERTEX
  8
0
 10
1.01517322024
 20
-2.20427150206
 30
0.0
  0
VERTEX
  8
0
 10
0.968671498609
 20
-2.22264497143
 30
0.0
  0
VERTEX
  8
0
 10
0.922264165726
 20
-2.24125556264
 30
0.0
  0
VERTEX
  8
0
 10
0.875951058689
 20
-2.26009941883
 30
0.0
  0
VERTEX
  8
0
 10
0.829732025797
 20
-2.27917285424
 30
0.0
  0
VERTEX
  8
0
 10
0.783606925711
 20
-2.29847234164
 30
0.0
  0
VERTEX
  8
0
 10
0.737575626691
 20
-2.31799450103
 30
0.0
  0
VERTEX
  8
0
 10
0.691638005906
 20
-2.3377360894
 30
0.0
  0
VERTEX
  8
0
 10
0.645793948806
 20
-2.35769399147
 30
0.0
  0
VERTEX
  8
0
 10
0.600043348553
 20
-2.3778652113
 30
0.0
  0
VERTEX
  8
0
 10
0.554386105502
 20
-2.39824686458
 30
0.0
  0
VERTEX
  8
0
 10
0.508822126721
 20
-2.41883617168
 30
0.0
  0
VERTEX
  8
0
 10
0.463351325557
 20
-2.43963045124
 30
0.0
  0
VERTEX
  8
0
 10
0.417973621233
 20
-2.46062711425
 30
0.0
  0
VERTEX
  8
0
 10
0.372688938479
 20
-2.48182365875
 30
0.0
  0
VERTEX
  8
0
 10
0.327497207193
 20
-2.50321766477
 30
0.0
  0
VERTEX
  8
0
 10
0.282398362123
 20
-2.5248067898
 30
0.0
  0
VERTEX
  8
0
 10
0.237392342574
 20
-2.54658876453
 30
0.0
  0
VERTEX
  8
0
 10
0.192479092141
 20
-2.56856138895
 30
0.0
  0
VERTEX
  8
0
 10
0.147658558452
 20
-2.5907225287
 30
0.0
  0
VERTEX
  8
0
 10
0.102930692939
 20
-2.61307011171
 30
0.0
  0
VERTEX
  8
0
 10
0.0582954506135
 20
-2.63560212502
 30
0.0
  0
VERTEX
  8
0
 10
0.0137527898677
 20
-2.65831661189
 30
0.0
  0
VERTEX
  8
0
 10
-0.0306973277203
 20
-2.68121166909
 30
0.0
  0
VERTEX
  8
0
 10
-0.0750549375638
 20
-2.70428544428
 30
0.0
  0
VERTEX
  8
0
 10
-0.119320072235
 20
-2.72753613369
 30
0.0
  0
VERTEX
  8
0
 10
-0.163492761623
 20
-2.75096197986
 30
0.0
  0
VERTEX
  8
0
 10
-0.207573033081
 20
-2.77456126955
 30
0.0
  0
VERTEX
  8
0
 10
-0.251560911566
 20
-2.79833233179
 30
0.0
  0
VERTEX
  8
0
 10
-0.295456419771
 20
-2.822273536
 30
0.0
  0
VERTEX
  8
0
 10
-0.339259578245
 20
-2.84638329028
 30
0.0
  0
VERTEX
  8
0
 10
-0.382970405514
 20
-2.87066003978
 30
0.0
  0
VERTEX
  8
0
 10
-0.426588918192
 20
-2.89510226514
 30
0.0
  0
VERTEX
  8
0
 10
-0.470115131078
 20
-2.91970848104
 30
0.0
  0
VERTEX
  8
0
 10
-0.513549057264
 20
-2.94447723483
 30
0.0
  0
VERTEX
  8
0
 10
-0.556890708224
 20
-2.96940710523
 30
0.0
  0
VERTEX
  8
0
 10
-0.600140093904
 20
-2.9944967011
 30
0.0
  0
VERTEX
  8
0
 10
-0.643297222805
 20
-3.0197446603
 30
0.0
  0
VERTEX
  8
0
 10
-0.686362102066
 20
-3.04514964854
 30
0.0
  0
VERTEX
  8
0
 10
-0.729334737536
 20
-3.07071035838
 30
0.0
  0
VERTEX
  8
0
 10
-0.772215133854
 20
-3.09642550822
 30
0.0
  0
VERTEX
  8
0
 10
-0.815003294509
 20
-3.12229384136
 30
0.0
  0
VERTEX
  8
0
 10
-0.857699221913
 20
-3.14831412509
 30
0.0
  0
VERTEX
  8
0
 10
-0.900302917462
 20
-3.17448514987
 30
0.0
  0
VERTEX
  8
0
 10
-0.942814381593
 20
-3.2008057285
 30
0.0
  0
VERTEX
  8
0
 10
-0.985233613847
 20
-3.22727469534
 30
0.0
  0
VERTEX
  8
0
 10
-1.02756061292
 20
-3.25389090558
 30
0.0
  0
VERTEX
  8
0
 10
-1.06979537671
 20
-3.28065323456
 30
0.0
  0
VERTEX
  8
0
 10
-1.11193790239
 20
-3.30756057708
 30
0.0
  0
VERTEX
  8
0
 10
-1.15398818642
 20
-3.33461184674
 30
0.0
  0
VERTEX
  8
0
 10
-1.19594622463
 20
-3.36180597539
 30
0.0
  0
VERTEX
  8
0
 10
-1.23781201222
 20
-3.38914191247
 30
0.0
  0
VERTEX
  8
0
 10
-1.27958554387
 20
-3.41661862451
 30
0.0
  0
VERTEX
  8
0
 10
-1.32126681371
 20
-3.44423509459
 30
0.0
  0
VERTEX
  8
0
 10
-1.36285581539
 20
-3.47199032179
 30
0.0
  0
VERTEX
  8
0
 10
-1.40435254213
 20
-3.49988332073
 30
0.0
  0
VERTEX
  8
0
 10
-1.44575698673
 20
-3.5279131211
 30
0.0
  0
VERTEX
  8
0
 10
-1.48706914163
 20
-3.55607876721
 30
0.0
  0
VERTEX
  8
0
 10
-1.52828899891
 20
-3.58437931754
 30
0.0
  0
VERTEX
  8
0
 10
-1.56941655038
 20
-3.61281384435
 30
0.0
  0
VERTEX
  8
0
 10
-1.61045178753
 20
-3.64138143327
 30
0.0
  0
VERTEX
  8
0
 10
-1.65139470162
 20
-3.6700811829
 30
0.0
  0
VERTEX
  8
0
 10
-1.69224528372
 20
-3.69891220448
 30
0.0
  0
VERTEX
  8
0
 10
-1.73300352466
 20
-3.72787362152
 30
0.0
  0
VERTEX
  8
0
 10
-1.77366941515
 20
-3.75696456945
 30
0.0
  0
VERTEX
  8
0
 10
-1.81424294574
 20
-3.78618419529
 30
0.0
  0
VERTEX
  8
0
 10
-1.85472410686
 20
-3.81553165736
 30
0.0
  0
VERTEX
  8
0
 10
-1.89511288888
 20
-3.84500612496
 30
0.0
  0
VERTEX
  8
0
 10
-1.93540928207
 20
-3.87460677809
 30
0.0
  0
VERTEX
  8
0
 10
-1.97561327669
 20
-3.90433280715
 30
0.0
  0
VERTEX
  8
0
 10
-2.01572486296
 20
-3.93418341268
 30
0.0
  0
VERTEX
  8
0
 10
-2.05574403109
 20
-3.9641578051
 30
0.0
  0
VERTEX
  8
0
 10
-2.09567077133
 20
-3.99425520447
 30
0.0
  0
VERTEX
  8
0
 10
-2.13550507396
 20
-4.02447484021
 30
0.0
  0
VERTEX
  8
0
 10
-2.17524692932
 20
-4.05481595091
 30
0.0
  0
VERTEX
  8
0
 10
-2.21489632782
 20
-4.08527778406
 30
0.0
  0
VERTEX
  8
0
 10
-2.25445325997
 20
-4.11585959588
 30
0.0
  0
VERTEX
  8
0
 10
-2.29391771639
 20
-4.14656065106
 30
0.0
  0
VERTEX
  8
0
 10
-2.32584918166
 20
-4.17154133918
 30
0.0
  0
SEQEND
  8
0
  0
POLYLINE
  8
0
 62
0
 70
0
 66
1
 10
0.0
 20
0.0
 30
0.0
  0
VERTEX
  8
0
 10
-2.0082178114
 20
-6.27888778761
 30
0.0
  0
VERTEX
  8
0
 10
-1.96150067177
 20
-6.29670651332
 30
0.0
  0
VERTEX
  8
0
 10
-1.91473013132
 20
-6.3143845973
 30
0.0
  0
VERTEX
  8
0
 10
-1.86790641367
 20
-6.33192134609
 30
0.0
  0
VERTEX
  8
0
 10
-1.82102974501
 20
-6.3493160583
 30
0.0
  0
VERTEX
  8
0
 10
-1.77410035415
 20
-6.36656802445
 30
0.0
  0
VERTEX
  8
0
 10
-1.72711847254
 20
-6.38367652668
 30
0.0
  0
VERTEX
  8
0
 10
-1.68008433439
 20
-6.40064083862
 30
0.0
  0
VERTEX
  8
0
 10
-1.63299817662
 20
-6.41746022514
 30
0.0
  0
VERTEX
  8
0
 10
-1.58586023899
 20
-6.43413394207
 30
0.0
  0
VERTEX
  8
0
 10
-1.53867076413
 20
-6.45066123605
 30
0.0
  0
VERTEX
  8
0
 10
-1.49142999758
 20
-6.4670413442
 30
0.0
  0
VERTEX
  8
0
 10
-1.44413818786
 20
-6.4832734939
 30
0.0
  0
VERTEX
  8
0
 10
-1.39679558654
 20
-6.49935690252
 30
0.0
  0
VERTEX
  8
0
 10
-1.34940244828
 20
-6.51529077715
 30
0.0
  0
VERTEX
  8
0
 10
-1.30195903091
 20
-6.53107431429
 30
0.0
  0
VERTEX
  8
0
 10
-1.25446559548
 20
-6.54670669957
 30
0.0
  0
VERTEX
  8
0
 10
-1.20692240636
 20
-6.56218710743
 30
0.0
  0
VERTEX
  8
0
 10
-1.15932973128
 20
-6.57751470082
 30
0.0
  0
VERTEX
  8
0
 10
-1.11168784142
 20
-6.59268863081
 30
0.0
  0
VERTEX
  8
0
 10
-1.0639970115
 20
-6.60770803632
 30
0.0
  0
VERTEX
  8
0
 10
-1.01625751983
 20
-6.62257204369
 30
0.0
  0
VERTEX
  8
0
 10
-0.968469648423
 20
-6.63727976634
 30
0.0
  0
VERTEX
  8
0
 10
-0.920633683074
 20
-6.65183030436
 30
0.0
  0
VERTEX
  8
0
 10
-0.87274991345
 20
-6.66622274412
 30
0.0
  0
VERTEX
  8
0
 10
-0.824818633189
 20
-6.68045615782
 30
0.0
  0
VERTEX
  8
0
 10
-0.776840139998
 20
-6.69452960308
 30
0.0
  0
VERTEX
  8
0
 10
-0.72881473576
 20
-6.70844212242
 30
0.0
  0
VERTEX
  8
0
 10
-0.680742726643
 20
-6.72219274285
 30
0.0
  0
VERTEX
  8
0
 10
-0.632624423215
 20
-6.7357804753
 30
0.0
  0
VERTEX
  8
0
 10
-0.584460140562
 20
-6.74920431414
 30
0.0
  0
VERTEX
  8
0
 10
-0.536250198413
 20
-6.7624632366
 30
0.0
  0
VERTEX
  8
0
 10
-0.487994921274
 20
-6.77555620221
 30
0.0
  0
VERTEX
  8
0
 10
-0.439694638561
 20
-6.78848215219
 30
0.0
  0
VERTEX
  8
0
 10
-0.391349684748
 20
-6.80124000882
 30
0.0
  0
VERTEX
  8
0
 10
-0.342960399514
 20
-6.81382867479
 30
0.0
  0
VERTEX
  8
0
 10
-0.294527127902
 20
-6.82624703249
 30
0.0
  0
VERTEX
  8
0
 10
-0.246050220489
 20
-6.8384939433
 30
0.0
  0
VERTEX
  8
0
 10
-0.197530033554
 20
-6.85056824681
 30
0.0
  0
VERTEX
  8
0
 10
-0.148966929266
 20
-6.86246876005
 30
0.0
  0
VERTEX
  8
0
 10
-0.100361275873
 20
-6.87419427662
 30
0.0
  0
VERTEX
  8
0
 10
-0.051713447909
 20
-6.88574356582
 30
0.0
  0
VERTEX
  8
0
 10
-0.00302382640491
 20
-6.89711537174
 30
0.0
  0
VERTEX
  8
0
 10
0.045707200886
 20
-6.90830841221
 30
0.0
  0
VERTEX
  8
0
 10
0.0944792392502
 20
-6.91932137788
 30
0.0
  0
VERTEX
  8
0
 10
0.143291886763
 20
-6.93015293103
 30
0.0
  0
VERTEX
  8
0
 10
0.192144734025
 20
-6.94080170448
 30
0.0
  0
VERTEX
  8
0
 10
0.241037363879
 20
-6.95126630036
 30
0.0
  0
VERTEX
  8
0
 10
0.289969351119
 20
-6.96154528882
 30
0.0
  0
VERTEX
  8
0
 10
0.33894026217
 20
-6.9716372067
 30
0.0
  0
VERTEX
  8
0
 10
0.387949654763
 20
-6.98154055606
 30
0.0
  0
VERTEX
  8
0
 10
0.436997077574
 20
-6.9912538027
 30
0.0
  0
VERTEX
  8
0
 10
0.486082069855
 20
-7.00077537449
 30
0.0
  0
VERTEX
  8
0
 10
0.535204161035
 20
-7.01010365971
 30
0.0
  0
VERTEX
  8
0
 10
0.584362870294
 20
-7.01923700518
 30
0.0
  0
VERTEX
  8
0
 10
0.633557706113
 20
-7.02817371437
 30
0.0
  0
VERTEX
  8
0
 10
0.682788165791
 20
-7.03691204526
 30
0.0
  0
VERTEX
  8
0
 10
0.732053734935
 20
-7.04545020819
 30
0.0
  0
VERTEX
  8
0
 10
0.781353886905
 20
-7.05378636351
 30
0.0
  0
VERTEX
  8
0
 10
0.830688082229
 20
-7.061918619
 30
0.0
  0
VERTEX
  8
0
 10
0.880055767972
 20
-7.06984502721
 30
0.0
  0
VERTEX
  8
0
 10
0.929456377061
 20
-7.0775635826
 30
0.0
  0
VERTEX
  8
0
 10
0.978889327555
 20
-7.08507221834
 30
0.0
  0
VERTEX
  8
0
 10
1.02835402187
 20
-7.09236880305
 30
0.0
  0
VERTEX
  8
0
 10
1.07784984592
 20
-7.09945113719
 30
0.0
  0
VERTEX
  8
0
 10
1.12737616823
 20
-7.10631694912
 30
0.0
  0
VERTEX
  8
0
 10
1.17693233894
 20
-7.11296389099
 30
0.0
  0
VERTEX
  8
0
 10
1.22651768874
 20
-7.11938953411
 30
0.0
  0
VERTEX
  8
0
 10
1.27613152769
 20
-7.12559136412
 30
0.0
  0
VERTEX
  8
0
 10
1.32577314403
 20
-7.13156677556
 30
0.0
  0
VERTEX
  8
0
 10
1.37544180274
 20
-7.13731306611
 30
0.0
  0
VERTEX
  8
0
 10
1.42513674408
 20
-7.1428274302
 30
0.0
  0
VERTEX
  8
0
 10
1.47485718195
 20
-7.14810695208
 30
0.0
  0
VERTEX
  8
0
 10
1.52460230209
 20
-7.15314859822
 30
0.0
  0
VERTEX
  8
0
 10
1.57437126013
 20
-7.15794920894
 30
0.0
  0
VERTEX
  8
0
 10
1.62416317939
 20
-7.16250548922
 30
0.0
  0
VERTEX
  8
0
 10
1.67397714851
 20
-7.16681399852
 30
0.0
  0
VERTEX
  8
0
 10
1.72381221877
 20
-7.17087113955
 30
0.0
  0
VERTEX
  8
0
 10
1.77366740114
 20
-7.17467314574
 30
0.0
  0
VERTEX
  8
0
 10
1.823541663
 20
-7.17821606731
 30
0.0
  0
VERTEX
  8
0
 10
1.87343392443
 20
-7.18149575571
 30
0.0
  0
VERTEX
  8
0
 10
1.92334305406
 20
-7.18450784607
 30
0.0
  0
VERTEX
  8
0
 10
1.97326786446
 20
-7.18724773755
 30
0.0
  0
VERTEX
  8
0
 10
2.02320710676
 20
-7.18971057099
 30
0.0
  0
VERTEX
  8
0
 10
2.07315946473
 20
-7.19189120354
 30
0.0
  0
VERTEX
  8
0
 10
2.12312354782
 20
-7.19378417973
 30
0.0
  0
VERTEX
  8
0
 10
2.17309788332
 20
-7.19538369812
 30
0.0
  0
VERTEX
  8
0
 10
2.2230809072
 20
-7.19668357297
 30
0.0
  0
VERTEX
  8
0
 10
2.2730709535
 20
-7.19767718948
 30
0.0
  0
VERTEX
  8
0
 10
2.32306624192
 20
-7.19835745162
 30
0.0
  0
VERTEX
  8
0
 10
2.37306486313
 20
-7.19871672049
 30
0.0
  0
VERTEX
  8
0
 10
2.42306476138
 20
-7.19874674118
 30
0.0
  0
VERTEX
  8
0
 10
2.47306371358
 20
-7.19843855504
 30
0.0
  0
VERTEX
  8
0
 10
2.52305930396
 20
-7.19778239347
 30
0.0
  0
VERTEX
  8
0
 10
2.57304889307
 20
-7.19676754787
 30
0.0
  0
VERTEX
  8
0
 10
2.62302957929
 20
-7.19538220843
 30
0.0
  0
VERTEX
  8
0
 10
2.67299815035
 20
-7.1936132615
 30
0.0
  0
VERTEX
  8
0
 10
2.7229510215
 20
-7.1914460307
 30
0.0
  0
VERTEX
  8
0
 10
2.77288415475
 20
-7.18886394001
 30
0.0
  0
VERTEX
  8
0
 10
2.82279295163
 20
-7.18584806584
 30
0.0
  0
VERTEX
  8
0
 10
2.87267210654
 20
-7.18237652635
 30
0.0
  0
VERTEX
  8
0
 10
2.92251540048
 20
-7.17842362305
 30
0.0
  0
VERTEX
  8
0
 10
2.9723153997
 20
-7.17395858961
 30
0.0
  0
VERTEX
  8
0
 10
3.02206299473
 20
-7.16894368332
 30
0.0
  0
VERTEX
  8
0
 10
3.07174665283
 20
-7.1633311026
 30
0.0
  0
VERTEX
  8
0
 10
3.12135110968
 20
-7.15705763064
 30
0.0
  0
VERTEX
  8
0
 10
3.17085484264
 20
-7.15003444305
 30
0.0
  0
VERTEX
  8
0
 10
3.21089832721
 20
-7.14369884291
 30
0.0
  0
SEQEND
  8
0
  0
POLYLINE
  8
0
 62
0
 70
0
 66
1
 10
0.0
 20
0.0
 30
0.0
  0
VERTEX
  8
0
 10
4.27601968608
 20
-10.5967374789
 30
0.0
  0
VERTEX
  8
0
 10
4.2308519071
 20
-10.6181803554
 30
0.0
  0
VERTEX
  8
0
 10
4.18606094437
 20
-10.6404001137
 30
0.0
  0
VERTEX
  8
0
 10
4.1416020118
 20
-10.6632772593
 30
0.0
  0
VERTEX
  8
0
 10
4.09744501909
 20
-10.6867320702
 30
0.0
  0
VERTEX
  8
0
 10
4.05356823544
 20
-10.7107070822
 30
0.0
  0
VERTEX
  8
0
 10
4.00995507081
 20
-10.7351584409
 30
0.0
  0
VERTEX
  8
0
 10
3.96659234128
 20
-10.7600512824
 30
0.0
  0
VERTEX
  8
0
 10
3.92346925195
 20
-10.7853570371
 30
0.0
  0
VERTEX
  8
0
 10
3.88057675831
 20
-10.8110517408
 30
0.0
  0
VERTEX
  8
0
 10
3.83790714298
 20
-10.8371149173
 30
0.0
  0
VERTEX
  8
0
 10
3.7954537229
 20
-10.8635288068
 30
0.0
  0
VERTEX
  8
0
 10
3.75321063948
 20
-10.8902778133
 30
0.0
  0
VERTEX
  8
0
 10
3.71117270385
 20
-10.9173480974
 30
0.0
  0
VERTEX
  8
0
 10
3.66933527982
 20
-10.9447272686
 30
0.0
  0
VERTEX
  8
0
 10
3.62769419369
 20
-10.9724041483
 30
0.0
  0
VERTEX
  8
0
 10
3.58624566323
 20
-11.0003685833
 30
0.0
  0
VERTEX
  8
0
 10
3.54498624114
 20
-11.0286112976
 30
0.0
  0
VERTEX
  8
0
 10
3.50391276922
 20
-11.0571237718
 30
0.0
  0
VERTEX
  8
0
 10
3.46302234091
 20
-11.0858981453
 30
0.0
  0
VERTEX
  8
0
 10
3.42231227022
 20
-11.1149271345
 30
0.0
  0
VERTEX
  8
0
 10
3.38178006578
 20
-11.1442039652
 30
0.0
  0
VERTEX
  8
0
 10
3.34142340901
 20
-11.1737223151
 30
0.0
  0
VERTEX
  8
0
 10
3.30124013546
 20
-11.203476265
 30
0.0
  0
VERTEX
  8
0
 10
3.26122821893
 20
-11.2334602575
 30
0.0
  0
VERTEX
  8
0
 10
3.22138575774
 20
-11.2636690609
 30
0.0
  0
VERTEX
  8
0
 10
3.18171096282
 20
-11.294097738
 30
0.0
  0
VERTEX
  8
0
 10
3.14220214737
 20
-11.3247416191
 30
0.0
  0
VERTEX
  8
0
 10
3.10285771774
 20
-11.3555962783
 30
0.0
  0
VERTEX
  8
0
 10
3.06367616542
 20
-11.3866575127
 30
0.0
  0
VERTEX
  8
0
 10
3.02465605997
 20
-11.4179213235
 30
0.0
  0
VERTEX
  8
0
 10
2.98579604274
 20
-11.4493838998
 30
0.0
  0
VERTEX
  8
0
 10
2.94709482122
 20
-11.4810416043
 30
0.0
  0
VERTEX
  8
0
 10
2.90855116406
 20
-11.5128909596
 30
0.0
  0
VERTEX
  8
0
 10
2.87016389652
 20
-11.5449286368
 30
0.0
  0
VERTEX
  8
0
 10
2.83193189646
 20
-11.577151445
 30
0.0
  0
VERTEX
  8
0
 10
2.7938540906
 20
-11.6095563214
 30
0.0
  0
VERTEX
  8
0
 10
2.75592945123
 20
-11.642140323
 30
0.0
  0
VERTEX
  8
0
 10
2.7181569932
 20
-11.6749006182
 30
0.0
  0
VERTEX
  8
0
 10
2.68053577112
 20
-11.7078344805
 30
0.0
  0
VERTEX
  8
0
 10
2.64306487688
 20
-11.740939281
 30
0.0
  0
VERTEX
  8
0
 10
2.60574343733
 20
-11.7742124829
 30
0.0
  0
VERTEX
  8
0
 10
2.56857061216
 20
-11.8076516363
 30
0.0
  0
VERTEX
  8
0
 10
2.53154559197
 20
-11.8412543724
 30
0.0
  0
VERTEX
  8
0
 10
2.49466759648
 20
-11.8750183993
 30
0.0
  0
VERTEX
  8
0
 10
2.45793587287
 20
-11.9089414981
 30
0.0
  0
VERTEX
  8
0
 10
2.42134969426
 20
-11.9430215179
 30
0.0
  0
VERTEX
  8
0
 10
2.38490835827
 20
-11.9772563733
 30
0.0
  0
VERTEX
  8
0
 10
2.34861118575
 20
-12.01164404
 30
0.0
  0
VERTEX
  8
0
 10
2.31245751953
 20
-12.0461825524
 30
0.0
  0
VERTEX
  8
0
 10
2.27644672329
 20
-12.0808700002
 30
0.0
  0
VERTEX
  8
0
 10
2.24057818053
 20
-12.1157045259
 30
0.0
  0
VERTEX
  8
0
 10
2.20485129353
 20
-12.1506843221
 30
0.0
  0
VERTEX
  8
0
 10
2.16926548246
 20
-12.1858076292
 30
0.0
  0
VERTEX
  8
0
 10
2.13382018454
 20
-12.2210727332
 30
0.0
  0
VERTEX
  8
0
 10
2.09851485317
 20
-12.2564779635
 30
0.0
  0
VERTEX
  8
0
 10
2.06334895724
 20
-12.2920216911
 30
0.0
  0
VERTEX
  8
0
 10
2.02832198037
 20
-12.3277023265
 30
0.0
  0
VERTEX
  8
0
 10
1.99343342026
 20
-12.3635183184
 30
0.0
  0
VERTEX
  8
0
 10
1.95868278804
 20
-12.3994681515
 30
0.0
  0
VERTEX
  8
0
 10
1.92406960772
 20
-12.4355503457
 30
0.0
  0
VERTEX
  8
0
 10
1.88959341558
 20
-12.4717634539
 30
0.0
  0
VERTEX
  8
0
 10
1.85525375966
 20
-12.5081060611
 30
0.0
  0
VERTEX
  8
0
 10
1.82105019929
 20
-12.5445767832
 30
0.0
  0
VERTEX
  8
0
 10
1.78698230457
 20
-12.5811742652
 30
0.0
  0
VERTEX
  8
0
 10
1.75304965596
 20
-12.617897181
 30
0.0
  0
VERTEX
  8
0
 10
1.71925184382
 20
-12.6547442313
 30
0.0
  0
VERTEX
  8
0
 10
1.68558846806
 20
-12.6917141432
 30
0.0
  0
VERTEX
  8
0
 10
1.6520591377
 20
-12.728805669
 30
0.0
  0
VERTEX
  8
0
 10
1.61866347055
 20
-12.7660175856
 30
0.0
  0
VERTEX
  8
0
 10
1.58540109286
 20
-12.803348693
 30
0.0
  0
VERTEX
  8
0
 10
1.55227163899
 20
-12.8407978141
 30
0.0
  0
VERTEX
  8
0
 10
1.51927475107
 20
-12.8783637934
 30
0.0
  0
VERTEX
  8
0
 10
1.48641007876
 20
-12.9160454966
 30
0.0
  0
VERTEX
  8
0
 10
1.45367727891
 20
-12.9538418097
 30
0.0
  0
VERTEX
  8
0
 10
1.42107601534
 20
-12.9917516384
 30
0.0
  0
VERTEX
  8
0
 10
1.38860595854
 20
-13.0297739074
 30
0.0
  0
VERTEX
  8
0
 10
1.35626678547
 20
-13.0679075597
 30
0.0
  0
VERTEX
  8
0
 10
1.32405817929
 20
-13.1061515561
 30
0.0
  0
VERTEX
  8
0
 10
1.29197982913
 20
-13.1445048748
 30
0.0
  0
VERTEX
  8
0
 10
1.26003142991
 20
-13.1829665104
 30
0.0
  0
VERTEX
  8
0
 10
1.22821268211
 20
-13.2215354738
 30
0.0
  0
VERTEX
  8
0
 10
1.1965232916
 20
-13.2602107916
 30
0.0
  0
VERTEX
  8
0
 10
1.16496296941
 20
-13.2989915054
 30
0.0
  0
VERTEX
  8
0
 10
1.13353143158
 20
-13.3378766716
 30
0.0
  0
VERTEX
  8
0
 10
1.10222839897
 20
-13.3768653608
 30
0.0
  0
VERTEX
  8
0
 10
1.07105359714
 20
-13.4159566577
 30
0.0
  0
VERTEX
  8
0
 10
1.0400067561
 20
-13.4551496602
 30
0.0
  0
VERTEX
  8
0
 10
1.00908761027
 20
-13.4944434794
 30
0.0
  0
VERTEX
  8
0
 10
0.97829589822
 20
-13.533837239
 30
0.0
  0
VERTEX
  8
0
 10
0.947631362626
 20
-13.5733300751
 30
0.0
  0
VERTEX
  8
0
 10
0.917093750072
 20
-13.6129211357
 30
0.0
  0
VERTEX
  8
0
 10
0.886682810945
 20
-13.6526095807
 30
0.0
  0
VERTEX
  8
0
 10
0.8563982993
 20
-13.692394581
 30
0.0
  0
VERTEX
  8
0
 10
0.826239972748
 20
-13.732275319
 30
0.0
  0
VERTEX
  8
0
 10
0.796207592332
 20
-13.7722509873
 30
0.0
  0
VERTEX
  8
0
 10
0.766300922417
 20
-13.8123207895
 30
0.0
  0
VERTEX
  8
0
 10
0.736519730583
 20
-13.8524839391
 30
0.0
  0
VERTEX
  8
0
 10
0.70686378752
 20
-13.8927396595
 30
0.0
  0
VERTEX
  8
0
 10
0.677332866927
 20
-13.933087184
 30
0.0
  0
VERTEX
  8
0
 10
0.647926745417
 20
-13.9735257552
 30
0.0
  0
VERTEX
  8
0
 10
0.618645202418
 20
-14.0140546248
 30
0.0
  0
VERTEX
  8
0
 10
0.589488020091
 20
-14.0546730538
 30
0.0
  0
VERTEX
  8
0
 10
0.560454983235
 20
-14.0953803116
 30
0.0
  0
VERTEX
  8
0
 10
0.531545879207
 20
-14.1361756763
 30
0.0
  0
VERTEX
  8
0
 10
0.50276049784
 20
-14.1770584345
 30
0.0
  0
VERTEX
  8
0
 10
0.474098631362
 20
-14.2180278806
 30
0.0
  0
VERTEX
  8
0
 10
0.450948978587
 20
-14.2513107115
 30
0.0
  0
SEQEND
  8
0
  0
POLYLINE
  8
0
 62
0
 70
0
 66
1
 10
0.0
 20
0.0
 30
0.0
  0
VERTEX
  8
0
 10
1.37562014823
 20
-16.17141018
 30
0.0
  0
VERTEX
  8
0
 10
1.42551393802
 20
-16.1746671511
 30
0.0
  0
VERTEX
  8
0
 10
1.47541730131
 20
-16.1777739886
 30
0.0
  0
VERTEX
  8
0
 10
1.52532982001
 20
-16.1807300958
 30
0.0
  0
VERTEX
  8
0
 10
1.57525107124
 20
-16.1835348691
 30
0.0
  0
VERTEX
  8
0
 10
1.62518062724
 20
-16.186187698
 30
0.0
  0
VERTEX
  8
0
 10
1.67511805522
 20
-16.1886879648
 30
0.0
  0
VERTEX
  8
0
 10
1.72506291731
 20
-16.1910350444
 30
0.0
  0
VERTEX
  8
0
 10
1.77501477041
 20
-16.1932283041
 30
0.0
  0
VERTEX
  8
0
 10
1.82497316607
 20
-16.1952671035
 30
0.0
  0
VERTEX
  8
0
 10
1.87493765039
 20
-16.1971507943
 30
0.0
  0
VERTEX
  8
0
 10
1.92490776386
 20
-16.1988787198
 30
0.0
  0
VERTEX
  8
0
 10
1.97488304128
 20
-16.200450215
 30
0.0
  0
VERTEX
  8
0
 10
2.02486301157
 20
-16.2018646062
 30
0.0
  0
VERTEX
  8
0
 10
2.07484719767
 20
-16.2031212108
 30
0.0
  0
VERTEX
  8
0
 10
2.12483511637
 20
-16.2042193369
 30
0.0
  0
VERTEX
  8
0
 10
2.17482627816
 20
-16.2051582833
 30
0.0
  0
VERTEX
  8
0
 10
2.22482018711
 20
-16.2059373391
 30
0.0
  0
VERTEX
  8
0
 10
2.27481634063
 20
-16.2065557833
 30
0.0
  0
VERTEX
  8
0
 10
2.32481422938
 20
-16.2070128846
 30
0.0
  0
VERTEX
  8
0
 10
2.37481333703
 20
-16.2073079011
 30
0.0
  0
VERTEX
  8
0
 10
2.42481314011
 20
-16.2074400802
 30
0.0
  0
VERTEX
  8
0
 10
2.47481310783
 20
-16.2074086576
 30
0.0
  0
VERTEX
  8
0
 10
2.52481270183
 20
-16.2072128577
 30
0.0
  0
VERTEX
  8
0
 10
2.57481137601
 20
-16.2068518929
 30
0.0
  0
VERTEX
  8
0
 10
2.62480857631
 20
-16.2063249631
 30
0.0
  0
VERTEX
  8
0
 10
2.67480374048
 20
-16.2056312555
 30
0.0
  0
VERTEX
  8
0
 10
2.72479629782
 20
-16.2047699443
 30
0.0
  0
VERTEX
  8
0
 10
2.77478566898
 20
-16.2037401898
 30
0.0
  0
VERTEX
  8
0
 10
2.82477126564
 20
-16.2025411385
 30
0.0
  0
VERTEX
  8
0
 10
2.87475249031
 20
-16.2011719223
 30
0.0
  0
VERTEX
  8
0
 10
2.924728736
 20
-16.1996316581
 30
0.0
  0
VERTEX
  8
0
 10
2.97469938593
 20
-16.1979194474
 30
0.0
  0
VERTEX
  8
0
 10
3.02466381325
 20
-16.1960343754
 30
0.0
  0
VERTEX
  8
0
 10
3.07462138066
 20
-16.193975511
 30
0.0
  0
VERTEX
  8
0
 10
3.12457144016
 20
-16.1917419056
 30
0.0
  0
VERTEX
  8
0
 10
3.17451333259
 20
-16.1893325931
 30
0.0
  0
VERTEX
  8
0
 10
3.22444638736
 20
-16.1867465888
 30
0.0
  0
VERTEX
  8
0
 10
3.27436992196
 20
-16.1839828887
 30
0.0
  0
VERTEX
  8
0
 10
3.32428324164
 20
-16.1810404692
 30
0.0
  0
VERTEX
  8
0
 10
3.37418563891
 20
-16.1779182862
 30
0.0
  0
VERTEX
  8
0
 10
3.42407639313
 20
-16.1746152738
 30
0.0
  0
VERTEX
  8
0
 10
3.47395477
 20
-16.1711303444
 30
0.0
  0
VERTEX
  8
0
 10
3.52382002107
 20
-16.1674623871
 30
0.0
  0
VERTEX
  8
0
 10
3.57367138323
 20
-16.1636102669
 30
0.0
  0
VERTEX
  8
0
 10
3.62350807811
 20
-16.1595728241
 30
0.0
  0
VERTEX
  8
0
 10
3.67332931152
 20
-16.1553488729
 30
0.0
  0
VERTEX
  8
0
 10
3.72313427279
 20
-16.1509372005
 30
0.0
  0
VERTEX
  8
0
 10
3.77292213417
 20
-16.1463365659
 30
0.0
  0
VERTEX
  8
0
 10
3.82269205006
 20
-16.1415456988
 30
0.0
  0
VERTEX
  8
0
 10
3.87244315631
 20
-16.1365632981
 30
0.0
  0
VERTEX
  8
0
 10
3.92217456945
 20
-16.1313880307
 30
0.0
  0
VERTEX
  8
0
 10
3.9718853858
 20
-16.1260185304
 30
0.0
  0
VERTEX
  8
0
 10
4.02157468063
 20
-16.1204533955
 30
0.0
  0
VERTEX
  8
0
 10
4.07124150721
 20
-16.1146911881
 30
0.0
  0
VERTEX
  8
0
 10
4.12088489578
 20
-16.108730432
 30
0.0
  0
VERTEX
  8
0
 10
4.17050385251
 20
-16.1025696106
 30
0.0
  0
VERTEX
  8
0
 10
4.22009735835
 20
-16.0962071655
 30
0.0
  0
VERTEX
  8
0
 10
4.26966436781
 20
-16.0896414939
 30
0.0
  0
VERTEX
  8
0
 10
4.31920380764
 20
-16.0828709468
 30
0.0
  0
VERTEX
  8
0
 10
4.36871457545
 20
-16.0758938261
 30
0.0
  0
VERTEX
  8
0
 10
4.41819553823
 20
-16.0687083826
 30
0.0
  0
VERTEX
  8
0
 10
4.46764553067
 20
-16.0613128128
 30
0.0
  0
VERTEX
  8
0
 10
4.5170633535
 20
-16.0537052561
 30
0.0
  0
VERTEX
  8
0
 10
4.5664477716
 20
-16.0458837917
 30
0.0
  0
VERTEX
  8
0
 10
4.61579751196
 20
-16.0378464351
 30
0.0
  0
VERTEX
  8
0
 10
4.66511126156
 20
-16.0295911343
 30
0.0
  0
VERTEX
  8
0
 10
4.71438766495
 20
-16.0211157657
 30
0.0
  0
VERTEX
  8
0
 10
4.76362532173
 20
-16.01241813
 30
0.0
  0
VERTEX
  8
0
 10
4.81282278378
 20
-16.0034959474
 30
0.0
  0
VERTEX
  8
0
 10
4.86197855222
 20
-15.9943468523
 30
0.0
  0
VERTEX
  8
0
 10
4.9110910741
 20
-15.9849683875
 30
0.0
  0
VERTEX
  8
0
 10
4.96015873881
 20
-15.9753579987
 30
0.0
  0
VERTEX
  8
0
 10
5.00917987412
 20
-15.9655130271
 30
0.0
  0
VERTEX
  8
0
 10
5.05815274184
 20
-15.9554307022
 30
0.0
  0
VERTEX
  8
0
 10
5.10707553303
 20
-15.9451081339
 30
0.0
  0
VERTEX
  8
0
 10
5.15594636268
 20
-15.9345423031
 30
0.0
  0
VERTEX
  8
0
 10
5.2047632639
 20
-15.9237300519
 30
0.0
  0
VERTEX
  8
0
 10
5.25352418141
 20
-15.9126680727
 30
0.0
  0
VERTEX
  8
0
 10
5.30222696422
 20
-15.9013528954
 30
0.0
  0
VERTEX
  8
0
 10
5.35086935758
 20
-15.8897808742
 30
0.0
  0
VERTEX
  8
0
 10
5.39944899384
 20
-15.8779481717
 30
0.0
  0
VERTEX
  8
0
 10
5.44796338218
 20
-15.8658507413
 30
0.0
  0
VERTEX
  8
0
 10
5.49640989696
 20
-15.8534843078
 30
0.0
  0
VERTEX
  8
0
 10
5.54478576455
 20
-15.840844345
 30
0.0
  0
VERTEX
  8
0
 10
5.59308804814
 20
-15.8279260496
 30
0.0
  0
VERTEX
  8
0
 10
5.64131363045
 20
-15.8147243119
 30
0.0
  0
VERTEX
  8
0
 10
5.68945919366
 20
-15.801233682
 30
0.0
  0
VERTEX
  8
0
 10
5.73752119608
 20
-15.7874483301
 30
0.0
  0
VERTEX
  8
0
 10
5.78549584489
 20
-15.7733620001
 30
0.0
  0
VERTEX
  8
0
 10
5.83337906401
 20
-15.7589679554
 30
0.0
  0
VERTEX
  8
0
 10
5.88116645582
 20
-15.7442589136
 30
0.0
  0
VERTEX
  8
0
 10
5.9288532554
 20
-15.7292269694
 30
0.0
  0
VERTEX
  8
0
 10
5.97643427496
 20
-15.7138635003
 30
0.0
  0
VERTEX
  8
0
 10
6.0239038359
 20
-15.6981590514
 30
0.0
  0
VERTEX
  8
0
 10
6.07125568449
 20
-15.6821031928
 30
0.0
  0
VERTEX
  8
0
 10
6.11848288588
 20
-15.6656843404
 30
0.0
  0
VERTEX
  8
0
 10
6.16557768863
 20
-15.6488895263
 30
0.0
  0
VERTEX
  8
0
 10
6.21253134828
 20
-15.6317041013
 30
0.0
  0
VERTEX
  8
0
 10
6.25933389283
 20
-15.6141113378
 30
0.0
  0
VERTEX
  8
0
 10
6.30597380261
 20
-15.5960918901
 30
0.0
  0
VERTEX
  8
0
 10
6.35243756014
 20
-15.5776230344
 30
0.0
  0
VERTEX
  8
0
 10
6.39870899342
 20
-15.5586775624
 30
0.0
  0
VERTEX
  8
0
 10
6.44476827281
 20
-15.5392220932
 30
0.0
  0
VERTEX
  8
0
 10
6.49059028817
 20
-15.5192143484
 30
0.0
  0
VERTEX
  8
0
 10
6.53614181986
 20
-15.4985984189
 30
0.0
  0
VERTEX
  8
0
 10
6.58137611997
 20
-15.4772957704
 30
0.0
  0
VERTEX
  8
0
 10
6.61777313396
 20
-15.4594386189
 30
0.0
  0
SEQEND
  8
0
  0
POLYLINE
  8
0
 62
0
 70
0
 66
1
 10
0.0
 20
0.0
 30
0.0
  0
VERTEX
  8
0
 10
8.65337514476
 20
-18.4451184049
 30
0.0
  0
VERTEX
  8
0
 10
8.61653444226
 20
-18.4789220711
 30
0.0
  0
VERTEX
  8
0
 10
8.58028280507
 20
-18.513357036
 30
0.0
  0
VERTEX
  8
0
 10
8.54454221518
 20
-18.5483223146
 30
0.0
  0
VERTEX
  8
0
 10
8.50926042064
 20
-18.5837505962
 30
0.0
  0
VERTEX
  8
0
 10
8.47439971823
 20
-18.6195933747
 30
0.0
  0
VERTEX
  8
0
 10
8.43993132861
 20
-18.655813634
 30
0.0
  0
VERTEX
  8
0
 10
8.40583237732
 20
-18.6923819453
 30
0.0
  0
VERTEX
  8
0
 10
8.37208412801
 20
-18.7292741901
 30
0.0
  0
VERTEX
  8
0
 10
8.33867087437
 20
-18.7664701346
 30
0.0
  0
VERTEX
  8
0
 10
8.30557920646
 20
-18.8039524872
 30
0.0
  0
VERTEX
  8
0
 10
8.27279750333
 20
-18.8417062469
 30
0.0
  0
VERTEX
  8
0
 10
8.24031556967
 20
-18.8797182375
 30
0.0
  0
VERTEX
  8
0
 10
8.20812436787
 20
-18.9179767639
 30
0.0
  0
VERTEX
  8
0
 10
8.1762158156
 20
-18.9564713526
 30
0.0
  0
VERTEX
  8
0
 10
8.14458262959
 20
-18.9951925518
 30
0.0
  0
VERTEX
  8
0
 10
8.11321820297
 20
-19.0341317743
 30
0.0
  0
VERTEX
  8
0
 10
8.0821165074
 20
-19.0732811721
 30
0.0
  0
VERTEX
  8
0
 10
8.0512720139
 20
-19.1126335355
 30
0.0
  0
VERTEX
  8
0
 10
8.02067962806
 20
-19.1521822096
 30
0.0
  0
VERTEX
  8
0
 10
7.99033463637
 20
-19.1919210263
 30
0.0
  0
VERTEX
  8
0
 10
7.96023266139
 20
-19.2318442465
 30
0.0
  0
VERTEX
  8
0
 10
7.93036962401
 20
-19.2719465123
 30
0.0
  0
VERTEX
  8
0
 10
7.90074171126
 20
-19.3122228056
 30
0.0
  0
VERTEX
  8
0
 10
7.87134534887
 20
-19.3526684129
 30
0.0
  0
VERTEX
  8
0
 10
7.84217717754
 20
-19.3932788955
 30
0.0
  0
VERTEX
  8
0
 10
7.81323403246
 20
-19.4340500629
 30
0.0
  0
VERTEX
  8
0
 10
7.78451292535
 20
-19.4749779501
 30
0.0
  0
VERTEX
  8
0
 10
7.75601102881
 20
-19.5160587977
 30
0.0
  0
VERTEX
  8
0
 10
7.72772566247
 20
-19.5572890338
 30
0.0
  0
VERTEX
  8
0
 10
7.69965428082
 20
-19.5986652592
 30
0.0
  0
VERTEX
  8
0
 10
7.6717944623
 20
-19.6401842327
 30
0.0
  0
VERTEX
  8
0
 10
7.64414389967
 20
-19.6818428595
 30
0.0
  0
VERTEX
  8
0
 10
7.61670039132
 20
-19.7236381797
 30
0.0
  0
VERTEX
  8
0
 10
7.58946183353
 20
-19.7655673585
 30
0.0
  0
VERTEX
  8
0
 10
7.5624262134
 20
-19.8076276776
 30
0.0
  0
VERTEX
  8
0
 10
7.53559160262
 20
-19.8498165266
 30
0.0
  0
VERTEX
  8
0
 10
7.50895615163
 20
-19.8921313961
 30
0.0
  0
VERTEX
  8
0
 10
7.48251808447
 20
-19.9345698708
 30
0.0
  0
VERTEX
  8
0
 10
7.45627569404
 20
-19.9771296238
 30
0.0
  0
VERTEX
  8
0
 10
7.43022733774
 20
-20.0198084109
 30
0.0
  0
VERTEX
  8
0
 10
7.40437143348
 20
-20.0626040653
 30
0.0
  0
VERTEX
  8
0
 10
7.37870645611
 20
-20.1055144934
 30
0.0
  0
VERTEX
  8
0
 10
7.35323093401
 20
-20.1485376705
 30
0.0
  0
VERTEX
  8
0
 10
7.32794344606
 20
-20.1916716365
 30
0.0
  0
VERTEX
  8
0
 10
7.30284261875
 20
-20.2349144927
 30
0.0
  0
VERTEX
  8
0
 10
7.27792712359
 20
-20.2782643984
 30
0.0
  0
VERTEX
  8
0
 10
7.25319567466
 20
-20.3217195675
 30
0.0
  0
VERTEX
  8
0
 10
7.22864702638
 20
-20.3652782661
 30
0.0
  0
VERTEX
  8
0
 10
7.20427997135
 20
-20.4089388094
 30
0.0
  0
VERTEX
  8
0
 10
7.18009333849
 20
-20.4526995598
 30
0.0
  0
VERTEX
  8
0
 10
7.15608599114
 20
-20.4965589238
 30
0.0
  0
VERTEX
  8
0
 10
7.13225682541
 20
-20.5405153507
 30
0.0
  0
VERTEX
  8
0
 10
7.1086047686
 20
-20.5845673297
 30
0.0
  0
VERTEX
  8
0
 10
7.08512877769
 20
-20.6287133891
 30
0.0
  0
VERTEX
  8
0
 10
7.06182783798
 20
-20.6729520935
 30
0.0
  0
VERTEX
  8
0
 10
7.03870096176
 20
-20.7172820427
 30
0.0
  0
VERTEX
  8
0
 10
7.01574718712
 20
-20.7617018703
 30
0.0
  0
VERTEX
  8
0
 10
6.99296557676
 20
-20.8062102418
 30
0.0
  0
VERTEX
  8
0
 10
6.97035521698
 20
-20.8508058534
 30
0.0
  0
VERTEX
  8
0
 10
6.94791521657
 20
-20.8954874309
 30
0.0
  0
VERTEX
  8
0
 10
6.92564470593
 20
-20.9402537283
 30
0.0
  0
VERTEX
  8
0
 10
6.90354283611
 20
-20.9851035267
 30
0.0
  0
VERTEX
  8
0
 10
6.881608778
 20
-21.0300356333
 30
0.0
  0
VERTEX
  8
0
 10
6.85984172147
 20
-21.0750488802
 30
0.0
  0
VERTEX
  8
0
 10
6.83824087466
 20
-21.1201421236
 30
0.0
  0
VERTEX
  8
0
 10
6.81680546322
 20
-21.1653142428
 30
0.0
  0
VERTEX
  8
0
 10
6.79553472961
 20
-21.2105641395
 30
0.0
  0
VERTEX
  8
0
 10
6.7744279325
 20
-21.2558907366
 30
0.0
  0
VERTEX
  8
0
 10
6.75348434611
 20
-21.3012929778
 30
0.0
  0
VERTEX
  8
0
 10
6.73270325962
 20
-21.3467698268
 30
0.0
  0
VERTEX
  8
0
 10
6.71208397663
 20
-21.3923202664
 30
0.0
  0
VERTEX
  8
0
 10
6.69162581464
 20
-21.4379432981
 30
0.0
  0
VERTEX
  8
0
 10
6.6713281045
 20
-21.4836379412
 30
0.0
  0
VERTEX
  8
0
 10
6.65119018997
 20
-21.5294032323
 30
0.0
  0
VERTEX
  8
0
 10
6.63121142724
 20
-21.5752382248
 30
0.0
  0
VERTEX
  8
0
 10
6.61139118449
 20
-21.6211419883
 30
0.0
  0
VERTEX
  8
0
 10
6.59172884147
 20
-21.667113608
 30
0.0
  0
VERTEX
  8
0
 10
6.57222378913
 20
-21.7131521843
 30
0.0
  0
VERTEX
  8
0
 10
6.5528754292
 20
-21.7592568324
 30
0.0
  0
VERTEX
  8
0
 10
6.53368317383
 20
-21.8054266814
 30
0.0
  0
VERTEX
  8
0
 10
6.51464644527
 20
-21.8516608746
 30
0.0
  0
VERTEX
  8
0
 10
6.4957646755
 20
-21.8979585683
 30
0.0
  0
VERTEX
  8
0
 10
6.47703730592
 20
-21.944318932
 30
0.0
  0
VERTEX
  8
0
 10
6.45846378706
 20
-21.9907411478
 30
0.0
  0
VERTEX
  8
0
 10
6.44004357828
 20
-22.0372244098
 30
0.0
  0
VERTEX
  8
0
 10
6.42177614745
 20
-22.0837679243
 30
0.0
  0
VERTEX
  8
0
 10
6.40366097075
 20
-22.1303709087
 30
0.0
  0
VERTEX
  8
0
 10
6.38569753233
 20
-22.1770325919
 30
0.0
  0
VERTEX
  8
0
 10
6.36788532413
 20
-22.2237522138
 30
0.0
  0
VERTEX
  8
0
 10
6.3502238456
 20
-22.2705290245
 30
0.0
  0
VERTEX
  8
0
 10
6.33271260347
 20
-22.3173622847
 30
0.0
  0
VERTEX
  8
0
 10
6.31535111156
 20
-22.3642512651
 30
0.0
  0
VERTEX
  8
0
 10
6.29813889052
 20
-22.411195246
 30
0.0
  0
VERTEX
  8
0
 10
6.28107546766
 20
-22.4581935174
 30
0.0
  0
VERTEX
  8
0
 10
6.26416037675
 20
-22.5052453786
 30
0.0
  0
VERTEX
  8
0
 10
6.2473931578
 20
-22.5523501376
 30
0.0
  0
VERTEX
  8
0
 10
6.23077335692
 20
-22.5995071115
 30
0.0
  0
VERTEX
  8
0
 10
6.21430052609
 20
-22.6467156259
 30
0.0
  0
VERTEX
  8
0
 10
6.19797422306
 20
-22.6939750147
 30
0.0
  0
VERTEX
  8
0
 10
6.18179401112
 20
-22.7412846201
 30
0.0
  0
VERTEX
  8
0
 10
6.16575945896
 20
-22.7886437921
 30
0.0
  0
VERTEX
  8
0
 10
6.14987014054
 20
-22.8360518886
 30
0.0
  0
VERTEX
  8
0
 10
6.13412563492
 20
-22.883508275
 30
0.0
  0
VERTEX
  8
0
 10
6.11852552612
 20
-22.9310123241
 30
0.0
  0
VERTEX
  8
0
 10
6.10306940299
 20
-22.9785634161
 30
0.0
  0
VERTEX
  8
0
 10
6.08775685907
 20
-23.0261609382
 30
0.0
  0
VERTEX
  8
0
 10
6.07544596703
 20
-23.0647885862
 30
0.0
  0
SEQEND
  8
0
  0
POLYLINE
  8
0
 62
0
 70
0
 66
1
 10
0.0
 20
0.0
 30
0.0
  0
VERTEX
  8
0
 10
7.52499584477
 20
-24.6270318109
 30
0.0
  0
VERTEX
  8
0
 10
7.57363300256
 20
-24.6154376312
 30
0.0
  0
VERTEX
  8
0
 10
7.62223505587
 20
-24.603697166
 30
0.0
  0
VERTEX
  8
0
 10
7.67080142929
 20
-24.5918099685
 30
0.0
  0
VERTEX
  8
0
 10
7.71933154085
 20
-24.5797755865
 30
0.0
  0
VERTEX
  8
0
 10
7.7678248018
 20
-24.5675935627
 30
0.0
  0
VERTEX
  8
0
 10
7.81628061654
 20
-24.5552634343
 30
0.0
  0
VERTEX
  8
0
 10
7.8646983824
 20
-24.5427847332
 30
0.0
  0
VERTEX
  8
0
 10
7.91307748947
 20
-24.5301569854
 30
0.0
  0
VERTEX
  8
0
 10
7.96141732047
 20
-24.5173797111
 30
0.0
  0
VERTEX
  8
0
 10
8.00971725054
 20
-24.5044524245
 30
0.0
  0
VERTEX
  8
0
 10
8.05797664707
 20
-24.4913746336
 30
0.0
  0
VERTEX
  8
0
 10
8.10619486947
 20
-24.4781458401
 30
0.0
  0
VERTEX
  8
0
 10
8.15437126904
 20
-24.464765539
 30
0.0
  0
VERTEX
  8
0
 10
8.20250518869
 20
-24.4512332186
 30
0.0
  0
VERTEX
  8
0
 10
8.25059596277
 20
-24.4375483604
 30
0.0
  0
VERTEX
  8
0
 10
8.29864291683
 20
-24.4237104384
 30
0.0
  0
VERTEX
  8
0
 10
8.34664536739
 20
-24.4097189196
 30
0.0
  0
VERTEX
  8
0
 10
8.39460262171
 20
-24.3955732631
 30
0.0
  0
VERTEX
  8
0
 10
8.44251397752
 20
-24.3812729202
 30
0.0
  0
VERTEX
  8
0
 10
8.49037872276
 20
-24.3668173343
 30
0.0
  0
VERTEX
  8
0
 10
8.53819613534
 20
-24.3522059403
 30
0.0
  0
VERTEX
  8
0
 10
8.58596548281
 20
-24.3374381646
 30
0.0
  0
VERTEX
  8
0
 10
8.63368602211
 20
-24.3225134245
 30
0.0
  0
VERTEX
  8
0
 10
8.68135699924
 20
-24.3074311284
 30
0.0
  0
VERTEX
  8
0
 10
8.72897764893
 20
-24.2921906751
 30
0.0
  0
VERTEX
  8
0
 10
8.77654719433
 20
-24.2767914537
 30
0.0
  0
VERTEX
  8
0
 10
8.82406484667
 20
-24.2612328431
 30
0.0
  0
VERTEX
  8
0
 10
8.87152980486
 20
-24.2455142119
 30
0.0
  0
VERTEX
  8
0
 10
8.91894125514
 20
-24.2296349179
 30
0.0
  0
VERTEX
  8
0
 10
8.96629837068
 20
-24.2135943075
 30
0.0
  0
VERTEX
  8
0
 10
9.01360031116
 20
-24.1973917159
 30
0.0
  0
VERTEX
  8
0
 10
9.06084622235
 20
-24.1810264663
 30
0.0
  0
VERTEX
  8
0
 10
9.10803523563
 20
-24.1644978693
 30
0.0
  0
VERTEX
  8
0
 10
9.15516646755
 20
-24.1478052229
 30
0.0
  0
VERTEX
  8
0
 10
9.20223901932
 20
-24.1309478119
 30
0.0
  0
VERTEX
  8
0
 10
9.24925197627
 20
-24.1139249072
 30
0.0
  0
VERTEX
  8
0
 10
9.29620440734
 20
-24.0967357654
 30
0.0
  0
VERTEX
  8
0
 10
9.34309536448
 20
-24.0793796286
 30
0.0
  0
VERTEX
  8
0
 10
9.38992388205
 20
-24.0618557234
 30
0.0
  0
VERTEX
  8
0
 10
9.43668897621
 20
-24.0441632603
 30
0.0
  0
VERTEX
  8
0
 10
9.48338964423
 20
-24.0263014336
 30
0.0
  0
VERTEX
  8
0
 10
9.53002486379
 20
-24.0082694202
 30
0.0
  0
VERTEX
  8
0
 10
9.57659359226
 20
-23.9900663791
 30
0.0
  0
VERTEX
  8
0
 10
9.62309476592
 20
-23.9716914509
 30
0.0
  0
VERTEX
  8
0
 10
9.66952729912
 20
-23.9531437567
 30
0.0
  0
VERTEX
  8
0
 10
9.71589008344
 20
-23.9344223974
 30
0.0
  0
VERTEX
  8
0
 10
9.76218198676
 20
-23.9155264532
 30
0.0
  0
VERTEX
  8
0
 10
9.8084018523
 20
-23.8964549821
 30
0.0
  0
VERTEX
  8
0
 10
9.85454849759
 20
-23.8772070195
 30
0.0
  0
VERTEX
  8
0
 10
9.90062071339
 20
-23.8577815769
 30
0.0
  0
VERTEX
  8
0
 10
9.94661726256
 20
-23.8381776408
 30
0.0
  0
VERTEX
  8
0
 10
9.99253687879
 20
-23.8183941719
 30
0.0
  0
VERTEX
  8
0
 10
10.0383782654
 20
-23.7984301036
 30
0.0
  0
VERTEX
  8
0
 10
10.0841400938
 20
-23.7782843408
 30
0.0
  0
VERTEX
  8
0
 10
10.1298210021
 20
-23.7579557587
 30
0.0
  0
VERTEX
  8
0
 10
10.1754195939
 20
-23.7374432011
 30
0.0
  0
VERTEX
  8
0
 10
10.2209344358
 20
-23.7167454791
 30
0.0
  0
VERTEX
  8
0
 10
10.2663640564
 20
-23.6958613694
 30
0.0
  0
VERTEX
  8
0
 10
10.3117069441
 20
-23.6747896124
 30
0.0
  0
VERTEX
  8
0
 10
10.356961545
 20
-23.6535289106
 30
0.0
  0
VERTEX
  8
0
 10
10.4021262608
 20
-23.6320779264
 30
0.0
  0
VERTEX
  8
0
 10
10.4471994463
 20
-23.6104352799
 30
0.0
  0
VERTEX
  8
0
 10
10.4921794073
 20
-23.5885995466
 30
0.0
  0
VERTEX
  8
0
 10
10.5370643971
 20
-23.5665692552
 30
0.0
  0
VERTEX
  8
0
 10
10.5818526146
 20
-23.5443428845
 30
0.0
  0
VERTEX
  8
0
 10
10.6265422
 20
-23.5219188606
 30
0.0
  0
VERTEX
  8
0
 10
10.6711312323
 20
-23.499295554
 30
0.0
  0
VERTEX
  8
0
 10
10.715617725
 20
-23.4764712758
 30
0.0
  0
VERTEX
  8
0
 10
10.7599996224
 20
-23.4534442742
 30
0.0
  0
VERTEX
  8
0
 10
10.8042747948
 20
-23.4302127305
 30
0.0
  0
VERTEX
  8
0
 10
10.8484410341
 20
-23.4067747547
 30
0.0
  0
VERTEX
  8
0
 10
10.8924960483
 20
-23.3831283805
 30
0.0
  0
VERTEX
  8
0
 10
10.9364374558
 20
-23.35927156
 30
0.0
  0
VERTEX
  8
0
 10
10.980262779
 20
-23.3352021584
 30
0.0
  0
VERTEX
  8
0
 10
11.0239694374
 20
-23.310917947
 30
0.0
  0
VERTEX
  8
0
 10
11.0675547399
 20
-23.2864165965
 30
0.0
  0
VERTEX
  8
0
 10
11.1110158762
 20
-23.261695669
 30
0.0
  0
VERTEX
  8
0
 10
11.1543499073
 20
-23.2367526097
 30
0.0
  0
VERTEX
  8
0
 10
11.1975537551
 20
-23.2115847368
 30
0.0
  0
VERTEX
  8
0
 10
11.2406241903
 20
-23.1861892309
 30
0.0
  0
VERTEX
  8
0
 10
11.2835578193
 20
-23.160563123
 30
0.0
  0
VERTEX
  8
0
 10
11.3263510693
 20
-23.1347032805
 30
0.0
  0
VERTEX
  8
0
 10
11.3690001711
 20
-23.1086063921
 30
0.0
  0
VERTEX
  8
0
 10
11.4115011402
 20
-23.0822689501
 30
0.0
  0
VERTEX
  8
0
 10
11.4538497544
 20
-23.0556872302
 30
0.0
  0
VERTEX
  8
0
 10
11.4960415289
 20
-23.0288572687
 30
0.0
  0
VERTEX
  8
0
 10
11.5380716869
 20
-23.0017748358
 30
0.0
  0
VERTEX
  8
0
 10
11.5799351256
 20
-22.9744354045
 30
0.0
  0
VERTEX
  8
0
 10
11.6216263767
 20
-22.9468341147
 30
0.0
  0
VERTEX
  8
0
 10
11.6631395596
 20
-22.9189657304
 30
0.0
  0
VERTEX
  8
0
 10
11.7044683255
 20
-22.890824589
 30
0.0
  0
VERTEX
  8
0
 10
11.745605791
 20
-22.862404541
 30
0.0
  0
VERTEX
  8
0
 10
11.7865444574
 20
-22.833698876
 30
0.0
  0
VERTEX
  8
0
 10
11.8272761113
 20
-22.804700233
 30
0.0
  0
VERTEX
  8
0
 10
11.8677917028
 20
-22.7754004888
 30
0.0
  0
VERTEX
  8
0
 10
11.9080811904
 20
-22.7457906179
 30
0.0
  0
VERTEX
  8
0
 10
11.9481333448
 20
-22.7158605135
 30
0.0
  0
VERTEX
  8
0
 10
11.9879354922
 20
-22.6855987545
 30
0.0
  0
VERTEX
  8
0
 10
12.0274731729
 20
-22.654992296
 30
0.0
  0
VERTEX
  8
0
 10
12.0667296769
 20
-22.624026047
 30
0.0
  0
VERTEX
  8
0
 10
12.1056853893
 20
-22.5926822778
 30
0.0
  0
VERTEX
  8
0
 10
12.1443168367
 20
-22.5609397556
 30
0.0
  0
VERTEX
  8
0
 10
12.1825952313
 20
-22.5287724274
 30
0.0
  0
VERTEX
  8
0
 10
12.2204841168
 20
-22.4961472945
 30
0.0
  0
VERTEX
  8
0
 10
12.2579352699
 20
-22.4630207232
 30
0.0
  0
VERTEX
  8
0
 10
12.2948808711
 20
-22.4293314475
 30
0.0
  0
VERTEX
  8
0
 10
12.32439738
 20
-22.401539431
 30
0.0
  0
SEQEND
  8
0
  0
LINE
  8
0
 62
0
 10
20.0
 20
119.933259094
 30
0.0
 11
20.0
 21
114.933259094
 31
0.0
  0
LINE
  8
0
 62
0
 10
20.0
 20
119.933259094
 30
0.0
 11
35.7724392383
 21
119.933259094
 31
0.0
  0
ARC
  8
0
 62
0
 10
-1.42108547152e-14
 20
85.0
 30
0.0
 40
36.0
 50
-70.5672000423
 51
56.2510114041
  0
ARC
  8
0
 62
0
 10
2.13162820728e-14
 20
85.0
 30
0.0
 40
50.0
 50
-5.44033203101
 51
44.3200092188
  0
LINE
  8
0
 62
0
 10
11.9772374945
 20
51.0508353269
 30
0.0
 11
11.9772374945
 21
21.1669571746
 31
0.0
  0
LINE
  8
0
 62
0
 10
49.7747736297
 20
80.2595453686
 30
0.0
 11
49.7747736297
 21
46.907085
 31
0.0
  0
LINE
  8
0
 62
0
 10
52.5
 20
40.0
 30
0.0
 11
49.7747736297
 21
46.907085
 31
0.0
  0
LINE
  8
0
 62
0
 10
11.9772374945
 20
21.1669571746
 30
0.0
 11
9.69197052424
 21
16.71357205
 31
0.0
  0
ARC
  8
0
 62
0
 10
8.59604105895
 20
17.0408374921
 30
0.0
 40
1.14375
 50
-35.4428250911
 51
-16.6266283901
  0
ARC
  8
0
 62
0
 10
32.5
 20
-2.64339661271e-11
 30
0.0
 40
28.2125
 50
144.513704328
 51
146.9148671
  0
ARC
  8
0
 62
0
 10
7.90403487774
 20
16.0258508415
 30
0.0
 40
1.14375
 50
-120.853974152
 51
-33.1286034803
  0
LINE
  8
0
 62
0
 10
7.31746063072
 20
15.0439675922
 30
0.0
 11
6.61777313396
 21
15.4594386189
 31
0.0
  0
ARC
  8
0
 62
0
 10
32.5001811337
 20
-8.72293909859e-05
 30
0.0
 40
35.075
 50
152.544806663
 51
156.026621909
  0
LINE
  8
0
 62
0
 10
4.27601968608
 20
10.5967374789
 30
0.0
 11
5.03709603355
 21
10.3087417142
 31
0.0
  0
ARC
  8
0
 62
0
 10
4.63515185821
 20
9.23794530851
 30
0.0
 40
1.14375
 50
-18.2999679482
 51
69.4254027235
  0
ARC
  8
0
 62
0
 10
32.5
 20
-4.97024643664e-12
 30
0.0
 40
28.2125
 50
161.656561471
 51
164.057724243
  0
ARC
  8
0
 62
0
 10
4.27306213725
 20
8.06407926427
 30
0.0
 40
1.14375
 50
-103.711117009
 51
-15.9857463375
  0
LINE
  8
0
 62
0
 10
4.00196290661
 20
6.95292253831
 30
0.0
 11
3.21089832721
 21
7.14369884291
 31
0.0
  0
ARC
  8
0
 62
0
 10
32.5001987978
 20
-2.9963940972e-05
 30
0.0
 40
35.075
 50
169.687663806
 51
173.169479052
  0
LINE
  8
0
 62
0
 10
2.4064887372
 20
1.80678992489
 30
0.0
 11
3.21864083983
 21
1.75592019548
 31
0.0
  0
ARC
  8
0
 62
0
 10
3.15017669774
 20
0.614221144181
 30
0.0
 40
1.14375
 50
-1.15711080537
 51
86.5682598663
  0
ARC
  8
0
 62
0
 10
32.5
 20
1.64868119157e-13
 30
0.0
 40
28.2125
 50
178.799418614
 51
-178.799418614
  0
ARC
  8
0
 62
0
 10
3.15017669774
 20
-0.614221144181
 30
0.0
 40
1.14375
 50
-86.5682598663
 51
1.15711080537
  0
LINE
  8
0
 62
0
 10
3.21864083983
 20
-1.75592019548
 30
0.0
 11
2.4064887372
 21
-1.80678992489
 31
0.0
  0
ARC
  8
0
 62
0
 10
32.5001987978
 20
2.99639452215e-05
 30
0.0
 40
35.0750000001
 50
-173.169479052
 51
-169.687663806
  0
LINE
  8
0
 62
0
 10
3.21089832721
 20
-7.14369884291
 30
0.0
 11
4.00196290661
 21
-6.95292253831
 31
0.0
  0
ARC
  8
0
 62
0
 10
4.27306213725
 20
-8.06407926427
 30
0.0
 40
1.14375
 50
15.9857463375
 51
103.711117009
  0
ARC
  8
0
 62
0
 10
32.5
 20
1.68220992691e-12
 30
0.0
 40
28.2125
 50
-164.057724243
 51
-161.656561471
  0
ARC
  8
0
 62
0
 10
4.63515185821
 20
-9.23794530851
 30
0.0
 40
1.14375
 50
-69.4254027235
 51
18.2999679482
  0
LINE
  8
0
 62
0
 10
5.03709603355
 20
-10.3087417142
 30
0.0
 11
4.27601968608
 21
-10.5967374789
 31
0.0
  0
ARC
  8
0
 62
0
 10
32.5001811337
 20
8.72293838565e-05
 30
0.0
 40
35.075
 50
-156.026621909
 51
-152.544806663
  0
LINE
  8
0
 62
0
 10
6.61777313396
 20
-15.4594386189
 30
0.0
 11
7.31746063072
 21
-15.0439675922
 31
0.0
  0
ARC
  8
0
 62
0
 10
7.90403487774
 20
-16.0258508415
 30
0.0
 40
1.14375
 50
33.1286034803
 51
120.853974152
  0
ARC
  8
0
 62
0
 10
32.5000000001
 20
4.13278300471e-11
 30
0.0
 40
28.2125000001
 50
-146.9148671
 51
-144.513704328
  0
ARC
  8
0
 62
0
 10
8.59604105895
 20
-17.0408374921
 30
0.0
 40
1.14375
 50
-52.2825455806
 51
35.4428250911
  0
LINE
  8
0
 62
0
 10
9.29575076367
 20
-17.9455862924
 30
0.0
 11
8.65337514476
 21
-18.4451184049
 31
0.0
  0
ARC
  8
0
 62
0
 10
32.5001473751
 20
0.00013674412873
 30
0.0
 40
35.075
 50
-138.883764766
 51
-135.40194952
  0
LINE
  8
0
 62
0
 10
12.32439738
 20
-22.401539431
 30
0.0
 11
12.8705374895
 21
-21.7982901061
 31
0.0
  0
ARC
  8
0
 62
0
 10
13.720467057
 20
-22.5636552431
 30
0.0
 40
1.14375
 50
50.2714606232
 51
137.996831295
  0
ARC
  8
0
 62
0
 10
32.5
 20
2.25028884415e-11
 30
0.0
 40
28.2125
 50
-129.772009957
 51
-127.370847186
  0
ARC
  8
0
 62
0
 10
14.6809019124
 20
-23.3295764821
 30
0.0
 40
1.14375
 50
47.9289050547
 51
52.5856822339
  0
LINE
  8
0
 62
0
 10
32.5000065359
 20
-20.0
 30
0.0
 11
15.4472741338
 21
-22.48055488
 31
0.0
  0
ARC
  8
0
 62
0
 10
32.5
 20
-1.7763568394e-15
 30
0.0
 40
20.0
 50
-89.999981276
 51
0.0
  0
CIRCLE
  8
0
 62
0
 10
32.5
 20
0.0
 30
0.0
 40
2.5
  0
CIRCLE
  8
0
 62
0
 10
38.0
 20
30.0
 30
0.0
 40
0.5
  0
LINE
  8
0
 62
0
 10
52.5
 20
-3.10862446895e-15
 30
0.0
 11
52.5
 21
10.0
 31
0.0
  0
LINE
  8
0
 62
0
 10
52.5
 20
10.0
 30
0.0
 11
52.5
 21
20.0901113969
 31
0.0
  0
LINE
  8
0
 62
0
 10
52.5
 20
20.0901113969
 30
0.0
 11
52.5
 21
20.7362998592
 31
0.0
  0
LINE
  8
0
 62
0
 10
52.5
 20
20.7362998592
 30
0.0
 11
52.5
 21
27.6202865087
 31
0.0
  0
LINE
  8
0
 62
0
 10
52.5
 20
27.6202865087
 30
0.0
 11
52.5
 21
40.0
 31
0.0
  0
ENDBLK
  0
ENDSEC
  0
SECTION
  2
ENTITIES
  0
INSERT
  2
CUT006011
  8
0
 10
0.0
 20
0.0
 30
0.0
  0
ENDSEC
  0
EOF
