  0
SECTION
  2
HEADER
  9
$ACADVER
  1
AC1009
  9
$INSBASE
 10
0.0
 20
0.0
 30
0.0
  9
$EXTMIN
 10
0.0
 20
0.0
 30
0.0
  9
$EXTMAX
 10
0.0
 20
0.0
 30
0.0
  0
ENDSEC
  0
SECTION
  2
TABLES
  0
TABLE
  2
VPORT
 70
0
  0
ENDTAB
  0
TABLE
  2
LTYPE
 70
1
  0
LTYPE
  2
CONTINUOUS
 70
0
  3
Solid line
 72
65
 73
0
 40
0.0
  0
ENDTAB
  0
TABLE
  2
LAYER
 70
1
  0
LAYER
  2
0
 70
64
 62
7
  6
continuous
  0
ENDTAB
  0
TABLE
  2
STYLE
 70
1
  0
STYLE
  2
STANDARD
 70
0
 40
0
 41
1.0
 50
0.0
 71
0
 42
1
 3
ARIAL.TTF
 4

  0
ENDTAB
  0
TABLE
  2
VIEW
 70
0
  0
ENDTAB
  0
ENDSEC
  0
SECTION
  2
BLOCKS
  0
BLOCK
  8
0
  2
CUT005002
 70
0
 10
0.0
 20
0.0
 30
0.0
  3
CUT005002
  0
POLYLINE
  8
0
 62
0
 70
0
 66
1
 10
0.0
 20
0.0
 30
0.0
  0
VERTEX
  8
0
 10
-9.21096598908
 20
-19.1443152083
 30
0.0
  0
VERTEX
  8
0
 10
-9.16981202384
 20
-19.1727102141
 30
0.0
  0
VERTEX
  8
0
 10
-9.12817366727
 20
-19.2003904465
 30
0.0
  0
VERTEX
  8
0
 10
-9.08613201172
 20
-19.2274544387
 30
0.0
  0
VERTEX
  8
0
 10
-9.04374105327
 20
-19.2539681107
 30
0.0
  0
VERTEX
  8
0
 10
-9.001039692
 20
-19.279979014
 30
0.0
  0
VERTEX
  8
0
 10
-8.95805761196
 20
-19.3055234432
 30
0.0
  0
VERTEX
  8
0
 10
-8.91481841407
 20
-19.3306302478
 30
0.0
  0
VERTEX
  8
0
 10
-8.87134144294
 20
-19.3553230613
 30
0.0
  0
VERTEX
  8
0
 10
-8.82764293001
 20
-19.3796216986
 30
0.0
  0
VERTEX
  8
0
 10
-8.78373674942
 20
-19.4035430812
 30
0.0
  0
VERTEX
  8
0
 10
-8.73963494005
 20
-19.4271018767
 30
0.0
  0
VERTEX
  8
0
 10
-8.69534807917
 20
-19.4503109568
 30
0.0
  0
VERTEX
  8
0
 10
-8.65088555763
 20
-19.4731817349
 30
0.0
  0
VERTEX
  8
0
 10
-8.6062557878
 20
-19.4957244214
 30
0.0
  0
VERTEX
  8
0
 10
-8.56146636383
 20
-19.5179482199
 30
0.0
  0
VERTEX
  8
0
 10
-8.51652418746
 20
-19.5398614828
 30
0.0
  0
VERTEX
  8
0
 10
-8.4714355684
 20
-19.5614718333
 30
0.0
  0
VERTEX
  8
0
 10
-8.42620630545
 20
-19.5827862663
 30
0.0
  0
VERTEX
  8
0
 10
-8.3808417529
 20
-19.6038112293
 30
0.0
  0
VERTEX
  8
0
 10
-8.33534687543
 20
-19.6245526901
 30
0.0
  0
VERTEX
  8
0
 10
-8.28972629407
 20
-19.6450161934
 30
0.0
  0
VERTEX
  8
0
 10
-8.24398432483
 20
-19.6652069085
 30
0.0
  0
VERTEX
  8
0
 10
-8.19812501155
 20
-19.6851296692
 30
0.0
  0
VERTEX
  8
0
 10
-8.15215215404
 20
-19.7047890091
 30
0.0
  0
VERTEX
  8
0
 10
-8.10606933231
 20
-19.724189191
 30
0.0
  0
VERTEX
  8
0
 10
-8.05987992751
 20
-19.7433342327
 30
0.0
  0
VERTEX
  8
0
 10
-8.01358714027
 20
-19.76222793
 30
0.0
  0
VERTEX
  8
0
 10
-7.96719400671
 20
-19.7808738759
 30
0.0
  0
VERTEX
  8
0
 10
-7.92070341251
 20
-19.7992754784
 30
0.0
  0
VERTEX
  8
0
 10
-7.87411810546
 20
-19.8174359756
 30
0.0
  0
VERTEX
  8
0
 10
-7.82744070645
 20
-19.8353584496
 30
0.0
  0
VERTEX
  8
0
 10
-7.78067371939
 20
-19.8530458383
 30
0.0
  0
VERTEX
  8
0
 10
-7.73381954004
 20
-19.8705009469
 30
0.0
  0
VERTEX
  8
0
 10
-7.6868804639
 20
-19.8877264572
 30
0.0
  0
VERTEX
  8
0
 10
-7.63985869339
 20
-19.9047249364
 30
0.0
  0
VERTEX
  8
0
 10
-7.59275634428
 20
-19.9214988454
 30
0.0
  0
VERTEX
  8
0
 10
-7.54557545151
 20
-19.9380505457
 30
0.0
  0
VERTEX
  8
0
 10
-7.49831797455
 20
-19.9543823063
 30
0.0
  0
VERTEX
  8
0
 10
-7.45098580215
 20
-19.9704963092
 30
0.0
  0
VERTEX
  8
0
 10
-7.40358075684
 20
-19.9863946553
 30
0.0
  0
VERTEX
  8
0
 10
-7.35610459888
 20
-20.002079369
 30
0.0
  0
VERTEX
  8
0
 10
-7.30855903002
 20
-20.0175524033
 30
0.0
  0
VERTEX
  8
0
 10
-7.26094569685
 20
-20.0328156433
 30
0.0
  0
VERTEX
  8
0
 10
-7.213266194
 20
-20.0478709108
 30
0.0
  0
VERTEX
  8
0
 10
-7.16552206693
 20
-20.0627199672
 30
0.0
  0
VERTEX
  8
0
 10
-7.11771481467
 20
-20.0773645174
 30
0.0
  0
VERTEX
  8
0
 10
-7.06984589226
 20
-20.0918062124
 30
0.0
  0
VERTEX
  8
0
 10
-7.02191671304
 20
-20.1060466525
 30
0.0
  0
VERTEX
  8
0
 10
-6.97392865079
 20
-20.1200873897
 30
0.0
  0
VERTEX
  8
0
 10
-6.92588304168
 20
-20.1339299302
 30
0.0
  0
VERTEX
  8
0
 10
-6.87778118611
 20
-20.1475757366
 30
0.0
  0
VERTEX
  8
0
 10
-6.82962435048
 20
-20.1610262302
 30
0.0
  0
VERTEX
  8
0
 10
-6.78141376871
 20
-20.174282793
 30
0.0
  0
VERTEX
  8
0
 10
-6.73315064381
 20
-20.1873467695
 30
0.0
  0
VERTEX
  8
0
 10
-6.68483614925
 20
-20.2002194682
 30
0.0
  0
VERTEX
  8
0
 10
-6.63647143027
 20
-20.2129021636
 30
0.0
  0
VERTEX
  8
0
 10
-6.58805760512
 20
-20.2253960977
 30
0.0
  0
VERTEX
  8
0
 10
-6.53959576626
 20
-20.2377024811
 30
0.0
  0
VERTEX
  8
0
 10
-6.49108698137
 20
-20.2498224948
 30
0.0
  0
VERTEX
  8
0
 10
-6.44253229444
 20
-20.2617572912
 30
0.0
  0
VERTEX
  8
0
 10
-6.39393272674
 20
-20.2735079953
 30
0.0
  0
VERTEX
  8
0
 10
-6.34528927768
 20
-20.2850757061
 30
0.0
  0
VERTEX
  8
0
 10
-6.29660292571
 20
-20.2964614973
 30
0.0
  0
VERTEX
  8
0
 10
-6.24787462914
 20
-20.3076664185
 30
0.0
  0
VERTEX
  8
0
 10
-6.1991053269
 20
-20.3186914963
 30
0.0
  0
VERTEX
  8
0
 10
-6.15029593924
 20
-20.3295377351
 30
0.0
  0
VERTEX
  8
0
 10
-6.10144736849
 20
-20.3402061178
 30
0.0
  0
VERTEX
  8
0
 10
-6.05256049963
 20
-20.3506976067
 30
0.0
  0
VERTEX
  8
0
 10
-6.00363620097
 20
-20.3610131445
 30
0.0
  0
VERTEX
  8
0
 10
-5.95467532474
 20
-20.3711536549
 30
0.0
  0
VERTEX
  8
0
 10
-5.90567870761
 20
-20.381120043
 30
0.0
  0
VERTEX
  8
0
 10
-5.85664717127
 20
-20.3909131965
 30
0.0
  0
VERTEX
  8
0
 10
-5.80758152289
 20
-20.4005339861
 30
0.0
  0
VERTEX
  8
0
 10
-5.75848255564
 20
-20.4099832657
 30
0.0
  0
VERTEX
  8
0
 10
-5.70935104916
 20
-20.4192618738
 30
0.0
  0
VERTEX
  8
0
 10
-5.66018776993
 20
-20.4283706334
 30
0.0
  0
VERTEX
  8
0
 10
-5.61099347177
 20
-20.4373103526
 30
0.0
  0
VERTEX
  8
0
 10
-5.5617688962
 20
-20.4460818256
 30
0.0
  0
VERTEX
  8
0
 10
-5.51251477283
 20
-20.4546858324
 30
0.0
  0
VERTEX
  8
0
 10
-5.4632318197
 20
-20.4631231399
 30
0.0
  0
VERTEX
  8
0
 10
-5.41392074367
 20
-20.4713945021
 30
0.0
  0
VERTEX
  8
0
 10
-5.36458224074
 20
-20.4795006604
 30
0.0
  0
VERTEX
  8
0
 10
-5.31521699634
 20
-20.4874423443
 30
0.0
  0
VERTEX
  8
0
 10
-5.26582568568
 20
-20.4952202715
 30
0.0
  0
VERTEX
  8
0
 10
-5.216408974
 20
-20.5028351483
 30
0.0
  0
VERTEX
  8
0
 10
-5.1669675169
 20
-20.5102876702
 30
0.0
  0
VERTEX
  8
0
 10
-5.11750196056
 20
-20.517578522
 30
0.0
  0
VERTEX
  8
0
 10
-5.06801294203
 20
-20.5247083782
 30
0.0
  0
VERTEX
  8
0
 10
-5.01850108946
 20
-20.5316779032
 30
0.0
  0
VERTEX
  8
0
 10
-4.96896702236
 20
-20.538487752
 30
0.0
  0
VERTEX
  8
0
 10
-4.91941135181
 20
-20.5451385699
 30
0.0
  0
VERTEX
  8
0
 10
-4.86983468067
 20
-20.5516309933
 30
0.0
  0
VERTEX
  8
0
 10
-4.82023760384
 20
-20.5579656495
 30
0.0
  0
VERTEX
  8
0
 10
-4.77062070839
 20
-20.5641431575
 30
0.0
  0
VERTEX
  8
0
 10
-4.72098457383
 20
-20.5701641277
 30
0.0
  0
VERTEX
  8
0
 10
-4.67132977225
 20
-20.5760291625
 30
0.0
  0
VERTEX
  8
0
 10
-4.62165686851
 20
-20.5817388564
 30
0.0
  0
VERTEX
  8
0
 10
-4.57196642043
 20
-20.5872937962
 30
0.0
  0
VERTEX
  8
0
 10
-4.52225897895
 20
-20.5926945614
 30
0.0
  0
VERTEX
  8
0
 10
-4.47253508828
 20
-20.5979417241
 30
0.0
  0
VERTEX
  8
0
 10
-4.42279528609
 20
-20.6030358494
 30
0.0
  0
VERTEX
  8
0
 10
-4.3730401036
 20
-20.6079774955
 30
0.0
  0
VERTEX
  8
0
 10
-4.32327006581
 20
-20.6127672141
 30
0.0
  0
VERTEX
  8
0
 10
-4.27348569157
 20
-20.6174055502
 30
0.0
  0
VERTEX
  8
0
 10
-4.22368749374
 20
-20.6218930426
 30
0.0
  0
VERTEX
  8
0
 10
-4.17387597934
 20
-20.626230224
 30
0.0
  0
VERTEX
  8
0
 10
-4.13347737592
 20
-20.629636996
 30
0.0
  0
SEQEND
  8
0
  0
POLYLINE
  8
0
 62
0
 70
0
 66
1
 10
0.0
 20
0.0
 30
0.0
  0
VERTEX
  8
0
 10
-2.93295804318
 20
-18.8687985387
 30
0.0
  0
VERTEX
  8
0
 10
-2.95508431839
 20
-18.8239607637
 30
0.0
  0
VERTEX
  8
0
 10
-2.97734539984
 20
-18.7791897646
 30
0.0
  0
VERTEX
  8
0
 10
-2.99974159527
 20
-18.7344862018
 30
0.0
  0
VERTEX
  8
0
 10
-3.02227321594
 20
-18.6898507434
 30
0.0
  0
VERTEX
  8
0
 10
-3.04494057672
 20
-18.6452840651
 30
0.0
  0
VERTEX
  8
0
 10
-3.06774399617
 20
-18.6007868504
 30
0.0
  0
VERTEX
  8
0
 10
-3.09068379668
 20
-18.5563597913
 30
0.0
  0
VERTEX
  8
0
 10
-3.1137603046
 20
-18.5120035877
 30
0.0
  0
VERTEX
  8
0
 10
-3.13697385031
 20
-18.4677189482
 30
0.0
  0
VERTEX
  8
0
 10
-3.1603247684
 20
-18.4235065901
 30
0.0
  0
VERTEX
  8
0
 10
-3.18381339774
 20
-18.3793672396
 30
0.0
  0
VERTEX
  8
0
 10
-3.20744008168
 20
-18.3353016322
 30
0.0
  0
VERTEX
  8
0
 10
-3.23120516811
 20
-18.2913105127
 30
0.0
  0
VERTEX
  8
0
 10
-3.2551090097
 20
-18.2473946355
 30
0.0
  0
VERTEX
  8
0
 10
-3.27915196394
 20
-18.2035547649
 30
0.0
  0
VERTEX
  8
0
 10
-3.30333439339
 20
-18.1597916756
 30
0.0
  0
VERTEX
  8
0
 10
-3.32765666577
 20
-18.1161061526
 30
0.0
  0
VERTEX
  8
0
 10
-3.35211915417
 20
-18.0724989914
 30
0.0
  0
VERTEX
  8
0
 10
-3.3767222372
 20
-18.028970999
 30
0.0
  0
VERTEX
  8
0
 10
-3.40146629918
 20
-17.9855229933
 30
0.0
  0
VERTEX
  8
0
 10
-3.42635173032
 20
-17.9421558041
 30
0.0
  0
VERTEX
  8
0
 10
-3.45137892692
 20
-17.8988702732
 30
0.0
  0
VERTEX
  8
0
 10
-3.47654829158
 20
-17.8556672546
 30
0.0
  0
VERTEX
  8
0
 10
-3.50186023338
 20
-17.812547615
 30
0.0
  0
VERTEX
  8
0
 10
-3.52731516813
 20
-17.7695122343
 30
0.0
  0
VERTEX
  8
0
 10
-3.55291351858
 20
-17.7265620058
 30
0.0
  0
VERTEX
  8
0
 10
-3.57865571468
 20
-17.6836978368
 30
0.0
  0
VERTEX
  8
0
 10
-3.6045421938
 20
-17.6409206487
 30
0.0
  0
VERTEX
  8
0
 10
-3.63057340102
 20
-17.5982313778
 30
0.0
  0
VERTEX
  8
0
 10
-3.65674978936
 20
-17.5556309756
 30
0.0
  0
VERTEX
  8
0
 10
-3.6830718201
 20
-17.5131204094
 30
0.0
  0
VERTEX
  8
0
 10
-3.70953996307
 20
-17.4707006625
 30
0.0
  0
VERTEX
  8
0
 10
-3.73615469693
 20
-17.4283727351
 30
0.0
  0
VERTEX
  8
0
 10
-3.76291650955
 20
-17.3861376448
 30
0.0
  0
VERTEX
  8
0
 10
-3.78982589827
 20
-17.3439964271
 30
0.0
  0
VERTEX
  8
0
 10
-3.81688337033
 20
-17.3019501357
 30
0.0
  0
VERTEX
  8
0
 10
-3.8440894432
 20
-17.259999844
 30
0.0
  0
VERTEX
  8
0
 10
-3.87144464497
 20
-17.2181466448
 30
0.0
  0
VERTEX
  8
0
 10
-3.8989495148
 20
-17.1763916517
 30
0.0
  0
VERTEX
  8
0
 10
-3.9266046033
 20
-17.1347359995
 30
0.0
  0
VERTEX
  8
0
 10
-3.95441047299
 20
-17.0931808451
 30
0.0
  0
VERTEX
  8
0
 10
-3.98236769881
 20
-17.0517273684
 30
0.0
  0
VERTEX
  8
0
 10
-4.01047686859
 20
-17.0103767728
 30
0.0
  0
VERTEX
  8
0
 10
-4.0387385836
 20
-16.9691302869
 30
0.0
  0
VERTEX
  8
0
 10
-4.06715345907
 20
-16.9279891645
 30
0.0
  0
VERTEX
  8
0
 10
-4.09572212481
 20
-16.8869546863
 30
0.0
  0
VERTEX
  8
0
 10
-4.12444522581
 20
-16.8460281608
 30
0.0
  0
VERTEX
  8
0
 10
-4.15332342293
 20
-16.8052109253
 30
0.0
  0
VERTEX
  8
0
 10
-4.18235739353
 20
-16.7645043474
 30
0.0
  0
VERTEX
  8
0
 10
-4.21154783226
 20
-16.7239098259
 30
0.0
  0
VERTEX
  8
0
 10
-4.2408954518
 20
-16.6834287924
 30
0.0
  0
VERTEX
  8
0
 10
-4.27040098372
 20
-16.6430627128
 30
0.0
  0
VERTEX
  8
0
 10
-4.30006517931
 20
-16.6028130886
 30
0.0
  0
VERTEX
  8
0
 10
-4.32988881055
 20
-16.5626814587
 30
0.0
  0
VERTEX
  8
0
 10
-4.35987267108
 20
-16.5226694012
 30
0.0
  0
VERTEX
  8
0
 10
-4.39001757725
 20
-16.4827785348
 30
0.0
  0
VERTEX
  8
0
 10
-4.42032436927
 20
-16.4430105215
 30
0.0
  0
VERTEX
  8
0
 10
-4.45079391237
 20
-16.4033670679
 30
0.0
  0
VERTEX
  8
0
 10
-4.48142709812
 20
-16.3638499281
 30
0.0
  0
VERTEX
  8
0
 10
-4.51222484578
 20
-16.3244609057
 30
0.0
  0
VERTEX
  8
0
 10
-4.5431881038
 20
-16.2852018567
 30
0.0
  0
VERTEX
  8
0
 10
-4.57431785136
 20
-16.246074692
 30
0.0
  0
VERTEX
  8
0
 10
-4.60561510011
 20
-16.2070813803
 30
0.0
  0
VERTEX
  8
0
 10
-4.63708089598
 20
-16.1682239519
 30
0.0
  0
VERTEX
  8
0
 10
-4.66871632116
 20
-16.1295045013
 30
0.0
  0
VERTEX
  8
0
 10
-4.70052249621
 20
-16.0909251919
 30
0.0
  0
VERTEX
  8
0
 10
-4.73250058242
 20
-16.052488259
 30
0.0
  0
VERTEX
  8
0
 10
-4.76465178424
 20
-16.0141960152
 30
0.0
  0
VERTEX
  8
0
 10
-4.79697735205
 20
-15.9760508546
 30
0.0
  0
VERTEX
  8
0
 10
-4.82947858512
 20
-15.938055258
 30
0.0
  0
VERTEX
  8
0
 10
-4.86215683477
 20
-15.9002117988
 30
0.0
  0
VERTEX
  8
0
 10
-4.89501350796
 20
-15.862523149
 30
0.0
  0
VERTEX
  8
0
 10
-4.92805007114
 20
-15.8249920863
 30
0.0
  0
VERTEX
  8
0
 10
-4.96126805445
 20
-15.7876215012
 30
0.0
  0
VERTEX
  8
0
 10
-4.99466905644
 20
-15.7504144054
 30
0.0
  0
VERTEX
  8
0
 10
-5.02825474918
 20
-15.7133739408
 30
0.0
  0
VERTEX
  8
0
 10
-5.06202688399
 20
-15.6765033898
 30
0.0
  0
VERTEX
  8
0
 10
-5.09598729779
 20
-15.6398061862
 30
0.0
  0
VERTEX
  8
0
 10
-5.13013792014
 20
-15.6032859276
 30
0.0
  0
VERTEX
  8
0
 10
-5.16448078113
 20
-15.5669463899
 30
0.0
  0
VERTEX
  8
0
 10
-5.19901802028
 20
-15.5307915421
 30
0.0
  0
VERTEX
  8
0
 10
-5.2337518965
 20
-15.4948255645
 30
0.0
  0
VERTEX
  8
0
 10
-5.26868479939
 20
-15.4590528687
 30
0.0
  0
VERTEX
  8
0
 10
-5.30381926209
 20
-15.4234781198
 30
0.0
  0
VERTEX
  8
0
 10
-5.33915797593
 20
-15.3881062629
 30
0.0
  0
VERTEX
  8
0
 10
-5.3747038073
 20
-15.3529425524
 30
0.0
  0
VERTEX
  8
0
 10
-5.41045981708
 20
-15.3179925865
 30
0.0
  0
VERTEX
  8
0
 10
-5.44642928323
 20
-15.2832623474
 30
0.0
  0
VERTEX
  8
0
 10
-5.48261572723
 20
-15.2487582478
 30
0.0
  0
VERTEX
  8
0
 10
-5.51902294521
 20
-15.214487186
 30
0.0
  0
VERTEX
  8
0
 10
-5.55565504496
 20
-15.1804566116
 30
0.0
  0
VERTEX
  8
0
 10
-5.59251649027
 20
-15.1466746038
 30
0.0
  0
VERTEX
  8
0
 10
-5.62961215459
 20
-15.1131499667
 30
0.0
  0
VERTEX
  8
0
 10
-5.66694738677
 20
-15.0798923454
 30
0.0
  0
VERTEX
  8
0
 10
-5.70452809248
 20
-15.0469123709
 30
0.0
  0
VERTEX
  8
0
 10
-5.7423608365
 20
-15.014221841
 30
0.0
  0
VERTEX
  8
0
 10
-5.7804529735
 20
-14.9818339525
 30
0.0
  0
VERTEX
  8
0
 10
-5.818812818
 20
-14.9497636029
 30
0.0
  0
VERTEX
  8
0
 10
-5.85744987036
 20
-14.9180277921
 30
0.0
  0
VERTEX
  8
0
 10
-5.89637512475
 20
-14.8866461693
 30
0.0
  0
VERTEX
  8
0
 10
-5.93560150173
 20
-14.8556418028
 30
0.0
  0
VERTEX
  8
0
 10
-5.97514447839
 20
-14.8250423021
 30
0.0
  0
VERTEX
  8
0
 10
-6.0150230486
 20
-14.7948815306
 30
0.0
  0
VERTEX
  8
0
 10
-6.05526127156
 20
-14.7652023737
 30
0.0
  0
VERTEX
  8
0
 10
-6.0958909561
 20
-14.7360615548
 30
0.0
  0
VERTEX
  8
0
 10
-6.13695674094
 20
-14.707538826
 30
0.0
  0
VERTEX
  8
0
 10
-6.17061999476
 20
-14.684946663
 30
0.0
  0
SEQEND
  8
0
  0
POLYLINE
  8
0
 62
0
 70
0
 66
1
 10
0.0
 20
0.0
 30
0.0
  0
VERTEX
  8
0
 10
-4.60274645794
 20
-11.4292237167
 30
0.0
  0
VERTEX
  8
0
 10
-4.55505127301
 20
-11.4442268679
 30
0.0
  0
VERTEX
  8
0
 10
-4.50710390006
 20
-11.4584042242
 30
0.0
  0
VERTEX
  8
0
 10
-4.45895278556
 20
-11.4718738436
 30
0.0
  0
VERTEX
  8
0
 10
-4.41063009645
 20
-11.4847146332
 30
0.0
  0
VERTEX
  8
0
 10
-4.36215898852
 20
-11.4969834979
 30
0.0
  0
VERTEX
  8
0
 10
-4.31355712901
 20
-11.5087238692
 30
0.0
  0
VERTEX
  8
0
 10
-4.2648385668
 20
-11.5199702716
 30
0.0
  0
VERTEX
  8
0
 10
-4.21601482096
 20
-11.5307509905
 30
0.0
  0
VERTEX
  8
0
 10
-4.16709556128
 20
-11.5410897447
 30
0.0
  0
VERTEX
  8
0
 10
-4.1180890578
 20
-11.5510067935
 30
0.0
  0
VERTEX
  8
0
 10
-4.0690024912
 20
-11.5605197013
 30
0.0
  0
VERTEX
  8
0
 10
-4.01984217483
 20
-11.5696438857
 30
0.0
  0
VERTEX
  8
0
 10
-3.97061371817
 20
-11.578393021
 30
0.0
  0
VERTEX
  8
0
 10
-3.92132215033
 20
-11.5867793436
 30
0.0
  0
VERTEX
  8
0
 10
-3.87197201516
 20
-11.5948138866
 30
0.0
  0
VERTEX
  8
0
 10
-3.82256744599
 20
-11.6025066656
 30
0.0
  0
VERTEX
  8
0
 10
-3.77311222512
 20
-11.6098668252
 30
0.0
  0
VERTEX
  8
0
 10
-3.72360983201
 20
-11.6169027584
 30
0.0
  0
VERTEX
  8
0
 10
-3.67406348262
 20
-11.6236222047
 30
0.0
  0
VERTEX
  8
0
 10
-3.62447616201
 20
-11.63003233
 30
0.0
  0
VERTEX
  8
0
 10
-3.57485065158
 20
-11.6361397949
 30
0.0
  0
VERTEX
  8
0
 10
-3.52518955196
 20
-11.641950811
 30
0.0
  0
VERTEX
  8
0
 10
-3.47549530248
 20
-11.6474711895
 30
0.0
  0
VERTEX
  8
0
 10
-3.42577019788
 20
-11.6527063825
 30
0.0
  0
VERTEX
  8
0
 10
-3.37601640263
 20
-11.6576615185
 30
0.0
  0
VERTEX
  8
0
 10
-3.32623596337
 20
-11.6623414337
 30
0.0
  0
VERTEX
  8
0
 10
-3.27643081974
 20
-11.6667506985
 30
0.0
  0
VERTEX
  8
0
 10
-3.22660281388
 20
-11.6708936412
 30
0.0
  0
VERTEX
  8
0
 10
-3.17675369879
 20
-11.6747743689
 30
0.0
  0
VERTEX
  8
0
 10
-3.12688514571
 20
-11.6783967859
 30
0.0
  0
VERTEX
  8
0
 10
-3.07699875063
 20
-11.6817646097
 30
0.0
  0
VERTEX
  8
0
 10
-3.02709604024
 20
-11.684881386
 30
0.0
  0
VERTEX
  8
0
 10
-2.97717847702
 20
-11.6877505013
 30
0.0
  0
VERTEX
  8
0
 10
-2.92724746406
 20
-11.6903751948
 30
0.0
  0
VERTEX
  8
0
 10
-2.87730434918
 20
-11.6927585691
 30
0.0
  0
VERTEX
  8
0
 10
-2.82735042881
 20
-11.6949035993
 30
0.0
  0
VERTEX
  8
0
 10
-2.77738695141
 20
-11.6968131418
 30
0.0
  0
VERTEX
  8
0
 10
-2.72741512061
 20
-11.6984899422
 30
0.0
  0
VERTEX
  8
0
 10
-2.6774360981
 20
-11.6999366424
 30
0.0
  0
VERTEX
  8
0
 10
-2.62745100616
 20
-11.7011557872
 30
0.0
  0
VERTEX
  8
0
 10
-2.57746093015
 20
-11.7021498299
 30
0.0
  0
VERTEX
  8
0
 10
-2.5274669206
 20
-11.7029211382
 30
0.0
  0
VERTEX
  8
0
 10
-2.47746999526
 20
-11.703471999
 30
0.0
  0
VERTEX
  8
0
 10
-2.42747114096
 20
-11.703804623
 30
0.0
  0
VERTEX
  8
0
 10
-2.37747131528
 20
-11.703921149
 30
0.0
  0
VERTEX
  8
0
 10
-2.32747144816
 20
-11.7038236479
 30
0.0
  0
VERTEX
  8
0
 10
-2.27747244332
 20
-11.7035141264
 30
0.0
  0
VERTEX
  8
0
 10
-2.22747517965
 20
-11.7029945301
 30
0.0
  0
VERTEX
  8
0
 10
-2.17748051242
 20
-11.7022667471
 30
0.0
  0
VERTEX
  8
0
 10
-2.12748927449
 20
-11.7013326104
 30
0.0
  0
VERTEX
  8
0
 10
-2.07750227736
 20
-11.7001939011
 30
0.0
  0
VERTEX
  8
0
 10
-2.02752031222
 20
-11.6988523505
 30
0.0
  0
VERTEX
  8
0
 10
-1.97754415084
 20
-11.6973096431
 30
0.0
  0
VERTEX
  8
0
 10
-1.92757454651
 20
-11.6955674179
 30
0.0
  0
VERTEX
  8
0
 10
-1.87761223483
 20
-11.6936272714
 30
0.0
  0
VERTEX
  8
0
 10
-1.82765793451
 20
-11.6914907591
 30
0.0
  0
VERTEX
  8
0
 10
-1.77771234806
 20
-11.6891593973
 30
0.0
  0
VERTEX
  8
0
 10
-1.72777616253
 20
-11.6866346648
 30
0.0
  0
VERTEX
  8
0
 10
-1.67785005009
 20
-11.683918005
 30
0.0
  0
VERTEX
  8
0
 10
-1.62793466868
 20
-11.6810108267
 30
0.0
  0
VERTEX
  8
0
 10
-1.57803066256
 20
-11.6779145059
 30
0.0
  0
VERTEX
  8
0
 10
-1.52813866285
 20
-11.6746303874
 30
0.0
  0
VERTEX
  8
0
 10
-1.47825928804
 20
-11.6711597857
 30
0.0
  0
VERTEX
  8
0
 10
-1.42839314446
 20
-11.6675039861
 30
0.0
  0
VERTEX
  8
0
 10
-1.37854082673
 20
-11.6636642465
 30
0.0
  0
VERTEX
  8
0
 10
-1.32870291822
 20
-11.6596417978
 30
0.0
  0
VERTEX
  8
0
 10
-1.27887999142
 20
-11.6554378451
 30
0.0
  0
VERTEX
  8
0
 10
-1.22907260833
 20
-11.6510535691
 30
0.0
  0
VERTEX
  8
0
 10
-1.17928132084
 20
-11.6464901263
 30
0.0
  0
VERTEX
  8
0
 10
-1.12950667107
 20
-11.6417486506
 30
0.0
  0
VERTEX
  8
0
 10
-1.07974919169
 20
-11.6368302537
 30
0.0
  0
VERTEX
  8
0
 10
-1.03000940626
 20
-11.6317360258
 30
0.0
  0
VERTEX
  8
0
 10
-0.980287829475
 20
-11.6264670369
 30
0.0
  0
VERTEX
  8
0
 10
-0.930584967512
 20
-11.6210243369
 30
0.0
  0
VERTEX
  8
0
 10
-0.880901318255
 20
-11.6154089567
 30
0.0
  0
VERTEX
  8
0
 10
-0.831237371566
 20
-11.6096219087
 30
0.0
  0
VERTEX
  8
0
 10
-0.781593609536
 20
-11.6036641874
 30
0.0
  0
VERTEX
  8
0
 10
-0.731970506707
 20
-11.5975367701
 30
0.0
  0
VERTEX
  8
0
 10
-0.682368530309
 20
-11.5912406173
 30
0.0
  0
VERTEX
  8
0
 10
-0.63278814046
 20
-11.5847766735
 30
0.0
  0
VERTEX
  8
0
 10
-0.583229790382
 20
-11.5781458674
 30
0.0
  0
VERTEX
  8
0
 10
-0.533693926587
 20
-11.5713491129
 30
0.0
  0
VERTEX
  8
0
 10
-0.48418098907
 20
-11.5643873088
 30
0.0
  0
VERTEX
  8
0
 10
-0.434691411484
 20
-11.5572613401
 30
0.0
  0
VERTEX
  8
0
 10
-0.385225621313
 20
-11.5499720778
 30
0.0
  0
VERTEX
  8
0
 10
-0.335784040036
 20
-11.5425203798
 30
0.0
  0
VERTEX
  8
0
 10
-0.286367083283
 20
-11.5349070908
 30
0.0
  0
VERTEX
  8
0
 10
-0.236975160989
 20
-11.5271330431
 30
0.0
  0
VERTEX
  8
0
 10
-0.187608677534
 20
-11.519199057
 30
0.0
  0
VERTEX
  8
0
 10
-0.138268031887
 20
-11.5111059408
 30
0.0
  0
VERTEX
  8
0
 10
-0.0889536177369
 20
-11.5028544912
 30
0.0
  0
VERTEX
  8
0
 10
-0.0396658236198
 20
-11.494445494
 30
0.0
  0
VERTEX
  8
0
 10
0.00959496695487
 20
-11.4858797242
 30
0.0
  0
VERTEX
  8
0
 10
0.0588283753875
 20
-11.4771579462
 30
0.0
  0
VERTEX
  8
0
 10
0.108034027874
 20
-11.4682809141
 30
0.0
  0
VERTEX
  8
0
 10
0.157211555295
 20
-11.4592493721
 30
0.0
  0
VERTEX
  8
0
 10
0.206360593114
 20
-11.4500640549
 30
0.0
  0
VERTEX
  8
0
 10
0.255480781268
 20
-11.4407256877
 30
0.0
  0
VERTEX
  8
0
 10
0.304571764078
 20
-11.4312349865
 30
0.0
  0
VERTEX
  8
0
 10
0.353633190148
 20
-11.4215926584
 30
0.0
  0
VERTEX
  8
0
 10
0.402664712278
 20
-11.4117994019
 30
0.0
  0
VERTEX
  8
0
 10
0.451665987374
 20
-11.401855907
 30
0.0
  0
VERTEX
  8
0
 10
0.500636676362
 20
-11.3917628557
 30
0.0
  0
VERTEX
  8
0
 10
0.549576444112
 20
-11.3815209216
 30
0.0
  0
VERTEX
  8
0
 10
0.59848495935
 20
-11.3711307709
 30
0.0
  0
VERTEX
  8
0
 10
0.647361894589
 20
-11.3605930619
 30
0.0
  0
VERTEX
  8
0
 10
0.686969865072
 20
-11.3519407831
 30
0.0
  0
SEQEND
  8
0
  0
POLYLINE
  8
0
 62
0
 70
0
 66
1
 10
0.0
 20
0.0
 30
0.0
  0
VERTEX
  8
0
 10
1.31513724566
 20
-9.3154721526
 30
0.0
  0
VERTEX
  8
0
 10
1.28077781258
 20
-9.27914822825
 30
0.0
  0
VERTEX
  8
0
 10
1.24630924488
 20
-9.24292784797
 30
0.0
  0
VERTEX
  8
0
 10
1.21173144314
 20
-9.20681173358
 30
0.0
  0
VERTEX
  8
0
 10
1.17704430683
 20
-9.17080061513
 30
0.0
  0
VERTEX
  8
0
 10
1.14224773424
 20
-9.13489523114
 30
0.0
  0
VERTEX
  8
0
 10
1.10734162248
 20
-9.09909632879
 30
0.0
  0
VERTEX
  8
0
 10
1.07232586737
 20
-9.06340466413
 30
0.0
  0
VERTEX
  8
0
 10
1.03720036342
 20
-9.02782100231
 30
0.0
  0
VERTEX
  8
0
 10
1.00196500377
 20
-8.99234611781
 30
0.0
  0
VERTEX
  8
0
 10
0.966619680139
 20
-8.95698079466
 30
0.0
  0
VERTEX
  8
0
 10
0.931164282751
 20
-8.92172582674
 30
0.0
  0
VERTEX
  8
0
 10
0.895598700296
 20
-8.88658201798
 30
0.0
  0
VERTEX
  8
0
 10
0.859922819853
 20
-8.85155018264
 30
0.0
  0
VERTEX
  8
0
 10
0.82413652683
 20
-8.81663114561
 30
0.0
  0
VERTEX
  8
0
 10
0.7882397049
 20
-8.7818257427
 30
0.0
  0
VERTEX
  8
0
 10
0.752232235925
 20
-8.74713482088
 30
0.0
  0
VERTEX
  8
0
 10
0.716113999893
 20
-8.71255923867
 30
0.0
  0
VERTEX
  8
0
 10
0.679884874834
 20
-8.67809986639
 30
0.0
  0
VERTEX
  8
0
 10
0.643544736749
 20
-8.64375758655
 30
0.0
  0
VERTEX
  8
0
 10
0.607093459525
 20
-8.60953329417
 30
0.0
  0
VERTEX
  8
0
 10
0.570530914856
 20
-8.57542789713
 30
0.0
  0
VERTEX
  8
0
 10
0.533856972153
 20
-8.54144231657
 30
0.0
  0
VERTEX
  8
0
 10
0.497071498451
 20
-8.50757748729
 30
0.0
  0
VERTEX
  8
0
 10
0.46017435832
 20
-8.47383435813
 30
0.0
  0
VERTEX
  8
0
 10
0.423165413765
 20
-8.4402138924
 30
0.0
  0
VERTEX
  8
0
 10
0.386044524119
 20
-8.40671706834
 30
0.0
  0
VERTEX
  8
0
 10
0.348811545946
 20
-8.37334487957
 30
0.0
  0
VERTEX
  8
0
 10
0.311466332921
 20
-8.34009833559
 30
0.0
  0
VERTEX
  8
0
 10
0.274008735718
 20
-8.30697846225
 30
0.0
  0
VERTEX
  8
0
 10
0.236438601892
 20
-8.27398630232
 30
0.0
  0
VERTEX
  8
0
 10
0.198755775747
 20
-8.241122916
 30
0.0
  0
VERTEX
  8
0
 10
0.160960098208
 20
-8.20838938152
 30
0.0
  0
VERTEX
  8
0
 10
0.123051406681
 20
-8.17578679573
 30
0.0
  0
VERTEX
  8
0
 10
0.0850295349142
 20
-8.14331627476
 30
0.0
  0
VERTEX
  8
0
 10
0.0468943128389
 20
-8.11097895462
 30
0.0
  0
VERTEX
  8
0
 10
0.00864556641841
 20
-8.07877599196
 30
0.0
  0
VERTEX
  8
0
 10
-0.0297168825201
 20
-8.04670856475
 30
0.0
  0
VERTEX
  8
0
 10
-0.0681932164583
 20
-8.01477787305
 30
0.0
  0
VERTEX
  8
0
 10
-0.106783622369
 20
-7.98298513984
 30
0.0
  0
VERTEX
  8
0
 10
-0.145488291907
 20
-7.95133161181
 30
0.0
  0
VERTEX
  8
0
 10
-0.184307421609
 20
-7.91981856029
 30
0.0
  0
VERTEX
  8
0
 10
-0.223241213105
 20
-7.88844728216
 30
0.0
  0
VERTEX
  8
0
 10
-0.26228987334
 20
-7.85721910082
 30
0.0
  0
VERTEX
  8
0
 10
-0.301453614807
 20
-7.82613536724
 30
0.0
  0
VERTEX
  8
0
 10
-0.340732655795
 20
-7.79519746104
 30
0.0
  0
VERTEX
  8
0
 10
-0.380127220645
 20
-7.76440679165
 30
0.0
  0
VERTEX
  8
0
 10
-0.419637540027
 20
-7.73376479949
 30
0.0
  0
VERTEX
  8
0
 10
-0.459263851227
 20
-7.70327295731
 30
0.0
  0
VERTEX
  8
0
 10
-0.499006398454
 20
-7.67293277149
 30
0.0
  0
VERTEX
  8
0
 10
-0.538865433162
 20
-7.64274578351
 30
0.0
  0
VERTEX
  8
0
 10
-0.578841214396
 20
-7.61271357149
 30
0.0
  0
VERTEX
  8
0
 10
-0.618934009151
 20
-7.58283775174
 30
0.0
  0
VERTEX
  8
0
 10
-0.65914409276
 20
-7.55311998057
 30
0.0
  0
VERTEX
  8
0
 10
-0.699471749303
 20
-7.52356195606
 30
0.0
  0
VERTEX
  8
0
 10
-0.739917272041
 20
-7.49416541999
 30
0.0
  0
VERTEX
  8
0
 10
-0.780480963884
 20
-7.46493215998
 30
0.0
  0
VERTEX
  8
0
 10
-0.821163137882
 20
-7.43586401163
 30
0.0
  0
VERTEX
  8
0
 10
-0.861964117751
 20
-7.40696286094
 30
0.0
  0
VERTEX
  8
0
 10
-0.902884238443
 20
-7.37823064679
 30
0.0
  0
VERTEX
  8
0
 10
-0.943923846742
 20
-7.34966936367
 30
0.0
  0
VERTEX
  8
0
 10
-0.985083301917
 20
-7.32128106458
 30
0.0
  0
VERTEX
  8
0
 10
-1.02636297641
 20
-7.29306786414
 30
0.0
  0
VERTEX
  8
0
 10
-1.06776325659
 20
-7.26503194194
 30
0.0
  0
VERTEX
  8
0
 10
-1.10928454353
 20
-7.23717554616
 30
0.0
  0
VERTEX
  8
0
 10
-1.15092725392
 20
-7.20950099745
 30
0.0
  0
VERTEX
  8
0
 10
-1.19269182096
 20
-7.18201069312
 30
0.0
  0
VERTEX
  8
0
 10
-1.23457869536
 20
-7.15470711173
 30
0.0
  0
VERTEX
  8
0
 10
-1.27658834648
 20
-7.12759281801
 30
0.0
  0
VERTEX
  8
0
 10
-1.3187212635
 20
-7.10067046822
 30
0.0
  0
VERTEX
  8
0
 10
-1.36097795668
 20
-7.07394281597
 30
0.0
  0
VERTEX
  8
0
 10
-1.4033589588
 20
-7.04741271863
 30
0.0
  0
VERTEX
  8
0
 10
-1.44586482673
 20
-7.02108314429
 30
0.0
  0
VERTEX
  8
0
 10
-1.48849614303
 20
-6.99495717935
 30
0.0
  0
VERTEX
  8
0
 10
-1.53125351788
 20
-6.96903803694
 30
0.0
  0
VERTEX
  8
0
 10
-1.57413759108
 20
-6.94332906615
 30
0.0
  0
VERTEX
  8
0
 10
-1.61714903432
 20
-6.91783376222
 30
0.0
  0
VERTEX
  8
0
 10
-1.66028855363
 20
-6.89255577783
 30
0.0
  0
VERTEX
  8
0
 10
-1.7035568922
 20
-6.86749893567
 30
0.0
  0
VERTEX
  8
0
 10
-1.74695483338
 20
-6.84266724241
 30
0.0
  0
VERTEX
  8
0
 10
-1.79048320421
 20
-6.81806490433
 30
0.0
  0
VERTEX
  8
0
 10
-1.83414287921
 20
-6.7936963449
 30
0.0
  0
VERTEX
  8
0
 10
-1.87793478475
 20
-6.76956622457
 30
0.0
  0
VERTEX
  8
0
 10
-1.92185990397
 20
-6.74567946314
 30
0.0
  0
VERTEX
  8
0
 10
-1.96591928237
 20
-6.72204126524
 30
0.0
  0
VERTEX
  8
0
 10
-2.01011403416
 20
-6.69865714944
 30
0.0
  0
VERTEX
  8
0
 10
-2.05444534962
 20
-6.67553298162
 30
0.0
  0
VERTEX
  8
0
 10
-2.0989145035
 20
-6.65267501355
 30
0.0
  0
VERTEX
  8
0
 10
-2.14352286487
 20
-6.6300899278
 30
0.0
  0
VERTEX
  8
0
 10
-2.1882719086
 20
-6.60778489012
 30
0.0
  0
VERTEX
  8
0
 10
-2.23316322883
 20
-6.58576761133
 30
0.0
  0
VERTEX
  8
0
 10
-2.27819855507
 20
-6.56404642081
 30
0.0
  0
VERTEX
  8
0
 10
-2.32337977138
 20
-6.5426303546
 30
0.0
  0
VERTEX
  8
0
 10
-2.36870893968
 20
-6.52152926205
 30
0.0
  0
VERTEX
  8
0
 10
-2.41418832819
 20
-6.5007539365
 30
0.0
  0
VERTEX
  8
0
 10
-2.45982044672
 20
-6.48031627719
 30
0.0
  0
VERTEX
  8
0
 10
-2.50560809093
 20
-6.46022949285
 30
0.0
  0
VERTEX
  8
0
 10
-2.5515543989
 20
-6.44050836181
 30
0.0
  0
VERTEX
  8
0
 10
-2.59766292461
 20
-6.42116957059
 30
0.0
  0
VERTEX
  8
0
 10
-2.64393773559
 20
-6.40223216391
 30
0.0
  0
VERTEX
  8
0
 10
-2.69038354585
 20
-6.38371815868
 30
0.0
  0
VERTEX
  8
0
 10
-2.73700590243
 20
-6.36565340675
 30
0.0
  0
VERTEX
  8
0
 10
-2.78381145675
 20
-6.348068853
 30
0.0
  0
VERTEX
  8
0
 10
-2.83080837743
 20
-6.3310024549
 30
0.0
  0
VERTEX
  8
0
 10
-2.87800701412
 20
-6.31450228405
 30
0.0
  0
VERTEX
  8
0
 10
-2.92542104292
 20
-6.29863191976
 30
0.0
  0
VERTEX
  8
0
 10
-2.97306961206
 20
-6.28348072838
 30
0.0
  0
VERTEX
  8
0
 10
-3.0118964589
 20
-6.27181469005
 30
0.0
  0
SEQEND
  8
0
  0
POLYLINE
  8
0
 62
0
 70
0
 66
1
 10
0.0
 20
0.0
 30
0.0
  0
VERTEX
  8
0
 10
-2.47332032908
 20
-2.69859554156
 30
0.0
  0
VERTEX
  8
0
 10
-2.42332185097
 20
-2.69887374225
 30
0.0
  0
VERTEX
  8
0
 10
-2.37332579614
 20
-2.69828850212
 30
0.0
  0
VERTEX
  8
0
 10
-2.32334366052
 20
-2.69696691403
 30
0.0
  0
VERTEX
  8
0
 10
-2.27338292372
 20
-2.6949938607
 30
0.0
  0
VERTEX
  8
0
 10
-2.22344893978
 20
-2.69243054424
 30
0.0
  0
VERTEX
  8
0
 10
-2.17354578931
 20
-2.68932367428
 30
0.0
  0
VERTEX
  8
0
 10
-2.12367672083
 20
-2.68571038227
 30
0.0
  0
VERTEX
  8
0
 10
-2.07384440437
 20
-2.68162109231
 30
0.0
  0
VERTEX
  8
0
 10
-2.02405108883
 20
-2.67708131977
 30
0.0
  0
VERTEX
  8
0
 10
-1.97429870535
 20
-2.67211286141
 30
0.0
  0
VERTEX
  8
0
 10
-1.92458893838
 20
-2.66673461793
 30
0.0
  0
VERTEX
  8
0
 10
-1.87492327637
 20
-2.66096318279
 30
0.0
  0
VERTEX
  8
0
 10
-1.825303049
 20
-2.65481327626
 30
0.0
  0
VERTEX
  8
0
 10
-1.77572945526
 20
-2.64829807333
 30
0.0
  0
VERTEX
  8
0
 10
-1.72620358498
 20
-2.64142945652
 30
0.0
  0
VERTEX
  8
0
 10
-1.67672643579
 20
-2.63421821453
 30
0.0
  0
VERTEX
  8
0
 10
-1.62729892651
 20
-2.62667420058
 30
0.0
  0
VERTEX
  8
0
 10
-1.5779219081
 20
-2.61880646054
 30
0.0
  0
VERTEX
  8
0
 10
-1.52859617244
 20
-2.61062333779
 30
0.0
  0
VERTEX
  8
0
 10
-1.47932245975
 20
-2.60213255992
 30
0.0
  0
VERTEX
  8
0
 10
-1.43010146463
 20
-2.59334131131
 30
0.0
  0
VERTEX
  8
0
 10
-1.38093384125
 20
-2.58425629419
 30
0.0
  0
VERTEX
  8
0
 10
-1.33182020772
 20
-2.57488378058
 30
0.0
  0
VERTEX
  8
0
 10
-1.28276114979
 20
-2.56522965673
 30
0.0
  0
VERTEX
  8
0
 10
-1.23375722407
 20
-2.55529946139
 30
0.0
  0
VERTEX
  8
0
 10
-1.18480896083
 20
-2.54509841903
 30
0.0
  0
VERTEX
  8
0
 10
-1.13591686639
 20
-2.53463146873
 30
0.0
  0
VERTEX
  8
0
 10
-1.08708142523
 20
-2.52390328955
 30
0.0
  0
VERTEX
  8
0
 10
-1.03830310188
 20
-2.51291832281
 30
0.0
  0
VERTEX
  8
0
 10
-0.989582342546
 20
-2.50168079188
 30
0.0
  0
VERTEX
  8
0
 10
-0.940919576539
 20
-2.49019471966
 30
0.0
  0
VERTEX
  8
0
 10
-0.892315217613
 20
-2.4784639442
 30
0.0
  0
VERTEX
  8
0
 10
-0.843769665094
 20
-2.46649213271
 30
0.0
  0
VERTEX
  8
0
 10
-0.795283304928
 20
-2.45428279409
 30
0.0
  0
VERTEX
  8
0
 10
-0.74685651061
 20
-2.44183929021
 30
0.0
  0
VERTEX
  8
0
 10
-0.698489644026
 20
-2.42916484617
 30
0.0
  0
VERTEX
  8
0
 10
-0.650183056213
 20
-2.41626255954
 30
0.0
  0
VERTEX
  8
0
 10
-0.601937088051
 20
-2.40313540871
 30
0.0
  0
VERTEX
  8
0
 10
-0.553752070888
 20
-2.38978626063
 30
0.0
  0
VERTEX
  8
0
 10
-0.505628327114
 20
-2.37621787773
 30
0.0
  0
VERTEX
  8
0
 10
-0.457566170682
 20
-2.36243292435
 30
0.0
  0
VERTEX
  8
0
 10
-0.409565907584
 20
-2.3484339726
 30
0.0
  0
VERTEX
  8
0
 10
-0.361627836294
 20
-2.33422350773
 30
0.0
  0
VERTEX
  8
0
 10
-0.313752248169
 20
-2.31980393312
 30
0.0
  0
VERTEX
  8
0
 10
-0.265939427818
 20
-2.30517757486
 30
0.0
  0
VERTEX
  8
0
 10
-0.218189653446
 20
-2.29034668593
 30
0.0
  0
VERTEX
  8
0
 10
-0.170503197174
 20
-2.2753134502
 30
0.0
  0
VERTEX
  8
0
 10
-0.122880325325
 20
-2.26007998598
 30
0.0
  0
VERTEX
  8
0
 10
-0.0753212986996
 20
-2.24464834945
 30
0.0
  0
VERTEX
  8
0
 10
-0.0278263728275
 20
-2.22902053778
 30
0.0
  0
VERTEX
  8
0
 10
0.0196042017994
 20
-2.21319849205
 30
0.0
  0
VERTEX
  8
0
 10
0.0669701795082
 20
-2.19718409999
 30
0.0
  0
VERTEX
  8
0
 10
0.114271319243
 20
-2.18097919849
 30
0.0
  0
VERTEX
  8
0
 10
0.161507384372
 20
-2.16458557606
 30
0.0
  0
VERTEX
  8
0
 10
0.208678142517
 20
-2.14800497497
 30
0.0
  0
VERTEX
  8
0
 10
0.255783365379
 20
-2.13123909339
 30
0.0
  0
VERTEX
  8
0
 10
0.30282282859
 20
-2.11428958737
 30
0.0
  0
VERTEX
  8
0
 10
0.349796311566
 20
-2.09715807265
 30
0.0
  0
VERTEX
  8
0
 10
0.396703597367
 20
-2.07984612641
 30
0.0
  0
VERTEX
  8
0
 10
0.443544472572
 20
-2.06235528889
 30
0.0
  0
VERTEX
  8
0
 10
0.490318727159
 20
-2.04468706497
 30
0.0
  0
VERTEX
  8
0
 10
0.53702615439
 20
-2.02684292558
 30
0.0
  0
VERTEX
  8
0
 10
0.583666550702
 20
-2.0088243091
 30
0.0
  0
VERTEX
  8
0
 10
0.63023971561
 20
-1.99063262263
 30
0.0
  0
VERTEX
  8
0
 10
0.676745451613
 20
-1.97226924326
 30
0.0
  0
VERTEX
  8
0
 10
0.723183564096
 20
-1.9537355192
 30
0.0
  0
VERTEX
  8
0
 10
0.769553861256
 20
-1.93503277089
 30
0.0
  0
VERTEX
  8
0
 10
0.815856154014
 20
-1.91616229203
 30
0.0
  0
VERTEX
  8
0
 10
0.86209025594
 20
-1.89712535061
 30
0.0
  0
VERTEX
  8
0
 10
0.908255983186
 20
-1.87792318981
 30
0.0
  0
VERTEX
  8
0
 10
0.954353154412
 20
-1.85855702893
 30
0.0
  0
VERTEX
  8
0
 10
1.00038159072
 20
-1.8390280642
 30
0.0
  0
VERTEX
  8
0
 10
1.04634111561
 20
-1.81933746964
 30
0.0
  0
VERTEX
  8
0
 10
1.09223155489
 20
-1.7994863978
 30
0.0
  0
VERTEX
  8
0
 10
1.13805273664
 20
-1.7794759805
 30
0.0
  0
VERTEX
  8
0
 10
1.18380449118
 20
-1.75930732952
 30
0.0
  0
VERTEX
  8
0
 10
1.22948665097
 20
-1.73898153732
 30
0.0
  0
VERTEX
  8
0
 10
1.27509905061
 20
-1.71849967761
 30
0.0
  0
VERTEX
  8
0
 10
1.32064152675
 20
-1.69786280602
 30
0.0
  0
VERTEX
  8
0
 10
1.3661139181
 20
-1.67707196063
 30
0.0
  0
VERTEX
  8
0
 10
1.41151606535
 20
-1.65612816258
 30
0.0
  0
VERTEX
  8
0
 10
1.45684781112
 20
-1.63503241657
 30
0.0
  0
VERTEX
  8
0
 10
1.50210899997
 20
-1.61378571138
 30
0.0
  0
VERTEX
  8
0
 10
1.54729947833
 20
-1.59238902039
 30
0.0
  0
VERTEX
  8
0
 10
1.59241909446
 20
-1.57084330198
 30
0.0
  0
VERTEX
  8
0
 10
1.63746769845
 20
-1.54914950006
 30
0.0
  0
VERTEX
  8
0
 10
1.68244514214
 20
-1.52730854443
 30
0.0
  0
VERTEX
  8
0
 10
1.72735127915
 20
-1.50532135126
 30
0.0
  0
VERTEX
  8
0
 10
1.7721859648
 20
-1.48318882345
 30
0.0
  0
VERTEX
  8
0
 10
1.8169490561
 20
-1.46091185101
 30
0.0
  0
VERTEX
  8
0
 10
1.86164041173
 20
-1.43849131144
 30
0.0
  0
VERTEX
  8
0
 10
1.90625989203
 20
-1.4159280701
 30
0.0
  0
VERTEX
  8
0
 10
1.95080735893
 20
-1.3932229805
 30
0.0
  0
VERTEX
  8
0
 10
1.99528267595
 20
-1.37037688469
 30
0.0
  0
VERTEX
  8
0
 10
2.0396857082
 20
-1.34739061351
 30
0.0
  0
VERTEX
  8
0
 10
2.08401632234
 20
-1.32426498696
 30
0.0
  0
VERTEX
  8
0
 10
2.12827438654
 20
-1.30100081443
 30
0.0
  0
VERTEX
  8
0
 10
2.17245977049
 20
-1.27759889502
 30
0.0
  0
VERTEX
  8
0
 10
2.21657234538
 20
-1.25406001781
 30
0.0
  0
VERTEX
  8
0
 10
2.26061198384
 20
-1.23038496209
 30
0.0
  0
VERTEX
  8
0
 10
2.30457855999
 20
-1.20657449766
 30
0.0
  0
VERTEX
  8
0
 10
2.34847194937
 20
-1.18262938501
 30
0.0
  0
VERTEX
  8
0
 10
2.39229202893
 20
-1.15855037564
 30
0.0
  0
VERTEX
  8
0
 10
2.43603867706
 20
-1.13433821219
 30
0.0
  0
VERTEX
  8
0
 10
2.47971177349
 20
-1.10999362876
 30
0.0
  0
VERTEX
  8
0
 10
2.52331119938
 20
-1.08551735102
 30
0.0
  0
VERTEX
  8
0
 10
2.55860919494
 20
-1.06557481449
 30
0.0
  0
SEQEND
  8
0
  0
POLYLINE
  8
0
 62
0
 70
0
 66
1
 10
0.0
 20
0.0
 30
0.0
  0
VERTEX
  8
0
 10
2.55860919494
 20
1.06557481449
 30
0.0
  0
VERTEX
  8
0
 10
2.51506959041
 20
1.09015734811
 30
0.0
  0
VERTEX
  8
0
 10
2.47145621996
 20
1.11460876983
 30
0.0
  0
VERTEX
  8
0
 10
2.42776920133
 20
1.13892836062
 30
0.0
  0
VERTEX
  8
0
 10
2.38400865366
 20
1.1631153932
 30
0.0
  0
VERTEX
  8
0
 10
2.34017469744
 20
1.1871691319
 30
0.0
  0
VERTEX
  8
0
 10
2.29626745458
 20
1.2110888324
 30
0.0
  0
VERTEX
  8
0
 10
2.25228704838
 20
1.23487374154
 30
0.0
  0
VERTEX
  8
0
 10
2.20823360357
 20
1.25852309706
 30
0.0
  0
VERTEX
  8
0
 10
2.16410724632
 20
1.2820361274
 30
0.0
  0
VERTEX
  8
0
 10
2.11990810425
 20
1.30541205143
 30
0.0
  0
VERTEX
  8
0
 10
2.07563630647
 20
1.32865007821
 30
0.0
  0
VERTEX
  8
0
 10
2.03129198358
 20
1.3517494067
 30
0.0
  0
VERTEX
  8
0
 10
1.98687526767
 20
1.37470922552
 30
0.0
  0
VERTEX
  8
0
 10
1.94238629239
 20
1.39752871266
 30
0.0
  0
VERTEX
  8
0
 10
1.89782519293
 20
1.42020703517
 30
0.0
  0
VERTEX
  8
0
 10
1.85319210606
 20
1.44274334887
 30
0.0
  0
VERTEX
  8
0
 10
1.80848717015
 20
1.46513679802
 30
0.0
  0
VERTEX
  8
0
 10
1.76371052518
 20
1.48738651499
 30
0.0
  0
VERTEX
  8
0
 10
1.71886231278
 20
1.50949161996
 30
0.0
  0
VERTEX
  8
0
 10
1.67394267626
 20
1.53145122048
 30
0.0
  0
VERTEX
  8
0
 10
1.62895176061
 20
1.5532644112
 30
0.0
  0
VERTEX
  8
0
 10
1.58388971256
 20
1.57493027338
 30
0.0
  0
VERTEX
  8
0
 10
1.53875668058
 20
1.5964478746
 30
0.0
  0
VERTEX
  8
0
 10
1.49355281494
 20
1.61781626824
 30
0.0
  0
VERTEX
  8
0
 10
1.44827826771
 20
1.6390344931
 30
0.0
  0
VERTEX
  8
0
 10
1.40293319282
 20
1.66010157295
 30
0.0
  0
VERTEX
  8
0
 10
1.35751774608
 20
1.68101651603
 30
0.0
  0
VERTEX
  8
0
 10
1.31203208522
 20
1.70177831457
 30
0.0
  0
VERTEX
  8
0
 10
1.26647636992
 20
1.72238594426
 30
0.0
  0
VERTEX
  8
0
 10
1.22085076187
 20
1.74283836375
 30
0.0
  0
VERTEX
  8
0
 10
1.17515542479
 20
1.76313451403
 30
0.0
  0
VERTEX
  8
0
 10
1.1293905245
 20
1.78327331789
 30
0.0
  0
VERTEX
  8
0
 10
1.08355622891
 20
1.80325367928
 30
0.0
  0
VERTEX
  8
0
 10
1.03765270815
 20
1.82307448267
 30
0.0
  0
VERTEX
  8
0
 10
0.991680134557
 20
1.84273459237
 30
0.0
  0
VERTEX
  8
0
 10
0.945638682747
 20
1.86223285184
 30
0.0
  0
VERTEX
  8
0
 10
0.899528529677
 20
1.8815680829
 30
0.0
  0
VERTEX
  8
0
 10
0.853349854699
 20
1.90073908504
 30
0.0
  0
VERTEX
  8
0
 10
0.807102839623
 20
1.91974463449
 30
0.0
  0
VERTEX
  8
0
 10
0.760787668782
 20
1.93858348346
 30
0.0
  0
VERTEX
  8
0
 10
0.714404529098
 20
1.95725435917
 30
0.0
  0
VERTEX
  8
0
 10
0.667953610161
 20
1.97575596294
 30
0.0
  0
VERTEX
  8
0
 10
0.621435104301
 20
1.99408696914
 30
0.0
  0
VERTEX
  8
0
 10
0.574849206669
 20
2.01224602421
 30
0.0
  0
VERTEX
  8
0
 10
0.528196115326
 20
2.03023174546
 30
0.0
  0
VERTEX
  8
0
 10
0.481476031332
 20
2.04804271997
 30
0.0
  0
VERTEX
  8
0
 10
0.43468915884
 20
2.06567750331
 30
0.0
  0
VERTEX
  8
0
 10
0.387835705204
 20
2.08313461823
 30
0.0
  0
VERTEX
  8
0
 10
0.340915881078
 20
2.10041255329
 30
0.0
  0
VERTEX
  8
0
 10
0.29392990054
 20
2.11750976136
 30
0.0
  0
VERTEX
  8
0
 10
0.246877981208
 20
2.1344246581
 30
0.0
  0
VERTEX
  8
0
 10
0.199760344373
 20
2.15115562028
 30
0.0
  0
VERTEX
  8
0
 10
0.152577215134
 20
2.16770098405
 30
0.0
  0
VERTEX
  8
0
 10
0.105328822549
 20
2.18405904304
 30
0.0
  0
VERTEX
  8
0
 10
0.0580153997892
 20
2.20022804638
 30
0.0
  0
VERTEX
  8
0
 10
0.010637184308
 20
2.21620619661
 30
0.0
  0
VERTEX
  8
0
 10
-0.0368055819797
 20
2.23199164739
 30
0.0
  0
VERTEX
  8
0
 10
-0.0843126525056
 20
2.24758250111
 30
0.0
  0
VERTEX
  8
0
 10
-0.131883775842
 20
2.26297680629
 30
0.0
  0
VERTEX
  8
0
 10
-0.179518695481
 20
2.27817255484
 30
0.0
  0
VERTEX
  8
0
 10
-0.227217149596
 20
2.29316767906
 30
0.0
  0
VERTEX
  8
0
 10
-0.27497887079
 20
2.30796004851
 30
0.0
  0
VERTEX
  8
0
 10
-0.322803585814
 20
2.32254746654
 30
0.0
  0
VERTEX
  8
0
 10
-0.370691015277
 20
2.33692766664
 30
0.0
  0
VERTEX
  8
0
 10
-0.41864087332
 20
2.35109830844
 30
0.0
  0
VERTEX
  8
0
 10
-0.466652867269
 20
2.36505697344
 30
0.0
  0
VERTEX
  8
0
 10
-0.51472669726
 20
2.37880116034
 30
0.0
  0
VERTEX
  8
0
 10
-0.56286205583
 20
2.39232828003
 30
0.0
  0
VERTEX
  8
0
 10
-0.611058627468
 20
2.40563565006
 30
0.0
  0
VERTEX
  8
0
 10
-0.659316088131
 20
2.41872048874
 30
0.0
  0
VERTEX
  8
0
 10
-0.707634104713
 20
2.43157990861
 30
0.0
  0
VERTEX
  8
0
 10
-0.756012334464
 20
2.44421090933
 30
0.0
  0
VERTEX
  8
0
 10
-0.804450424348
 20
2.45661036988
 30
0.0
  0
VERTEX
  8
0
 10
-0.852948010345
 20
2.46877504004
 30
0.0
  0
VERTEX
  8
0
 10
-0.901504716671
 20
2.48070153091
 30
0.0
  0
VERTEX
  8
0
 10
-0.950120154923
 20
2.49238630457
 30
0.0
  0
VERTEX
  8
0
 10
-0.998793923131
 20
2.5038256625
 30
0.0
  0
VERTEX
  8
0
 10
-1.04752560469
 20
2.51501573278
 30
0.0
  0
VERTEX
  8
0
 10
-1.09631476719
 20
2.52595245586
 30
0.0
  0
VERTEX
  8
0
 10
-1.14516096109
 20
2.53663156855
 30
0.0
  0
VERTEX
  8
0
 10
-1.19406371821
 20
2.54704858614
 30
0.0
  0
VERTEX
  8
0
 10
-1.24302255009
 20
2.55719878218
 30
0.0
  0
VERTEX
  8
0
 10
-1.29203694604
 20
2.56707716564
 30
0.0
  0
VERTEX
  8
0
 10
-1.34110637102
 20
2.57667845496
 30
0.0
  0
VERTEX
  8
0
 10
-1.39023026312
 20
2.58599704834
 30
0.0
  0
VERTEX
  8
0
 10
-1.43940803074
 20
2.59502698965
 30
0.0
  0
VERTEX
  8
0
 10
-1.48863904924
 20
2.60376192912
 30
0.0
  0
VERTEX
  8
0
 10
-1.53792265718
 20
2.61219507754
 30
0.0
  0
VERTEX
  8
0
 10
-1.58725815172
 20
2.6203191528
 30
0.0
  0
VERTEX
  8
0
 10
-1.6366447834
 20
2.62812631674
 30
0.0
  0
VERTEX
  8
0
 10
-1.68608174975
 20
2.63560810027
 30
0.0
  0
VERTEX
  8
0
 10
-1.73556818772
 20
2.64275531346
 30
0.0
  0
VERTEX
  8
0
 10
-1.78510316447
 20
2.64955793676
 30
0.0
  0
VERTEX
  8
0
 10
-1.83468566606
 20
2.65600498779
 30
0.0
  0
VERTEX
  8
0
 10
-1.88431458344
 20
2.66208435618
 30
0.0
  0
VERTEX
  8
0
 10
-1.93398869471
 20
2.667782596
 30
0.0
  0
VERTEX
  8
0
 10
-1.98370664254
 20
2.6730846605
 30
0.0
  0
VERTEX
  8
0
 10
-2.0334669046
 20
2.67797355696
 30
0.0
  0
VERTEX
  8
0
 10
-2.08326775418
 20
2.68242988781
 30
0.0
  0
VERTEX
  8
0
 10
-2.13310720625
 20
2.68643122482
 30
0.0
  0
VERTEX
  8
0
 10
-2.18298294144
 20
2.68995122967
 30
0.0
  0
VERTEX
  8
0
 10
-2.23289219452
 20
2.69295837171
 30
0.0
  0
VERTEX
  8
0
 10
-2.28283158302
 20
2.69541397207
 30
0.0
  0
VERTEX
  8
0
 10
-2.33279682745
 20
2.69726904424
 30
0.0
  0
VERTEX
  8
0
 10
-2.38278225598
 20
2.69845880244
 30
0.0
  0
VERTEX
  8
0
 10
-2.43277982494
 20
2.69889220659
 30
0.0
  0
VERTEX
  8
0
 10
-2.47332032908
 20
2.69859554156
 30
0.0
  0
SEQEND
  8
0
  0
POLYLINE
  8
0
 62
0
 70
0
 66
1
 10
0.0
 20
0.0
 30
0.0
  0
VERTEX
  8
0
 10
-3.0118964589
 20
6.27181469005
 30
0.0
  0
VERTEX
  8
0
 10
-2.96403727179
 20
6.28628615917
 30
0.0
  0
VERTEX
  8
0
 10
-2.91643490396
 20
6.30158199459
 30
0.0
  0
VERTEX
  8
0
 10
-2.86906287931
 20
6.31757736133
 30
0.0
  0
VERTEX
  8
0
 10
-2.82190332555
 20
6.33418894312
 30
0.0
  0
VERTEX
  8
0
 10
-2.77494331921
 20
6.35135667877
 30
0.0
  0
VERTEX
  8
0
 10
-2.72817299169
 20
6.36903473104
 30
0.0
  0
VERTEX
  8
0
 10
-2.68158450251
 20
6.3871866606
 30
0.0
  0
VERTEX
  8
0
 10
-2.63517143543
 20
6.40578260801
 30
0.0
  0
VERTEX
  8
0
 10
-2.58892841864
 20
6.4247975286
 30
0.0
  0
VERTEX
  8
0
 10
-2.54285087277
 20
6.44421002476
 30
0.0
  0
VERTEX
  8
0
 10
-2.49693483637
 20
6.46400153901
 30
0.0
  0
VERTEX
  8
0
 10
-2.45117684074
 20
6.48415577635
 30
0.0
  0
VERTEX
  8
0
 10
-2.40557381762
 20
6.50465827856
 30
0.0
  0
VERTEX
  8
0
 10
-2.36012302933
 20
6.52549610257
 30
0.0
  0
VERTEX
  8
0
 10
-2.31482201486
 20
6.54665757254
 30
0.0
  0
VERTEX
  8
0
 10
-2.26966854747
 20
6.56813208503
 30
0.0
  0
VERTEX
  8
0
 10
-2.2246606009
 20
6.58990995372
 30
0.0
  0
VERTEX
  8
0
 10
-2.17979632196
 20
6.61198228381
 30
0.0
  0
VERTEX
  8
0
 10
-2.13507400811
 20
6.6343408692
 30
0.0
  0
VERTEX
  8
0
 10
-2.09049208893
 20
6.65697810741
 30
0.0
  0
VERTEX
  8
0
 10
-2.04604911054
 20
6.67988692852
 30
0.0
  0
VERTEX
  8
0
 10
-2.00174372252
 20
6.70306073522
 30
0.0
  0
VERTEX
  8
0
 10
-1.95757466681
 20
6.72649335196
 30
0.0
  0
VERTEX
  8
0
 10
-1.91354076813
 20
6.75017898136
 30
0.0
  0
VERTEX
  8
0
 10
-1.8696409258
 20
6.77411216665
 30
0.0
  0
VERTEX
  8
0
 10
-1.82587410658
 20
6.79828775919
 30
0.0
  0
VERTEX
  8
0
 10
-1.78223933847
 20
6.82270089008
 30
0.0
  0
VERTEX
  8
0
 10
-1.73873570527
 20
6.84734694534
 30
0.0
  0
VERTEX
  8
0
 10
-1.69536234175
 20
6.87222154403
 30
0.0
  0
VERTEX
  8
0
 10
-1.65211842944
 20
6.8973205189
 30
0.0
  0
VERTEX
  8
0
 10
-1.60900319281
 20
6.92263989924
 30
0.0
  0
VERTEX
  8
0
 10
-1.56601589595
 20
6.94817589555
 30
0.0
  0
VERTEX
  8
0
 10
-1.5231558395
 20
6.97392488585
 30
0.0
  0
VERTEX
  8
0
 10
-1.48042235801
 20
6.99988340337
 30
0.0
  0
VERTEX
  8
0
 10
-1.43781481744
 20
7.02604812549
 30
0.0
  0
VERTEX
  8
0
 10
-1.395332613
 20
7.05241586373
 30
0.0
  0
VERTEX
  8
0
 10
-1.35297516709
 20
7.07898355469
 30
0.0
  0
VERTEX
  8
0
 10
-1.31074192756
 20
7.10574825179
 30
0.0
  0
VERTEX
  8
0
 10
-1.26863236598
 20
7.13270711782
 30
0.0
  0
VERTEX
  8
0
 10
-1.22664597619
 20
7.15985741803
 30
0.0
  0
VERTEX
  8
0
 10
-1.18478227285
 20
7.18719651391
 30
0.0
  0
VERTEX
  8
0
 10
-1.14304079023
 20
7.21472185744
 30
0.0
  0
VERTEX
  8
0
 10
-1.10142108099
 20
7.24243098578
 30
0.0
  0
VERTEX
  8
0
 10
-1.05992271515
 20
7.27032151648
 30
0.0
  0
VERTEX
  8
0
 10
-1.01854527903
 20
7.29839114288
 30
0.0
  0
VERTEX
  8
0
 10
-0.977288374414
 20
7.3266376301
 30
0.0
  0
VERTEX
  8
0
 10
-0.936151617617
 20
7.35505881109
 30
0.0
  0
VERTEX
  8
0
 10
-0.895134638748
 20
7.38365258313
 30
0.0
  0
VERTEX
  8
0
 10
-0.854237080952
 20
7.41241690453
 30
0.0
  0
VERTEX
  8
0
 10
-0.81345859973
 20
7.44134979154
 30
0.0
  0
VERTEX
  8
0
 10
-0.772798862302
 20
7.47044931546
 30
0.0
  0
VERTEX
  8
0
 10
-0.73225754701
 20
7.49971360004
 30
0.0
  0
VERTEX
  8
0
 10
-0.691834342762
 20
7.52914081892
 30
0.0
  0
VERTEX
  8
0
 10
-0.651528948512
 20
7.55872919332
 30
0.0
  0
VERTEX
  8
0
 10
-0.611341072768
 20
7.58847698988
 30
0.0
  0
VERTEX
  8
0
 10
-0.571270433138
 20
7.61838251856
 30
0.0
  0
VERTEX
  8
0
 10
-0.531316755897
 20
7.64844413076
 30
0.0
  0
VERTEX
  8
0
 10
-0.491479775582
 20
7.67866021752
 30
0.0
  0
VERTEX
  8
0
 10
-0.451759234612
 20
7.70902920777
 30
0.0
  0
VERTEX
  8
0
 10
-0.412154882929
 20
7.73954956679
 30
0.0
  0
VERTEX
  8
0
 10
-0.372666477658
 20
7.77021979467
 30
0.0
  0
VERTEX
  8
0
 10
-0.333293782787
 20
7.80103842487
 30
0.0
  0
VERTEX
  8
0
 10
-0.294036568865
 20
7.83200402293
 30
0.0
  0
VERTEX
  8
0
 10
-0.254894612716
 20
7.86311518515
 30
0.0
  0
VERTEX
  8
0
 10
-0.215867697167
 20
7.89437053743
 30
0.0
  0
VERTEX
  8
0
 10
-0.176955610793
 20
7.92576873407
 30
0.0
  0
VERTEX
  8
0
 10
-0.138158147673
 20
7.95730845678
 30
0.0
  0
VERTEX
  8
0
 10
-0.0994751071549
 20
7.98898841359
 30
0.0
  0
VERTEX
  8
0
 10
-0.0609062936427
 20
8.02080733789
 30
0.0
  0
VERTEX
  8
0
 10
-0.0224515163823
 20
8.05276398755
 30
0.0
  0
VERTEX
  8
0
 10
0.0158894107354
 20
8.08485714399
 30
0.0
  0
VERTEX
  8
0
 10
0.0541166693633
 20
8.11708561138
 30
0.0
  0
VERTEX
  8
0
 10
0.0922304368789
 20
8.14944821584
 30
0.0
  0
VERTEX
  8
0
 10
0.130230886556
 20
8.18194380469
 30
0.0
  0
VERTEX
  8
0
 10
0.168118187728
 20
8.21457124572
 30
0.0
  0
VERTEX
  8
0
 10
0.205892505946
 20
8.24732942651
 30
0.0
  0
VERTEX
  8
0
 10
0.243554003126
 20
8.28021725377
 30
0.0
  0
VERTEX
  8
0
 10
0.281102837693
 20
8.31323365273
 30
0.0
  0
VERTEX
  8
0
 10
0.318539164718
 20
8.34637756652
 30
0.0
  0
VERTEX
  8
0
 10
0.355863136048
 20
8.37964795563
 30
0.0
  0
VERTEX
  8
0
 10
0.393074900432
 20
8.41304379733
 30
0.0
  0
VERTEX
  8
0
 10
0.430174603638
 20
8.44656408516
 30
0.0
  0
VERTEX
  8
0
 10
0.467162388572
 20
8.48020782846
 30
0.0
  0
VERTEX
  8
0
 10
0.504038395386
 20
8.51397405184
 30
0.0
  0
VERTEX
  8
0
 10
0.540802761583
 20
8.54786179475
 30
0.0
  0
VERTEX
  8
0
 10
0.577455622119
 20
8.58187011105
 30
0.0
  0
VERTEX
  8
0
 10
0.613997109502
 20
8.61599806856
 30
0.0
  0
VERTEX
  8
0
 10
0.650427353882
 20
8.65024474867
 30
0.0
  0
VERTEX
  8
0
 10
0.686746483146
 20
8.68460924596
 30
0.0
  0
VERTEX
  8
0
 10
0.722954622998
 20
8.71909066781
 30
0.0
  0
VERTEX
  8
0
 10
0.759051897049
 20
8.75368813403
 30
0.0
  0
VERTEX
  8
0
 10
0.79503842689
 20
8.78840077657
 30
0.0
  0
VERTEX
  8
0
 10
0.830914332177
 20
8.82322773911
 30
0.0
  0
VERTEX
  8
0
 10
0.866679730697
 20
8.85816817682
 30
0.0
  0
VERTEX
  8
0
 10
0.902334738445
 20
8.89322125597
 30
0.0
  0
VERTEX
  8
0
 10
0.937879469691
 20
8.92838615373
 30
0.0
  0
VERTEX
  8
0
 10
0.973314037046
 20
8.96366205778
 30
0.0
  0
VERTEX
  8
0
 10
1.00863855153
 20
8.99904816612
 30
0.0
  0
VERTEX
  8
0
 10
1.04385312262
 20
9.03454368677
 30
0.0
  0
VERTEX
  8
0
 10
1.07895785834
 20
9.0701478375
 30
0.0
  0
VERTEX
  8
0
 10
1.11395286527
 20
9.10585984563
 30
0.0
  0
VERTEX
  8
0
 10
1.14883824866
 20
9.14167894775
 30
0.0
  0
VERTEX
  8
0
 10
1.18361411243
 20
9.17760438949
 30
0.0
  0
VERTEX
  8
0
 10
1.21828055926
 20
9.21363542535
 30
0.0
  0
VERTEX
  8
0
 10
1.25283769063
 20
9.2497713184
 30
0.0
  0
VERTEX
  8
0
 10
1.28728560684
 20
9.28601134018
 30
0.0
  0
VERTEX
  8
0
 10
1.31513724566
 20
9.3154721526
 30
0.0
  0
SEQEND
  8
0
  0
POLYLINE
  8
0
 62
0
 70
0
 66
1
 10
0.0
 20
0.0
 30
0.0
  0
VERTEX
  8
0
 10
0.686969865072
 20
11.3519407831
 30
0.0
  0
VERTEX
  8
0
 10
0.638118774031
 20
11.36259766
 30
0.0
  0
VERTEX
  8
0
 10
0.58923584018
 20
11.3731075071
 30
0.0
  0
VERTEX
  8
0
 10
0.54032138799
 20
11.3834696719
 30
0.0
  0
VERTEX
  8
0
 10
0.491375745661
 20
11.3936834946
 30
0.0
  0
VERTEX
  8
0
 10
0.442399245186
 20
11.4037483078
 30
0.0
  0
VERTEX
  8
0
 10
0.39339222244
 20
11.4136634361
 30
0.0
  0
VERTEX
  8
0
 10
0.344355017247
 20
11.4234281961
 30
0.0
  0
VERTEX
  8
0
 10
0.295287973473
 20
11.4330418963
 30
0.0
  0
VERTEX
  8
0
 10
0.246191439106
 20
11.4425038366
 30
0.0
  0
VERTEX
  8
0
 10
0.197065766342
 20
11.4518133081
 30
0.0
  0
VERTEX
  8
0
 10
0.147911311685
 20
11.460969593
 30
0.0
  0
VERTEX
  8
0
 10
0.0987284360346
 20
11.4699719645
 30
0.0
  0
VERTEX
  8
0
 10
0.0495175047871
 20
11.4788196862
 30
0.0
  0
VERTEX
  8
0
 10
0.000278887939609
 20
11.4875120119
 30
0.0
  0
VERTEX
  8
0
 10
-0.0489870398053
 20
11.4960481855
 30
0.0
  0
VERTEX
  8
0
 10
-0.0982798989281
 20
11.5044274407
 30
0.0
  0
VERTEX
  8
0
 10
-0.147599304978
 20
11.5126490006
 30
0.0
  0
VERTEX
  8
0
 10
-0.196944868453
 20
11.5207120772
 30
0.0
  0
VERTEX
  8
0
 10
-0.246316194676
 20
11.5286158717
 30
0.0
  0
VERTEX
  8
0
 10
-0.295712883665
 20
11.5363595735
 30
0.0
  0
VERTEX
  8
0
 10
-0.34513453
 20
11.5439423602
 30
0.0
  0
VERTEX
  8
0
 10
-0.394580722679
 20
11.5513633971
 30
0.0
  0
VERTEX
  8
0
 10
-0.444051044979
 20
11.5586218369
 30
0.0
  0
VERTEX
  8
0
 10
-0.493545074297
 20
11.5657168195
 30
0.0
  0
VERTEX
  8
0
 10
-0.543062381994
 20
11.5726474711
 30
0.0
  0
VERTEX
  8
0
 10
-0.592602533231
 20
11.5794129042
 30
0.0
  0
VERTEX
  8
0
 10
-0.642165086794
 20
11.5860122172
 30
0.0
  0
VERTEX
  8
0
 10
-0.691749594917
 20
11.5924444933
 30
0.0
  0
VERTEX
  8
0
 10
-0.741355603089
 20
11.5987088011
 30
0.0
  0
VERTEX
  8
0
 10
-0.790982649861
 20
11.6048041929
 30
0.0
  0
VERTEX
  8
0
 10
-0.840630266639
 20
11.6107297051
 30
0.0
  0
VERTEX
  8
0
 10
-0.890297977468
 20
11.6164843572
 30
0.0
  0
VERTEX
  8
0
 10
-0.939985298807
 20
11.6220671514
 30
0.0
  0
VERTEX
  8
0
 10
-0.989691739294
 20
11.6274770719
 30
0.0
  0
VERTEX
  8
0
 10
-1.0394167995
 20
11.6327130841
 30
0.0
  0
VERTEX
  8
0
 10
-1.08915997165
 20
11.6377741345
 30
0.0
  0
VERTEX
  8
0
 10
-1.1389207394
 20
11.6426591493
 30
0.0
  0
VERTEX
  8
0
 10
-1.1886985775
 20
11.6473670342
 30
0.0
  0
VERTEX
  8
0
 10
-1.2384929515
 20
11.6518966734
 30
0.0
  0
VERTEX
  8
0
 10
-1.28830331746
 20
11.6562469289
 30
0.0
  0
VERTEX
  8
0
 10
-1.33812912162
 20
11.6604166396
 30
0.0
  0
VERTEX
  8
0
 10
-1.3879698
 20
11.6644046203
 30
0.0
  0
VERTEX
  8
0
 10
-1.4378247781
 20
11.668209661
 30
0.0
  0
VERTEX
  8
0
 10
-1.48769347045
 20
11.6718305258
 30
0.0
  0
VERTEX
  8
0
 10
-1.53757528025
 20
11.6752659519
 30
0.0
  0
VERTEX
  8
0
 10
-1.5874695989
 20
11.6785146482
 30
0.0
  0
VERTEX
  8
0
 10
-1.63737580556
 20
11.6815752949
 30
0.0
  0
VERTEX
  8
0
 10
-1.68729326666
 20
11.6844465413
 30
0.0
  0
VERTEX
  8
0
 10
-1.73722133541
 20
11.6871270052
 30
0.0
  0
VERTEX
  8
0
 10
-1.78715935121
 20
11.6896152714
 30
0.0
  0
VERTEX
  8
0
 10
-1.83710663913
 20
11.69190989
 30
0.0
  0
VERTEX
  8
0
 10
-1.88706250924
 20
11.6940093753
 30
0.0
  0
VERTEX
  8
0
 10
-1.93702625601
 20
11.6959122035
 30
0.0
  0
VERTEX
  8
0
 10
-1.98699715761
 20
11.6976168116
 30
0.0
  0
VERTEX
  8
0
 10
-2.03697447515
 20
11.6991215953
 30
0.0
  0
VERTEX
  8
0
 10
-2.08695745191
 20
11.700424907
 30
0.0
  0
VERTEX
  8
0
 10
-2.1369453125
 20
11.7015250536
 30
0.0
  0
VERTEX
  8
0
 10
-2.18693726199
 20
11.7024202946
 30
0.0
  0
VERTEX
  8
0
 10
-2.2369324849
 20
11.7031088392
 30
0.0
  0
VERTEX
  8
0
 10
-2.28693014422
 20
11.7035888443
 30
0.0
  0
VERTEX
  8
0
 10
-2.33692938031
 20
11.703858411
 30
0.0
  0
VERTEX
  8
0
 10
-2.38692930968
 20
11.7039155825
 30
0.0
  0
VERTEX
  8
0
 10
-2.43692902374
 20
11.7037583403
 30
0.0
  0
VERTEX
  8
0
 10
-2.48692758746
 20
11.7033846008
 30
0.0
  0
VERTEX
  8
0
 10
-2.53692403785
 20
11.702792212
 30
0.0
  0
VERTEX
  8
0
 10
-2.58691738235
 20
11.701978949
 30
0.0
  0
VERTEX
  8
0
 10
-2.63690659717
 20
11.7009425101
 30
0.0
  0
VERTEX
  8
0
 10
-2.68689062534
 20
11.6996805118
 30
0.0
  0
VERTEX
  8
0
 10
-2.7368683747
 20
11.6981904839
 30
0.0
  0
VERTEX
  8
0
 10
-2.7868387157
 20
11.6964698636
 30
0.0
  0
VERTEX
  8
0
 10
-2.83680047892
 20
11.6945159902
 30
0.0
  0
VERTEX
  8
0
 10
-2.88675245248
 20
11.6923260974
 30
0.0
  0
VERTEX
  8
0
 10
-2.9366933791
 20
11.6898973071
 30
0.0
  0
VERTEX
  8
0
 10
-2.98662195289
 20
11.6872266207
 30
0.0
  0
VERTEX
  8
0
 10
-3.03653681589
 20
11.6843109106
 30
0.0
  0
VERTEX
  8
0
 10
-3.08643655413
 20
11.6811469105
 30
0.0
  0
VERTEX
  8
0
 10
-3.13631969332
 20
11.6777312049
 30
0.0
  0
VERTEX
  8
0
 10
-3.18618469412
 20
11.6740602164
 30
0.0
  0
VERTEX
  8
0
 10
-3.23602994674
 20
11.6701301935
 30
0.0
  0
VERTEX
  8
0
 10
-3.28585376502
 20
11.6659371947
 30
0.0
  0
VERTEX
  8
0
 10
-3.33565437969
 20
11.6614770728
 30
0.0
  0
VERTEX
  8
0
 10
-3.38542993083
 20
11.656745455
 30
0.0
  0
VERTEX
  8
0
 10
-3.43517845934
 20
11.6517377228
 30
0.0
  0
VERTEX
  8
0
 10
-3.48489789716
 20
11.6464489869
 30
0.0
  0
VERTEX
  8
0
 10
-3.53458605618
 20
11.6408740599
 30
0.0
  0
VERTEX
  8
0
 10
-3.58424061549
 20
11.6350074248
 30
0.0
  0
VERTEX
  8
0
 10
-3.63385910658
 20
11.628843198
 30
0.0
  0
VERTEX
  8
0
 10
-3.68343889623
 20
11.6223750868
 30
0.0
  0
VERTEX
  8
0
 10
-3.73297716639
 20
11.6155963399
 30
0.0
  0
VERTEX
  8
0
 10
-3.78247089056
 20
11.6084996882
 30
0.0
  0
VERTEX
  8
0
 10
-3.83191680561
 20
11.6010772755
 30
0.0
  0
VERTEX
  8
0
 10
-3.88131137806
 20
11.5933205744
 30
0.0
  0
VERTEX
  8
0
 10
-3.9306507632
 20
11.5852202855
 30
0.0
  0
VERTEX
  8
0
 10
-3.97993075502
 20
11.5767662132
 30
0.0
  0
VERTEX
  8
0
 10
-4.02914672413
 20
11.5679471121
 30
0.0
  0
VERTEX
  8
0
 10
-4.07829353969
 20
11.5587504938
 30
0.0
  0
VERTEX
  8
0
 10
-4.12736546954
 20
11.5491623801
 30
0.0
  0
VERTEX
  8
0
 10
-4.1763560503
 20
11.5391669819
 30
0.0
  0
VERTEX
  8
0
 10
-4.22525791444
 20
11.5287462723
 30
0.0
  0
VERTEX
  8
0
 10
-4.27406255428
 20
11.5178794048
 30
0.0
  0
VERTEX
  8
0
 10
-4.32275999014
 20
11.5065418947
 30
0.0
  0
VERTEX
  8
0
 10
-4.37133828582
 20
11.4947044272
 30
0.0
  0
VERTEX
  8
0
 10
-4.41978280832
 20
11.482331039
 30
0.0
  0
VERTEX
  8
0
 10
-4.46807502926
 20
11.4693761812
 30
0.0
  0
VERTEX
  8
0
 10
-4.51619043283
 20
11.4557796181
 30
0.0
  0
VERTEX
  8
0
 10
-4.5640944982
 20
11.4414567251
 30
0.0
  0
VERTEX
  8
0
 10
-4.60274645794
 20
11.4292237167
 30
0.0
  0
SEQEND
  8
0
  0
POLYLINE
  8
0
 62
0
 70
0
 66
1
 10
0.0
 20
0.0
 30
0.0
  0
VERTEX
  8
0
 10
-6.17061999476
 20
14.684946663
 30
0.0
  0
VERTEX
  8
0
 10
-6.12915259745
 20
14.7128819484
 30
0.0
  0
VERTEX
  8
0
 10
-6.0881735959
 20
14.741529277
 30
0.0
  0
VERTEX
  8
0
 10
-6.0476208945
 20
14.7707771639
 30
0.0
  0
VERTEX
  8
0
 10
-6.00745285709
 20
14.8005512622
 30
0.0
  0
VERTEX
  8
0
 10
-5.96763943098
 20
14.8307979884
 30
0.0
  0
VERTEX
  8
0
 10
-5.92815767527
 20
14.8614764505
 30
0.0
  0
VERTEX
  8
0
 10
-5.88898935711
 20
14.892554139
 30
0.0
  0
VERTEX
  8
0
 10
-5.85011954409
 20
14.9240044123
 30
0.0
  0
VERTEX
  8
0
 10
-5.81153572103
 20
14.9558049218
 30
0.0
  0
VERTEX
  8
0
 10
-5.77322720493
 20
14.9879365703
 30
0.0
  0
VERTEX
  8
0
 10
-5.73518474043
 20
15.0203827924
 30
0.0
  0
VERTEX
  8
0
 10
-5.6974002099
 20
15.0531290395
 30
0.0
  0
VERTEX
  8
0
 10
-5.65986641976
 20
15.0861624001
 30
0.0
  0
VERTEX
  8
0
 10
-5.62257693892
 20
15.1194713131
 30
0.0
  0
VERTEX
  8
0
 10
-5.58552597419
 20
15.1530453467
 30
0.0
  0
VERTEX
  8
0
 10
-5.54870827234
 20
15.1868750251
 30
0.0
  0
VERTEX
  8
0
 10
-5.51211904203
 20
15.2209516893
 30
0.0
  0
VERTEX
  8
0
 10
-5.47575389063
 20
15.255267386
 30
0.0
  0
VERTEX
  8
0
 10
-5.43960877245
 20
15.2898147756
 30
0.0
  0
VERTEX
  8
0
 10
-5.40367994595
 20
15.3245870562
 30
0.0
  0
VERTEX
  8
0
 10
-5.36796393795
 20
15.3595779005
 30
0.0
  0
VERTEX
  8
0
 10
-5.33245751344
 20
15.3947814024
 30
0.0
  0
VERTEX
  8
0
 10
-5.29715764998
 20
15.4301920315
 30
0.0
  0
VERTEX
  8
0
 10
-5.2620615157
 20
15.4658045943
 30
0.0
  0
VERTEX
  8
0
 10
-5.22716645039
 20
15.501614201
 30
0.0
  0
VERTEX
  8
0
 10
-5.19246994914
 20
15.5376162362
 30
0.0
  0
VERTEX
  8
0
 10
-5.157969648
 20
15.5738063339
 30
0.0
  0
VERTEX
  8
0
 10
-5.12366331148
 20
15.610180355
 30
0.0
  0
VERTEX
  8
0
 10
-5.08954882148
 20
15.6467343684
 30
0.0
  0
VERTEX
  8
0
 10
-5.05562416758
 20
15.6834646332
 30
0.0
  0
VERTEX
  8
0
 10
-5.02188743831
 20
15.7203675836
 30
0.0
  0
VERTEX
  8
0
 10
-4.98833681348
 20
15.7574398154
 30
0.0
  0
VERTEX
  8
0
 10
-4.95497055721
 20
15.7946780737
 30
0.0
  0
VERTEX
  8
0
 10
-4.92178701176
 20
15.8320792419
 30
0.0
  0
VERTEX
  8
0
 10
-4.8887845919
 20
15.8696403319
 30
0.0
  0
VERTEX
  8
0
 10
-4.85596177989
 20
15.9073584751
 30
0.0
  0
VERTEX
  8
0
 10
-4.82331712084
 20
15.9452309145
 30
0.0
  0
VERTEX
  8
0
 10
-4.79084921861
 20
15.9832549971
 30
0.0
  0
VERTEX
  8
0
 10
-4.75855673196
 20
16.0214281675
 30
0.0
  0
VERTEX
  8
0
 10
-4.72643837113
 20
16.0597479617
 30
0.0
  0
VERTEX
  8
0
 10
-4.69449289465
 20
16.0982120014
 30
0.0
  0
VERTEX
  8
0
 10
-4.66271910641
 20
16.1368179891
 30
0.0
  0
VERTEX
  8
0
 10
-4.63111585304
 20
16.1755637033
 30
0.0
  0
VERTEX
  8
0
 10
-4.59968202139
 20
16.2144469941
 30
0.0
  0
VERTEX
  8
0
 10
-4.5684165363
 20
16.2534657791
 30
0.0
  0
VERTEX
  8
0
 10
-4.53731835846
 20
16.2926180403
 30
0.0
  0
VERTEX
  8
0
 10
-4.5063864825
 20
16.3319018199
 30
0.0
  0
VERTEX
  8
0
 10
-4.47561993519
 20
16.3713152176
 30
0.0
  0
VERTEX
  8
0
 10
-4.4450177737
 20
16.4108563877
 30
0.0
  0
VERTEX
  8
0
 10
-4.41457908414
 20
16.4505235361
 30
0.0
  0
VERTEX
  8
0
 10
-4.38430298002
 20
16.4903149178
 30
0.0
  0
VERTEX
  8
0
 10
-4.35418860092
 20
16.5302288348
 30
0.0
  0
VERTEX
  8
0
 10
-4.32423511125
 20
16.5702636335
 30
0.0
  0
VERTEX
  8
0
 10
-4.29444169903
 20
16.6104177029
 30
0.0
  0
VERTEX
  8
0
 10
-4.26480757481
 20
16.6506894727
 30
0.0
  0
VERTEX
  8
0
 10
-4.23533197059
 20
16.691077411
 30
0.0
  0
VERTEX
  8
0
 10
-4.20601413888
 20
16.7315800232
 30
0.0
  0
VERTEX
  8
0
 10
-4.17685335175
 20
16.7721958501
 30
0.0
  0
VERTEX
  8
0
 10
-4.14784889998
 20
16.8129234663
 30
0.0
  0
VERTEX
  8
0
 10
-4.11900009227
 20
16.853761479
 30
0.0
  0
VERTEX
  8
0
 10
-4.09030625442
 20
16.8947085265
 30
0.0
  0
VERTEX
  8
0
 10
-4.06176672863
 20
16.935763277
 30
0.0
  0
VERTEX
  8
0
 10
-4.03338087283
 20
16.9769244273
 30
0.0
  0
VERTEX
  8
0
 10
-4.00514806002
 20
17.018190702
 30
0.0
  0
VERTEX
  8
0
 10
-3.97706767763
 20
17.059560852
 30
0.0
  0
VERTEX
  8
0
 10
-3.94913912701
 20
17.1010336537
 30
0.0
  0
VERTEX
  8
0
 10
-3.92136182278
 20
17.142607908
 30
0.0
  0
VERTEX
  8
0
 10
-3.89373519241
 20
17.1842824396
 30
0.0
  0
VERTEX
  8
0
 10
-3.86625867565
 20
17.2260560957
 30
0.0
  0
VERTEX
  8
0
 10
-3.83893172409
 20
17.2679277456
 30
0.0
  0
VERTEX
  8
0
 10
-3.81175380072
 20
17.3098962798
 30
0.0
  0
VERTEX
  8
0
 10
-3.78472437946
 20
17.3519606091
 30
0.0
  0
VERTEX
  8
0
 10
-3.75784294482
 20
17.3941196641
 30
0.0
  0
VERTEX
  8
0
 10
-3.73110899146
 20
17.4363723943
 30
0.0
  0
VERTEX
  8
0
 10
-3.70452202384
 20
17.4787177677
 30
0.0
  0
VERTEX
  8
0
 10
-3.67808155589
 20
17.5211547702
 30
0.0
  0
VERTEX
  8
0
 10
-3.65178711062
 20
17.5636824047
 30
0.0
  0
VERTEX
  8
0
 10
-3.62563821985
 20
17.606299691
 30
0.0
  0
VERTEX
  8
0
 10
-3.59963442389
 20
17.6490056648
 30
0.0
  0
VERTEX
  8
0
 10
-3.57377527122
 20
17.6917993775
 30
0.0
  0
VERTEX
  8
0
 10
-3.54806031827
 20
17.7346798958
 30
0.0
  0
VERTEX
  8
0
 10
-3.52248912907
 20
17.7776463008
 30
0.0
  0
VERTEX
  8
0
 10
-3.49706127506
 20
17.820697688
 30
0.0
  0
VERTEX
  8
0
 10
-3.47177633483
 20
17.8638331666
 30
0.0
  0
VERTEX
  8
0
 10
-3.44663389384
 20
17.9070518594
 30
0.0
  0
VERTEX
  8
0
 10
-3.42163354426
 20
17.9503529019
 30
0.0
  0
VERTEX
  8
0
 10
-3.3967748847
 20
17.9937354425
 30
0.0
  0
VERTEX
  8
0
 10
-3.37205752003
 20
18.0371986417
 30
0.0
  0
VERTEX
  8
0
 10
-3.34748106117
 20
18.0807416721
 30
0.0
  0
VERTEX
  8
0
 10
-3.32304512489
 20
18.1243637177
 30
0.0
  0
VERTEX
  8
0
 10
-3.29874933364
 20
18.1680639739
 30
0.0
  0
VERTEX
  8
0
 10
-3.27459331535
 20
18.211841647
 30
0.0
  0
VERTEX
  8
0
 10
-3.25057670329
 20
18.255695954
 30
0.0
  0
VERTEX
  8
0
 10
-3.22669913589
 20
18.2996261224
 30
0.0
  0
VERTEX
  8
0
 10
-3.20296025656
 20
18.3436313896
 30
0.0
  0
VERTEX
  8
0
 10
-3.17935971356
 20
18.3877110031
 30
0.0
  0
VERTEX
  8
0
 10
-3.15589715986
 20
18.4318642198
 30
0.0
  0
VERTEX
  8
0
 10
-3.13257225298
 20
18.476090306
 30
0.0
  0
VERTEX
  8
0
 10
-3.10938465485
 20
18.5203885373
 30
0.0
  0
VERTEX
  8
0
 10
-3.08633403171
 20
18.564758198
 30
0.0
  0
VERTEX
  8
0
 10
-3.06342005393
 20
18.6091985812
 30
0.0
  0
VERTEX
  8
0
 10
-3.04064239594
 20
18.6537089884
 30
0.0
  0
VERTEX
  8
0
 10
-3.01800073607
 20
18.6982887294
 30
0.0
  0
VERTEX
  8
0
 10
-2.99549475646
 20
18.742937122
 30
0.0
  0
VERTEX
  8
0
 10
-2.97312414294
 20
18.787653492
 30
0.0
  0
VERTEX
  8
0
 10
-2.95088858493
 20
18.8324371728
 30
0.0
  0
VERTEX
  8
0
 10
-2.93295804318
 20
18.8687985387
 30
0.0
  0
SEQEND
  8
0
  0
POLYLINE
  8
0
 62
0
 70
0
 66
1
 10
0.0
 20
0.0
 30
0.0
  0
VERTEX
  8
0
 10
-4.13347737592
 20
20.629636996
 30
0.0
  0
VERTEX
  8
0
 10
-4.18329931966
 20
20.6254213059
 30
0.0
  0
VERTEX
  8
0
 10
-4.23310835372
 20
20.6210557322
 30
0.0
  0
VERTEX
  8
0
 10
-4.28290397573
 20
20.6165397472
 30
0.0
  0
VERTEX
  8
0
 10
-4.33268567761
 20
20.6118728171
 30
0.0
  0
VERTEX
  8
0
 10
-4.38245294534
 20
20.607054402
 30
0.0
  0
VERTEX
  8
0
 10
-4.43220525894
 20
20.6020839554
 30
0.0
  0
VERTEX
  8
0
 10
-4.48194209225
 20
20.5969609246
 30
0.0
  0
VERTEX
  8
0
 10
-4.53166291282
 20
20.59168475
 30
0.0
  0
VERTEX
  8
0
 10
-4.58136718177
 20
20.5862548653
 30
0.0
  0
VERTEX
  8
0
 10
-4.63105435362
 20
20.5806706968
 30
0.0
  0
VERTEX
  8
0
 10
-4.68072387615
 20
20.5749316639
 30
0.0
  0
VERTEX
  8
0
 10
-4.73037519021
 20
20.5690371782
 30
0.0
  0
VERTEX
  8
0
 10
-4.7800077296
 20
20.5629866437
 30
0.0
  0
VERTEX
  8
0
 10
-4.82962092082
 20
20.5567794567
 30
0.0
  0
VERTEX
  8
0
 10
-4.87921418298
 20
20.550415005
 30
0.0
  0
VERTEX
  8
0
 10
-4.9287869275
 20
20.5438926681
 30
0.0
  0
VERTEX
  8
0
 10
-4.97833855803
 20
20.537211817
 30
0.0
  0
VERTEX
  8
0
 10
-5.02786847015
 20
20.5303718136
 30
0.0
  0
VERTEX
  8
0
 10
-5.0773760512
 20
20.5233720108
 30
0.0
  0
VERTEX
  8
0
 10
-5.12686068006
 20
20.516211752
 30
0.0
  0
VERTEX
  8
0
 10
-5.17632172692
 20
20.5088903707
 30
0.0
  0
VERTEX
  8
0
 10
-5.22575855302
 20
20.5014071906
 30
0.0
  0
VERTEX
  8
0
 10
-5.27517051041
 20
20.4937615249
 30
0.0
  0
VERTEX
  8
0
 10
-5.3245569417
 20
20.485952676
 30
0.0
  0
VERTEX
  8
0
 10
-5.37391717977
 20
20.4779799356
 30
0.0
  0
VERTEX
  8
0
 10
-5.42325054751
 20
20.4698425836
 30
0.0
  0
VERTEX
  8
0
 10
-5.47255635751
 20
20.4615398884
 30
0.0
  0
VERTEX
  8
0
 10
-5.52183391175
 20
20.4530711063
 30
0.0
  0
VERTEX
  8
0
 10
-5.57108250128
 20
20.4444354808
 30
0.0
  0
VERTEX
  8
0
 10
-5.62030140588
 20
20.4356322426
 30
0.0
  0
VERTEX
  8
0
 10
-5.66948989374
 20
20.426660609
 30
0.0
  0
VERTEX
  8
0
 10
-5.71864722103
 20
20.4175197833
 30
0.0
  0
VERTEX
  8
0
 10
-5.76777263157
 20
20.4082089546
 30
0.0
  0
VERTEX
  8
0
 10
-5.81686535641
 20
20.3987272969
 30
0.0
  0
VERTEX
  8
0
 10
-5.86592461341
 20
20.389073969
 30
0.0
  0
VERTEX
  8
0
 10
-5.91494960678
 20
20.3792481137
 30
0.0
  0
VERTEX
  8
0
 10
-5.96393952662
 20
20.3692488572
 30
0.0
  0
VERTEX
  8
0
 10
-6.01289354847
 20
20.3590753087
 30
0.0
  0
VERTEX
  8
0
 10
-6.06181083274
 20
20.3487265594
 30
0.0
  0
VERTEX
  8
0
 10
-6.11069052423
 20
20.3382016821
 30
0.0
  0
VERTEX
  8
0
 10
-6.1595317515
 20
20.3274997306
 30
0.0
  0
VERTEX
  8
0
 10
-6.20833362633
 20
20.3166197387
 30
0.0
  0
VERTEX
  8
0
 10
-6.25709524308
 20
20.3055607194
 30
0.0
  0
VERTEX
  8
0
 10
-6.30581567799
 20
20.2943216642
 30
0.0
  0
VERTEX
  8
0
 10
-6.35449398854
 20
20.2829015424
 30
0.0
  0
VERTEX
  8
0
 10
-6.40312921267
 20
20.2712992997
 30
0.0
  0
VERTEX
  8
0
 10
-6.45172036803
 20
20.2595138577
 30
0.0
  0
VERTEX
  8
0
 10
-6.50026645112
 20
20.2475441127
 30
0.0
  0
VERTEX
  8
0
 10
-6.54876643648
 20
20.2353889346
 30
0.0
  0
VERTEX
  8
0
 10
-6.59721927569
 20
20.2230471655
 30
0.0
  0
VERTEX
  8
0
 10
-6.64562389646
 20
20.2105176192
 30
0.0
  0
VERTEX
  8
0
 10
-6.69397920156
 20
20.1977990789
 30
0.0
  0
VERTEX
  8
0
 10
-6.74228406771
 20
20.1848902969
 30
0.0
  0
VERTEX
  8
0
 10
-6.79053734443
 20
20.1717899923
 30
0.0
  0
VERTEX
  8
0
 10
-6.83873785276
 20
20.1584968497
 30
0.0
  0
VERTEX
  8
0
 10
-6.88688438396
 20
20.1450095179
 30
0.0
  0
VERTEX
  8
0
 10
-6.93497569808
 20
20.1313266075
 30
0.0
  0
VERTEX
  8
0
 10
-6.98301052242
 20
20.1174466897
 30
0.0
  0
VERTEX
  8
0
 10
-7.03098754995
 20
20.1033682935
 30
0.0
  0
VERTEX
  8
0
 10
-7.07890543752
 20
20.0890899045
 30
0.0
  0
VERTEX
  8
0
 10
-7.12676280404
 20
20.0746099616
 30
0.0
  0
VERTEX
  8
0
 10
-7.17455822843
 20
20.0599268553
 30
0.0
  0
VERTEX
  8
0
 10
-7.22229024753
 20
20.0450389244
 30
0.0
  0
VERTEX
  8
0
 10
-7.2699573537
 20
20.0299444538
 30
0.0
  0
VERTEX
  8
0
 10
-7.3175579924
 20
20.0146416707
 30
0.0
  0
VERTEX
  8
0
 10
-7.36509055941
 20
19.9991287417
 30
0.0
  0
VERTEX
  8
0
 10
-7.41255339795
 20
19.9834037691
 30
0.0
  0
VERTEX
  8
0
 10
-7.45994479546
 20
19.9674647869
 30
0.0
  0
VERTEX
  8
0
 10
-7.50726298019
 20
19.9513097565
 30
0.0
  0
VERTEX
  8
0
 10
-7.55450611743
 20
19.9349365621
 30
0.0
  0
VERTEX
  8
0
 10
-7.60167230538
 20
19.9183430055
 30
0.0
  0
VERTEX
  8
0
 10
-7.64875957069
 20
19.9015268008
 30
0.0
  0
VERTEX
  8
0
 10
-7.69576586354
 20
19.8844855683
 30
0.0
  0
VERTEX
  8
0
 10
-7.74268905225
 20
19.8672168275
 30
0.0
  0
VERTEX
  8
0
 10
-7.7895269173
 20
19.8497179901
 30
0.0
  0
VERTEX
  8
0
 10
-7.8362771448
 20
19.8319863516
 30
0.0
  0
VERTEX
  8
0
 10
-7.88293731915
 20
19.8140190828
 30
0.0
  0
VERTEX
  8
0
 10
-7.92950491504
 20
19.795813219
 30
0.0
  0
VERTEX
  8
0
 10
-7.97597728834
 20
19.7773656499
 30
0.0
  0
VERTEX
  8
0
 10
-8.0223516661
 20
19.7586731061
 30
0.0
  0
VERTEX
  8
0
 10
-8.06862513515
 20
19.7397321459
 30
0.0
  0
VERTEX
  8
0
 10
-8.11479462942
 20
19.7205391394
 30
0.0
  0
VERTEX
  8
0
 10
-8.1608569154
 20
19.7010902505
 30
0.0
  0
VERTEX
  8
0
 10
-8.20680857581
 20
19.6813814167
 30
0.0
  0
VERTEX
  8
0
 10
-8.25264599077
 20
19.6614083261
 30
0.0
  0
VERTEX
  8
0
 10
-8.29836531627
 20
19.6411663909
 30
0.0
  0
VERTEX
  8
0
 10
-8.34396245927
 20
19.6206507163
 30
0.0
  0
VERTEX
  8
0
 10
-8.38943304874
 20
19.5998560657
 30
0.0
  0
VERTEX
  8
0
 10
-8.43477240183
 20
19.578776818
 30
0.0
  0
VERTEX
  8
0
 10
-8.4799754839
 20
19.5574069193
 30
0.0
  0
VERTEX
  8
0
 10
-8.52503686111
 20
19.5357398242
 30
0.0
  0
VERTEX
  8
0
 10
-8.56995064351
 20
19.5137684258
 30
0.0
  0
VERTEX
  8
0
 10
-8.61471041614
 20
19.491484971
 30
0.0
  0
VERTEX
  8
0
 10
-8.65930915465
 20
19.4688809568
 30
0.0
  0
VERTEX
  8
0
 10
-8.70373912067
 20
19.4459470021
 30
0.0
  0
VERTEX
  8
0
 10
-8.74799173027
 20
19.4226726855
 30
0.0
  0
VERTEX
  8
0
 10
-8.79205738583
 20
19.3990463395
 30
0.0
  0
VERTEX
  8
0
 10
-8.8359252572
 20
19.3750547816
 30
0.0
  0
VERTEX
  8
0
 10
-8.87958299066
 20
19.3506829575
 30
0.0
  0
VERTEX
  8
0
 10
-8.92301631185
 20
19.3259134543
 30
0.0
  0
VERTEX
  8
0
 10
-8.9662084675
 20
19.3007258167
 30
0.0
  0
VERTEX
  8
0
 10
-9.00913941102
 20
19.2750955507
 30
0.0
  0
VERTEX
  8
0
 10
-9.05178455911
 20
19.2489926037
 30
0.0
  0
VERTEX
  8
0
 10
-9.09411278079
 20
19.2223789119
 30
0.0
  0
VERTEX
  8
0
 10
-9.13608289465
 20
19.1952041417
 30
0.0
  0
VERTEX
  8
0
 10
-9.17763696999
 20
19.1673976036
 30
0.0
  0
VERTEX
  8
0
 10
-9.21096598908
 20
19.1443152083
 30
0.0
  0
SEQEND
  8
0
  0
ARC
  8
0
 62
0
 10
-32.5
 20
8.881784197e-15
 30
0.0
 40
20.0
 50
180.0
 51
-90.0
  0
LINE
  8
0
 62
0
 10
-32.5
 20
-20.0
 30
0.0
 11
-12.4753834713
 21
-20.0159641818
 31
0.0
  0
ARC
  8
0
 62
0
 10
-11.4028335676
 20
-20.4132056281
 30
0.0
 40
1.14375
 50
135.985746337
 51
159.676828354
  0
ARC
  8
0
 62
0
 10
-32.5
 20
1.33599797891e-11
 30
0.0
 40
28.2125
 50
-44.057724243
 51
-41.6565614713
  0
ARC
  8
0
 62
0
 10
-10.5672806132
 20
-19.5126937091
 30
0.0
 40
1.14375
 50
50.5745972765
 51
138.299967948
  0
LINE
  8
0
 62
0
 10
-9.84091581124
 20
-18.6292016395
 30
0.0
 11
-9.21096598908
 21
-19.1443152083
 31
0.0
  0
ARC
  8
0
 62
0
 10
-32.5001661097
 20
0.000113251687814
 30
0.0
 40
35.075
 50
-36.0266219087
 51
-32.5448066628
  0
LINE
  8
0
 62
0
 10
-6.17061999476
 20
-14.684946663
 30
0.0
 11
-6.88027220682
 21
-14.2867350295
 31
0.0
  0
ARC
  8
0
 62
0
 10
-6.32322349291
 20
-13.2878052057
 30
0.0
 40
1.14375
 50
153.12860348
 51
-119.146025848
  0
ARC
  8
0
 62
0
 10
-32.5
 20
1.23696608512e-11
 30
0.0
 40
28.2125
 50
-26.9148671001
 51
-24.5137043284
  0
ARC
  8
0
 62
0
 10
-5.79022235954
 20
-12.1810169479
 30
0.0
 40
1.14375
 50
67.7174544194
 51
155.442825091
  0
LINE
  8
0
 62
0
 10
-5.35654176681
 20
-11.1226761682
 30
0.0
 11
-4.60274645794
 21
-11.4292237167
 31
0.0
  0
ARC
  8
0
 62
0
 10
-32.5001921114
 20
5.92585232475e-05
 30
0.0
 40
35.075
 50
-18.8837647658
 51
-15.4019495199
  0
LINE
  8
0
 62
0
 10
-3.0118964589
 20
-6.27181469005
 30
0.0
 11
-3.80739575381
 21
-6.10046814364
 31
0.0
  0
ARC
  8
0
 62
0
 10
-3.56953488572
 20
-4.98172497832
 30
0.0
 40
1.14375
 50
170.271460623
 51
-102.003168705
  0
ARC
  8
0
 62
0
 10
-32.5000000001
 20
8.26450019531e-12
 30
0.0
 40
28.2125000001
 50
-9.77200995727
 51
-7.37084718559
  0
ARC
  8
0
 62
0
 10
-3.3864450632
 20
-3.76700337535
 30
0.0
 40
1.14375
 50
84.8603115622
 51
172.585682234
  0
LINE
  8
0
 62
0
 10
-3.28398310349
 20
-2.62785210826
 30
0.0
 11
-2.47332032908
 21
-2.69859554156
 31
0.0
  0
ARC
  8
0
 62
0
 10
-32.5002010432
 20
3.88578058619e-16
 30
0.0
 40
35.075
 50
-1.74090762294
 51
1.74090762294
  0
LINE
  8
0
 62
0
 10
-2.47332032908
 20
2.69859554156
 30
0.0
 11
-3.28398310349
 21
2.62785210826
 31
0.0
  0
ARC
  8
0
 62
0
 10
-3.3864450632
 20
3.76700337535
 30
0.0
 40
1.14375
 50
-172.585682234
 51
-84.8603115622
  0
ARC
  8
0
 62
0
 10
-32.5
 20
-4.4273473776e-12
 30
0.0
 40
28.2125
 50
7.37084718559
 51
9.77200995727
  0
ARC
  8
0
 62
0
 10
-3.56953488572
 20
4.98172497832
 30
0.0
 40
1.14375
 50
102.003168705
 51
-170.271460623
  0
LINE
  8
0
 62
0
 10
-3.80739575381
 20
6.10046814364
 30
0.0
 11
-3.0118964589
 21
6.27181469005
 31
0.0
  0
ARC
  8
0
 62
0
 10
-32.5001921114
 20
-5.92585293928e-05
 30
0.0
 40
35.075
 50
15.4019495199
 51
18.8837647658
  0
LINE
  8
0
 62
0
 10
-4.60274645794
 20
11.4292237167
 30
0.0
 11
-5.35654176681
 21
11.1226761682
 31
0.0
  0
ARC
  8
0
 62
0
 10
-5.79022235954
 20
12.1810169479
 30
0.0
 40
1.14375
 50
-155.442825091
 51
-67.7174544194
  0
ARC
  8
0
 62
0
 10
-32.5
 20
-7.17914616644e-12
 30
0.0
 40
28.2125
 50
24.5137043284
 51
26.9148671001
  0
ARC
  8
0
 62
0
 10
-6.32322349291
 20
13.2878052057
 30
0.0
 40
1.14375
 50
119.146025848
 51
-153.12860348
  0
LINE
  8
0
 62
0
 10
-6.88027220682
 20
14.2867350295
 30
0.0
 11
-6.17061999476
 21
14.684946663
 31
0.0
  0
ARC
  8
0
 62
0
 10
-32.5001661097
 20
-0.000113251671612
 30
0.0
 40
35.075
 50
32.5448066628
 51
36.0266219087
  0
LINE
  8
0
 62
0
 10
-9.21096598908
 20
19.1443152083
 30
0.0
 11
-9.84091581124
 21
18.6292016395
 31
0.0
  0
LINE
  8
0
 62
0
 10
-20.0
 20
119.933259094
 30
0.0
 11
-20.0
 21
114.933259094
 31
0.0
  0
LINE
  8
0
 62
0
 10
-20.0
 20
119.933259094
 30
0.0
 11
-35.7724392383
 21
119.933259094
 31
0.0
  0
ARC
  8
0
 62
0
 10
1.42108547152e-14
 20
85.0
 30
0.0
 40
36.0
 50
123.748988596
 51
-109.432799958
  0
ARC
  8
0
 62
0
 10
-2.13162820728e-14
 20
85.0
 30
0.0
 40
50.0
 50
135.679990781
 51
-174.559667969
  0
LINE
  8
0
 62
0
 10
-11.9772374945
 20
51.0508353269
 30
0.0
 11
-11.9772374945
 21
19.3587544897
 31
0.0
  0
LINE
  8
0
 62
0
 10
-49.7747736297
 20
80.2595453686
 30
0.0
 11
-49.7747736297
 21
46.907085
 31
0.0
  0
LINE
  8
0
 62
0
 10
-52.5
 20
40.0
 30
0.0
 11
-49.7747736297
 21
46.907085
 31
0.0
  0
ARC
  8
0
 62
0
 10
-32.5
 20
-4.27426982696e-11
 30
0.0
 40
28.2125000001
 50
41.6565614713
 51
43.328202544
  0
ARC
  8
0
 62
0
 10
-10.5672806132
 20
19.5126937091
 30
0.0
 40
1.14375
 50
-138.299967948
 51
-50.5745972765
  0
CIRCLE
  8
0
 62
0
 10
-32.5
 20
0.0
 30
0.0
 40
2.5
  0
CIRCLE
  8
0
 62
0
 10
-38.0
 20
30.0
 30
0.0
 40
0.5
  0
LINE
  8
0
 62
0
 10
-52.5
 20
22.2075742559
 30
0.0
 11
-52.5
 21
40.0
 31
0.0
  0
LINE
  8
0
 62
0
 10
-52.5
 20
22.2075742559
 30
0.0
 11
-52.5
 21
10.0
 31
0.0
  0
LINE
  8
0
 62
0
 10
-52.5
 20
10.0
 30
0.0
 11
-52.5
 21
-3.19744231092e-14
 31
0.0
  0
ENDBLK
  0
ENDSEC
  0
SECTION
  2
ENTITIES
  0
INSERT
  2
CUT005002
  8
0
 10
0.0
 20
0.0
 30
0.0
  0
ENDSEC
  0
EOF
