  0
SECTION
  2
HEADER
  9
$ACADVER
  1
AC1009
  9
$INSBASE
 10
0.0
 20
0.0
 30
0.0
  9
$EXTMIN
 10
0.0
 20
0.0
 30
0.0
  9
$EXTMAX
 10
0.0
 20
0.0
 30
0.0
  0
ENDSEC
  0
SECTION
  2
TABLES
  0
TABLE
  2
VPORT
 70
0
  0
ENDTAB
  0
TABLE
  2
LTYPE
 70
1
  0
LTYPE
  2
CONTINUOUS
 70
0
  3
Solid line
 72
65
 73
0
 40
0.0
  0
ENDTAB
  0
TABLE
  2
LAYER
 70
1
  0
LAYER
  2
0
 70
64
 62
7
  6
continuous
  0
ENDTAB
  0
TABLE
  2
STYLE
 70
1
  0
STYLE
  2
STANDARD
 70
0
 40
0
 41
1.0
 50
0.0
 71
0
 42
1
 3
ARIAL.TTF
 4

  0
ENDTAB
  0
TABLE
  2
VIEW
 70
0
  0
ENDTAB
  0
ENDSEC
  0
SECTION
  2
BLOCKS
  0
BLOCK
  8
0
  2
CUT
 70
0
 10
0.0
 20
0.0
 30
0.0
  3
CUT
  0
LINE
  8
0
 62
0
 10
-56.5685424949
 20
0.0
 30
0.0
 11
-28.2842712475
 21
28.2842712475
 31
0.0
  0
LINE
  8
0
 62
0
 10
-28.2842712475
 20
28.2842712475
 30
0.0
 11
0.0
 21
56.5685424949
 31
0.0
  0
LINE
  8
0
 62
0
 10
0.0
 20
-56.5685424949
 30
0.0
 11
-28.2842712475
 21
-28.2842712475
 31
0.0
  0
LINE
  8
0
 62
0
 10
-28.2842712475
 20
-28.2842712475
 30
0.0
 11
-56.5685424949
 21
0.0
 31
0.0
  0
ARC
  8
0
 62
0
 10
7.1054273576e-15
 20
-1.7763568394e-15
 30
0.0
 40
40.0
 50
135.0
 51
-135.0
  0
CIRCLE
  8
0
 62
0
 10
-45.0
 20
0.0
 30
0.0
 40
1.5
  0
LINE
  8
0
 62
0
 10
-4.34861043394e-16
 20
56.5685424949
 30
0.0
 11
28.2842712475
 21
28.2842712475
 31
0.0
  0
LINE
  8
0
 62
0
 10
28.2842712475
 20
28.2842712475
 30
0.0
 11
56.5685424949
 21
0.0
 31
0.0
  0
ARC
  8
0
 62
0
 10
0.0
 20
-7.1054273576e-15
 30
0.0
 40
40.0
 50
45.0
 51
135.0
  0
CIRCLE
  8
0
 62
0
 10
0.0
 20
45.0
 30
0.0
 40
1.5
  0
LINE
  8
0
 62
0
 10
56.5685424949
 20
0.0
 30
0.0
 11
28.2842712475
 21
-28.2842712475
 31
0.0
  0
LINE
  8
0
 62
0
 10
28.2842712475
 20
-28.2842712475
 30
0.0
 11
0.0
 21
-56.5685424949
 31
0.0
  0
ARC
  8
0
 62
0
 10
0.0
 20
1.42108547152e-14
 30
0.0
 40
40.0
 50
-135.0
 51
-45.0
  0
CIRCLE
  8
0
 62
0
 10
0.0
 20
-45.0
 30
0.0
 40
1.5
  0
CIRCLE
  8
0
 62
0
 10
45.0
 20
0.0
 30
0.0
 40
1.5
  0
CIRCLE
  8
0
 62
0
 10
0.0
 20
0.0
 30
0.0
 40
2.0
  0
ARC
  8
0
 62
0
 10
-4.61852778244e-14
 20
-1.90958360236e-14
 30
0.0
 40
40.0
 50
0.0
 51
45.0
  0
ARC
  8
0
 62
0
 10
-7.81597009336e-14
 20
3.28626015289e-14
 30
0.0
 40
40.0
 50
-45.0
 51
0.0
  0
CIRCLE
  8
0
 62
0
 10
0.0
 20
0.0
 30
0.0
 40
37.0
  0
CIRCLE
  8
0
 62
0
 10
-21.5
 20
-13.1
 30
0.0
 40
1.6
  0
LINE
  8
0
 62
0
 10
-6.0
 20
-28.0
 30
0.0
 11
-8.0
 21
-28.0
 31
0.0
  0
LINE
  8
0
 62
0
 10
-6.0
 20
-4.5
 30
0.0
 11
-6.0
 21
-28.0
 31
0.0
  0
LINE
  8
0
 62
0
 10
10.0
 20
-4.5
 30
0.0
 11
-6.0
 21
-4.5
 31
0.0
  0
LINE
  8
0
 62
0
 10
10.0
 20
-28.0
 30
0.0
 11
10.0
 21
-4.5
 31
0.0
  0
LINE
  8
0
 62
0
 10
12.0
 20
-28.0
 30
0.0
 11
10.0
 21
-28.0
 31
0.0
  0
LINE
  8
0
 62
0
 10
12.0
 20
-4.5
 30
0.0
 11
12.0
 21
-28.0
 31
0.0
  0
LINE
  8
0
 62
0
 10
29.5
 20
-4.5
 30
0.0
 11
12.0
 21
-4.5
 31
0.0
  0
LINE
  8
0
 62
0
 10
29.5
 20
-2.5
 30
0.0
 11
29.5
 21
-4.5
 31
0.0
  0
LINE
  8
0
 62
0
 10
12.0
 20
-2.5
 30
0.0
 11
29.5
 21
-2.5
 31
0.0
  0
LINE
  8
0
 62
0
 10
12.0
 20
27.5
 30
0.0
 11
12.0
 21
-2.5
 31
0.0
  0
LINE
  8
0
 62
0
 10
10.0
 20
27.5
 30
0.0
 11
12.0
 21
27.5
 31
0.0
  0
LINE
  8
0
 62
0
 10
10.0
 20
-2.5
 30
0.0
 11
10.0
 21
27.5
 31
0.0
  0
LINE
  8
0
 62
0
 10
-6.0
 20
-2.5
 30
0.0
 11
10.0
 21
-2.5
 31
0.0
  0
LINE
  8
0
 62
0
 10
-6.0
 20
27.5
 30
0.0
 11
-6.0
 21
-2.5
 31
0.0
  0
LINE
  8
0
 62
0
 10
-8.0
 20
27.5
 30
0.0
 11
-6.0
 21
27.5
 31
0.0
  0
LINE
  8
0
 62
0
 10
-8.0
 20
-2.5
 30
0.0
 11
-8.0
 21
27.5
 31
0.0
  0
LINE
  8
0
 62
0
 10
-35.5
 20
-2.5
 30
0.0
 11
-8.0
 21
-2.5
 31
0.0
  0
LINE
  8
0
 62
0
 10
-35.5
 20
-4.5
 30
0.0
 11
-35.5
 21
-2.5
 31
0.0
  0
LINE
  8
0
 62
0
 10
-8.0
 20
-4.5
 30
0.0
 11
-35.5
 21
-4.5
 31
0.0
  0
LINE
  8
0
 62
0
 10
-8.0
 20
-28.0
 30
0.0
 11
-8.0
 21
-4.5
 31
0.0
  0
CIRCLE
  8
0
 62
0
 10
-21.5
 20
-13.1
 30
0.0
 40
1.6
  0
LINE
  8
0
 62
0
 10
10.0
 20
-4.5
 30
0.0
 11
-6.0
 21
-4.5
 31
0.0
  0
LINE
  8
0
 62
0
 10
10.0
 20
-28.0
 30
0.0
 11
10.0
 21
-4.5
 31
0.0
  0
LINE
  8
0
 62
0
 10
10.0
 20
27.5
 30
0.0
 11
12.0
 21
27.5
 31
0.0
  0
LINE
  8
0
 62
0
 10
10.0
 20
-2.5
 30
0.0
 11
10.0
 21
27.5
 31
0.0
  0
LINE
  8
0
 62
0
 10
-8.0
 20
27.5
 30
0.0
 11
-6.0
 21
27.5
 31
0.0
  0
LINE
  8
0
 62
0
 10
-35.5
 20
-4.5
 30
0.0
 11
-35.5
 21
-2.5
 31
0.0
  0
LINE
  8
0
 62
0
 10
-8.0
 20
-4.5
 30
0.0
 11
-35.5
 21
-4.5
 31
0.0
  0
LINE
  8
0
 62
0
 10
-8.0
 20
-28.0
 30
0.0
 11
-8.0
 21
-4.5
 31
0.0
  0
ENDBLK
  0
ENDSEC
  0
SECTION
  2
ENTITIES
  0
INSERT
  2
CUT
  8
0
 10
0.0
 20
0.0
 30
0.0
  0
ENDSEC
  0
EOF
