  0
SECTION
  2
HEADER
  9
$ACADVER
  1
AC1009
  9
$INSBASE
 10
0.0
 20
0.0
 30
0.0
  9
$EXTMIN
 10
0.0
 20
0.0
 30
0.0
  9
$EXTMAX
 10
0.0
 20
0.0
 30
0.0
  0
ENDSEC
  0
SECTION
  2
TABLES
  0
TABLE
  2
VPORT
 70
0
  0
ENDTAB
  0
TABLE
  2
LTYPE
 70
1
  0
LTYPE
  2
CONTINUOUS
 70
0
  3
Solid line
 72
65
 73
0
 40
0.0
  0
ENDTAB
  0
TABLE
  2
LAYER
 70
1
  0
LAYER
  2
0
 70
64
 62
7
  6
continuous
  0
ENDTAB
  0
TABLE
  2
STYLE
 70
1
  0
STYLE
  2
STANDARD
 70
0
 40
0
 41
1.0
 50
0.0
 71
0
 42
1
 3
ARIAL.TTF
 4

  0
ENDTAB
  0
TABLE
  2
VIEW
 70
0
  0
ENDTAB
  0
ENDSEC
  0
SECTION
  2
BLOCKS
  0
BLOCK
  8
0
  2
EXTRUDE
 70
0
 10
0.0
 20
0.0
 30
0.0
  3
EXTRUDE
  0
ARC
  8
0
 62
7
 10
164.610232073
 20
63.6787745675
 30
0.0
 40
10.0
 50
-44.9999986436
 51
49.9997995635
  0
LINE
  8
0
 62
7
 10
171.038134968
 20
71.3391965121
 30
0.0
 11
47.5
 21
175.0
 31
0.0
  0
LINE
  8
0
 62
7
 10
47.5
 20
175.0
 30
0.0
 11
-102.5
 21
175.0
 31
0.0
  0
LINE
  8
0
 62
7
 10
-102.5
 20
175.0
 30
0.0
 11
-152.5
 21
125.0
 31
0.0
  0
LINE
  8
0
 62
7
 10
-152.5
 20
125.0
 30
0.0
 11
-152.5
 21
-125.0
 31
0.0
  0
LINE
  8
0
 62
7
 10
-152.5
 20
-125.0
 30
0.0
 11
-102.5
 21
-175.0
 31
0.0
  0
LINE
  8
0
 62
7
 10
-102.5
 20
-175.0
 30
0.0
 11
47.5
 21
-175.0
 31
0.0
  0
LINE
  8
0
 62
7
 10
47.5
 20
-175.0
 30
0.0
 11
171.038134968
 21
-71.3391965121
 31
0.0
  0
ARC
  8
0
 62
7
 10
164.610232073
 20
-63.6787745675
 30
0.0
 40
10.0
 50
-49.9997995635
 51
44.9999986436
  0
LINE
  8
0
 62
7
 10
136.28679677
 20
-21.2132036408
 30
0.0
 11
171.681300052
 21
-56.607706923
 31
0.0
  0
ARC
  8
0
 62
7
 10
157.5
 20
4.4408920985e-15
 30
0.0
 40
30.0
 50
134.999999446
 51
-134.999999446
  0
LINE
  8
0
 62
7
 10
171.681300052
 20
56.607706923
 30
0.0
 11
136.28679677
 21
21.2132036408
 31
0.0
  0
LINE
  8
0
 62
7
 10
-37.5
 20
-105.0
 30
0.0
 11
37.5
 21
-105.0
 31
0.0
  0
LINE
  8
0
 62
7
 10
37.5
 20
-105.0
 30
0.0
 11
37.5
 21
-165.0
 31
0.0
  0
LINE
  8
0
 62
7
 10
37.5
 20
-165.0
 30
0.0
 11
-37.5
 21
-165.0
 31
0.0
  0
LINE
  8
0
 62
7
 10
-37.5
 20
-165.0
 30
0.0
 11
-37.5
 21
-105.0
 31
0.0
  0
LINE
  8
0
 62
7
 10
-37.5
 20
165.0
 30
0.0
 11
37.5
 21
165.0
 31
0.0
  0
LINE
  8
0
 62
7
 10
37.5
 20
165.0
 30
0.0
 11
37.5
 21
105.0
 31
0.0
  0
LINE
  8
0
 62
7
 10
37.5
 20
105.0
 30
0.0
 11
-37.5
 21
105.0
 31
0.0
  0
LINE
  8
0
 62
7
 10
-37.5
 20
105.0
 30
0.0
 11
-37.5
 21
165.0
 31
0.0
  0
LINE
  8
0
 62
7
 10
-25.0
 20
-95.0
 30
0.0
 11
25.0
 21
-95.0
 31
0.0
  0
LINE
  8
0
 62
7
 10
25.0
 20
-95.0
 30
0.0
 11
25.0
 21
-33.0
 31
0.0
  0
LINE
  8
0
 62
7
 10
25.0
 20
-33.0
 30
0.0
 11
-25.0
 21
-33.0
 31
0.0
  0
LINE
  8
0
 62
7
 10
-25.0
 20
-33.0
 30
0.0
 11
-25.0
 21
-95.0
 31
0.0
  0
LINE
  8
0
 62
7
 10
-25.0
 20
33.0
 30
0.0
 11
25.0
 21
33.0
 31
0.0
  0
LINE
  8
0
 62
7
 10
25.0
 20
33.0
 30
0.0
 11
25.0
 21
95.0
 31
0.0
  0
LINE
  8
0
 62
7
 10
25.0
 20
95.0
 30
0.0
 11
-25.0
 21
95.0
 31
0.0
  0
LINE
  8
0
 62
7
 10
-25.0
 20
95.0
 30
0.0
 11
-25.0
 21
33.0
 31
0.0
  0
CIRCLE
  8
0
 62
7
 10
-134.5
 20
0.0
 30
0.0
 40
16.0
  0
CIRCLE
  8
0
 62
7
 10
124.0
 20
-89.5
 30
0.0
 40
16.0
  0
CIRCLE
  8
0
 62
7
 10
124.0
 20
89.5
 30
0.0
 40
16.0
  0
ENDBLK
  0
ENDSEC
  0
SECTION
  2
ENTITIES
  0
INSERT
  2
EXTRUDE
  8
0
 10
0.0
 20
0.0
 30
0.0
  0
ENDSEC
  0
EOF
